<?xml version="1.0" encoding="utf-8" standalone="no"?>
<!DOCTYPE svg PUBLIC "-//W3C//DTD SVG 1.1//EN"
  "http://www.w3.org/Graphics/SVG/1.1/DTD/svg11.dtd">
<!-- Created with matplotlib (https://matplotlib.org/) -->
<svg height="576pt" version="1.1" viewBox="0 0 936 576" width="936pt" xmlns="http://www.w3.org/2000/svg" xmlns:xlink="http://www.w3.org/1999/xlink">
 <defs>
  <style type="text/css">
*{stroke-linecap:butt;stroke-linejoin:round;}
  </style>
 </defs>
 <g id="figure_1">
  <g id="patch_1">
   <path d="M 0 576 
L 936 576 
L 936 0 
L 0 0 
z
" style="fill:#ffffff;"/>
  </g>
  <g id="axes_1">
   <g id="patch_2">
    <path d="M 0 576 
L 936 576 
L 936 0 
L 0 0 
z
" style="fill:#ffffff;"/>
   </g>
   <g id="matplotlib.axis_1">
    <g id="xtick_1">
     <g id="line2d_1">
      <path clip-path="url(#p8d992462f2)" d="M 42.545455 576 
L 42.545455 0 
" style="fill:none;stroke:#b0b0b0;stroke-linecap:square;stroke-width:0.8;"/>
     </g>
     <g id="line2d_2">
      <defs>
       <path d="M 0 0 
L 0 3.5 
" id="m4bc1a82aaf" style="stroke:#000000;stroke-width:0.8;"/>
      </defs>
      <g>
       <use style="stroke:#000000;stroke-width:0.8;" x="42.545455" xlink:href="#m4bc1a82aaf" y="576"/>
      </g>
     </g>
     <g id="text_1">
      <!-- −20 -->
      <defs>
       <path d="M 10.59375 35.5 
L 73.1875 35.5 
L 73.1875 27.203125 
L 10.59375 27.203125 
z
" id="DejaVuSans-8722"/>
       <path d="M 19.1875 8.296875 
L 53.609375 8.296875 
L 53.609375 0 
L 7.328125 0 
L 7.328125 8.296875 
Q 12.9375 14.109375 22.625 23.890625 
Q 32.328125 33.6875 34.8125 36.53125 
Q 39.546875 41.84375 41.421875 45.53125 
Q 43.3125 49.21875 43.3125 52.78125 
Q 43.3125 58.59375 39.234375 62.25 
Q 35.15625 65.921875 28.609375 65.921875 
Q 23.96875 65.921875 18.8125 64.3125 
Q 13.671875 62.703125 7.8125 59.421875 
L 7.8125 69.390625 
Q 13.765625 71.78125 18.9375 73 
Q 24.125 74.21875 28.421875 74.21875 
Q 39.75 74.21875 46.484375 68.546875 
Q 53.21875 62.890625 53.21875 53.421875 
Q 53.21875 48.921875 51.53125 44.890625 
Q 49.859375 40.875 45.40625 35.40625 
Q 44.1875 33.984375 37.640625 27.21875 
Q 31.109375 20.453125 19.1875 8.296875 
z
" id="DejaVuSans-50"/>
       <path d="M 31.78125 66.40625 
Q 24.171875 66.40625 20.328125 58.90625 
Q 16.5 51.421875 16.5 36.375 
Q 16.5 21.390625 20.328125 13.890625 
Q 24.171875 6.390625 31.78125 6.390625 
Q 39.453125 6.390625 43.28125 13.890625 
Q 47.125 21.390625 47.125 36.375 
Q 47.125 51.421875 43.28125 58.90625 
Q 39.453125 66.40625 31.78125 66.40625 
z
M 31.78125 74.21875 
Q 44.046875 74.21875 50.515625 64.515625 
Q 56.984375 54.828125 56.984375 36.375 
Q 56.984375 17.96875 50.515625 8.265625 
Q 44.046875 -1.421875 31.78125 -1.421875 
Q 19.53125 -1.421875 13.0625 8.265625 
Q 6.59375 17.96875 6.59375 36.375 
Q 6.59375 54.828125 13.0625 64.515625 
Q 19.53125 74.21875 31.78125 74.21875 
z
" id="DejaVuSans-48"/>
      </defs>
      <g transform="translate(31.993111 590.598438)scale(0.1 -0.1)">
       <use xlink:href="#DejaVuSans-8722"/>
       <use x="83.789062" xlink:href="#DejaVuSans-50"/>
       <use x="147.412109" xlink:href="#DejaVuSans-48"/>
      </g>
     </g>
    </g>
    <g id="xtick_2">
     <g id="line2d_3">
      <path clip-path="url(#p8d992462f2)" d="M 148.935688 576 
L 148.935688 0 
" style="fill:none;stroke:#b0b0b0;stroke-linecap:square;stroke-width:0.8;"/>
     </g>
     <g id="line2d_4">
      <g>
       <use style="stroke:#000000;stroke-width:0.8;" x="148.935688" xlink:href="#m4bc1a82aaf" y="576"/>
      </g>
     </g>
     <g id="text_2">
      <!-- −15 -->
      <defs>
       <path d="M 12.40625 8.296875 
L 28.515625 8.296875 
L 28.515625 63.921875 
L 10.984375 60.40625 
L 10.984375 69.390625 
L 28.421875 72.90625 
L 38.28125 72.90625 
L 38.28125 8.296875 
L 54.390625 8.296875 
L 54.390625 0 
L 12.40625 0 
z
" id="DejaVuSans-49"/>
       <path d="M 10.796875 72.90625 
L 49.515625 72.90625 
L 49.515625 64.59375 
L 19.828125 64.59375 
L 19.828125 46.734375 
Q 21.96875 47.46875 24.109375 47.828125 
Q 26.265625 48.1875 28.421875 48.1875 
Q 40.625 48.1875 47.75 41.5 
Q 54.890625 34.8125 54.890625 23.390625 
Q 54.890625 11.625 47.5625 5.09375 
Q 40.234375 -1.421875 26.90625 -1.421875 
Q 22.3125 -1.421875 17.546875 -0.640625 
Q 12.796875 0.140625 7.71875 1.703125 
L 7.71875 11.625 
Q 12.109375 9.234375 16.796875 8.0625 
Q 21.484375 6.890625 26.703125 6.890625 
Q 35.15625 6.890625 40.078125 11.328125 
Q 45.015625 15.765625 45.015625 23.390625 
Q 45.015625 31 40.078125 35.4375 
Q 35.15625 39.890625 26.703125 39.890625 
Q 22.75 39.890625 18.8125 39.015625 
Q 14.890625 38.140625 10.796875 36.28125 
z
" id="DejaVuSans-53"/>
      </defs>
      <g transform="translate(138.383345 590.598438)scale(0.1 -0.1)">
       <use xlink:href="#DejaVuSans-8722"/>
       <use x="83.789062" xlink:href="#DejaVuSans-49"/>
       <use x="147.412109" xlink:href="#DejaVuSans-53"/>
      </g>
     </g>
    </g>
    <g id="xtick_3">
     <g id="line2d_5">
      <path clip-path="url(#p8d992462f2)" d="M 255.325922 576 
L 255.325922 0 
" style="fill:none;stroke:#b0b0b0;stroke-linecap:square;stroke-width:0.8;"/>
     </g>
     <g id="line2d_6">
      <g>
       <use style="stroke:#000000;stroke-width:0.8;" x="255.325922" xlink:href="#m4bc1a82aaf" y="576"/>
      </g>
     </g>
     <g id="text_3">
      <!-- −10 -->
      <g transform="translate(244.773579 590.598438)scale(0.1 -0.1)">
       <use xlink:href="#DejaVuSans-8722"/>
       <use x="83.789062" xlink:href="#DejaVuSans-49"/>
       <use x="147.412109" xlink:href="#DejaVuSans-48"/>
      </g>
     </g>
    </g>
    <g id="xtick_4">
     <g id="line2d_7">
      <path clip-path="url(#p8d992462f2)" d="M 361.716156 576 
L 361.716156 0 
" style="fill:none;stroke:#b0b0b0;stroke-linecap:square;stroke-width:0.8;"/>
     </g>
     <g id="line2d_8">
      <g>
       <use style="stroke:#000000;stroke-width:0.8;" x="361.716156" xlink:href="#m4bc1a82aaf" y="576"/>
      </g>
     </g>
     <g id="text_4">
      <!-- −5 -->
      <g transform="translate(354.345063 590.598438)scale(0.1 -0.1)">
       <use xlink:href="#DejaVuSans-8722"/>
       <use x="83.789062" xlink:href="#DejaVuSans-53"/>
      </g>
     </g>
    </g>
    <g id="xtick_5">
     <g id="line2d_9">
      <path clip-path="url(#p8d992462f2)" d="M 468.10639 576 
L 468.10639 0 
" style="fill:none;stroke:#b0b0b0;stroke-linecap:square;stroke-width:0.8;"/>
     </g>
     <g id="line2d_10">
      <g>
       <use style="stroke:#000000;stroke-width:0.8;" x="468.10639" xlink:href="#m4bc1a82aaf" y="576"/>
      </g>
     </g>
     <g id="text_5">
      <!-- 0 -->
      <g transform="translate(464.92514 590.598438)scale(0.1 -0.1)">
       <use xlink:href="#DejaVuSans-48"/>
      </g>
     </g>
    </g>
    <g id="xtick_6">
     <g id="line2d_11">
      <path clip-path="url(#p8d992462f2)" d="M 574.496624 576 
L 574.496624 0 
" style="fill:none;stroke:#b0b0b0;stroke-linecap:square;stroke-width:0.8;"/>
     </g>
     <g id="line2d_12">
      <g>
       <use style="stroke:#000000;stroke-width:0.8;" x="574.496624" xlink:href="#m4bc1a82aaf" y="576"/>
      </g>
     </g>
     <g id="text_6">
      <!-- 5 -->
      <g transform="translate(571.315374 590.598438)scale(0.1 -0.1)">
       <use xlink:href="#DejaVuSans-53"/>
      </g>
     </g>
    </g>
    <g id="xtick_7">
     <g id="line2d_13">
      <path clip-path="url(#p8d992462f2)" d="M 680.886858 576 
L 680.886858 0 
" style="fill:none;stroke:#b0b0b0;stroke-linecap:square;stroke-width:0.8;"/>
     </g>
     <g id="line2d_14">
      <g>
       <use style="stroke:#000000;stroke-width:0.8;" x="680.886858" xlink:href="#m4bc1a82aaf" y="576"/>
      </g>
     </g>
     <g id="text_7">
      <!-- 10 -->
      <g transform="translate(674.524358 590.598438)scale(0.1 -0.1)">
       <use xlink:href="#DejaVuSans-49"/>
       <use x="63.623047" xlink:href="#DejaVuSans-48"/>
      </g>
     </g>
    </g>
    <g id="xtick_8">
     <g id="line2d_15">
      <path clip-path="url(#p8d992462f2)" d="M 787.277092 576 
L 787.277092 0 
" style="fill:none;stroke:#b0b0b0;stroke-linecap:square;stroke-width:0.8;"/>
     </g>
     <g id="line2d_16">
      <g>
       <use style="stroke:#000000;stroke-width:0.8;" x="787.277092" xlink:href="#m4bc1a82aaf" y="576"/>
      </g>
     </g>
     <g id="text_8">
      <!-- 15 -->
      <g transform="translate(780.914592 590.598438)scale(0.1 -0.1)">
       <use xlink:href="#DejaVuSans-49"/>
       <use x="63.623047" xlink:href="#DejaVuSans-53"/>
      </g>
     </g>
    </g>
    <g id="xtick_9">
     <g id="line2d_17">
      <path clip-path="url(#p8d992462f2)" d="M 893.667326 576 
L 893.667326 0 
" style="fill:none;stroke:#b0b0b0;stroke-linecap:square;stroke-width:0.8;"/>
     </g>
     <g id="line2d_18">
      <g>
       <use style="stroke:#000000;stroke-width:0.8;" x="893.667326" xlink:href="#m4bc1a82aaf" y="576"/>
      </g>
     </g>
     <g id="text_9">
      <!-- 20 -->
      <g transform="translate(887.304826 590.598438)scale(0.1 -0.1)">
       <use xlink:href="#DejaVuSans-50"/>
       <use x="63.623047" xlink:href="#DejaVuSans-48"/>
      </g>
     </g>
    </g>
    <g id="text_10">
     <!-- x -->
     <defs>
      <path d="M 54.890625 54.6875 
L 35.109375 28.078125 
L 55.90625 0 
L 45.3125 0 
L 29.390625 21.484375 
L 13.484375 0 
L 2.875 0 
L 24.125 28.609375 
L 4.6875 54.6875 
L 15.28125 54.6875 
L 29.78125 35.203125 
L 44.28125 54.6875 
z
" id="DejaVuSans-120"/>
     </defs>
     <g transform="translate(464.44875 605.79625)scale(0.12 -0.12)">
      <use xlink:href="#DejaVuSans-120"/>
     </g>
    </g>
   </g>
   <g id="matplotlib.axis_2">
    <g id="ytick_1">
     <g id="line2d_19">
      <path clip-path="url(#p8d992462f2)" d="M 0 576 
L 936 576 
" style="fill:none;stroke:#b0b0b0;stroke-linecap:square;stroke-width:0.8;"/>
     </g>
     <g id="line2d_20">
      <defs>
       <path d="M 0 0 
L -3.5 0 
" id="m611e429a17" style="stroke:#000000;stroke-width:0.8;"/>
      </defs>
      <g>
       <use style="stroke:#000000;stroke-width:0.8;" x="0" xlink:href="#m611e429a17" y="576"/>
      </g>
     </g>
     <g id="text_11">
      <!-- −20 -->
      <g transform="translate(-28.104688 579.799219)scale(0.1 -0.1)">
       <use xlink:href="#DejaVuSans-8722"/>
       <use x="83.789062" xlink:href="#DejaVuSans-50"/>
       <use x="147.412109" xlink:href="#DejaVuSans-48"/>
      </g>
     </g>
    </g>
    <g id="ytick_2">
     <g id="line2d_21">
      <path clip-path="url(#p8d992462f2)" d="M 0 504 
L 936 504 
" style="fill:none;stroke:#b0b0b0;stroke-linecap:square;stroke-width:0.8;"/>
     </g>
     <g id="line2d_22">
      <g>
       <use style="stroke:#000000;stroke-width:0.8;" x="0" xlink:href="#m611e429a17" y="504"/>
      </g>
     </g>
     <g id="text_12">
      <!-- −15 -->
      <g transform="translate(-28.104688 507.799219)scale(0.1 -0.1)">
       <use xlink:href="#DejaVuSans-8722"/>
       <use x="83.789062" xlink:href="#DejaVuSans-49"/>
       <use x="147.412109" xlink:href="#DejaVuSans-53"/>
      </g>
     </g>
    </g>
    <g id="ytick_3">
     <g id="line2d_23">
      <path clip-path="url(#p8d992462f2)" d="M 0 432 
L 936 432 
" style="fill:none;stroke:#b0b0b0;stroke-linecap:square;stroke-width:0.8;"/>
     </g>
     <g id="line2d_24">
      <g>
       <use style="stroke:#000000;stroke-width:0.8;" x="0" xlink:href="#m611e429a17" y="432"/>
      </g>
     </g>
     <g id="text_13">
      <!-- −10 -->
      <g transform="translate(-28.104688 435.799219)scale(0.1 -0.1)">
       <use xlink:href="#DejaVuSans-8722"/>
       <use x="83.789062" xlink:href="#DejaVuSans-49"/>
       <use x="147.412109" xlink:href="#DejaVuSans-48"/>
      </g>
     </g>
    </g>
    <g id="ytick_4">
     <g id="line2d_25">
      <path clip-path="url(#p8d992462f2)" d="M 0 360 
L 936 360 
" style="fill:none;stroke:#b0b0b0;stroke-linecap:square;stroke-width:0.8;"/>
     </g>
     <g id="line2d_26">
      <g>
       <use style="stroke:#000000;stroke-width:0.8;" x="0" xlink:href="#m611e429a17" y="360"/>
      </g>
     </g>
     <g id="text_14">
      <!-- −5 -->
      <g transform="translate(-21.742188 363.799219)scale(0.1 -0.1)">
       <use xlink:href="#DejaVuSans-8722"/>
       <use x="83.789062" xlink:href="#DejaVuSans-53"/>
      </g>
     </g>
    </g>
    <g id="ytick_5">
     <g id="line2d_27">
      <path clip-path="url(#p8d992462f2)" d="M 0 288 
L 936 288 
" style="fill:none;stroke:#b0b0b0;stroke-linecap:square;stroke-width:0.8;"/>
     </g>
     <g id="line2d_28">
      <g>
       <use style="stroke:#000000;stroke-width:0.8;" x="0" xlink:href="#m611e429a17" y="288"/>
      </g>
     </g>
     <g id="text_15">
      <!-- 0 -->
      <g transform="translate(-13.3625 291.799219)scale(0.1 -0.1)">
       <use xlink:href="#DejaVuSans-48"/>
      </g>
     </g>
    </g>
    <g id="ytick_6">
     <g id="line2d_29">
      <path clip-path="url(#p8d992462f2)" d="M 0 216 
L 936 216 
" style="fill:none;stroke:#b0b0b0;stroke-linecap:square;stroke-width:0.8;"/>
     </g>
     <g id="line2d_30">
      <g>
       <use style="stroke:#000000;stroke-width:0.8;" x="0" xlink:href="#m611e429a17" y="216"/>
      </g>
     </g>
     <g id="text_16">
      <!-- 5 -->
      <g transform="translate(-13.3625 219.799219)scale(0.1 -0.1)">
       <use xlink:href="#DejaVuSans-53"/>
      </g>
     </g>
    </g>
    <g id="ytick_7">
     <g id="line2d_31">
      <path clip-path="url(#p8d992462f2)" d="M 0 144 
L 936 144 
" style="fill:none;stroke:#b0b0b0;stroke-linecap:square;stroke-width:0.8;"/>
     </g>
     <g id="line2d_32">
      <g>
       <use style="stroke:#000000;stroke-width:0.8;" x="0" xlink:href="#m611e429a17" y="144"/>
      </g>
     </g>
     <g id="text_17">
      <!-- 10 -->
      <g transform="translate(-19.725 147.799219)scale(0.1 -0.1)">
       <use xlink:href="#DejaVuSans-49"/>
       <use x="63.623047" xlink:href="#DejaVuSans-48"/>
      </g>
     </g>
    </g>
    <g id="ytick_8">
     <g id="line2d_33">
      <path clip-path="url(#p8d992462f2)" d="M 0 72 
L 936 72 
" style="fill:none;stroke:#b0b0b0;stroke-linecap:square;stroke-width:0.8;"/>
     </g>
     <g id="line2d_34">
      <g>
       <use style="stroke:#000000;stroke-width:0.8;" x="0" xlink:href="#m611e429a17" y="72"/>
      </g>
     </g>
     <g id="text_18">
      <!-- 15 -->
      <g transform="translate(-19.725 75.799219)scale(0.1 -0.1)">
       <use xlink:href="#DejaVuSans-49"/>
       <use x="63.623047" xlink:href="#DejaVuSans-53"/>
      </g>
     </g>
    </g>
    <g id="ytick_9">
     <g id="line2d_35">
      <path clip-path="url(#p8d992462f2)" d="M 0 0 
L 936 0 
" style="fill:none;stroke:#b0b0b0;stroke-linecap:square;stroke-width:0.8;"/>
     </g>
     <g id="line2d_36">
      <g>
       <use style="stroke:#000000;stroke-width:0.8;" x="0" xlink:href="#m611e429a17" y="0"/>
      </g>
     </g>
     <g id="text_19">
      <!-- 20 -->
      <g transform="translate(-19.725 3.799219)scale(0.1 -0.1)">
       <use xlink:href="#DejaVuSans-50"/>
       <use x="63.623047" xlink:href="#DejaVuSans-48"/>
      </g>
     </g>
    </g>
    <g id="text_20">
     <!-- f(x) -->
     <defs>
      <path d="M 37.109375 75.984375 
L 37.109375 68.5 
L 28.515625 68.5 
Q 23.6875 68.5 21.796875 66.546875 
Q 19.921875 64.59375 19.921875 59.515625 
L 19.921875 54.6875 
L 34.71875 54.6875 
L 34.71875 47.703125 
L 19.921875 47.703125 
L 19.921875 0 
L 10.890625 0 
L 10.890625 47.703125 
L 2.296875 47.703125 
L 2.296875 54.6875 
L 10.890625 54.6875 
L 10.890625 58.5 
Q 10.890625 67.625 15.140625 71.796875 
Q 19.390625 75.984375 28.609375 75.984375 
z
" id="DejaVuSans-102"/>
      <path d="M 31 75.875 
Q 24.46875 64.65625 21.28125 53.65625 
Q 18.109375 42.671875 18.109375 31.390625 
Q 18.109375 20.125 21.3125 9.0625 
Q 24.515625 -2 31 -13.1875 
L 23.1875 -13.1875 
Q 15.875 -1.703125 12.234375 9.375 
Q 8.59375 20.453125 8.59375 31.390625 
Q 8.59375 42.28125 12.203125 53.3125 
Q 15.828125 64.359375 23.1875 75.875 
z
" id="DejaVuSans-40"/>
      <path d="M 8.015625 75.875 
L 15.828125 75.875 
Q 23.140625 64.359375 26.78125 53.3125 
Q 30.421875 42.28125 30.421875 31.390625 
Q 30.421875 20.453125 26.78125 9.375 
Q 23.140625 -1.703125 15.828125 -13.1875 
L 8.015625 -13.1875 
Q 14.5 -2 17.703125 9.0625 
Q 20.90625 20.125 20.90625 31.390625 
Q 20.90625 42.671875 17.703125 53.65625 
Q 14.5 64.65625 8.015625 75.875 
z
" id="DejaVuSans-41"/>
     </defs>
     <g transform="translate(-34.600313 298.345312)rotate(-90)scale(0.12 -0.12)">
      <use xlink:href="#DejaVuSans-102"/>
      <use x="35.205078" xlink:href="#DejaVuSans-40"/>
      <use x="74.21875" xlink:href="#DejaVuSans-120"/>
      <use x="133.398438" xlink:href="#DejaVuSans-41"/>
     </g>
    </g>
   </g>
   <g id="line2d_37">
    <path clip-path="url(#p8d992462f2)" d="M 42.545455 274.32 
L 180.001637 274.663516 
L 259.155971 275.066395 
L 309.159381 275.527711 
L 342.991475 276.04898 
L 366.822888 276.62521 
L 384.483666 277.264122 
L 397.888836 277.963636 
L 408.315079 278.724555 
L 416.400737 279.525926 
L 422.996931 280.392453 
L 428.316443 281.300535 
L 432.784833 282.274699 
L 436.614881 283.32973 
L 439.806588 284.427068 
L 442.572734 285.6 
L 444.913319 286.811009 
L 447.041124 288.145455 
L 448.956148 289.6 
L 450.658392 291.160976 
L 452.147855 292.8 
L 453.637318 294.776471 
L 454.914001 296.825806 
L 456.190684 299.314286 
L 457.254586 301.835294 
L 458.318489 304.904348 
L 459.382391 308.721951 
L 460.233513 312.518919 
L 461.084635 317.236364 
L 461.935757 323.255172 
L 462.786879 331.2 
L 463.42522 339.054545 
L 464.063561 349.389474 
L 464.701903 363.6 
L 465.340244 384.369231 
L 465.765805 404.509091 
L 466.191366 433.6 
L 466.616927 479.314286 
L 466.829707 513.6 
M 469.229694 -1 
L 469.595854 67.885714 
L 470.021414 113.6 
L 470.659756 153.6 
L 471.298097 177.6 
L 471.936439 193.6 
L 472.57478 205.028571 
L 473.425902 216 
L 474.277024 223.944828 
L 475.128146 229.963636 
L 476.192048 235.705263 
L 477.25595 240.111628 
L 478.319853 243.6 
L 479.383755 246.430189 
L 480.660438 249.19322 
L 481.937121 251.446154 
L 483.426584 253.6 
L 484.916047 255.372152 
L 486.618291 257.048276 
L 488.533315 258.6 
L 490.66112 260.015094 
L 493.001705 261.292308 
L 495.555071 262.437209 
L 498.533997 263.53007 
L 501.938485 264.543396 
L 505.981314 265.510112 
L 510.662484 266.4 
L 516.407556 267.256388 
L 523.216531 268.040154 
L 531.72775 268.783946 
L 542.153993 269.462069 
L 555.346382 270.087805 
L 572.368819 270.661224 
L 594.710769 271.179832 
L 624.925595 271.646133 
L 667.056128 272.059893 
L 728.124122 272.421604 
L 821.321967 272.73253 
L 893.454545 272.87964 
L 893.454545 272.87964 
" style="fill:none;stroke:#ff0000;stroke-linecap:square;stroke-width:1.5;"/>
   </g>
   <g id="line2d_38">
    <path clip-path="url(#p8d992462f2)" d="M 42.545455 275.04 
L 145.531201 275.499736 
L 214.684853 276.018136 
L 263.41158 276.593763 
L 299.158699 277.227204 
L 326.181818 277.917841 
L 347.247084 278.670423 
L 363.843961 279.477551 
L 377.24913 280.344731 
L 388.100934 281.259574 
L 397.250494 282.248649 
L 404.910591 283.29697 
L 411.294005 284.386517 
L 416.826297 285.550207 
L 421.507468 286.750685 
L 425.763077 288.072362 
L 429.380345 289.424176 
L 432.572052 290.845509 
L 435.550979 292.423529 
L 438.104344 294.025532 
L 440.444929 295.753846 
L 442.572734 297.6 
L 444.487758 299.545946 
L 446.190002 301.561165 
L 447.892246 303.915789 
L 449.381709 306.327273 
L 450.871172 309.155556 
L 452.360636 312.518919 
L 453.637318 315.952941 
L 454.914001 320.051613 
L 456.190684 325.028571 
L 457.254586 330.070588 
L 458.318489 336.208696 
L 459.382391 343.843902 
L 460.233513 351.437838 
L 461.084635 360.872727 
L 461.935757 372.910345 
L 462.786879 388.8 
L 463.42522 404.509091 
L 464.063561 425.178947 
L 464.701903 453.6 
L 465.340244 495.138462 
L 465.765805 535.418182 
L 466.080986 577 
M 470.343097 -1 
L 470.872536 52.061538 
L 471.510878 93.6 
L 472.149219 122.021053 
L 473.000341 148.382609 
L 473.851463 166.933333 
L 474.702585 180.696774 
L 475.553707 191.314286 
L 476.617609 201.6 
L 477.681511 209.6 
L 478.745414 216 
L 479.809316 221.236364 
L 481.085999 226.386885 
L 482.362682 230.614925 
L 483.639364 234.147945 
L 485.128828 237.6 
L 486.618291 240.496552 
L 488.320535 243.284211 
L 490.022778 245.638835 
L 491.937803 247.885714 
L 493.852827 249.798347 
L 495.980632 251.615267 
L 498.321217 253.31831 
L 500.874582 254.898701 
L 503.640728 256.354491 
L 506.832435 257.775824 
L 510.449703 259.127638 
L 514.492532 260.388991 
L 518.960922 261.549791 
L 524.280434 262.690909 
L 530.238287 263.736986 
L 537.260042 264.738462 
L 545.558481 265.687912 
L 555.346382 266.57561 
L 567.049308 267.406452 
L 581.305599 268.186466 
L 598.753597 268.909446 
L 620.457205 269.577654 
L 647.905886 270.191716 
L 683.440224 270.75415 
L 730.464707 271.264234 
L 794.298847 271.721331 
L 883.879424 272.1261 
L 893.454545 272.15928 
L 893.454545 272.15928 
" style="fill:none;stroke:#008000;stroke-linecap:square;stroke-width:1.5;"/>
   </g>
   <g id="line2d_39">
    <path clip-path="url(#p8d992462f2)" d="M 42.545455 273.564 
L 281.49792 273.412775 
L 344.055377 273.176332 
L 374.270204 272.859568 
L 392.356544 272.46378 
L 404.48503 271.98928 
L 413.20903 271.436668 
L 419.805224 270.805457 
L 424.911955 270.105618 
L 429.167565 269.300081 
L 432.572052 268.436674 
L 435.550979 267.44852 
L 438.104344 266.356904 
L 440.232149 265.208881 
L 442.147173 263.925181 
L 443.849417 262.519668 
L 445.33888 261.022482 
L 446.828343 259.2 
L 448.105026 257.303033 
L 449.381709 255.004959 
L 450.658392 252.184176 
L 451.722294 249.312599 
L 452.786197 245.822222 
L 453.850099 241.521586 
L 454.914001 236.139022 
L 455.765123 230.793817 
L 456.616245 224.217284 
L 457.467367 216 
L 458.318489 205.54707 
L 459.169611 191.967347 
L 460.020732 173.877008 
L 460.659074 156.04898 
L 461.297415 132.975 
L 461.935757 102.375268 
L 462.574098 60.582249 
L 463.232519 -1 
M 472.980262 -1 
L 473.425902 43.2 
L 474.064243 89.926531 
L 474.702585 123.756087 
L 475.553707 156.04898 
L 476.404828 178.925444 
L 477.25595 195.720065 
L 478.107072 208.412132 
L 478.958194 218.236678 
L 480.022096 227.681633 
L 481.085999 234.900726 
L 482.149901 240.542149 
L 483.213803 245.034239 
L 484.277706 248.669252 
L 485.554389 252.184176 
L 486.831071 255.004959 
L 488.107754 257.303033 
L 489.597217 259.483737 
L 491.086681 261.254321 
L 492.788925 262.898454 
L 494.491168 264.234755 
L 496.406192 265.459348 
L 498.533997 266.558091 
L 501.087363 267.606243 
L 503.853509 268.497959 
L 507.257996 269.346692 
L 511.300825 270.105618 
L 516.194776 270.780672 
L 522.152629 271.367996 
L 529.812726 271.887753 
L 539.813408 272.332048 
L 553.644138 272.708933 
L 573.645502 273.014672 
L 605.137012 273.252791 
L 661.098275 273.424956 
L 782.595922 273.534081 
L 893.454545 273.563964 
L 893.454545 273.563964 
" style="fill:none;stroke:#0000ff;stroke-linecap:square;stroke-width:1.5;"/>
   </g>
   <g id="patch_3">
    <path d="M 0 576 
L 0 0 
" style="fill:none;stroke:#000000;stroke-linecap:square;stroke-linejoin:miter;stroke-width:0.8;"/>
   </g>
   <g id="patch_4">
    <path d="M 936 576 
L 936 0 
" style="fill:none;stroke:#000000;stroke-linecap:square;stroke-linejoin:miter;stroke-width:0.8;"/>
   </g>
   <g id="patch_5">
    <path d="M 0 576 
L 936 576 
" style="fill:none;stroke:#000000;stroke-linecap:square;stroke-linejoin:miter;stroke-width:0.8;"/>
   </g>
   <g id="patch_6">
    <path d="M 0 0 
L 936 0 
" style="fill:none;stroke:#000000;stroke-linecap:square;stroke-linejoin:miter;stroke-width:0.8;"/>
   </g>
   <g id="text_21">
    <!-- График функции $f(x) = \frac{x^{\beta} + \alpha^{\beta}}{x^{\beta} }$ при различных значениях $\alpha$ и $\beta$ -->
    <defs>
     <path d="M 9.8125 0 
L 9.8125 72.90625 
L 55.171875 72.90625 
L 55.171875 64.59375 
L 19.671875 64.59375 
L 19.671875 0 
z
" id="DejaVuSans-1043"/>
     <path d="M 18.109375 8.203125 
L 18.109375 -20.796875 
L 9.078125 -20.796875 
L 9.078125 54.6875 
L 18.109375 54.6875 
L 18.109375 46.390625 
Q 20.953125 51.265625 25.265625 53.625 
Q 29.59375 56 35.59375 56 
Q 45.5625 56 51.78125 48.09375 
Q 58.015625 40.1875 58.015625 27.296875 
Q 58.015625 14.40625 51.78125 6.484375 
Q 45.5625 -1.421875 35.59375 -1.421875 
Q 29.59375 -1.421875 25.265625 0.953125 
Q 20.953125 3.328125 18.109375 8.203125 
z
M 48.6875 27.296875 
Q 48.6875 37.203125 44.609375 42.84375 
Q 40.53125 48.484375 33.40625 48.484375 
Q 26.265625 48.484375 22.1875 42.84375 
Q 18.109375 37.203125 18.109375 27.296875 
Q 18.109375 17.390625 22.1875 11.75 
Q 26.265625 6.109375 33.40625 6.109375 
Q 40.53125 6.109375 44.609375 11.75 
Q 48.6875 17.390625 48.6875 27.296875 
z
" id="DejaVuSans-1088"/>
     <path d="M 34.28125 27.484375 
Q 23.390625 27.484375 19.1875 25 
Q 14.984375 22.515625 14.984375 16.5 
Q 14.984375 11.71875 18.140625 8.90625 
Q 21.296875 6.109375 26.703125 6.109375 
Q 34.1875 6.109375 38.703125 11.40625 
Q 43.21875 16.703125 43.21875 25.484375 
L 43.21875 27.484375 
z
M 52.203125 31.203125 
L 52.203125 0 
L 43.21875 0 
L 43.21875 8.296875 
Q 40.140625 3.328125 35.546875 0.953125 
Q 30.953125 -1.421875 24.3125 -1.421875 
Q 15.921875 -1.421875 10.953125 3.296875 
Q 6 8.015625 6 15.921875 
Q 6 25.140625 12.171875 29.828125 
Q 18.359375 34.515625 30.609375 34.515625 
L 43.21875 34.515625 
L 43.21875 35.40625 
Q 43.21875 41.609375 39.140625 45 
Q 35.0625 48.390625 27.6875 48.390625 
Q 23 48.390625 18.546875 47.265625 
Q 14.109375 46.140625 10.015625 43.890625 
L 10.015625 52.203125 
Q 14.9375 54.109375 19.578125 55.046875 
Q 24.21875 56 28.609375 56 
Q 40.484375 56 46.34375 49.84375 
Q 52.203125 43.703125 52.203125 31.203125 
z
" id="DejaVuSans-1072"/>
     <path d="M 14.796875 27.296875 
Q 14.796875 15.828125 18.328125 10.96875 
Q 21.875 6.109375 27.875 6.109375 
Q 32.671875 6.109375 38.234375 14.3125 
L 38.234375 40.28125 
Q 32.671875 48.484375 27.875 48.484375 
Q 21.875 48.484375 18.328125 43.625 
Q 14.796875 38.765625 14.796875 27.296875 
z
M 38.234375 -20.796875 
L 38.234375 6.984375 
Q 35.453125 2.390625 32.25 0.484375 
Q 29.046875 -1.421875 25 -1.421875 
Q 16.84375 -1.421875 11.15625 6.125 
Q 5.46875 13.671875 5.46875 27.09375 
Q 5.46875 40.53125 11.15625 48.265625 
Q 16.84375 56 25 56 
Q 29.046875 56 32.25 54.140625 
Q 35.453125 52.296875 38.234375 47.703125 
L 38.234375 72.90625 
L 47.265625 72.90625 
L 47.265625 47.703125 
Q 50.046875 52.296875 53.25 54.140625 
Q 56.453125 56 60.5 56 
Q 68.65625 56 74.34375 48.265625 
Q 80.03125 40.53125 80.03125 27.09375 
Q 80.03125 13.671875 74.34375 6.125 
Q 68.65625 -1.421875 60.5 -1.421875 
Q 56.453125 -1.421875 53.25 0.484375 
Q 50.046875 2.390625 47.265625 6.984375 
L 47.265625 -20.796875 
z
M 70.703125 27.296875 
Q 70.703125 38.765625 67.15625 43.625 
Q 63.625 48.484375 57.625 48.484375 
Q 52.828125 48.484375 47.265625 40.28125 
L 47.265625 14.3125 
Q 52.828125 6.109375 57.625 6.109375 
Q 63.625 6.109375 67.15625 10.96875 
Q 70.703125 15.828125 70.703125 27.296875 
z
" id="DejaVuSans-1092"/>
     <path d="M 55.90625 54.6875 
L 55.90625 0 
L 46.96875 0 
L 46.96875 43.890625 
L 20.609375 0 
L 9.078125 0 
L 9.078125 54.6875 
L 18.015625 54.6875 
L 18.015625 10.890625 
L 44.34375 54.6875 
z
" id="DejaVuSans-1080"/>
     <path d="M 9.078125 54.6875 
L 18.015625 54.6875 
L 18.015625 29 
L 43.359375 54.6875 
L 54.390625 54.6875 
L 33.5 33.546875 
L 57.078125 0 
L 47.015625 0 
L 27.640625 27.59375 
L 18.015625 17.828125 
L 18.015625 0 
L 9.078125 0 
z
" id="DejaVuSans-1082"/>
     <path id="DejaVuSans-32"/>
     <path d="M 32.171875 -5.078125 
Q 28.375 -14.84375 24.75 -17.8125 
Q 21.140625 -20.796875 15.09375 -20.796875 
L 7.90625 -20.796875 
L 7.90625 -13.28125 
L 13.1875 -13.28125 
Q 16.890625 -13.28125 18.9375 -11.515625 
Q 21 -9.765625 23.484375 -3.21875 
L 25.09375 0.875 
L 2.984375 54.6875 
L 12.5 54.6875 
L 29.59375 11.921875 
L 46.6875 54.6875 
L 56.203125 54.6875 
z
" id="DejaVuSans-1091"/>
     <path d="M 9.078125 54.6875 
L 18.109375 54.6875 
L 18.109375 32.375 
L 47.265625 32.375 
L 47.265625 54.6875 
L 56.296875 54.6875 
L 56.296875 0 
L 47.265625 0 
L 47.265625 25.203125 
L 18.109375 25.203125 
L 18.109375 0 
L 9.078125 0 
z
" id="DejaVuSans-1085"/>
     <path d="M 56.296875 0 
L 9.078125 0 
L 9.078125 54.6875 
L 18.109375 54.6875 
L 18.109375 7.171875 
L 47.265625 7.171875 
L 47.265625 54.6875 
L 56.296875 54.6875 
L 56.296875 7.171875 
L 63.484375 7.171875 
L 63.484375 -13.8125 
L 56.296875 -13.8125 
z
" id="DejaVuSans-1094"/>
     <path d="M 47.796875 75.984375 
L 46.390625 68.5 
L 37.796875 68.5 
Q 32.90625 68.5 30.6875 66.578125 
Q 28.46875 64.65625 27.390625 59.515625 
L 26.421875 54.6875 
L 41.21875 54.6875 
L 39.890625 47.703125 
L 25.09375 47.703125 
L 15.828125 0 
L 6.78125 0 
L 16.109375 47.703125 
L 7.515625 47.703125 
L 8.796875 54.6875 
L 17.390625 54.6875 
L 18.109375 58.5 
Q 19.96875 68.171875 24.625 72.078125 
Q 29.296875 75.984375 39.3125 75.984375 
z
" id="DejaVuSans-Oblique-102"/>
     <path d="M 60.015625 54.6875 
L 34.90625 27.875 
L 50.296875 0 
L 39.984375 0 
L 28.421875 21.6875 
L 8.296875 0 
L -2.59375 0 
L 24.3125 28.8125 
L 10.015625 54.6875 
L 20.3125 54.6875 
L 30.8125 34.90625 
L 49.125 54.6875 
z
" id="DejaVuSans-Oblique-120"/>
     <path d="M 10.59375 45.40625 
L 73.1875 45.40625 
L 73.1875 37.203125 
L 10.59375 37.203125 
z
M 10.59375 25.484375 
L 73.1875 25.484375 
L 73.1875 17.1875 
L 10.59375 17.1875 
z
" id="DejaVuSans-61"/>
     <path d="M 13.625 3.375 
L 8.9375 -20.796875 
L -0.09375 -20.796875 
L 14.5 54.34375 
Q 18.84375 76.609375 39.65625 76.609375 
Q 60.75 76.609375 57.171875 57.8125 
Q 54.734375 44.4375 45.21875 39.546875 
Q 58.015625 35.15625 55.515625 22.125 
Q 51.125 -1.078125 27.484375 -1.03125 
Q 17.140625 -0.984375 13.625 3.375 
z
M 15.921875 15.09375 
Q 19.671875 6.59375 29.296875 6.640625 
Q 43.359375 6.640625 46.34375 21.96875 
Q 49.03125 35.75 26.171875 34.671875 
L 27.78125 42.96875 
Q 45.453125 42.671875 48.53125 58.59375 
Q 50.640625 69.34375 39.203125 69.28125 
Q 26.421875 69.28125 23.484375 54.046875 
z
" id="DejaVuSans-Oblique-946"/>
     <path d="M 46 62.703125 
L 46 35.5 
L 73.1875 35.5 
L 73.1875 27.203125 
L 46 27.203125 
L 46 0 
L 37.796875 0 
L 37.796875 27.203125 
L 10.59375 27.203125 
L 10.59375 35.5 
L 37.796875 35.5 
L 37.796875 62.703125 
z
" id="DejaVuSans-43"/>
     <path d="M 40.921875 25.4375 
L 40.96875 36.71875 
Q 41.015625 48.25 32.328125 48.296875 
Q 25.828125 48.34375 21.78125 42.921875 
Q 16.703125 36.234375 14.984375 27.296875 
Q 12.890625 16.546875 15.53125 11.421875 
Q 18.265625 6.203125 24.171875 6.203125 
Q 30.71875 6.203125 36.234375 16.609375 
z
M 33.84375 55.90625 
Q 49.078125 56.15625 48.875 40.375 
Q 48.875 40.375 56.5 54.6875 
L 64.5 54.6875 
L 48.734375 25.046875 
L 48.578125 14.359375 
Q 48.578125 11.96875 49.90625 9.96875 
Q 51.421875 7.625 52.984375 7.625 
L 57.328125 7.625 
L 55.859375 0 
L 50.4375 0 
Q 45.84375 0 42.53125 4.109375 
Q 40.96875 6.15625 40.921875 10.453125 
Q 37.75 5.21875 32.28125 0.78125 
Q 29.6875 -1.265625 22.703125 -1.21875 
Q 11.28125 -1.125 7.125 6.203125 
Q 2.875 13.8125 5.515625 27.296875 
Q 8.34375 41.796875 15.765625 48.390625 
Q 24.125 55.765625 33.84375 55.90625 
z
" id="DejaVuSans-Oblique-945"/>
     <path d="M 56.296875 54.6875 
L 56.296875 0 
L 47.265625 0 
L 47.265625 47.515625 
L 18.109375 47.515625 
L 18.109375 0 
L 9.078125 0 
L 9.078125 54.6875 
z
" id="DejaVuSans-1087"/>
     <path d="M 34.46875 29.5 
Q 40.53125 28.328125 43.890625 24.75 
Q 47.265625 21.1875 47.265625 15.921875 
Q 47.265625 7.46875 40.96875 3.015625 
Q 34.671875 -1.421875 23.046875 -1.421875 
Q 19.140625 -1.421875 15.015625 -0.734375 
Q 10.890625 -0.046875 6.5 1.3125 
L 6.5 9.671875 
Q 9.96875 7.859375 14.109375 6.953125 
Q 18.265625 6.0625 22.796875 6.0625 
Q 30.171875 6.0625 34.296875 8.796875 
Q 38.421875 11.53125 38.421875 15.921875 
Q 38.421875 20.21875 34.765625 22.828125 
Q 31.109375 25.4375 24.421875 25.4375 
L 17.1875 25.4375 
L 17.1875 32.859375 
L 24.75 32.859375 
Q 30.421875 32.859375 33.71875 35.03125 
Q 37.015625 37.203125 37.015625 40.625 
Q 37.015625 43.75 33.609375 46 
Q 30.21875 48.25 24.421875 48.25 
Q 20.953125 48.25 17.015625 47.609375 
Q 13.09375 46.96875 8.34375 45.5625 
L 8.34375 53.71875 
Q 13.140625 54.890625 17.28125 55.46875 
Q 21.4375 56.0625 25.140625 56.0625 
Q 34.71875 56.0625 40.25 52.21875 
Q 45.796875 48.390625 45.796875 41.5 
Q 45.796875 36.96875 42.859375 33.8125 
Q 39.9375 30.671875 34.46875 29.5 
z
" id="DejaVuSans-1079"/>
     <path d="M 3.71875 0 
L 3.71875 7.46875 
Q 12.59375 8.84375 15.328125 14.984375 
Q 18.65625 23.640625 18.65625 45.75 
L 18.65625 54.6875 
L 55.609375 54.6875 
L 55.609375 0 
L 46.625 0 
L 46.625 47.515625 
L 27.640625 47.515625 
L 27.640625 42.09375 
Q 27.640625 21 23.34375 11.53125 
Q 18.75 1.421875 3.71875 0 
z
" id="DejaVuSans-1083"/>
     <path d="M 41.015625 0 
L 41.015625 23 
L 24.265625 23 
Q 16.796875 23 11.8125 27.640625 
Q 7.328125 31.84375 7.328125 40.828125 
L 7.328125 54.6875 
L 16.3125 54.6875 
L 16.3125 41.65625 
Q 16.3125 35.9375 18.84375 33.0625 
Q 21.4375 30.171875 26.515625 30.171875 
L 41.015625 30.171875 
L 41.015625 54.6875 
L 50 54.6875 
L 50 0 
z
" id="DejaVuSans-1095"/>
     <path d="M 61.046875 54.6875 
L 70.03125 54.6875 
L 70.03125 0 
L 61.046875 0 
z
M 65.546875 56 
z
M 43.453125 16.21875 
Q 43.453125 20.609375 40.25 22.90625 
Q 37.0625 25.203125 30.90625 25.203125 
L 18.109375 25.203125 
L 18.109375 7.171875 
L 30.90625 7.171875 
Q 37.0625 7.171875 40.25 9.484375 
Q 43.453125 11.8125 43.453125 16.21875 
z
M 9.078125 54.6875 
L 18.109375 54.6875 
L 18.109375 32.375 
L 31.296875 32.375 
Q 41.75 32.375 47.390625 28.390625 
Q 53.03125 24.421875 53.03125 16.21875 
Q 53.03125 8.015625 47.390625 4 
Q 41.75 0 31.296875 0 
L 9.078125 0 
z
" id="DejaVuSans-1099"/>
     <path d="M 54.890625 54.6875 
L 35.109375 28.078125 
L 55.90625 0 
L 45.3125 0 
L 29.390625 21.484375 
L 13.484375 0 
L 2.875 0 
L 24.125 28.609375 
L 4.6875 54.6875 
L 15.28125 54.6875 
L 29.78125 35.203125 
L 44.28125 54.6875 
z
" id="DejaVuSans-1093"/>
     <path d="M 56.203125 29.59375 
L 56.203125 25.203125 
L 14.890625 25.203125 
Q 15.484375 15.921875 20.484375 11.0625 
Q 25.484375 6.203125 34.421875 6.203125 
Q 39.59375 6.203125 44.453125 7.46875 
Q 49.3125 8.734375 54.109375 11.28125 
L 54.109375 2.78125 
Q 49.265625 0.734375 44.1875 -0.34375 
Q 39.109375 -1.421875 33.890625 -1.421875 
Q 20.796875 -1.421875 13.15625 6.1875 
Q 5.515625 13.8125 5.515625 26.8125 
Q 5.515625 40.234375 12.765625 48.109375 
Q 20.015625 56 32.328125 56 
Q 43.359375 56 49.78125 48.890625 
Q 56.203125 41.796875 56.203125 29.59375 
z
M 47.21875 32.234375 
Q 47.125 39.59375 43.09375 43.984375 
Q 39.0625 48.390625 32.421875 48.390625 
Q 24.90625 48.390625 20.390625 44.140625 
Q 15.875 39.890625 15.1875 32.171875 
z
" id="DejaVuSans-1077"/>
     <path d="M 18.453125 38.921875 
Q 18.453125 34.859375 21.578125 32.5625 
Q 24.703125 30.28125 30.515625 30.28125 
L 42.625 30.28125 
L 42.625 47.515625 
L 30.515625 47.515625 
Q 24.703125 47.515625 21.578125 45.265625 
Q 18.453125 43.015625 18.453125 38.921875 
z
M 5.671875 0 
L 22.359375 23.96875 
Q 16.703125 25.25 12.9375 28.59375 
Q 9.1875 31.9375 9.1875 38.921875 
Q 9.1875 46.828125 14.421875 50.75 
Q 19.671875 54.6875 30.28125 54.6875 
L 51.65625 54.6875 
L 51.65625 0 
L 42.625 0 
L 42.625 23.09375 
L 31.453125 23.09375 
L 15.328125 0 
z
" id="DejaVuSans-1103"/>
    </defs>
    <g transform="translate(277.08 -6.24)scale(0.12 -0.12)">
     <use transform="translate(0 0.981719)" xlink:href="#DejaVuSans-1043"/>
     <use transform="translate(60.986328 0.981719)" xlink:href="#DejaVuSans-1088"/>
     <use transform="translate(124.462891 0.981719)" xlink:href="#DejaVuSans-1072"/>
     <use transform="translate(185.742188 0.981719)" xlink:href="#DejaVuSans-1092"/>
     <use transform="translate(271.240234 0.981719)" xlink:href="#DejaVuSans-1080"/>
     <use transform="translate(336.230469 0.981719)" xlink:href="#DejaVuSans-1082"/>
     <use transform="translate(396.630859 0.981719)" xlink:href="#DejaVuSans-32"/>
     <use transform="translate(428.417969 0.981719)" xlink:href="#DejaVuSans-1092"/>
     <use transform="translate(513.916016 0.981719)" xlink:href="#DejaVuSans-1091"/>
     <use transform="translate(573.095703 0.981719)" xlink:href="#DejaVuSans-1085"/>
     <use transform="translate(638.476562 0.981719)" xlink:href="#DejaVuSans-1082"/>
     <use transform="translate(698.876953 0.981719)" xlink:href="#DejaVuSans-1094"/>
     <use transform="translate(766.943359 0.981719)" xlink:href="#DejaVuSans-1080"/>
     <use transform="translate(831.933594 0.981719)" xlink:href="#DejaVuSans-1080"/>
     <use transform="translate(896.923828 0.981719)" xlink:href="#DejaVuSans-32"/>
     <use transform="translate(928.710938 0.981719)" xlink:href="#DejaVuSans-Oblique-102"/>
     <use transform="translate(963.916016 0.981719)" xlink:href="#DejaVuSans-40"/>
     <use transform="translate(1002.929688 0.981719)" xlink:href="#DejaVuSans-Oblique-120"/>
     <use transform="translate(1062.109375 0.981719)" xlink:href="#DejaVuSans-41"/>
     <use transform="translate(1120.605469 0.981719)" xlink:href="#DejaVuSans-61"/>
     <use transform="translate(1223.876953 45.664531)scale(0.7)" xlink:href="#DejaVuSans-Oblique-120"/>
     <use transform="translate(1268.429036 72.461406)scale(0.49)" xlink:href="#DejaVuSans-Oblique-946"/>
     <use transform="translate(1315.25179 45.664531)scale(0.7)" xlink:href="#DejaVuSans-43"/>
     <use transform="translate(1387.541829 45.664531)scale(0.7)" xlink:href="#DejaVuSans-Oblique-945"/>
     <use transform="translate(1436.954647 72.461406)scale(0.49)" xlink:href="#DejaVuSans-Oblique-946"/>
     <use transform="translate(1307.876953 -50.806875)scale(0.7)" xlink:href="#DejaVuSans-Oblique-120"/>
     <use transform="translate(1352.429036 -24.01)scale(0.49)" xlink:href="#DejaVuSans-Oblique-946"/>
     <use transform="translate(1482.639706 0.981719)" xlink:href="#DejaVuSans-32"/>
     <use transform="translate(1514.426815 0.981719)" xlink:href="#DejaVuSans-1087"/>
     <use transform="translate(1579.807674 0.981719)" xlink:href="#DejaVuSans-1088"/>
     <use transform="translate(1643.284237 0.981719)" xlink:href="#DejaVuSans-1080"/>
     <use transform="translate(1708.274471 0.981719)" xlink:href="#DejaVuSans-32"/>
     <use transform="translate(1740.061581 0.981719)" xlink:href="#DejaVuSans-1088"/>
     <use transform="translate(1803.538143 0.981719)" xlink:href="#DejaVuSans-1072"/>
     <use transform="translate(1864.81744 0.981719)" xlink:href="#DejaVuSans-1079"/>
     <use transform="translate(1917.991268 0.981719)" xlink:href="#DejaVuSans-1083"/>
     <use transform="translate(1981.907284 0.981719)" xlink:href="#DejaVuSans-1080"/>
     <use transform="translate(2046.897518 0.981719)" xlink:href="#DejaVuSans-1095"/>
     <use transform="translate(2105.979549 0.981719)" xlink:href="#DejaVuSans-1085"/>
     <use transform="translate(2171.360409 0.981719)" xlink:href="#DejaVuSans-1099"/>
     <use transform="translate(2250.315487 0.981719)" xlink:href="#DejaVuSans-1093"/>
     <use transform="translate(2309.495174 0.981719)" xlink:href="#DejaVuSans-32"/>
     <use transform="translate(2341.282284 0.981719)" xlink:href="#DejaVuSans-1079"/>
     <use transform="translate(2394.456112 0.981719)" xlink:href="#DejaVuSans-1085"/>
     <use transform="translate(2459.836971 0.981719)" xlink:href="#DejaVuSans-1072"/>
     <use transform="translate(2521.116268 0.981719)" xlink:href="#DejaVuSans-1095"/>
     <use transform="translate(2580.198299 0.981719)" xlink:href="#DejaVuSans-1077"/>
     <use transform="translate(2641.721737 0.981719)" xlink:href="#DejaVuSans-1085"/>
     <use transform="translate(2707.102596 0.981719)" xlink:href="#DejaVuSans-1080"/>
     <use transform="translate(2772.092831 0.981719)" xlink:href="#DejaVuSans-1103"/>
     <use transform="translate(2832.249081 0.981719)" xlink:href="#DejaVuSans-1093"/>
     <use transform="translate(2891.428768 0.981719)" xlink:href="#DejaVuSans-32"/>
     <use transform="translate(2923.215878 0.981719)" xlink:href="#DejaVuSans-Oblique-945"/>
     <use transform="translate(2989.133846 0.981719)" xlink:href="#DejaVuSans-32"/>
     <use transform="translate(3020.920956 0.981719)" xlink:href="#DejaVuSans-1080"/>
     <use transform="translate(3085.91119 0.981719)" xlink:href="#DejaVuSans-32"/>
     <use transform="translate(3117.698299 0.981719)" xlink:href="#DejaVuSans-Oblique-946"/>
     <path d="M 1223.876953 19.778594 
L 1223.876953 26.028594 
L 1470.139706 26.028594 
L 1470.139706 19.778594 
L 1223.876953 19.778594 
z
"/>
    </g>
   </g>
   <g id="legend_1">
    <g id="patch_7">
     <path d="M 822.72 570 
L 927.6 570 
Q 930 570 930 567.6 
L 930 515.52 
Q 930 513.12 927.6 513.12 
L 822.72 513.12 
Q 820.32 513.12 820.32 515.52 
L 820.32 567.6 
Q 820.32 570 822.72 570 
z
" style="fill:#ffffff;opacity:0.8;stroke:#cccccc;stroke-linejoin:miter;"/>
    </g>
    <g id="line2d_40">
     <path d="M 825.12 522.96 
L 849.12 522.96 
" style="fill:none;stroke:#ff0000;stroke-linecap:square;stroke-width:1.5;"/>
    </g>
    <g id="line2d_41"/>
    <g id="text_22">
     <!-- $\alpha=1, \beta=1$ -->
     <defs>
      <path d="M 11.71875 12.40625 
L 22.015625 12.40625 
L 22.015625 4 
L 14.015625 -11.625 
L 7.71875 -11.625 
L 11.71875 4 
z
" id="DejaVuSans-44"/>
     </defs>
     <g transform="translate(858.72 527.16)scale(0.12 -0.12)">
      <use transform="translate(0 0.390625)" xlink:href="#DejaVuSans-Oblique-945"/>
      <use transform="translate(85.400391 0.390625)" xlink:href="#DejaVuSans-61"/>
      <use transform="translate(188.671875 0.390625)" xlink:href="#DejaVuSans-49"/>
      <use transform="translate(252.294922 0.390625)" xlink:href="#DejaVuSans-44"/>
      <use transform="translate(303.564453 0.390625)" xlink:href="#DejaVuSans-Oblique-946"/>
      <use transform="translate(386.865234 0.390625)" xlink:href="#DejaVuSans-61"/>
      <use transform="translate(490.136719 0.390625)" xlink:href="#DejaVuSans-49"/>
     </g>
    </g>
    <g id="line2d_42">
     <path d="M 825.12 540.72 
L 849.12 540.72 
" style="fill:none;stroke:#008000;stroke-linecap:square;stroke-width:1.5;"/>
    </g>
    <g id="line2d_43"/>
    <g id="text_23">
     <!-- $\alpha=2, \beta=1$ -->
     <g transform="translate(858.72 544.92)scale(0.12 -0.12)">
      <use transform="translate(0 0.390625)" xlink:href="#DejaVuSans-Oblique-945"/>
      <use transform="translate(85.400391 0.390625)" xlink:href="#DejaVuSans-61"/>
      <use transform="translate(188.671875 0.390625)" xlink:href="#DejaVuSans-50"/>
      <use transform="translate(252.294922 0.390625)" xlink:href="#DejaVuSans-44"/>
      <use transform="translate(303.564453 0.390625)" xlink:href="#DejaVuSans-Oblique-946"/>
      <use transform="translate(386.865234 0.390625)" xlink:href="#DejaVuSans-61"/>
      <use transform="translate(490.136719 0.390625)" xlink:href="#DejaVuSans-49"/>
     </g>
    </g>
    <g id="line2d_44">
     <path d="M 825.12 558.48 
L 849.12 558.48 
" style="fill:none;stroke:#0000ff;stroke-linecap:square;stroke-width:1.5;"/>
    </g>
    <g id="line2d_45"/>
    <g id="text_24">
     <!-- $\alpha=1, \beta=2$ -->
     <g transform="translate(858.72 562.68)scale(0.12 -0.12)">
      <use transform="translate(0 0.390625)" xlink:href="#DejaVuSans-Oblique-945"/>
      <use transform="translate(85.400391 0.390625)" xlink:href="#DejaVuSans-61"/>
      <use transform="translate(188.671875 0.390625)" xlink:href="#DejaVuSans-49"/>
      <use transform="translate(252.294922 0.390625)" xlink:href="#DejaVuSans-44"/>
      <use transform="translate(303.564453 0.390625)" xlink:href="#DejaVuSans-Oblique-946"/>
      <use transform="translate(386.865234 0.390625)" xlink:href="#DejaVuSans-61"/>
      <use transform="translate(490.136719 0.390625)" xlink:href="#DejaVuSans-50"/>
     </g>
    </g>
   </g>
  </g>
 </g>
 <defs>
  <clipPath id="p8d992462f2">
   <rect height="576" width="936" x="0" y="0"/>
  </clipPath>
 </defs>
</svg>
