<?xml version="1.0" encoding="utf-8" standalone="no"?>
<!DOCTYPE svg PUBLIC "-//W3C//DTD SVG 1.1//EN"
  "http://www.w3.org/Graphics/SVG/1.1/DTD/svg11.dtd">
<!-- Created with matplotlib (https://matplotlib.org/) -->
<svg height="504pt" version="1.1" viewBox="0 0 864 504" width="864pt" xmlns="http://www.w3.org/2000/svg" xmlns:xlink="http://www.w3.org/1999/xlink">
 <defs>
  <style type="text/css">
*{stroke-linecap:butt;stroke-linejoin:round;}
  </style>
 </defs>
 <g id="figure_1">
  <g id="patch_1">
   <path d="M 0 504 
L 864 504 
L 864 0 
L 0 0 
z
" style="fill:#ffffff;"/>
  </g>
  <g id="axes_1">
   <g id="patch_2">
    <path d="M 108 441 
L 412.363636 441 
L 412.363636 60.48 
L 108 60.48 
z
" style="fill:#ffffff;"/>
   </g>
   <g id="matplotlib.axis_1">
    <g id="xtick_1">
     <g id="line2d_1">
      <defs>
       <path d="M 0 0 
L 0 3.5 
" id="mace3faf15b" style="stroke:#000000;stroke-width:0.8;"/>
      </defs>
      <g>
       <use style="stroke:#000000;stroke-width:0.8;" x="121.834711" xlink:href="#mace3faf15b" y="441"/>
      </g>
     </g>
     <g id="text_1">
      <!-- −7.0 -->
      <defs>
       <path d="M 10.59375 35.5 
L 73.1875 35.5 
L 73.1875 27.203125 
L 10.59375 27.203125 
z
" id="DejaVuSans-8722"/>
       <path d="M 8.203125 72.90625 
L 55.078125 72.90625 
L 55.078125 68.703125 
L 28.609375 0 
L 18.3125 0 
L 43.21875 64.59375 
L 8.203125 64.59375 
z
" id="DejaVuSans-55"/>
       <path d="M 10.6875 12.40625 
L 21 12.40625 
L 21 0 
L 10.6875 0 
z
" id="DejaVuSans-46"/>
       <path d="M 31.78125 66.40625 
Q 24.171875 66.40625 20.328125 58.90625 
Q 16.5 51.421875 16.5 36.375 
Q 16.5 21.390625 20.328125 13.890625 
Q 24.171875 6.390625 31.78125 6.390625 
Q 39.453125 6.390625 43.28125 13.890625 
Q 47.125 21.390625 47.125 36.375 
Q 47.125 51.421875 43.28125 58.90625 
Q 39.453125 66.40625 31.78125 66.40625 
z
M 31.78125 74.21875 
Q 44.046875 74.21875 50.515625 64.515625 
Q 56.984375 54.828125 56.984375 36.375 
Q 56.984375 17.96875 50.515625 8.265625 
Q 44.046875 -1.421875 31.78125 -1.421875 
Q 19.53125 -1.421875 13.0625 8.265625 
Q 6.59375 17.96875 6.59375 36.375 
Q 6.59375 54.828125 13.0625 64.515625 
Q 19.53125 74.21875 31.78125 74.21875 
z
" id="DejaVuSans-48"/>
      </defs>
      <g transform="translate(109.693304 455.598437)scale(0.1 -0.1)">
       <use xlink:href="#DejaVuSans-8722"/>
       <use x="83.789062" xlink:href="#DejaVuSans-55"/>
       <use x="147.412109" xlink:href="#DejaVuSans-46"/>
       <use x="179.199219" xlink:href="#DejaVuSans-48"/>
      </g>
     </g>
    </g>
    <g id="xtick_2">
     <g id="line2d_2">
      <g>
       <use style="stroke:#000000;stroke-width:0.8;" x="149.425302" xlink:href="#mace3faf15b" y="441"/>
      </g>
     </g>
     <g id="text_2">
      <!-- 0.0 -->
      <g transform="translate(141.473739 455.598437)scale(0.1 -0.1)">
       <use xlink:href="#DejaVuSans-48"/>
       <use x="63.623047" xlink:href="#DejaVuSans-46"/>
       <use x="95.410156" xlink:href="#DejaVuSans-48"/>
      </g>
     </g>
    </g>
    <g id="xtick_3">
     <g id="line2d_3">
      <g>
       <use style="stroke:#000000;stroke-width:0.8;" x="169.132867" xlink:href="#mace3faf15b" y="441"/>
      </g>
     </g>
     <g id="text_3">
      <!-- 5.0 -->
      <defs>
       <path d="M 10.796875 72.90625 
L 49.515625 72.90625 
L 49.515625 64.59375 
L 19.828125 64.59375 
L 19.828125 46.734375 
Q 21.96875 47.46875 24.109375 47.828125 
Q 26.265625 48.1875 28.421875 48.1875 
Q 40.625 48.1875 47.75 41.5 
Q 54.890625 34.8125 54.890625 23.390625 
Q 54.890625 11.625 47.5625 5.09375 
Q 40.234375 -1.421875 26.90625 -1.421875 
Q 22.3125 -1.421875 17.546875 -0.640625 
Q 12.796875 0.140625 7.71875 1.703125 
L 7.71875 11.625 
Q 12.109375 9.234375 16.796875 8.0625 
Q 21.484375 6.890625 26.703125 6.890625 
Q 35.15625 6.890625 40.078125 11.328125 
Q 45.015625 15.765625 45.015625 23.390625 
Q 45.015625 31 40.078125 35.4375 
Q 35.15625 39.890625 26.703125 39.890625 
Q 22.75 39.890625 18.8125 39.015625 
Q 14.890625 38.140625 10.796875 36.28125 
z
" id="DejaVuSans-53"/>
      </defs>
      <g transform="translate(161.181305 455.598437)scale(0.1 -0.1)">
       <use xlink:href="#DejaVuSans-53"/>
       <use x="63.623047" xlink:href="#DejaVuSans-46"/>
       <use x="95.410156" xlink:href="#DejaVuSans-48"/>
      </g>
     </g>
    </g>
    <g id="xtick_4">
     <g id="line2d_4">
      <g>
       <use style="stroke:#000000;stroke-width:0.8;" x="211.307057" xlink:href="#mace3faf15b" y="441"/>
      </g>
     </g>
     <g id="text_4">
      <!-- 15.7 -->
      <defs>
       <path d="M 12.40625 8.296875 
L 28.515625 8.296875 
L 28.515625 63.921875 
L 10.984375 60.40625 
L 10.984375 69.390625 
L 28.421875 72.90625 
L 38.28125 72.90625 
L 38.28125 8.296875 
L 54.390625 8.296875 
L 54.390625 0 
L 12.40625 0 
z
" id="DejaVuSans-49"/>
      </defs>
      <g transform="translate(200.174244 455.598437)scale(0.1 -0.1)">
       <use xlink:href="#DejaVuSans-49"/>
       <use x="63.623047" xlink:href="#DejaVuSans-53"/>
       <use x="127.246094" xlink:href="#DejaVuSans-46"/>
       <use x="159.033203" xlink:href="#DejaVuSans-55"/>
      </g>
     </g>
    </g>
    <g id="xtick_5">
     <g id="line2d_5">
      <g>
       <use style="stroke:#000000;stroke-width:0.8;" x="273.188811" xlink:href="#mace3faf15b" y="441"/>
      </g>
     </g>
     <g id="text_5">
      <!-- 31.4 -->
      <defs>
       <path d="M 40.578125 39.3125 
Q 47.65625 37.796875 51.625 33 
Q 55.609375 28.21875 55.609375 21.1875 
Q 55.609375 10.40625 48.1875 4.484375 
Q 40.765625 -1.421875 27.09375 -1.421875 
Q 22.515625 -1.421875 17.65625 -0.515625 
Q 12.796875 0.390625 7.625 2.203125 
L 7.625 11.71875 
Q 11.71875 9.328125 16.59375 8.109375 
Q 21.484375 6.890625 26.8125 6.890625 
Q 36.078125 6.890625 40.9375 10.546875 
Q 45.796875 14.203125 45.796875 21.1875 
Q 45.796875 27.640625 41.28125 31.265625 
Q 36.765625 34.90625 28.71875 34.90625 
L 20.21875 34.90625 
L 20.21875 43.015625 
L 29.109375 43.015625 
Q 36.375 43.015625 40.234375 45.921875 
Q 44.09375 48.828125 44.09375 54.296875 
Q 44.09375 59.90625 40.109375 62.90625 
Q 36.140625 65.921875 28.71875 65.921875 
Q 24.65625 65.921875 20.015625 65.03125 
Q 15.375 64.15625 9.8125 62.3125 
L 9.8125 71.09375 
Q 15.4375 72.65625 20.34375 73.4375 
Q 25.25 74.21875 29.59375 74.21875 
Q 40.828125 74.21875 47.359375 69.109375 
Q 53.90625 64.015625 53.90625 55.328125 
Q 53.90625 49.265625 50.4375 45.09375 
Q 46.96875 40.921875 40.578125 39.3125 
z
" id="DejaVuSans-51"/>
       <path d="M 37.796875 64.3125 
L 12.890625 25.390625 
L 37.796875 25.390625 
z
M 35.203125 72.90625 
L 47.609375 72.90625 
L 47.609375 25.390625 
L 58.015625 25.390625 
L 58.015625 17.1875 
L 47.609375 17.1875 
L 47.609375 0 
L 37.796875 0 
L 37.796875 17.1875 
L 4.890625 17.1875 
L 4.890625 26.703125 
z
" id="DejaVuSans-52"/>
      </defs>
      <g transform="translate(262.055999 455.598437)scale(0.1 -0.1)">
       <use xlink:href="#DejaVuSans-51"/>
       <use x="63.623047" xlink:href="#DejaVuSans-49"/>
       <use x="127.246094" xlink:href="#DejaVuSans-46"/>
       <use x="159.033203" xlink:href="#DejaVuSans-52"/>
      </g>
     </g>
    </g>
    <g id="xtick_6">
     <g id="line2d_6">
      <g>
       <use style="stroke:#000000;stroke-width:0.8;" x="335.070566" xlink:href="#mace3faf15b" y="441"/>
      </g>
     </g>
     <g id="text_6">
      <!-- 47.1 -->
      <g transform="translate(323.937753 455.598437)scale(0.1 -0.1)">
       <use xlink:href="#DejaVuSans-52"/>
       <use x="63.623047" xlink:href="#DejaVuSans-55"/>
       <use x="127.246094" xlink:href="#DejaVuSans-46"/>
       <use x="159.033203" xlink:href="#DejaVuSans-49"/>
      </g>
     </g>
    </g>
    <g id="text_7">
     <!-- x -->
     <defs>
      <path d="M 54.890625 54.6875 
L 35.109375 28.078125 
L 55.90625 0 
L 45.3125 0 
L 29.390625 21.484375 
L 13.484375 0 
L 2.875 0 
L 24.125 28.609375 
L 4.6875 54.6875 
L 15.28125 54.6875 
L 29.78125 35.203125 
L 44.28125 54.6875 
z
" id="DejaVuSans-120"/>
     </defs>
     <g transform="translate(256.038693 472.315938)scale(0.14 -0.14)">
      <use xlink:href="#DejaVuSans-120"/>
     </g>
    </g>
   </g>
   <g id="matplotlib.axis_2">
    <g id="ytick_1">
     <g id="line2d_7">
      <defs>
       <path d="M 0 0 
L -3.5 0 
" id="me91112beab" style="stroke:#000000;stroke-width:0.8;"/>
      </defs>
      <g>
       <use style="stroke:#000000;stroke-width:0.8;" x="108" xlink:href="#me91112beab" y="417.584257"/>
      </g>
     </g>
     <g id="text_8">
      <!-- −250 -->
      <defs>
       <path d="M 19.1875 8.296875 
L 53.609375 8.296875 
L 53.609375 0 
L 7.328125 0 
L 7.328125 8.296875 
Q 12.9375 14.109375 22.625 23.890625 
Q 32.328125 33.6875 34.8125 36.53125 
Q 39.546875 41.84375 41.421875 45.53125 
Q 43.3125 49.21875 43.3125 52.78125 
Q 43.3125 58.59375 39.234375 62.25 
Q 35.15625 65.921875 28.609375 65.921875 
Q 23.96875 65.921875 18.8125 64.3125 
Q 13.671875 62.703125 7.8125 59.421875 
L 7.8125 69.390625 
Q 13.765625 71.78125 18.9375 73 
Q 24.125 74.21875 28.421875 74.21875 
Q 39.75 74.21875 46.484375 68.546875 
Q 53.21875 62.890625 53.21875 53.421875 
Q 53.21875 48.921875 51.53125 44.890625 
Q 49.859375 40.875 45.40625 35.40625 
Q 44.1875 33.984375 37.640625 27.21875 
Q 31.109375 20.453125 19.1875 8.296875 
z
" id="DejaVuSans-50"/>
      </defs>
      <g transform="translate(73.532813 421.383476)scale(0.1 -0.1)">
       <use xlink:href="#DejaVuSans-8722"/>
       <use x="83.789062" xlink:href="#DejaVuSans-50"/>
       <use x="147.412109" xlink:href="#DejaVuSans-53"/>
       <use x="211.035156" xlink:href="#DejaVuSans-48"/>
      </g>
     </g>
    </g>
    <g id="ytick_2">
     <g id="line2d_8">
      <g>
       <use style="stroke:#000000;stroke-width:0.8;" x="108" xlink:href="#me91112beab" y="374.775025"/>
      </g>
     </g>
     <g id="text_9">
      <!-- −200 -->
      <g transform="translate(73.532813 378.574244)scale(0.1 -0.1)">
       <use xlink:href="#DejaVuSans-8722"/>
       <use x="83.789062" xlink:href="#DejaVuSans-50"/>
       <use x="147.412109" xlink:href="#DejaVuSans-48"/>
       <use x="211.035156" xlink:href="#DejaVuSans-48"/>
      </g>
     </g>
    </g>
    <g id="ytick_3">
     <g id="line2d_9">
      <g>
       <use style="stroke:#000000;stroke-width:0.8;" x="108" xlink:href="#me91112beab" y="331.965792"/>
      </g>
     </g>
     <g id="text_10">
      <!-- −150 -->
      <g transform="translate(73.532813 335.765011)scale(0.1 -0.1)">
       <use xlink:href="#DejaVuSans-8722"/>
       <use x="83.789062" xlink:href="#DejaVuSans-49"/>
       <use x="147.412109" xlink:href="#DejaVuSans-53"/>
       <use x="211.035156" xlink:href="#DejaVuSans-48"/>
      </g>
     </g>
    </g>
    <g id="ytick_4">
     <g id="line2d_10">
      <g>
       <use style="stroke:#000000;stroke-width:0.8;" x="108" xlink:href="#me91112beab" y="289.15656"/>
      </g>
     </g>
     <g id="text_11">
      <!-- −100 -->
      <g transform="translate(73.532813 292.955779)scale(0.1 -0.1)">
       <use xlink:href="#DejaVuSans-8722"/>
       <use x="83.789062" xlink:href="#DejaVuSans-49"/>
       <use x="147.412109" xlink:href="#DejaVuSans-48"/>
       <use x="211.035156" xlink:href="#DejaVuSans-48"/>
      </g>
     </g>
    </g>
    <g id="ytick_5">
     <g id="line2d_11">
      <g>
       <use style="stroke:#000000;stroke-width:0.8;" x="108" xlink:href="#me91112beab" y="246.347328"/>
      </g>
     </g>
     <g id="text_12">
      <!-- −50 -->
      <g transform="translate(79.895313 250.146546)scale(0.1 -0.1)">
       <use xlink:href="#DejaVuSans-8722"/>
       <use x="83.789062" xlink:href="#DejaVuSans-53"/>
       <use x="147.412109" xlink:href="#DejaVuSans-48"/>
      </g>
     </g>
    </g>
    <g id="ytick_6">
     <g id="line2d_12">
      <g>
       <use style="stroke:#000000;stroke-width:0.8;" x="108" xlink:href="#me91112beab" y="203.538095"/>
      </g>
     </g>
     <g id="text_13">
      <!-- 0 -->
      <g transform="translate(94.6375 207.337314)scale(0.1 -0.1)">
       <use xlink:href="#DejaVuSans-48"/>
      </g>
     </g>
    </g>
    <g id="ytick_7">
     <g id="line2d_13">
      <g>
       <use style="stroke:#000000;stroke-width:0.8;" x="108" xlink:href="#me91112beab" y="160.728863"/>
      </g>
     </g>
     <g id="text_14">
      <!-- 50 -->
      <g transform="translate(88.275 164.528081)scale(0.1 -0.1)">
       <use xlink:href="#DejaVuSans-53"/>
       <use x="63.623047" xlink:href="#DejaVuSans-48"/>
      </g>
     </g>
    </g>
    <g id="ytick_8">
     <g id="line2d_14">
      <g>
       <use style="stroke:#000000;stroke-width:0.8;" x="108" xlink:href="#me91112beab" y="117.91963"/>
      </g>
     </g>
     <g id="text_15">
      <!-- 100 -->
      <g transform="translate(81.9125 121.718849)scale(0.1 -0.1)">
       <use xlink:href="#DejaVuSans-49"/>
       <use x="63.623047" xlink:href="#DejaVuSans-48"/>
       <use x="127.246094" xlink:href="#DejaVuSans-48"/>
      </g>
     </g>
    </g>
    <g id="ytick_9">
     <g id="line2d_15">
      <g>
       <use style="stroke:#000000;stroke-width:0.8;" x="108" xlink:href="#me91112beab" y="75.110398"/>
      </g>
     </g>
     <g id="text_16">
      <!-- 150 -->
      <g transform="translate(81.9125 78.909616)scale(0.1 -0.1)">
       <use xlink:href="#DejaVuSans-49"/>
       <use x="63.623047" xlink:href="#DejaVuSans-53"/>
       <use x="127.246094" xlink:href="#DejaVuSans-48"/>
      </g>
     </g>
    </g>
    <g id="text_17">
     <!-- f(x), g(x), h(x) -->
     <defs>
      <path d="M 37.109375 75.984375 
L 37.109375 68.5 
L 28.515625 68.5 
Q 23.6875 68.5 21.796875 66.546875 
Q 19.921875 64.59375 19.921875 59.515625 
L 19.921875 54.6875 
L 34.71875 54.6875 
L 34.71875 47.703125 
L 19.921875 47.703125 
L 19.921875 0 
L 10.890625 0 
L 10.890625 47.703125 
L 2.296875 47.703125 
L 2.296875 54.6875 
L 10.890625 54.6875 
L 10.890625 58.5 
Q 10.890625 67.625 15.140625 71.796875 
Q 19.390625 75.984375 28.609375 75.984375 
z
" id="DejaVuSans-102"/>
      <path d="M 31 75.875 
Q 24.46875 64.65625 21.28125 53.65625 
Q 18.109375 42.671875 18.109375 31.390625 
Q 18.109375 20.125 21.3125 9.0625 
Q 24.515625 -2 31 -13.1875 
L 23.1875 -13.1875 
Q 15.875 -1.703125 12.234375 9.375 
Q 8.59375 20.453125 8.59375 31.390625 
Q 8.59375 42.28125 12.203125 53.3125 
Q 15.828125 64.359375 23.1875 75.875 
z
" id="DejaVuSans-40"/>
      <path d="M 8.015625 75.875 
L 15.828125 75.875 
Q 23.140625 64.359375 26.78125 53.3125 
Q 30.421875 42.28125 30.421875 31.390625 
Q 30.421875 20.453125 26.78125 9.375 
Q 23.140625 -1.703125 15.828125 -13.1875 
L 8.015625 -13.1875 
Q 14.5 -2 17.703125 9.0625 
Q 20.90625 20.125 20.90625 31.390625 
Q 20.90625 42.671875 17.703125 53.65625 
Q 14.5 64.65625 8.015625 75.875 
z
" id="DejaVuSans-41"/>
      <path d="M 11.71875 12.40625 
L 22.015625 12.40625 
L 22.015625 4 
L 14.015625 -11.625 
L 7.71875 -11.625 
L 11.71875 4 
z
" id="DejaVuSans-44"/>
      <path id="DejaVuSans-32"/>
      <path d="M 45.40625 27.984375 
Q 45.40625 37.75 41.375 43.109375 
Q 37.359375 48.484375 30.078125 48.484375 
Q 22.859375 48.484375 18.828125 43.109375 
Q 14.796875 37.75 14.796875 27.984375 
Q 14.796875 18.265625 18.828125 12.890625 
Q 22.859375 7.515625 30.078125 7.515625 
Q 37.359375 7.515625 41.375 12.890625 
Q 45.40625 18.265625 45.40625 27.984375 
z
M 54.390625 6.78125 
Q 54.390625 -7.171875 48.1875 -13.984375 
Q 42 -20.796875 29.203125 -20.796875 
Q 24.46875 -20.796875 20.265625 -20.09375 
Q 16.0625 -19.390625 12.109375 -17.921875 
L 12.109375 -9.1875 
Q 16.0625 -11.328125 19.921875 -12.34375 
Q 23.78125 -13.375 27.78125 -13.375 
Q 36.625 -13.375 41.015625 -8.765625 
Q 45.40625 -4.15625 45.40625 5.171875 
L 45.40625 9.625 
Q 42.625 4.78125 38.28125 2.390625 
Q 33.9375 0 27.875 0 
Q 17.828125 0 11.671875 7.65625 
Q 5.515625 15.328125 5.515625 27.984375 
Q 5.515625 40.671875 11.671875 48.328125 
Q 17.828125 56 27.875 56 
Q 33.9375 56 38.28125 53.609375 
Q 42.625 51.21875 45.40625 46.390625 
L 45.40625 54.6875 
L 54.390625 54.6875 
z
" id="DejaVuSans-103"/>
      <path d="M 54.890625 33.015625 
L 54.890625 0 
L 45.90625 0 
L 45.90625 32.71875 
Q 45.90625 40.484375 42.875 44.328125 
Q 39.84375 48.1875 33.796875 48.1875 
Q 26.515625 48.1875 22.3125 43.546875 
Q 18.109375 38.921875 18.109375 30.90625 
L 18.109375 0 
L 9.078125 0 
L 9.078125 75.984375 
L 18.109375 75.984375 
L 18.109375 46.1875 
Q 21.34375 51.125 25.703125 53.5625 
Q 30.078125 56 35.796875 56 
Q 45.21875 56 50.046875 50.171875 
Q 54.890625 44.34375 54.890625 33.015625 
z
" id="DejaVuSans-104"/>
     </defs>
     <g transform="translate(67.453125 285.782188)rotate(-90)scale(0.1 -0.1)">
      <use xlink:href="#DejaVuSans-102"/>
      <use x="35.205078" xlink:href="#DejaVuSans-40"/>
      <use x="74.21875" xlink:href="#DejaVuSans-120"/>
      <use x="133.398438" xlink:href="#DejaVuSans-41"/>
      <use x="172.412109" xlink:href="#DejaVuSans-44"/>
      <use x="204.199219" xlink:href="#DejaVuSans-32"/>
      <use x="235.986328" xlink:href="#DejaVuSans-103"/>
      <use x="299.462891" xlink:href="#DejaVuSans-40"/>
      <use x="338.476562" xlink:href="#DejaVuSans-120"/>
      <use x="397.65625" xlink:href="#DejaVuSans-41"/>
      <use x="436.669922" xlink:href="#DejaVuSans-44"/>
      <use x="468.457031" xlink:href="#DejaVuSans-32"/>
      <use x="500.244141" xlink:href="#DejaVuSans-104"/>
      <use x="563.623047" xlink:href="#DejaVuSans-40"/>
      <use x="602.636719" xlink:href="#DejaVuSans-120"/>
      <use x="661.816406" xlink:href="#DejaVuSans-41"/>
     </g>
    </g>
   </g>
   <g id="line2d_16">
    <path clip-path="url(#p36b823913a)" d="M 121.834711 62.192369 
L 123.190648 84.603502 
L 124.546585 103.472403 
L 125.902522 119.35834 
L 127.25846 132.732172 
L 128.614397 143.990322 
L 129.970334 153.466542 
L 131.326271 161.441819 
L 132.709881 168.277958 
L 134.09349 174.00871 
L 135.4771 178.811309 
L 136.860709 182.834444 
L 138.271991 186.264297 
L 139.683272 189.123787 
L 141.122226 191.548089 
L 142.588852 193.592843 
L 144.110823 195.336543 
L 145.688137 196.807446 
L 147.348469 198.052251 
L 149.119489 199.101017 
L 151.02887 199.97266 
L 153.131956 200.687191 
L 155.511764 201.25643 
L 158.251311 201.676987 
L 161.516629 201.944733 
L 165.584441 202.043728 
L 171.174223 201.939549 
L 190.655444 201.40186 
L 196.106865 201.572701 
L 201.032515 201.94824 
L 205.681443 202.524513 
L 210.247354 203.3145 
L 214.896281 204.34641 
L 219.877275 205.685025 
L 225.799124 207.518446 
L 239.718235 211.927521 
L 243.592341 212.85349 
L 246.857659 213.409469 
L 249.763239 213.681365 
L 252.419769 213.709498 
L 254.910266 213.515943 
L 257.290074 213.108912 
L 259.586866 212.491177 
L 261.828313 211.659604 
L 264.069761 210.58897 
L 266.311208 209.268786 
L 268.580327 207.670474 
L 270.904791 205.755785 
L 273.312272 203.476991 
L 275.830441 200.778072 
L 278.486971 197.597565 
L 281.364879 193.797929 
L 284.630197 189.104594 
L 288.670336 182.884107 
L 298.992063 166.795337 
L 301.73161 163.051436 
L 304.000729 160.313763 
L 305.965454 158.282553 
L 307.68113 156.815608 
L 309.230773 155.771987 
L 310.642054 155.080429 
L 311.942647 154.682092 
L 313.160223 154.53328 
L 314.350128 154.611521 
L 315.51236 154.914325 
L 316.674591 155.45319 
L 317.836823 156.240043 
L 319.0544 157.342919 
L 320.299648 158.778735 
L 321.600241 160.624631 
L 322.956178 162.940376 
L 324.395132 165.850446 
L 325.917102 169.451932 
L 327.494417 173.768266 
L 329.154749 178.968462 
L 330.925769 185.269825 
L 332.779805 192.707944 
L 334.744531 201.527664 
L 336.847617 212.021485 
L 339.089064 224.365325 
L 341.524217 239.054542 
L 344.208419 256.643822 
L 347.307704 278.490359 
L 351.292499 308.292282 
L 360.036911 374.205385 
L 362.721113 392.452469 
L 364.907216 405.851236 
L 366.761253 415.886185 
L 368.36624 423.393951 
L 369.749849 428.860232 
L 370.967426 432.813815 
L 372.018969 435.525882 
L 372.932151 437.315537 
L 373.734645 438.429303 
L 374.426449 439.028594 
L 375.035237 439.268766 
L 375.588681 439.246084 
L 376.142125 438.98712 
L 376.723241 438.45383 
L 377.359701 437.553885 
L 378.079178 436.127152 
L 378.881672 434.007075 
L 379.767182 430.998984 
L 380.735708 426.877609 
L 381.787251 421.384633 
L 382.921811 414.226447 
L 384.139387 405.072309 
L 385.43998 393.553163 
L 386.82359 379.261435 
L 388.290216 361.752226 
L 389.867531 340.142077 
L 391.527862 314.218911 
L 393.27121 283.444896 
L 395.125246 246.697944 
L 397.089972 203.256463 
L 398.528926 168.546216 
L 398.528926 168.546216 
" style="fill:none;stroke:#ff0000;stroke-linecap:square;stroke-width:1.5;"/>
   </g>
   <g id="line2d_17">
    <path clip-path="url(#p36b823913a)" d="M 136.434685 505 
L 137.275792 415.863513 
L 138.105958 349.650341 
L 138.908451 302.210295 
L 139.683272 268.730894 
L 140.430422 245.500551 
L 141.149898 229.687874 
L 141.841703 219.158752 
L 142.478164 212.557873 
L 143.086952 208.328773 
L 143.668068 205.706449 
L 144.221511 204.145991 
L 144.747283 203.266833 
L 145.273055 202.791808 
L 145.854171 202.567856 
L 146.628992 202.530062 
L 153.076612 202.77845 
L 153.657728 202.519649 
L 154.128155 202.065814 
L 154.598582 201.282884 
L 155.069009 200.042194 
L 155.567109 198.055701 
L 156.09288 194.966279 
L 156.646324 190.276238 
L 157.22744 183.301888 
L 157.836228 173.116268 
L 158.472689 158.477615 
L 159.136821 137.740831 
L 159.828626 108.748776 
L 160.548103 68.699817 
L 161.295252 13.987567 
L 161.4695 -1 
L 161.4695 -1 
" style="fill:none;stroke:#008000;stroke-linecap:square;stroke-width:1.5;"/>
   </g>
   <g id="line2d_18">
    <path clip-path="url(#p36b823913a)" d="M 121.834711 203.538095 
L 141.814031 203.427188 
L 144.802627 203.107495 
L 146.435287 203.041469 
L 147.680535 203.221112 
L 149.589916 203.532586 
L 150.254049 203.379422 
L 150.918181 202.992939 
L 152.79989 201.713124 
L 153.214973 201.810515 
L 153.657728 202.164486 
L 155.069009 203.538077 
L 155.345731 203.43342 
L 155.677798 203.038439 
L 156.258913 201.890409 
L 156.757013 201.117952 
L 157.006063 201.054334 
L 157.22744 201.233369 
L 157.559506 201.868019 
L 158.334328 203.481517 
L 158.555705 203.523405 
L 158.804755 203.292349 
L 159.49656 202.488277 
L 159.717937 202.620503 
L 160.603447 203.502347 
L 161.350596 203.160742 
L 162.014729 203.513631 
L 162.595845 203.379302 
L 163.121616 203.51852 
L 163.619716 203.476747 
L 164.062471 203.515661 
L 164.532898 203.527806 
L 165.335391 203.537768 
L 168.213299 203.537032 
L 253.554329 203.538095 
L 398.528926 203.538095 
L 398.528926 203.538095 
" style="fill:none;stroke:#0000ff;stroke-linecap:square;stroke-width:1.5;"/>
   </g>
   <g id="line2d_19">
    <path clip-path="url(#p36b823913a)" d="M 149.425302 441 
L 149.425302 60.48 
" style="fill:none;stroke:#000000;stroke-linecap:square;stroke-width:0.5;"/>
   </g>
   <g id="line2d_20">
    <path clip-path="url(#p36b823913a)" d="M 108 203.538095 
L 412.363636 203.538095 
" style="fill:none;stroke:#000000;stroke-linecap:square;stroke-width:0.5;"/>
   </g>
   <g id="patch_3">
    <path d="M 108 441 
L 108 60.48 
" style="fill:none;stroke:#000000;stroke-linecap:square;stroke-linejoin:miter;stroke-width:0.8;"/>
   </g>
   <g id="patch_4">
    <path d="M 412.363636 441 
L 412.363636 60.48 
" style="fill:none;stroke:#000000;stroke-linecap:square;stroke-linejoin:miter;stroke-width:0.8;"/>
   </g>
   <g id="patch_5">
    <path d="M 108 441 
L 412.363636 441 
" style="fill:none;stroke:#000000;stroke-linecap:square;stroke-linejoin:miter;stroke-width:0.8;"/>
   </g>
   <g id="patch_6">
    <path d="M 108 60.48 
L 412.363636 60.48 
" style="fill:none;stroke:#000000;stroke-linecap:square;stroke-linejoin:miter;stroke-width:0.8;"/>
   </g>
   <g id="text_18">
    <!-- Поведение f(x), g(x), h(x) при больших x -->
    <defs>
     <path d="M 65.375 72.90625 
L 65.375 0 
L 55.515625 0 
L 55.515625 64.59375 
L 19.671875 64.59375 
L 19.671875 0 
L 9.8125 0 
L 9.8125 72.90625 
z
" id="DejaVuSans-1055"/>
     <path d="M 30.609375 48.390625 
Q 23.390625 48.390625 19.1875 42.75 
Q 14.984375 37.109375 14.984375 27.296875 
Q 14.984375 17.484375 19.15625 11.84375 
Q 23.34375 6.203125 30.609375 6.203125 
Q 37.796875 6.203125 41.984375 11.859375 
Q 46.1875 17.53125 46.1875 27.296875 
Q 46.1875 37.015625 41.984375 42.703125 
Q 37.796875 48.390625 30.609375 48.390625 
z
M 30.609375 56 
Q 42.328125 56 49.015625 48.375 
Q 55.71875 40.765625 55.71875 27.296875 
Q 55.71875 13.875 49.015625 6.21875 
Q 42.328125 -1.421875 30.609375 -1.421875 
Q 18.84375 -1.421875 12.171875 6.21875 
Q 5.515625 13.875 5.515625 27.296875 
Q 5.515625 40.765625 12.171875 48.375 
Q 18.84375 56 30.609375 56 
z
" id="DejaVuSans-1086"/>
     <path d="M 18.0625 25.203125 
L 18.0625 7.171875 
L 30.859375 7.171875 
Q 37.015625 7.171875 40.234375 9.484375 
Q 43.453125 11.8125 43.453125 16.21875 
Q 43.453125 20.609375 40.234375 22.90625 
Q 37.015625 25.203125 30.859375 25.203125 
z
M 18.0625 47.515625 
L 18.0625 32.375 
L 29.890625 32.375 
Q 34.96875 32.375 38.1875 34.390625 
Q 41.40625 36.421875 41.40625 40.046875 
Q 41.40625 43.65625 38.1875 45.578125 
Q 34.96875 47.515625 29.890625 47.515625 
z
M 9.078125 54.6875 
L 30.46875 54.6875 
Q 40.09375 54.6875 45.265625 51.171875 
Q 50.4375 47.65625 50.4375 41.15625 
Q 50.4375 36.140625 47.796875 33.171875 
Q 45.171875 30.21875 39.984375 29.5 
Q 46.1875 28.328125 49.609375 24.609375 
Q 53.03125 20.90625 53.03125 15.328125 
Q 53.03125 8.015625 47.390625 4 
Q 41.75 0 31.296875 0 
L 9.078125 0 
z
" id="DejaVuSans-1074"/>
     <path d="M 56.203125 29.59375 
L 56.203125 25.203125 
L 14.890625 25.203125 
Q 15.484375 15.921875 20.484375 11.0625 
Q 25.484375 6.203125 34.421875 6.203125 
Q 39.59375 6.203125 44.453125 7.46875 
Q 49.3125 8.734375 54.109375 11.28125 
L 54.109375 2.78125 
Q 49.265625 0.734375 44.1875 -0.34375 
Q 39.109375 -1.421875 33.890625 -1.421875 
Q 20.796875 -1.421875 13.15625 6.1875 
Q 5.515625 13.8125 5.515625 26.8125 
Q 5.515625 40.234375 12.765625 48.109375 
Q 20.015625 56 32.328125 56 
Q 43.359375 56 49.78125 48.890625 
Q 56.203125 41.796875 56.203125 29.59375 
z
M 47.21875 32.234375 
Q 47.125 39.59375 43.09375 43.984375 
Q 39.0625 48.390625 32.421875 48.390625 
Q 24.90625 48.390625 20.390625 44.140625 
Q 15.875 39.890625 15.1875 32.171875 
z
" id="DejaVuSans-1077"/>
     <path d="M 21.625 7.171875 
L 47.703125 7.171875 
L 47.703125 47.515625 
L 28.8125 47.515625 
L 28.8125 40.671875 
Q 28.8125 20.5625 23.046875 9.8125 
z
M 8.59375 7.171875 
Q 13.03125 9.125 14.984375 13.28125 
Q 19.78125 23.578125 19.78125 44.34375 
L 19.78125 54.6875 
L 56.734375 54.6875 
L 56.734375 7.171875 
L 63.921875 7.171875 
L 63.921875 -13.8125 
L 56.734375 -13.8125 
L 56.734375 0 
L 12.40625 0 
L 12.40625 -13.8125 
L 5.21875 -13.8125 
L 5.21875 7.171875 
z
" id="DejaVuSans-1076"/>
     <path d="M 9.078125 54.6875 
L 18.109375 54.6875 
L 18.109375 32.375 
L 47.265625 32.375 
L 47.265625 54.6875 
L 56.296875 54.6875 
L 56.296875 0 
L 47.265625 0 
L 47.265625 25.203125 
L 18.109375 25.203125 
L 18.109375 0 
L 9.078125 0 
z
" id="DejaVuSans-1085"/>
     <path d="M 55.90625 54.6875 
L 55.90625 0 
L 46.96875 0 
L 46.96875 43.890625 
L 20.609375 0 
L 9.078125 0 
L 9.078125 54.6875 
L 18.015625 54.6875 
L 18.015625 10.890625 
L 44.34375 54.6875 
z
" id="DejaVuSans-1080"/>
     <path d="M 56.296875 54.6875 
L 56.296875 0 
L 47.265625 0 
L 47.265625 47.515625 
L 18.109375 47.515625 
L 18.109375 0 
L 9.078125 0 
L 9.078125 54.6875 
z
" id="DejaVuSans-1087"/>
     <path d="M 18.109375 8.203125 
L 18.109375 -20.796875 
L 9.078125 -20.796875 
L 9.078125 54.6875 
L 18.109375 54.6875 
L 18.109375 46.390625 
Q 20.953125 51.265625 25.265625 53.625 
Q 29.59375 56 35.59375 56 
Q 45.5625 56 51.78125 48.09375 
Q 58.015625 40.1875 58.015625 27.296875 
Q 58.015625 14.40625 51.78125 6.484375 
Q 45.5625 -1.421875 35.59375 -1.421875 
Q 29.59375 -1.421875 25.265625 0.953125 
Q 20.953125 3.328125 18.109375 8.203125 
z
M 48.6875 27.296875 
Q 48.6875 37.203125 44.609375 42.84375 
Q 40.53125 48.484375 33.40625 48.484375 
Q 26.265625 48.484375 22.1875 42.84375 
Q 18.109375 37.203125 18.109375 27.296875 
Q 18.109375 17.390625 22.1875 11.75 
Q 26.265625 6.109375 33.40625 6.109375 
Q 40.53125 6.109375 44.609375 11.75 
Q 48.6875 17.390625 48.6875 27.296875 
z
" id="DejaVuSans-1088"/>
     <path d="M 31.109375 56 
Q 42.828125 56 49.515625 48.375 
Q 56.203125 40.765625 56.203125 27.296875 
Q 56.203125 13.875 49.515625 6.21875 
Q 42.828125 -1.421875 31.109375 -1.421875 
Q 19.34375 -1.421875 12.84375 6 
Q 6.34375 13.421875 6 27.296875 
L 5.71875 38.484375 
Q 5.46875 44.28125 5.46875 46.296875 
Q 5.46875 54.109375 8.296875 59.859375 
Q 12.75 68.890625 20.4375 72.796875 
Q 28.125 76.703125 41.015625 76.8125 
Q 46.96875 76.859375 49.609375 77.6875 
L 52.09375 70.5625 
Q 49.703125 69.578125 47.515625 69.53125 
L 35.296875 68.703125 
Q 29.15625 68.265625 25.4375 66.109375 
Q 15.71875 60.40625 14.796875 52.9375 
L 14.453125 50.203125 
Q 20.796875 56 31.109375 56 
z
M 31.109375 48.390625 
Q 23.875 48.390625 19.671875 42.75 
Q 15.484375 37.109375 15.484375 27.296875 
Q 15.484375 17.484375 19.65625 11.84375 
Q 23.828125 6.203125 31.109375 6.203125 
Q 38.28125 6.203125 42.484375 11.859375 
Q 46.6875 17.53125 46.6875 27.296875 
Q 46.6875 37.015625 42.484375 42.703125 
Q 38.28125 48.390625 31.109375 48.390625 
z
" id="DejaVuSans-1073"/>
     <path d="M 3.71875 0 
L 3.71875 7.46875 
Q 12.59375 8.84375 15.328125 14.984375 
Q 18.65625 23.640625 18.65625 45.75 
L 18.65625 54.6875 
L 55.609375 54.6875 
L 55.609375 0 
L 46.625 0 
L 46.625 47.515625 
L 27.640625 47.515625 
L 27.640625 42.09375 
Q 27.640625 21 23.34375 11.53125 
Q 18.75 1.421875 3.71875 0 
z
" id="DejaVuSans-1083"/>
     <path d="M 43.453125 16.21875 
Q 43.453125 20.609375 40.25 22.90625 
Q 37.0625 25.203125 30.90625 25.203125 
L 18.109375 25.203125 
L 18.109375 7.171875 
L 30.90625 7.171875 
Q 37.0625 7.171875 40.25 9.484375 
Q 43.453125 11.8125 43.453125 16.21875 
z
M 9.078125 54.6875 
L 18.109375 54.6875 
L 18.109375 32.375 
L 31.296875 32.375 
Q 41.75 32.375 47.390625 28.390625 
Q 53.03125 24.421875 53.03125 16.21875 
Q 53.03125 8.015625 47.390625 4 
Q 41.75 0 31.296875 0 
L 9.078125 0 
z
" id="DejaVuSans-1100"/>
     <path d="M 50.25 7.171875 
L 73.390625 7.171875 
L 73.390625 54.6875 
L 82.421875 54.6875 
L 82.421875 0 
L 9.078125 0 
L 9.078125 54.6875 
L 18.109375 54.6875 
L 18.109375 7.171875 
L 41.21875 7.171875 
L 41.21875 54.6875 
L 50.25 54.6875 
z
" id="DejaVuSans-1096"/>
     <path d="M 54.890625 54.6875 
L 35.109375 28.078125 
L 55.90625 0 
L 45.3125 0 
L 29.390625 21.484375 
L 13.484375 0 
L 2.875 0 
L 24.125 28.609375 
L 4.6875 54.6875 
L 15.28125 54.6875 
L 29.78125 35.203125 
L 44.28125 54.6875 
z
" id="DejaVuSans-1093"/>
    </defs>
    <g transform="translate(132.873068 54.48)scale(0.12 -0.12)">
     <use xlink:href="#DejaVuSans-1055"/>
     <use x="75.195312" xlink:href="#DejaVuSans-1086"/>
     <use x="136.376953" xlink:href="#DejaVuSans-1074"/>
     <use x="195.3125" xlink:href="#DejaVuSans-1077"/>
     <use x="256.835938" xlink:href="#DejaVuSans-1076"/>
     <use x="325.976562" xlink:href="#DejaVuSans-1077"/>
     <use x="387.5" xlink:href="#DejaVuSans-1085"/>
     <use x="452.880859" xlink:href="#DejaVuSans-1080"/>
     <use x="517.871094" xlink:href="#DejaVuSans-1077"/>
     <use x="579.394531" xlink:href="#DejaVuSans-32"/>
     <use x="611.181641" xlink:href="#DejaVuSans-102"/>
     <use x="646.386719" xlink:href="#DejaVuSans-40"/>
     <use x="685.400391" xlink:href="#DejaVuSans-120"/>
     <use x="744.580078" xlink:href="#DejaVuSans-41"/>
     <use x="783.59375" xlink:href="#DejaVuSans-44"/>
     <use x="815.380859" xlink:href="#DejaVuSans-32"/>
     <use x="847.167969" xlink:href="#DejaVuSans-103"/>
     <use x="910.644531" xlink:href="#DejaVuSans-40"/>
     <use x="949.658203" xlink:href="#DejaVuSans-120"/>
     <use x="1008.837891" xlink:href="#DejaVuSans-41"/>
     <use x="1047.851562" xlink:href="#DejaVuSans-44"/>
     <use x="1079.638672" xlink:href="#DejaVuSans-32"/>
     <use x="1111.425781" xlink:href="#DejaVuSans-104"/>
     <use x="1174.804688" xlink:href="#DejaVuSans-40"/>
     <use x="1213.818359" xlink:href="#DejaVuSans-120"/>
     <use x="1272.998047" xlink:href="#DejaVuSans-41"/>
     <use x="1312.011719" xlink:href="#DejaVuSans-32"/>
     <use x="1343.798828" xlink:href="#DejaVuSans-1087"/>
     <use x="1409.179688" xlink:href="#DejaVuSans-1088"/>
     <use x="1472.65625" xlink:href="#DejaVuSans-1080"/>
     <use x="1537.646484" xlink:href="#DejaVuSans-32"/>
     <use x="1569.433594" xlink:href="#DejaVuSans-1073"/>
     <use x="1631.103516" xlink:href="#DejaVuSans-1086"/>
     <use x="1692.285156" xlink:href="#DejaVuSans-1083"/>
     <use x="1756.201172" xlink:href="#DejaVuSans-1100"/>
     <use x="1815.136719" xlink:href="#DejaVuSans-1096"/>
     <use x="1906.640625" xlink:href="#DejaVuSans-1080"/>
     <use x="1971.630859" xlink:href="#DejaVuSans-1093"/>
     <use x="2030.810547" xlink:href="#DejaVuSans-32"/>
     <use x="2062.597656" xlink:href="#DejaVuSans-120"/>
    </g>
   </g>
   <g id="legend_1">
    <g id="patch_7">
     <path d="M 353.293324 112.514375 
L 405.363636 112.514375 
Q 407.363636 112.514375 407.363636 110.514375 
L 407.363636 67.48 
Q 407.363636 65.48 405.363636 65.48 
L 353.293324 65.48 
Q 351.293324 65.48 351.293324 67.48 
L 351.293324 110.514375 
Q 351.293324 112.514375 353.293324 112.514375 
z
" style="fill:#ffffff;opacity:0.8;stroke:#cccccc;stroke-linejoin:miter;"/>
    </g>
    <g id="line2d_21">
     <path d="M 355.293324 73.578438 
L 375.293324 73.578438 
" style="fill:none;stroke:#ff0000;stroke-linecap:square;stroke-width:1.5;"/>
    </g>
    <g id="line2d_22"/>
    <g id="text_19">
     <!-- f(x) -->
     <g transform="translate(383.293324 77.078438)scale(0.1 -0.1)">
      <use xlink:href="#DejaVuSans-102"/>
      <use x="35.205078" xlink:href="#DejaVuSans-40"/>
      <use x="74.21875" xlink:href="#DejaVuSans-120"/>
      <use x="133.398438" xlink:href="#DejaVuSans-41"/>
     </g>
    </g>
    <g id="line2d_23">
     <path d="M 355.293324 88.256563 
L 375.293324 88.256563 
" style="fill:none;stroke:#008000;stroke-linecap:square;stroke-width:1.5;"/>
    </g>
    <g id="line2d_24"/>
    <g id="text_20">
     <!-- g(x) -->
     <g transform="translate(383.293324 91.756563)scale(0.1 -0.1)">
      <use xlink:href="#DejaVuSans-103"/>
      <use x="63.476562" xlink:href="#DejaVuSans-40"/>
      <use x="102.490234" xlink:href="#DejaVuSans-120"/>
      <use x="161.669922" xlink:href="#DejaVuSans-41"/>
     </g>
    </g>
    <g id="line2d_25">
     <path d="M 355.293324 102.934687 
L 375.293324 102.934687 
" style="fill:none;stroke:#0000ff;stroke-linecap:square;stroke-width:1.5;"/>
    </g>
    <g id="line2d_26"/>
    <g id="text_21">
     <!-- h(x) -->
     <g transform="translate(383.293324 106.434687)scale(0.1 -0.1)">
      <use xlink:href="#DejaVuSans-104"/>
      <use x="63.378906" xlink:href="#DejaVuSans-40"/>
      <use x="102.392578" xlink:href="#DejaVuSans-120"/>
      <use x="161.572266" xlink:href="#DejaVuSans-41"/>
     </g>
    </g>
   </g>
  </g>
  <g id="axes_2">
   <g id="patch_8">
    <path d="M 473.236364 441 
L 777.6 441 
L 777.6 60.48 
L 473.236364 60.48 
z
" style="fill:#ffffff;"/>
   </g>
   <g id="matplotlib.axis_3">
    <g id="xtick_7">
     <g id="line2d_27">
      <g>
       <use style="stroke:#000000;stroke-width:0.8;" x="689.980165" xlink:href="#mace3faf15b" y="441"/>
      </g>
     </g>
     <g id="text_22">
      <!-- 1.34 -->
      <g transform="translate(692.187665 465.8125)rotate(-90)scale(0.08 -0.08)">
       <use xlink:href="#DejaVuSans-49"/>
       <use x="63.623047" xlink:href="#DejaVuSans-46"/>
       <use x="95.410156" xlink:href="#DejaVuSans-51"/>
       <use x="159.033203" xlink:href="#DejaVuSans-52"/>
      </g>
     </g>
    </g>
    <g id="xtick_8">
     <g id="line2d_28">
      <g>
       <use style="stroke:#000000;stroke-width:0.8;" x="725.335537" xlink:href="#mace3faf15b" y="441"/>
      </g>
     </g>
     <g id="text_23">
      <!-- 1.8 -->
      <defs>
       <path d="M 31.78125 34.625 
Q 24.75 34.625 20.71875 30.859375 
Q 16.703125 27.09375 16.703125 20.515625 
Q 16.703125 13.921875 20.71875 10.15625 
Q 24.75 6.390625 31.78125 6.390625 
Q 38.8125 6.390625 42.859375 10.171875 
Q 46.921875 13.96875 46.921875 20.515625 
Q 46.921875 27.09375 42.890625 30.859375 
Q 38.875 34.625 31.78125 34.625 
z
M 21.921875 38.8125 
Q 15.578125 40.375 12.03125 44.71875 
Q 8.5 49.078125 8.5 55.328125 
Q 8.5 64.0625 14.71875 69.140625 
Q 20.953125 74.21875 31.78125 74.21875 
Q 42.671875 74.21875 48.875 69.140625 
Q 55.078125 64.0625 55.078125 55.328125 
Q 55.078125 49.078125 51.53125 44.71875 
Q 48 40.375 41.703125 38.8125 
Q 48.828125 37.15625 52.796875 32.3125 
Q 56.78125 27.484375 56.78125 20.515625 
Q 56.78125 9.90625 50.3125 4.234375 
Q 43.84375 -1.421875 31.78125 -1.421875 
Q 19.734375 -1.421875 13.25 4.234375 
Q 6.78125 9.90625 6.78125 20.515625 
Q 6.78125 27.484375 10.78125 32.3125 
Q 14.796875 37.15625 21.921875 38.8125 
z
M 18.3125 54.390625 
Q 18.3125 48.734375 21.84375 45.5625 
Q 25.390625 42.390625 31.78125 42.390625 
Q 38.140625 42.390625 41.71875 45.5625 
Q 45.3125 48.734375 45.3125 54.390625 
Q 45.3125 60.0625 41.71875 63.234375 
Q 38.140625 66.40625 31.78125 66.40625 
Q 25.390625 66.40625 21.84375 63.234375 
Q 18.3125 60.0625 18.3125 54.390625 
z
" id="DejaVuSans-56"/>
      </defs>
      <g transform="translate(727.543037 460.7225)rotate(-90)scale(0.08 -0.08)">
       <use xlink:href="#DejaVuSans-49"/>
       <use x="63.623047" xlink:href="#DejaVuSans-46"/>
       <use x="95.410156" xlink:href="#DejaVuSans-56"/>
      </g>
     </g>
    </g>
    <g id="xtick_9">
     <g id="line2d_29">
      <g>
       <use style="stroke:#000000;stroke-width:0.8;" x="743.013223" xlink:href="#mace3faf15b" y="441"/>
      </g>
     </g>
     <g id="text_24">
      <!-- 2.03 -->
      <g transform="translate(745.220723 465.8125)rotate(-90)scale(0.08 -0.08)">
       <use xlink:href="#DejaVuSans-50"/>
       <use x="63.623047" xlink:href="#DejaVuSans-46"/>
       <use x="95.410156" xlink:href="#DejaVuSans-48"/>
       <use x="159.033203" xlink:href="#DejaVuSans-51"/>
      </g>
     </g>
    </g>
    <g id="xtick_10">
     <g id="line2d_30">
      <g>
       <use style="stroke:#000000;stroke-width:0.8;" x="498.6" xlink:href="#mace3faf15b" y="441"/>
      </g>
     </g>
     <g id="text_25">
      <!-- -1.15 -->
      <defs>
       <path d="M 4.890625 31.390625 
L 31.203125 31.390625 
L 31.203125 23.390625 
L 4.890625 23.390625 
z
" id="DejaVuSans-45"/>
      </defs>
      <g transform="translate(500.8075 468.69875)rotate(-90)scale(0.08 -0.08)">
       <use xlink:href="#DejaVuSans-45"/>
       <use x="36.083984" xlink:href="#DejaVuSans-49"/>
       <use x="99.707031" xlink:href="#DejaVuSans-46"/>
       <use x="131.494141" xlink:href="#DejaVuSans-49"/>
       <use x="195.117188" xlink:href="#DejaVuSans-53"/>
      </g>
     </g>
    </g>
    <g id="xtick_11">
     <g id="line2d_31">
      <g>
       <use style="stroke:#000000;stroke-width:0.8;" x="622.343802" xlink:href="#mace3faf15b" y="441"/>
      </g>
     </g>
     <g id="text_26">
      <!-- 0.46 -->
      <defs>
       <path d="M 33.015625 40.375 
Q 26.375 40.375 22.484375 35.828125 
Q 18.609375 31.296875 18.609375 23.390625 
Q 18.609375 15.53125 22.484375 10.953125 
Q 26.375 6.390625 33.015625 6.390625 
Q 39.65625 6.390625 43.53125 10.953125 
Q 47.40625 15.53125 47.40625 23.390625 
Q 47.40625 31.296875 43.53125 35.828125 
Q 39.65625 40.375 33.015625 40.375 
z
M 52.59375 71.296875 
L 52.59375 62.3125 
Q 48.875 64.0625 45.09375 64.984375 
Q 41.3125 65.921875 37.59375 65.921875 
Q 27.828125 65.921875 22.671875 59.328125 
Q 17.53125 52.734375 16.796875 39.40625 
Q 19.671875 43.65625 24.015625 45.921875 
Q 28.375 48.1875 33.59375 48.1875 
Q 44.578125 48.1875 50.953125 41.515625 
Q 57.328125 34.859375 57.328125 23.390625 
Q 57.328125 12.15625 50.6875 5.359375 
Q 44.046875 -1.421875 33.015625 -1.421875 
Q 20.359375 -1.421875 13.671875 8.265625 
Q 6.984375 17.96875 6.984375 36.375 
Q 6.984375 53.65625 15.1875 63.9375 
Q 23.390625 74.21875 37.203125 74.21875 
Q 40.921875 74.21875 44.703125 73.484375 
Q 48.484375 72.75 52.59375 71.296875 
z
" id="DejaVuSans-54"/>
      </defs>
      <g transform="translate(624.551302 465.8125)rotate(-90)scale(0.08 -0.08)">
       <use xlink:href="#DejaVuSans-48"/>
       <use x="63.623047" xlink:href="#DejaVuSans-46"/>
       <use x="95.410156" xlink:href="#DejaVuSans-52"/>
       <use x="159.033203" xlink:href="#DejaVuSans-54"/>
      </g>
     </g>
    </g>
    <g id="xtick_12">
     <g id="line2d_32">
      <g>
       <use style="stroke:#000000;stroke-width:0.8;" x="673.071074" xlink:href="#mace3faf15b" y="441"/>
      </g>
     </g>
     <g id="text_27">
      <!-- 1.12 -->
      <g transform="translate(675.278574 465.8125)rotate(-90)scale(0.08 -0.08)">
       <use xlink:href="#DejaVuSans-49"/>
       <use x="63.623047" xlink:href="#DejaVuSans-46"/>
       <use x="95.410156" xlink:href="#DejaVuSans-49"/>
       <use x="159.033203" xlink:href="#DejaVuSans-50"/>
      </g>
     </g>
    </g>
    <g id="xtick_13">
     <g id="line2d_33">
      <g>
       <use style="stroke:#000000;stroke-width:0.8;" x="586.98843" xlink:href="#mace3faf15b" y="441"/>
      </g>
     </g>
     <g id="text_28">
      <!-- 0 -->
      <g transform="translate(589.19593 453.09)rotate(-90)scale(0.08 -0.08)">
       <use xlink:href="#DejaVuSans-48"/>
      </g>
     </g>
    </g>
    <g id="text_29">
     <!-- x -->
     <g transform="translate(621.275057 483.336563)scale(0.14 -0.14)">
      <use xlink:href="#DejaVuSans-120"/>
     </g>
    </g>
   </g>
   <g id="matplotlib.axis_4">
    <g id="ytick_10">
     <g id="line2d_34">
      <g>
       <use style="stroke:#000000;stroke-width:0.8;" x="473.236364" xlink:href="#me91112beab" y="125.271243"/>
      </g>
     </g>
     <g id="text_30">
      <!-- 2.87 -->
      <g transform="translate(443.970739 129.070462)scale(0.1 -0.1)">
       <use xlink:href="#DejaVuSans-50"/>
       <use x="63.623047" xlink:href="#DejaVuSans-46"/>
       <use x="95.410156" xlink:href="#DejaVuSans-56"/>
       <use x="159.033203" xlink:href="#DejaVuSans-55"/>
      </g>
     </g>
    </g>
    <g id="ytick_11">
     <g id="line2d_35">
      <g>
       <use style="stroke:#000000;stroke-width:0.8;" x="473.236364" xlink:href="#me91112beab" y="167.436973"/>
      </g>
     </g>
     <g id="text_31">
      <!-- 2.46 -->
      <g transform="translate(443.970739 171.236192)scale(0.1 -0.1)">
       <use xlink:href="#DejaVuSans-50"/>
       <use x="63.623047" xlink:href="#DejaVuSans-46"/>
       <use x="95.410156" xlink:href="#DejaVuSans-52"/>
       <use x="159.033203" xlink:href="#DejaVuSans-54"/>
      </g>
     </g>
    </g>
    <g id="ytick_12">
     <g id="line2d_36">
      <g>
       <use style="stroke:#000000;stroke-width:0.8;" x="473.236364" xlink:href="#me91112beab" y="183.891892"/>
      </g>
     </g>
     <g id="text_32">
      <!-- 2.30 -->
      <g transform="translate(443.970739 187.691111)scale(0.1 -0.1)">
       <use xlink:href="#DejaVuSans-50"/>
       <use x="63.623047" xlink:href="#DejaVuSans-46"/>
       <use x="95.410156" xlink:href="#DejaVuSans-51"/>
       <use x="159.033203" xlink:href="#DejaVuSans-48"/>
      </g>
     </g>
    </g>
    <g id="ytick_13">
     <g id="line2d_37">
      <g>
       <use style="stroke:#000000;stroke-width:0.8;" x="473.236364" xlink:href="#me91112beab" y="367.981297"/>
      </g>
     </g>
     <g id="text_33">
      <!-- 0.51 -->
      <g transform="translate(443.970739 371.780516)scale(0.1 -0.1)">
       <use xlink:href="#DejaVuSans-48"/>
       <use x="63.623047" xlink:href="#DejaVuSans-46"/>
       <use x="95.410156" xlink:href="#DejaVuSans-53"/>
       <use x="159.033203" xlink:href="#DejaVuSans-49"/>
      </g>
     </g>
    </g>
    <g id="ytick_14">
     <g id="line2d_38">
      <g>
       <use style="stroke:#000000;stroke-width:0.8;" x="473.236364" xlink:href="#me91112beab" y="325.815568"/>
      </g>
     </g>
     <g id="text_34">
      <!-- 0.92 -->
      <defs>
       <path d="M 10.984375 1.515625 
L 10.984375 10.5 
Q 14.703125 8.734375 18.5 7.8125 
Q 22.3125 6.890625 25.984375 6.890625 
Q 35.75 6.890625 40.890625 13.453125 
Q 46.046875 20.015625 46.78125 33.40625 
Q 43.953125 29.203125 39.59375 26.953125 
Q 35.25 24.703125 29.984375 24.703125 
Q 19.046875 24.703125 12.671875 31.3125 
Q 6.296875 37.9375 6.296875 49.421875 
Q 6.296875 60.640625 12.9375 67.421875 
Q 19.578125 74.21875 30.609375 74.21875 
Q 43.265625 74.21875 49.921875 64.515625 
Q 56.59375 54.828125 56.59375 36.375 
Q 56.59375 19.140625 48.40625 8.859375 
Q 40.234375 -1.421875 26.421875 -1.421875 
Q 22.703125 -1.421875 18.890625 -0.6875 
Q 15.09375 0.046875 10.984375 1.515625 
z
M 30.609375 32.421875 
Q 37.25 32.421875 41.125 36.953125 
Q 45.015625 41.5 45.015625 49.421875 
Q 45.015625 57.28125 41.125 61.84375 
Q 37.25 66.40625 30.609375 66.40625 
Q 23.96875 66.40625 20.09375 61.84375 
Q 16.21875 57.28125 16.21875 49.421875 
Q 16.21875 41.5 20.09375 36.953125 
Q 23.96875 32.421875 30.609375 32.421875 
z
" id="DejaVuSans-57"/>
      </defs>
      <g transform="translate(443.970739 329.614786)scale(0.1 -0.1)">
       <use xlink:href="#DejaVuSans-48"/>
       <use x="63.623047" xlink:href="#DejaVuSans-46"/>
       <use x="95.410156" xlink:href="#DejaVuSans-57"/>
       <use x="159.033203" xlink:href="#DejaVuSans-50"/>
      </g>
     </g>
    </g>
    <g id="ytick_15">
     <g id="line2d_39">
      <g>
       <use style="stroke:#000000;stroke-width:0.8;" x="473.236364" xlink:href="#me91112beab" y="280.564541"/>
      </g>
     </g>
     <g id="text_35">
      <!-- 1.36 -->
      <g transform="translate(443.970739 284.363759)scale(0.1 -0.1)">
       <use xlink:href="#DejaVuSans-49"/>
       <use x="63.623047" xlink:href="#DejaVuSans-46"/>
       <use x="95.410156" xlink:href="#DejaVuSans-51"/>
       <use x="159.033203" xlink:href="#DejaVuSans-54"/>
      </g>
     </g>
    </g>
    <g id="ytick_16">
     <g id="line2d_40">
      <g>
       <use style="stroke:#000000;stroke-width:0.8;" x="473.236364" xlink:href="#me91112beab" y="420.431351"/>
      </g>
     </g>
     <g id="text_36">
      <!-- 0.00 -->
      <g transform="translate(443.970739 424.23057)scale(0.1 -0.1)">
       <use xlink:href="#DejaVuSans-48"/>
       <use x="63.623047" xlink:href="#DejaVuSans-46"/>
       <use x="95.410156" xlink:href="#DejaVuSans-48"/>
       <use x="159.033203" xlink:href="#DejaVuSans-48"/>
      </g>
     </g>
    </g>
    <g id="text_37">
     <!-- f(x), g(x), h(x) -->
     <g transform="translate(437.891051 285.782188)rotate(-90)scale(0.1 -0.1)">
      <use xlink:href="#DejaVuSans-102"/>
      <use x="35.205078" xlink:href="#DejaVuSans-40"/>
      <use x="74.21875" xlink:href="#DejaVuSans-120"/>
      <use x="133.398438" xlink:href="#DejaVuSans-41"/>
      <use x="172.412109" xlink:href="#DejaVuSans-44"/>
      <use x="204.199219" xlink:href="#DejaVuSans-32"/>
      <use x="235.986328" xlink:href="#DejaVuSans-103"/>
      <use x="299.462891" xlink:href="#DejaVuSans-40"/>
      <use x="338.476562" xlink:href="#DejaVuSans-120"/>
      <use x="397.65625" xlink:href="#DejaVuSans-41"/>
      <use x="436.669922" xlink:href="#DejaVuSans-44"/>
      <use x="468.457031" xlink:href="#DejaVuSans-32"/>
      <use x="500.244141" xlink:href="#DejaVuSans-104"/>
      <use x="563.623047" xlink:href="#DejaVuSans-40"/>
      <use x="602.636719" xlink:href="#DejaVuSans-120"/>
      <use x="661.816406" xlink:href="#DejaVuSans-41"/>
     </g>
    </g>
   </g>
   <g id="line2d_41">
    <path clip-path="url(#p92a15f336e)" d="M 621.091806 -1 
L 626.760283 12.251861 
L 632.433082 24.951682 
L 638.10588 37.108874 
L 643.778679 48.742466 
L 649.451478 59.870809 
L 655.124276 70.511607 
L 660.797075 80.681934 
L 666.469874 90.39826 
L 672.142672 99.676474 
L 677.815471 108.531904 
L 683.515942 117.01957 
L 689.216413 125.109728 
L 694.916884 132.816345 
L 700.645027 140.18763 
L 706.37317 147.19844 
L 712.128985 153.892867 
L 717.8848 160.248637 
L 723.668288 166.305986 
L 729.479447 172.072029 
L 735.318279 177.553776 
L 741.184783 182.758131 
L 747.078959 187.69189 
L 753.02848 192.382911 
L 759.005673 196.814059 
L 763.765289 200.14761 
L 763.765289 200.14761 
" style="fill:none;stroke:#ff0000;stroke-linecap:square;stroke-width:1.5;"/>
   </g>
   <g id="line2d_42">
    <path clip-path="url(#p92a15f336e)" d="M 487.071074 473.491266 
L 489.174161 448.930526 
L 491.249575 427.229938 
L 493.297317 408.111744 
L 495.289714 391.538142 
L 497.25444 377.010036 
L 499.191493 364.320722 
L 501.073202 353.431448 
L 502.927239 343.983046 
L 504.725931 335.93905 
L 506.496951 329.015573 
L 508.212627 323.178443 
L 509.90063 318.205434 
L 511.533289 314.064597 
L 513.138276 310.58395 
L 514.715591 307.687039 
L 516.237561 305.343517 
L 517.731859 303.438317 
L 519.198485 301.917469 
L 520.665111 300.712441 
L 522.131737 299.79488 
L 523.598363 299.137848 
L 525.092662 298.709921 
L 526.642304 298.496438 
L 528.274963 298.495909 
L 530.045983 298.721933 
L 531.983037 299.198773 
L 534.16914 299.973506 
L 536.714981 301.121053 
L 539.897283 302.813725 
L 544.878277 305.751392 
L 551.740979 309.755206 
L 555.698102 311.798952 
L 559.21247 313.368133 
L 562.533133 314.610649 
L 565.798451 315.596783 
L 569.091442 316.360068 
L 572.522793 316.926756 
L 576.258539 317.313748 
L 580.5754 317.528783 
L 586.746298 317.588105 
L 594.909594 317.699489 
L 599.198783 317.990053 
L 602.879184 318.458157 
L 606.282863 319.112547 
L 609.575854 319.972929 
L 612.8135 321.048943 
L 616.134163 322.389685 
L 619.64853 324.054302 
L 623.605653 326.184842 
L 629.084747 329.416493 
L 635.421678 333.103554 
L 638.548635 334.66355 
L 641.039132 335.666836 
L 643.169891 336.293283 
L 645.0516 336.622903 
L 646.767275 336.704577 
L 648.372262 336.561439 
L 649.894233 336.202498 
L 651.360859 335.625809 
L 652.799813 334.815309 
L 654.211094 333.760711 
L 655.622376 332.423998 
L 657.033657 330.779149 
L 658.472611 328.756517 
L 659.939237 326.304803 
L 661.433535 323.367171 
L 662.983178 319.812492 
L 664.560493 315.618587 
L 666.16548 310.705699 
L 667.825811 304.882395 
L 669.513815 298.12711 
L 671.22949 290.329458 
L 673.00051 281.217135 
L 674.799203 270.770317 
L 676.625567 258.838131 
L 678.507276 245.040983 
L 680.416657 229.362514 
L 682.35371 211.598888 
L 684.346108 191.229554 
L 686.366177 168.244188 
L 688.413919 142.37032 
L 690.517006 112.903902 
L 692.647764 79.844356 
L 694.806195 42.831052 
L 696.992298 1.472736 
L 697.116524 -1 
L 697.116524 -1 
" style="fill:none;stroke:#008000;stroke-linecap:square;stroke-width:1.5;"/>
   </g>
   <g id="line2d_43">
    <path clip-path="url(#p92a15f336e)" d="M 487.071074 375.705389 
L 493.546367 370.966696 
L 498.222966 367.809851 
L 502.152417 365.417737 
L 505.611441 363.565903 
L 508.738398 362.137877 
L 511.643978 361.052455 
L 514.355852 360.274704 
L 516.901694 359.771571 
L 519.336846 359.512495 
L 521.688982 359.482144 
L 523.985774 359.672419 
L 526.254894 360.083347 
L 528.496341 360.714615 
L 530.737788 361.575953 
L 533.006908 362.686652 
L 535.331371 364.07591 
L 537.71118 365.761815 
L 540.174005 367.783902 
L 542.747518 370.19024 
L 545.459393 373.035556 
L 548.364972 376.411303 
L 551.574946 380.490203 
L 555.28302 385.575906 
L 560.236341 392.780614 
L 568.676359 405.081311 
L 571.997022 409.492519 
L 574.681224 412.701924 
L 576.978015 415.115408 
L 579.025757 416.954117 
L 580.852122 418.306456 
L 582.540125 419.285902 
L 584.089768 419.933854 
L 585.528722 420.302606 
L 586.912331 420.430995 
L 588.240596 420.333107 
L 589.541189 420.016219 
L 590.841782 419.470239 
L 592.170047 418.665976 
L 593.525984 417.577671 
L 594.909594 416.178732 
L 596.348548 414.404684 
L 597.870518 412.163832 
L 599.447833 409.436126 
L 601.108164 406.10985 
L 602.851512 402.107382 
L 604.705549 397.272827 
L 606.642602 391.585406 
L 608.718016 384.777735 
L 610.904119 376.827675 
L 613.256255 367.419103 
L 615.829768 356.179925 
L 618.680004 342.704838 
L 622.000667 325.885361 
L 626.428217 302.207338 
L 634.56384 258.554571 
L 637.580109 243.702698 
L 640.042934 232.647125 
L 642.14602 224.189708 
L 644.000057 217.626982 
L 645.632716 212.634207 
L 647.099342 208.840445 
L 648.399935 206.065782 
L 649.562166 204.083433 
L 650.61371 202.713283 
L 651.554564 201.841064 
L 652.38473 201.357091 
L 653.159551 201.152692 
L 653.9067 201.1861 
L 654.653849 201.449518 
L 655.42867 201.969056 
L 656.258836 202.807455 
L 657.144346 204.026296 
L 658.112873 205.746024 
L 659.192088 208.140379 
L 660.35432 211.282758 
L 661.627241 215.391702 
L 663.01085 220.638645 
L 664.532821 227.326804 
L 666.193152 235.675122 
L 668.019516 246.04976 
L 670.067258 259.029883 
L 672.419394 275.446285 
L 675.297302 297.195813 
L 685.563684 376.347208 
L 687.583754 389.364329 
L 689.299429 399.030126 
L 690.766055 406.086612 
L 692.038976 411.19125 
L 693.173536 414.866155 
L 694.142062 417.304812 
L 694.9999 418.898849 
L 695.719377 419.809472 
L 696.355838 420.28092 
L 696.909281 420.429975 
L 697.435053 420.342592 
L 697.960825 420.02865 
L 698.54194 419.414448 
L 699.206073 418.364571 
L 699.953222 416.734713 
L 700.783388 414.361184 
L 701.724242 410.950857 
L 702.748113 406.368971 
L 703.882673 400.238209 
L 705.127921 392.254729 
L 706.511531 381.89039 
L 708.061173 368.508887 
L 709.776849 351.681629 
L 711.741574 330.141816 
L 714.149055 301.141097 
L 717.829456 253.695819 
L 721.869596 202.382641 
L 724.083371 177.061827 
L 725.826719 159.521558 
L 727.321017 146.630766 
L 728.593937 137.467919 
L 729.700825 131.009788 
L 730.669352 126.598651 
L 731.499517 123.788027 
L 732.191322 122.155724 
L 732.772438 121.296219 
L 733.242865 120.948581 
L 733.657948 120.903651 
L 734.045359 121.085041 
L 734.488114 121.558086 
L 735.013885 122.489845 
L 735.622673 124.072221 
L 736.314478 126.526332 
L 737.116972 130.243151 
L 738.030154 135.595541 
L 739.054025 142.985606 
L 740.216257 153.085265 
L 741.51685 166.413347 
L 743.011148 184.118415 
L 744.782168 207.916516 
L 747.023615 241.278949 
L 754.495106 355.131693 
L 756.18311 376.101934 
L 757.594391 390.999431 
L 758.811967 401.621837 
L 759.863511 408.979762 
L 760.776693 413.929312 
L 761.579186 417.139766 
L 762.243319 418.979083 
L 762.796763 419.944007 
L 763.26719 420.359444 
L 763.654601 420.424143 
L 763.765289 420.396915 
L 763.765289 420.396915 
" style="fill:none;stroke:#0000ff;stroke-linecap:square;stroke-width:1.5;"/>
   </g>
   <g id="line2d_44">
    <path clip-path="url(#p92a15f336e)" d="M 586.98843 441 
L 586.98843 60.48 
" style="fill:none;stroke:#000000;stroke-linecap:square;stroke-width:0.5;"/>
   </g>
   <g id="line2d_45">
    <path clip-path="url(#p92a15f336e)" d="M 473.236364 420.431351 
L 777.6 420.431351 
" style="fill:none;stroke:#000000;stroke-linecap:square;stroke-width:0.5;"/>
   </g>
   <g id="line2d_46">
    <path clip-path="url(#p92a15f336e)" d="M 689.980165 420.431351 
L 689.980165 125.271243 
" style="fill:none;stroke:#000000;stroke-dasharray:2.22,0.96;stroke-dashoffset:0;stroke-width:0.6;"/>
   </g>
   <g id="line2d_47">
    <path clip-path="url(#p92a15f336e)" d="M 586.98843 125.271243 
L 689.980165 125.271243 
" style="fill:none;stroke:#000000;stroke-dasharray:2.22,0.96;stroke-dashoffset:0;stroke-width:0.6;"/>
   </g>
   <g id="line2d_48">
    <path clip-path="url(#p92a15f336e)" d="M 725.335537 420.431351 
L 725.335537 167.436973 
" style="fill:none;stroke:#000000;stroke-dasharray:2.22,0.96;stroke-dashoffset:0;stroke-width:0.6;"/>
   </g>
   <g id="line2d_49">
    <path clip-path="url(#p92a15f336e)" d="M 586.98843 167.436973 
L 725.335537 167.436973 
" style="fill:none;stroke:#000000;stroke-dasharray:2.22,0.96;stroke-dashoffset:0;stroke-width:0.6;"/>
   </g>
   <g id="line2d_50">
    <path clip-path="url(#p92a15f336e)" d="M 743.013223 420.431351 
L 743.013223 183.891892 
" style="fill:none;stroke:#000000;stroke-dasharray:2.22,0.96;stroke-dashoffset:0;stroke-width:0.6;"/>
   </g>
   <g id="line2d_51">
    <path clip-path="url(#p92a15f336e)" d="M 586.98843 183.891892 
L 743.013223 183.891892 
" style="fill:none;stroke:#000000;stroke-dasharray:2.22,0.96;stroke-dashoffset:0;stroke-width:0.6;"/>
   </g>
   <g id="line2d_52">
    <path clip-path="url(#p92a15f336e)" d="M 498.6 420.431351 
L 498.6 367.981297 
" style="fill:none;stroke:#000000;stroke-dasharray:2.22,0.96;stroke-dashoffset:0;stroke-width:0.6;"/>
   </g>
   <g id="line2d_53">
    <path clip-path="url(#p92a15f336e)" d="M 586.98843 367.981297 
L 498.6 367.981297 
" style="fill:none;stroke:#000000;stroke-dasharray:2.22,0.96;stroke-dashoffset:0;stroke-width:0.6;"/>
   </g>
   <g id="line2d_54">
    <path clip-path="url(#p92a15f336e)" d="M 622.343802 420.431351 
L 622.343802 325.815568 
" style="fill:none;stroke:#000000;stroke-dasharray:2.22,0.96;stroke-dashoffset:0;stroke-width:0.6;"/>
   </g>
   <g id="line2d_55">
    <path clip-path="url(#p92a15f336e)" d="M 586.98843 325.815568 
L 622.343802 325.815568 
" style="fill:none;stroke:#000000;stroke-dasharray:2.22,0.96;stroke-dashoffset:0;stroke-width:0.6;"/>
   </g>
   <g id="line2d_56">
    <path clip-path="url(#p92a15f336e)" d="M 673.071074 420.431351 
L 673.071074 280.564541 
" style="fill:none;stroke:#000000;stroke-dasharray:2.22,0.96;stroke-dashoffset:0;stroke-width:0.6;"/>
   </g>
   <g id="line2d_57">
    <path clip-path="url(#p92a15f336e)" d="M 586.98843 280.564541 
L 673.071074 280.564541 
" style="fill:none;stroke:#000000;stroke-dasharray:2.22,0.96;stroke-dashoffset:0;stroke-width:0.6;"/>
   </g>
   <g id="patch_9">
    <path d="M 473.236364 441 
L 473.236364 60.48 
" style="fill:none;stroke:#000000;stroke-linecap:square;stroke-linejoin:miter;stroke-width:0.8;"/>
   </g>
   <g id="patch_10">
    <path d="M 777.6 441 
L 777.6 60.48 
" style="fill:none;stroke:#000000;stroke-linecap:square;stroke-linejoin:miter;stroke-width:0.8;"/>
   </g>
   <g id="patch_11">
    <path d="M 473.236364 441 
L 777.6 441 
" style="fill:none;stroke:#000000;stroke-linecap:square;stroke-linejoin:miter;stroke-width:0.8;"/>
   </g>
   <g id="patch_12">
    <path d="M 473.236364 60.48 
L 777.6 60.48 
" style="fill:none;stroke:#000000;stroke-linecap:square;stroke-linejoin:miter;stroke-width:0.8;"/>
   </g>
   <g id="text_38">
    <!-- Поведение f(x), g(x), h(x) при малых x -->
    <defs>
     <path d="M 9.078125 54.6875 
L 22.21875 54.6875 
L 37.75 18.0625 
L 53.328125 54.6875 
L 66.359375 54.6875 
L 66.359375 0 
L 57.328125 0 
L 57.328125 46.09375 
L 42.234375 10.5 
L 33.25 10.5 
L 18.109375 46.09375 
L 18.109375 0 
L 9.078125 0 
z
" id="DejaVuSans-1084"/>
     <path d="M 34.28125 27.484375 
Q 23.390625 27.484375 19.1875 25 
Q 14.984375 22.515625 14.984375 16.5 
Q 14.984375 11.71875 18.140625 8.90625 
Q 21.296875 6.109375 26.703125 6.109375 
Q 34.1875 6.109375 38.703125 11.40625 
Q 43.21875 16.703125 43.21875 25.484375 
L 43.21875 27.484375 
z
M 52.203125 31.203125 
L 52.203125 0 
L 43.21875 0 
L 43.21875 8.296875 
Q 40.140625 3.328125 35.546875 0.953125 
Q 30.953125 -1.421875 24.3125 -1.421875 
Q 15.921875 -1.421875 10.953125 3.296875 
Q 6 8.015625 6 15.921875 
Q 6 25.140625 12.171875 29.828125 
Q 18.359375 34.515625 30.609375 34.515625 
L 43.21875 34.515625 
L 43.21875 35.40625 
Q 43.21875 41.609375 39.140625 45 
Q 35.0625 48.390625 27.6875 48.390625 
Q 23 48.390625 18.546875 47.265625 
Q 14.109375 46.140625 10.015625 43.890625 
L 10.015625 52.203125 
Q 14.9375 54.109375 19.578125 55.046875 
Q 24.21875 56 28.609375 56 
Q 40.484375 56 46.34375 49.84375 
Q 52.203125 43.703125 52.203125 31.203125 
z
" id="DejaVuSans-1072"/>
     <path d="M 61.046875 54.6875 
L 70.03125 54.6875 
L 70.03125 0 
L 61.046875 0 
z
M 65.546875 56 
z
M 43.453125 16.21875 
Q 43.453125 20.609375 40.25 22.90625 
Q 37.0625 25.203125 30.90625 25.203125 
L 18.109375 25.203125 
L 18.109375 7.171875 
L 30.90625 7.171875 
Q 37.0625 7.171875 40.25 9.484375 
Q 43.453125 11.8125 43.453125 16.21875 
z
M 9.078125 54.6875 
L 18.109375 54.6875 
L 18.109375 32.375 
L 31.296875 32.375 
Q 41.75 32.375 47.390625 28.390625 
Q 53.03125 24.421875 53.03125 16.21875 
Q 53.03125 8.015625 47.390625 4 
Q 41.75 0 31.296875 0 
L 9.078125 0 
z
" id="DejaVuSans-1099"/>
    </defs>
    <g transform="translate(505.465994 54.48)scale(0.12 -0.12)">
     <use xlink:href="#DejaVuSans-1055"/>
     <use x="75.195312" xlink:href="#DejaVuSans-1086"/>
     <use x="136.376953" xlink:href="#DejaVuSans-1074"/>
     <use x="195.3125" xlink:href="#DejaVuSans-1077"/>
     <use x="256.835938" xlink:href="#DejaVuSans-1076"/>
     <use x="325.976562" xlink:href="#DejaVuSans-1077"/>
     <use x="387.5" xlink:href="#DejaVuSans-1085"/>
     <use x="452.880859" xlink:href="#DejaVuSans-1080"/>
     <use x="517.871094" xlink:href="#DejaVuSans-1077"/>
     <use x="579.394531" xlink:href="#DejaVuSans-32"/>
     <use x="611.181641" xlink:href="#DejaVuSans-102"/>
     <use x="646.386719" xlink:href="#DejaVuSans-40"/>
     <use x="685.400391" xlink:href="#DejaVuSans-120"/>
     <use x="744.580078" xlink:href="#DejaVuSans-41"/>
     <use x="783.59375" xlink:href="#DejaVuSans-44"/>
     <use x="815.380859" xlink:href="#DejaVuSans-32"/>
     <use x="847.167969" xlink:href="#DejaVuSans-103"/>
     <use x="910.644531" xlink:href="#DejaVuSans-40"/>
     <use x="949.658203" xlink:href="#DejaVuSans-120"/>
     <use x="1008.837891" xlink:href="#DejaVuSans-41"/>
     <use x="1047.851562" xlink:href="#DejaVuSans-44"/>
     <use x="1079.638672" xlink:href="#DejaVuSans-32"/>
     <use x="1111.425781" xlink:href="#DejaVuSans-104"/>
     <use x="1174.804688" xlink:href="#DejaVuSans-40"/>
     <use x="1213.818359" xlink:href="#DejaVuSans-120"/>
     <use x="1272.998047" xlink:href="#DejaVuSans-41"/>
     <use x="1312.011719" xlink:href="#DejaVuSans-32"/>
     <use x="1343.798828" xlink:href="#DejaVuSans-1087"/>
     <use x="1409.179688" xlink:href="#DejaVuSans-1088"/>
     <use x="1472.65625" xlink:href="#DejaVuSans-1080"/>
     <use x="1537.646484" xlink:href="#DejaVuSans-32"/>
     <use x="1569.433594" xlink:href="#DejaVuSans-1084"/>
     <use x="1644.873047" xlink:href="#DejaVuSans-1072"/>
     <use x="1706.152344" xlink:href="#DejaVuSans-1083"/>
     <use x="1770.068359" xlink:href="#DejaVuSans-1099"/>
     <use x="1849.023438" xlink:href="#DejaVuSans-1093"/>
     <use x="1908.203125" xlink:href="#DejaVuSans-32"/>
     <use x="1939.990234" xlink:href="#DejaVuSans-120"/>
    </g>
   </g>
   <g id="legend_2">
    <g id="patch_13">
     <path d="M 480.236364 112.514375 
L 532.306676 112.514375 
Q 534.306676 112.514375 534.306676 110.514375 
L 534.306676 67.48 
Q 534.306676 65.48 532.306676 65.48 
L 480.236364 65.48 
Q 478.236364 65.48 478.236364 67.48 
L 478.236364 110.514375 
Q 478.236364 112.514375 480.236364 112.514375 
z
" style="fill:#ffffff;opacity:0.8;stroke:#cccccc;stroke-linejoin:miter;"/>
    </g>
    <g id="line2d_58">
     <path d="M 482.236364 73.578438 
L 502.236364 73.578438 
" style="fill:none;stroke:#ff0000;stroke-linecap:square;stroke-width:1.5;"/>
    </g>
    <g id="line2d_59"/>
    <g id="text_39">
     <!-- f(x) -->
     <g transform="translate(510.236364 77.078438)scale(0.1 -0.1)">
      <use xlink:href="#DejaVuSans-102"/>
      <use x="35.205078" xlink:href="#DejaVuSans-40"/>
      <use x="74.21875" xlink:href="#DejaVuSans-120"/>
      <use x="133.398438" xlink:href="#DejaVuSans-41"/>
     </g>
    </g>
    <g id="line2d_60">
     <path d="M 482.236364 88.256563 
L 502.236364 88.256563 
" style="fill:none;stroke:#008000;stroke-linecap:square;stroke-width:1.5;"/>
    </g>
    <g id="line2d_61"/>
    <g id="text_40">
     <!-- g(x) -->
     <g transform="translate(510.236364 91.756563)scale(0.1 -0.1)">
      <use xlink:href="#DejaVuSans-103"/>
      <use x="63.476562" xlink:href="#DejaVuSans-40"/>
      <use x="102.490234" xlink:href="#DejaVuSans-120"/>
      <use x="161.669922" xlink:href="#DejaVuSans-41"/>
     </g>
    </g>
    <g id="line2d_62">
     <path d="M 482.236364 102.934687 
L 502.236364 102.934687 
" style="fill:none;stroke:#0000ff;stroke-linecap:square;stroke-width:1.5;"/>
    </g>
    <g id="line2d_63"/>
    <g id="text_41">
     <!-- h(x) -->
     <g transform="translate(510.236364 106.434687)scale(0.1 -0.1)">
      <use xlink:href="#DejaVuSans-104"/>
      <use x="63.378906" xlink:href="#DejaVuSans-40"/>
      <use x="102.392578" xlink:href="#DejaVuSans-120"/>
      <use x="161.572266" xlink:href="#DejaVuSans-41"/>
     </g>
    </g>
   </g>
  </g>
  <g id="text_42">
   <!-- Графики функций $f(x) = sin(\frac{x}{5}) \cdot e^\frac{X}{10} + 5 \cdot e^{-\frac{X}{2}}$,  $g(x) = 1 - x^3 + x^5$,  $h(x) = \frac{5 \cdot sin^2(e^{0.8 \cdot x}) \cdot x^2}{e^{\frac{x^2}{2}}}$ -->
   <defs>
    <path d="M 9.8125 0 
L 9.8125 72.90625 
L 55.171875 72.90625 
L 55.171875 64.59375 
L 19.671875 64.59375 
L 19.671875 0 
z
" id="DejaVuSans-1043"/>
    <path d="M 14.796875 27.296875 
Q 14.796875 15.828125 18.328125 10.96875 
Q 21.875 6.109375 27.875 6.109375 
Q 32.671875 6.109375 38.234375 14.3125 
L 38.234375 40.28125 
Q 32.671875 48.484375 27.875 48.484375 
Q 21.875 48.484375 18.328125 43.625 
Q 14.796875 38.765625 14.796875 27.296875 
z
M 38.234375 -20.796875 
L 38.234375 6.984375 
Q 35.453125 2.390625 32.25 0.484375 
Q 29.046875 -1.421875 25 -1.421875 
Q 16.84375 -1.421875 11.15625 6.125 
Q 5.46875 13.671875 5.46875 27.09375 
Q 5.46875 40.53125 11.15625 48.265625 
Q 16.84375 56 25 56 
Q 29.046875 56 32.25 54.140625 
Q 35.453125 52.296875 38.234375 47.703125 
L 38.234375 72.90625 
L 47.265625 72.90625 
L 47.265625 47.703125 
Q 50.046875 52.296875 53.25 54.140625 
Q 56.453125 56 60.5 56 
Q 68.65625 56 74.34375 48.265625 
Q 80.03125 40.53125 80.03125 27.09375 
Q 80.03125 13.671875 74.34375 6.125 
Q 68.65625 -1.421875 60.5 -1.421875 
Q 56.453125 -1.421875 53.25 0.484375 
Q 50.046875 2.390625 47.265625 6.984375 
L 47.265625 -20.796875 
z
M 70.703125 27.296875 
Q 70.703125 38.765625 67.15625 43.625 
Q 63.625 48.484375 57.625 48.484375 
Q 52.828125 48.484375 47.265625 40.28125 
L 47.265625 14.3125 
Q 52.828125 6.109375 57.625 6.109375 
Q 63.625 6.109375 67.15625 10.96875 
Q 70.703125 15.828125 70.703125 27.296875 
z
" id="DejaVuSans-1092"/>
    <path d="M 9.078125 54.6875 
L 18.015625 54.6875 
L 18.015625 29 
L 43.359375 54.6875 
L 54.390625 54.6875 
L 33.5 33.546875 
L 57.078125 0 
L 47.015625 0 
L 27.640625 27.59375 
L 18.015625 17.828125 
L 18.015625 0 
L 9.078125 0 
z
" id="DejaVuSans-1082"/>
    <path d="M 32.171875 -5.078125 
Q 28.375 -14.84375 24.75 -17.8125 
Q 21.140625 -20.796875 15.09375 -20.796875 
L 7.90625 -20.796875 
L 7.90625 -13.28125 
L 13.1875 -13.28125 
Q 16.890625 -13.28125 18.9375 -11.515625 
Q 21 -9.765625 23.484375 -3.21875 
L 25.09375 0.875 
L 2.984375 54.6875 
L 12.5 54.6875 
L 29.59375 11.921875 
L 46.6875 54.6875 
L 56.203125 54.6875 
z
" id="DejaVuSans-1091"/>
    <path d="M 56.296875 0 
L 9.078125 0 
L 9.078125 54.6875 
L 18.109375 54.6875 
L 18.109375 7.171875 
L 47.265625 7.171875 
L 47.265625 54.6875 
L 56.296875 54.6875 
L 56.296875 7.171875 
L 63.484375 7.171875 
L 63.484375 -13.8125 
L 56.296875 -13.8125 
z
" id="DejaVuSans-1094"/>
    <path d="M 55.90625 54.6875 
L 55.90625 0 
L 46.96875 0 
L 46.96875 43.890625 
L 20.609375 0 
L 9.078125 0 
L 9.078125 54.6875 
L 18.015625 54.6875 
L 18.015625 10.890625 
L 44.34375 54.6875 
z
M 17.21875 75.515625 
L 22.984375 75.515625 
Q 23.515625 71.859375 25.875 70.015625 
Q 28.25 68.1875 32.5 68.1875 
Q 36.703125 68.1875 39.046875 70 
Q 41.390625 71.8125 42.015625 75.515625 
L 47.78125 75.515625 
Q 47.296875 68.53125 43.4375 65.015625 
Q 39.578125 61.5 32.5 61.5 
Q 25.421875 61.5 21.5625 65.015625 
Q 17.703125 68.53125 17.21875 75.515625 
z
" id="DejaVuSans-1081"/>
    <path d="M 47.796875 75.984375 
L 46.390625 68.5 
L 37.796875 68.5 
Q 32.90625 68.5 30.6875 66.578125 
Q 28.46875 64.65625 27.390625 59.515625 
L 26.421875 54.6875 
L 41.21875 54.6875 
L 39.890625 47.703125 
L 25.09375 47.703125 
L 15.828125 0 
L 6.78125 0 
L 16.109375 47.703125 
L 7.515625 47.703125 
L 8.796875 54.6875 
L 17.390625 54.6875 
L 18.109375 58.5 
Q 19.96875 68.171875 24.625 72.078125 
Q 29.296875 75.984375 39.3125 75.984375 
z
" id="DejaVuSans-Oblique-102"/>
    <path d="M 60.015625 54.6875 
L 34.90625 27.875 
L 50.296875 0 
L 39.984375 0 
L 28.421875 21.6875 
L 8.296875 0 
L -2.59375 0 
L 24.3125 28.8125 
L 10.015625 54.6875 
L 20.3125 54.6875 
L 30.8125 34.90625 
L 49.125 54.6875 
z
" id="DejaVuSans-Oblique-120"/>
    <path d="M 10.59375 45.40625 
L 73.1875 45.40625 
L 73.1875 37.203125 
L 10.59375 37.203125 
z
M 10.59375 25.484375 
L 73.1875 25.484375 
L 73.1875 17.1875 
L 10.59375 17.1875 
z
" id="DejaVuSans-61"/>
    <path d="M 50 53.078125 
L 48.296875 44.578125 
Q 44.734375 46.53125 40.765625 47.5 
Q 36.8125 48.484375 32.625 48.484375 
Q 25.53125 48.484375 21.453125 46.0625 
Q 17.390625 43.65625 17.390625 39.5 
Q 17.390625 34.671875 26.859375 32.078125 
Q 27.59375 31.890625 27.9375 31.78125 
L 30.8125 30.90625 
Q 39.796875 28.421875 42.796875 25.6875 
Q 45.796875 22.953125 45.796875 18.21875 
Q 45.796875 9.515625 38.890625 4.046875 
Q 31.984375 -1.421875 20.796875 -1.421875 
Q 16.453125 -1.421875 11.671875 -0.578125 
Q 6.890625 0.25 1.125 2 
L 2.875 11.28125 
Q 7.8125 8.734375 12.59375 7.421875 
Q 17.390625 6.109375 21.78125 6.109375 
Q 28.375 6.109375 32.5 8.9375 
Q 36.625 11.765625 36.625 16.109375 
Q 36.625 20.796875 25.78125 23.6875 
L 24.859375 23.921875 
L 21.78125 24.703125 
Q 14.9375 26.515625 11.765625 29.46875 
Q 8.59375 32.421875 8.59375 37.015625 
Q 8.59375 45.75 15.15625 50.875 
Q 21.734375 56 33.015625 56 
Q 37.453125 56 41.671875 55.265625 
Q 45.90625 54.546875 50 53.078125 
z
" id="DejaVuSans-Oblique-115"/>
    <path d="M 18.3125 75.984375 
L 27.296875 75.984375 
L 25.09375 64.59375 
L 16.109375 64.59375 
z
M 14.203125 54.6875 
L 23.1875 54.6875 
L 12.5 0 
L 3.515625 0 
z
" id="DejaVuSans-Oblique-105"/>
    <path d="M 55.71875 33.015625 
L 49.3125 0 
L 40.28125 0 
L 46.6875 32.671875 
Q 47.125 34.96875 47.359375 36.71875 
Q 47.609375 38.484375 47.609375 39.5 
Q 47.609375 43.609375 45.015625 45.890625 
Q 42.4375 48.1875 37.796875 48.1875 
Q 30.5625 48.1875 25.34375 43.375 
Q 20.125 38.578125 18.5 30.328125 
L 12.5 0 
L 3.515625 0 
L 14.109375 54.6875 
L 23.09375 54.6875 
L 21.296875 46.09375 
Q 25.046875 50.828125 30.3125 53.40625 
Q 35.59375 56 41.40625 56 
Q 48.640625 56 52.609375 52.09375 
Q 56.59375 48.1875 56.59375 41.109375 
Q 56.59375 39.359375 56.375 37.359375 
Q 56.15625 35.359375 55.71875 33.015625 
z
" id="DejaVuSans-Oblique-110"/>
    <path d="M 10.6875 40.921875 
L 21 40.921875 
L 21 28.515625 
L 10.6875 28.515625 
z
" id="DejaVuSans-8901"/>
    <path d="M 48.09375 32.234375 
Q 48.25 33.015625 48.3125 33.84375 
Q 48.390625 34.671875 48.390625 35.5 
Q 48.390625 41.453125 44.890625 44.921875 
Q 41.40625 48.390625 35.40625 48.390625 
Q 28.71875 48.390625 23.578125 44.15625 
Q 18.453125 39.9375 15.828125 32.171875 
z
M 55.90625 25.203125 
L 14.109375 25.203125 
Q 13.8125 23.34375 13.71875 22.265625 
Q 13.625 21.1875 13.625 20.40625 
Q 13.625 13.625 17.796875 9.90625 
Q 21.96875 6.203125 29.59375 6.203125 
Q 35.453125 6.203125 40.671875 7.515625 
Q 45.90625 8.84375 50.390625 11.375 
L 48.6875 2.484375 
Q 43.84375 0.53125 38.6875 -0.4375 
Q 33.546875 -1.421875 28.21875 -1.421875 
Q 16.84375 -1.421875 10.71875 4.015625 
Q 4.59375 9.46875 4.59375 19.484375 
Q 4.59375 28.03125 7.640625 35.375 
Q 10.6875 42.71875 16.609375 48.484375 
Q 20.40625 52.09375 25.65625 54.046875 
Q 30.90625 56 36.8125 56 
Q 46.09375 56 51.578125 50.4375 
Q 57.078125 44.875 57.078125 35.5 
Q 57.078125 33.25 56.78125 30.6875 
Q 56.5 28.125 55.90625 25.203125 
z
" id="DejaVuSans-Oblique-101"/>
    <path d="M 13.71875 72.90625 
L 23.6875 72.90625 
L 36.1875 46.578125 
L 58.796875 72.90625 
L 70.3125 72.90625 
L 40.28125 38.09375 
L 58.40625 0 
L 48.484375 0 
L 33.796875 30.71875 
L 7.171875 0 
L -4.296875 0 
L 29.78125 39.203125 
z
" id="DejaVuSans-Oblique-88"/>
    <path d="M 46 62.703125 
L 46 35.5 
L 73.1875 35.5 
L 73.1875 27.203125 
L 46 27.203125 
L 46 0 
L 37.796875 0 
L 37.796875 27.203125 
L 10.59375 27.203125 
L 10.59375 35.5 
L 37.796875 35.5 
L 37.796875 62.703125 
z
" id="DejaVuSans-43"/>
    <path d="M 59.625 54.6875 
L 50.296875 6.78125 
Q 47.609375 -7.125 40.015625 -13.953125 
Q 32.421875 -20.796875 19.578125 -20.796875 
Q 14.84375 -20.796875 10.78125 -20.09375 
Q 6.734375 -19.390625 3.21875 -17.921875 
L 4.890625 -9.1875 
Q 8.203125 -11.328125 11.90625 -12.34375 
Q 15.625 -13.375 19.828125 -13.375 
Q 28.375 -13.375 33.859375 -8.703125 
Q 39.359375 -4.046875 41.109375 4.6875 
L 41.890625 8.796875 
Q 38.140625 4.5 33.15625 2.25 
Q 28.171875 0 22.40625 0 
Q 14.109375 0 9.34375 5.484375 
Q 4.59375 10.984375 4.59375 20.609375 
Q 4.59375 28.171875 7.46875 35.421875 
Q 10.359375 42.671875 15.578125 48.296875 
Q 19.046875 52 23.65625 54 
Q 28.265625 56 33.296875 56 
Q 38.8125 56 42.90625 53.4375 
Q 47.015625 50.875 49.03125 46.1875 
L 50.59375 54.6875 
z
M 46.09375 34.625 
Q 46.09375 41.265625 42.96875 44.875 
Q 39.84375 48.484375 34.078125 48.484375 
Q 30.515625 48.484375 27.296875 47.0625 
Q 24.078125 45.65625 21.78125 43.109375 
Q 18.0625 38.921875 15.984375 33.234375 
Q 13.921875 27.546875 13.921875 21.484375 
Q 13.921875 14.75 17.0625 11.125 
Q 20.21875 7.515625 26.125 7.515625 
Q 34.671875 7.515625 40.375 15.25 
Q 46.09375 23 46.09375 34.625 
z
" id="DejaVuSans-Oblique-103"/>
    <path d="M 55.71875 33.015625 
L 49.3125 0 
L 40.28125 0 
L 46.6875 32.671875 
Q 47.125 34.96875 47.359375 36.71875 
Q 47.609375 38.484375 47.609375 39.5 
Q 47.609375 43.609375 45.015625 45.890625 
Q 42.4375 48.1875 37.796875 48.1875 
Q 30.5625 48.1875 25.265625 43.296875 
Q 19.96875 38.421875 18.40625 30.328125 
L 12.5 0 
L 3.515625 0 
L 18.3125 75.984375 
L 27.296875 75.984375 
L 21.484375 46.09375 
Q 24.90625 50.6875 30.21875 53.34375 
Q 35.546875 56 41.40625 56 
Q 48.640625 56 52.609375 52.09375 
Q 56.59375 48.1875 56.59375 41.109375 
Q 56.59375 39.359375 56.375 37.359375 
Q 56.15625 35.359375 55.71875 33.015625 
z
" id="DejaVuSans-Oblique-104"/>
   </defs>
   <g transform="translate(180.66 24.12)scale(0.12 -0.12)">
    <use transform="translate(0 0.807813)" xlink:href="#DejaVuSans-1043"/>
    <use transform="translate(60.986328 0.807813)" xlink:href="#DejaVuSans-1088"/>
    <use transform="translate(124.462891 0.807813)" xlink:href="#DejaVuSans-1072"/>
    <use transform="translate(185.742188 0.807813)" xlink:href="#DejaVuSans-1092"/>
    <use transform="translate(271.240234 0.807813)" xlink:href="#DejaVuSans-1080"/>
    <use transform="translate(336.230469 0.807813)" xlink:href="#DejaVuSans-1082"/>
    <use transform="translate(396.630859 0.807813)" xlink:href="#DejaVuSans-1080"/>
    <use transform="translate(461.621094 0.807813)" xlink:href="#DejaVuSans-32"/>
    <use transform="translate(493.408203 0.807813)" xlink:href="#DejaVuSans-1092"/>
    <use transform="translate(578.90625 0.807813)" xlink:href="#DejaVuSans-1091"/>
    <use transform="translate(638.085938 0.807813)" xlink:href="#DejaVuSans-1085"/>
    <use transform="translate(703.466797 0.807813)" xlink:href="#DejaVuSans-1082"/>
    <use transform="translate(763.867188 0.807813)" xlink:href="#DejaVuSans-1094"/>
    <use transform="translate(831.933594 0.807813)" xlink:href="#DejaVuSans-1080"/>
    <use transform="translate(896.923828 0.807813)" xlink:href="#DejaVuSans-1081"/>
    <use transform="translate(961.914062 0.807813)" xlink:href="#DejaVuSans-32"/>
    <use transform="translate(993.701172 0.807813)" xlink:href="#DejaVuSans-Oblique-102"/>
    <use transform="translate(1028.90625 0.807813)" xlink:href="#DejaVuSans-40"/>
    <use transform="translate(1067.919922 0.807813)" xlink:href="#DejaVuSans-Oblique-120"/>
    <use transform="translate(1127.099609 0.807813)" xlink:href="#DejaVuSans-41"/>
    <use transform="translate(1185.595703 0.807813)" xlink:href="#DejaVuSans-61"/>
    <use transform="translate(1288.867188 0.807813)" xlink:href="#DejaVuSans-Oblique-115"/>
    <use transform="translate(1340.966797 0.807813)" xlink:href="#DejaVuSans-Oblique-105"/>
    <use transform="translate(1368.75 0.807813)" xlink:href="#DejaVuSans-Oblique-110"/>
    <use transform="translate(1432.128906 0.807813)" xlink:href="#DejaVuSans-40"/>
    <use transform="translate(1473.142578 44.604688)scale(0.7)" xlink:href="#DejaVuSans-Oblique-120"/>
    <use transform="translate(1471.142578 -37.679687)scale(0.7)" xlink:href="#DejaVuSans-53"/>
    <use transform="translate(1528.178711 0.807813)" xlink:href="#DejaVuSans-41"/>
    <use transform="translate(1586.674805 0.807813)" xlink:href="#DejaVuSans-8901"/>
    <use transform="translate(1637.944336 0.807813)" xlink:href="#DejaVuSans-Oblique-101"/>
    <use transform="translate(1718.117669 69.746875)scale(0.49)" xlink:href="#DejaVuSans-Oblique-88"/>
    <use transform="translate(1704.117669 11.504688)scale(0.49)" xlink:href="#DejaVuSans-49"/>
    <use transform="translate(1735.292962 11.504688)scale(0.49)" xlink:href="#DejaVuSans-48"/>
    <use transform="translate(1797.435052 0.807813)" xlink:href="#DejaVuSans-43"/>
    <use transform="translate(1900.706536 0.807813)" xlink:href="#DejaVuSans-53"/>
    <use transform="translate(1983.812005 0.807813)" xlink:href="#DejaVuSans-8901"/>
    <use transform="translate(2035.081536 0.807813)" xlink:href="#DejaVuSans-Oblique-101"/>
    <use transform="translate(2101.25487 39.089063)scale(0.7)" xlink:href="#DejaVuSans-8722"/>
    <use transform="translate(2159.907214 69.746875)scale(0.49)" xlink:href="#DejaVuSans-Oblique-88"/>
    <use transform="translate(2160.907214 11.504688)scale(0.49)" xlink:href="#DejaVuSans-50"/>
    <use transform="translate(2204.95946 0.807813)" xlink:href="#DejaVuSans-44"/>
    <use transform="translate(2236.746569 0.807813)" xlink:href="#DejaVuSans-32"/>
    <use transform="translate(2268.533678 0.807813)" xlink:href="#DejaVuSans-32"/>
    <use transform="translate(2300.320788 0.807813)" xlink:href="#DejaVuSans-Oblique-103"/>
    <use transform="translate(2363.79735 0.807813)" xlink:href="#DejaVuSans-40"/>
    <use transform="translate(2402.811022 0.807813)" xlink:href="#DejaVuSans-Oblique-120"/>
    <use transform="translate(2461.99071 0.807813)" xlink:href="#DejaVuSans-41"/>
    <use transform="translate(2520.486803 0.807813)" xlink:href="#DejaVuSans-61"/>
    <use transform="translate(2623.758288 0.807813)" xlink:href="#DejaVuSans-49"/>
    <use transform="translate(2706.863757 0.807813)" xlink:href="#DejaVuSans-8722"/>
    <use transform="translate(2810.135241 0.807813)" xlink:href="#DejaVuSans-Oblique-120"/>
    <use transform="translate(2873.781074 39.089063)scale(0.7)" xlink:href="#DejaVuSans-51"/>
    <use transform="translate(2940.534004 0.807813)" xlink:href="#DejaVuSans-43"/>
    <use transform="translate(3043.805488 0.807813)" xlink:href="#DejaVuSans-Oblique-120"/>
    <use transform="translate(3107.451322 39.089063)scale(0.7)" xlink:href="#DejaVuSans-53"/>
    <use transform="translate(3154.721829 0.807813)" xlink:href="#DejaVuSans-44"/>
    <use transform="translate(3186.508939 0.807813)" xlink:href="#DejaVuSans-32"/>
    <use transform="translate(3218.296048 0.807813)" xlink:href="#DejaVuSans-32"/>
    <use transform="translate(3250.083158 0.807813)" xlink:href="#DejaVuSans-Oblique-104"/>
    <use transform="translate(3313.462064 0.807813)" xlink:href="#DejaVuSans-40"/>
    <use transform="translate(3352.475736 0.807813)" xlink:href="#DejaVuSans-Oblique-120"/>
    <use transform="translate(3411.655423 0.807813)" xlink:href="#DejaVuSans-41"/>
    <use transform="translate(3470.151517 0.807813)" xlink:href="#DejaVuSans-61"/>
    <use transform="translate(3573.423001 53.835938)scale(0.7)" xlink:href="#DejaVuSans-53"/>
    <use transform="translate(3631.596829 53.835938)scale(0.7)" xlink:href="#DejaVuSans-8901"/>
    <use transform="translate(3667.485501 53.835938)scale(0.7)" xlink:href="#DejaVuSans-Oblique-115"/>
    <use transform="translate(3703.955228 53.835938)scale(0.7)" xlink:href="#DejaVuSans-Oblique-105"/>
    <use transform="translate(3723.40347 53.835938)scale(0.7)" xlink:href="#DejaVuSans-Oblique-110"/>
    <use transform="translate(3771.023632 80.632813)scale(0.49)" xlink:href="#DejaVuSans-50"/>
    <use transform="translate(3804.112987 53.835938)scale(0.7)" xlink:href="#DejaVuSans-40"/>
    <use transform="translate(3831.422557 53.835938)scale(0.7)" xlink:href="#DejaVuSans-Oblique-101"/>
    <use transform="translate(3877.743891 80.632813)scale(0.49)" xlink:href="#DejaVuSans-48"/>
    <use transform="translate(3908.919184 80.632813)scale(0.49)" xlink:href="#DejaVuSans-46"/>
    <use transform="translate(3924.479555 80.632813)scale(0.49)" xlink:href="#DejaVuSans-56"/>
    <use transform="translate(3965.201234 80.632813)scale(0.49)" xlink:href="#DejaVuSans-8901"/>
    <use transform="translate(3990.323305 80.632813)scale(0.49)" xlink:href="#DejaVuSans-Oblique-120"/>
    <use transform="translate(4021.235414 53.835938)scale(0.7)" xlink:href="#DejaVuSans-41"/>
    <use transform="translate(4062.18268 53.835938)scale(0.7)" xlink:href="#DejaVuSans-8901"/>
    <use transform="translate(4098.071352 53.835938)scale(0.7)" xlink:href="#DejaVuSans-Oblique-120"/>
    <use transform="translate(4142.623435 80.632813)scale(0.49)" xlink:href="#DejaVuSans-50"/>
    <use transform="translate(3828.423001 -65.853047)scale(0.7)" xlink:href="#DejaVuSans-Oblique-101"/>
    <use transform="translate(3874.744335 -17.595703)scale(0.343)" xlink:href="#DejaVuSans-Oblique-120"/>
    <use transform="translate(3896.574855 -4.465234)scale(0.2401)" xlink:href="#DejaVuSans-50"/>
    <use transform="translate(3882.744335 -58.365234)scale(0.343)" xlink:href="#DejaVuSans-50"/>
    <path d="M 1471.142578 19.604688 
L 1471.142578 25.854688 
L 1515.678711 25.854688 
L 1515.678711 19.604688 
L 1471.142578 19.604688 
z
"/>
    <path d="M 1704.117669 52.246875 
L 1704.117669 56.621875 
L 1766.468255 56.621875 
L 1766.468255 52.246875 
L 1704.117669 52.246875 
z
"/>
    <path d="M 2159.907214 52.246875 
L 2159.907214 56.621875 
L 2193.475085 56.621875 
L 2193.475085 52.246875 
L 2159.907214 52.246875 
z
"/>
    <path d="M 3573.423001 19.604688 
L 3573.423001 25.854688 
L 4175.71279 25.854688 
L 4175.71279 19.604688 
L 3573.423001 19.604688 
z
"/>
    <path d="M 3874.744335 -29.845703 
L 3874.744335 -26.783203 
L 3912.78864 -26.783203 
L 3912.78864 -29.845703 
L 3874.744335 -29.845703 
z
"/>
   </g>
  </g>
 </g>
 <defs>
  <clipPath id="p36b823913a">
   <rect height="380.52" width="304.363636" x="108" y="60.48"/>
  </clipPath>
  <clipPath id="p92a15f336e">
   <rect height="380.52" width="304.363636" x="473.236364" y="60.48"/>
  </clipPath>
 </defs>
</svg>
