<?xml version="1.0" encoding="utf-8" standalone="no"?>
<!DOCTYPE svg PUBLIC "-//W3C//DTD SVG 1.1//EN"
  "http://www.w3.org/Graphics/SVG/1.1/DTD/svg11.dtd">
<!-- Created with matplotlib (https://matplotlib.org/) -->
<svg height="432pt" version="1.1" viewBox="0 0 864 432" width="864pt" xmlns="http://www.w3.org/2000/svg" xmlns:xlink="http://www.w3.org/1999/xlink">
 <defs>
  <style type="text/css">
*{stroke-linecap:butt;stroke-linejoin:round;}
  </style>
 </defs>
 <g id="figure_1">
  <g id="patch_1">
   <path d="M 0 432 
L 864 432 
L 864 0 
L 0 0 
z
" style="fill:#ffffff;"/>
  </g>
  <g id="axes_1">
   <g id="patch_2">
    <path d="M 108 378 
L 412.363636 378 
L 412.363636 51.84 
L 108 51.84 
z
" style="fill:#ffffff;"/>
   </g>
   <g id="matplotlib.axis_1">
    <g id="xtick_1">
     <g id="line2d_1">
      <defs>
       <path d="M 0 0 
L 0 3.5 
" id="m5b6b15c7a1" style="stroke:#000000;stroke-width:0.8;"/>
      </defs>
      <g>
       <use style="stroke:#000000;stroke-width:0.8;" x="121.834711" xlink:href="#m5b6b15c7a1" y="378"/>
      </g>
     </g>
     <g id="text_1">
      <!-- −5.0 -->
      <defs>
       <path d="M 10.59375 35.5 
L 73.1875 35.5 
L 73.1875 27.203125 
L 10.59375 27.203125 
z
" id="DejaVuSans-8722"/>
       <path d="M 10.796875 72.90625 
L 49.515625 72.90625 
L 49.515625 64.59375 
L 19.828125 64.59375 
L 19.828125 46.734375 
Q 21.96875 47.46875 24.109375 47.828125 
Q 26.265625 48.1875 28.421875 48.1875 
Q 40.625 48.1875 47.75 41.5 
Q 54.890625 34.8125 54.890625 23.390625 
Q 54.890625 11.625 47.5625 5.09375 
Q 40.234375 -1.421875 26.90625 -1.421875 
Q 22.3125 -1.421875 17.546875 -0.640625 
Q 12.796875 0.140625 7.71875 1.703125 
L 7.71875 11.625 
Q 12.109375 9.234375 16.796875 8.0625 
Q 21.484375 6.890625 26.703125 6.890625 
Q 35.15625 6.890625 40.078125 11.328125 
Q 45.015625 15.765625 45.015625 23.390625 
Q 45.015625 31 40.078125 35.4375 
Q 35.15625 39.890625 26.703125 39.890625 
Q 22.75 39.890625 18.8125 39.015625 
Q 14.890625 38.140625 10.796875 36.28125 
z
" id="DejaVuSans-53"/>
       <path d="M 10.6875 12.40625 
L 21 12.40625 
L 21 0 
L 10.6875 0 
z
" id="DejaVuSans-46"/>
       <path d="M 31.78125 66.40625 
Q 24.171875 66.40625 20.328125 58.90625 
Q 16.5 51.421875 16.5 36.375 
Q 16.5 21.390625 20.328125 13.890625 
Q 24.171875 6.390625 31.78125 6.390625 
Q 39.453125 6.390625 43.28125 13.890625 
Q 47.125 21.390625 47.125 36.375 
Q 47.125 51.421875 43.28125 58.90625 
Q 39.453125 66.40625 31.78125 66.40625 
z
M 31.78125 74.21875 
Q 44.046875 74.21875 50.515625 64.515625 
Q 56.984375 54.828125 56.984375 36.375 
Q 56.984375 17.96875 50.515625 8.265625 
Q 44.046875 -1.421875 31.78125 -1.421875 
Q 19.53125 -1.421875 13.0625 8.265625 
Q 6.59375 17.96875 6.59375 36.375 
Q 6.59375 54.828125 13.0625 64.515625 
Q 19.53125 74.21875 31.78125 74.21875 
z
" id="DejaVuSans-48"/>
      </defs>
      <g transform="translate(109.693304 392.598437)scale(0.1 -0.1)">
       <use xlink:href="#DejaVuSans-8722"/>
       <use x="83.789062" xlink:href="#DejaVuSans-53"/>
       <use x="147.412109" xlink:href="#DejaVuSans-46"/>
       <use x="179.199219" xlink:href="#DejaVuSans-48"/>
      </g>
     </g>
    </g>
    <g id="xtick_2">
     <g id="line2d_2">
      <g>
       <use style="stroke:#000000;stroke-width:0.8;" x="177.173554" xlink:href="#m5b6b15c7a1" y="378"/>
      </g>
     </g>
     <g id="text_2">
      <!-- −4.8 -->
      <defs>
       <path d="M 37.796875 64.3125 
L 12.890625 25.390625 
L 37.796875 25.390625 
z
M 35.203125 72.90625 
L 47.609375 72.90625 
L 47.609375 25.390625 
L 58.015625 25.390625 
L 58.015625 17.1875 
L 47.609375 17.1875 
L 47.609375 0 
L 37.796875 0 
L 37.796875 17.1875 
L 4.890625 17.1875 
L 4.890625 26.703125 
z
" id="DejaVuSans-52"/>
       <path d="M 31.78125 34.625 
Q 24.75 34.625 20.71875 30.859375 
Q 16.703125 27.09375 16.703125 20.515625 
Q 16.703125 13.921875 20.71875 10.15625 
Q 24.75 6.390625 31.78125 6.390625 
Q 38.8125 6.390625 42.859375 10.171875 
Q 46.921875 13.96875 46.921875 20.515625 
Q 46.921875 27.09375 42.890625 30.859375 
Q 38.875 34.625 31.78125 34.625 
z
M 21.921875 38.8125 
Q 15.578125 40.375 12.03125 44.71875 
Q 8.5 49.078125 8.5 55.328125 
Q 8.5 64.0625 14.71875 69.140625 
Q 20.953125 74.21875 31.78125 74.21875 
Q 42.671875 74.21875 48.875 69.140625 
Q 55.078125 64.0625 55.078125 55.328125 
Q 55.078125 49.078125 51.53125 44.71875 
Q 48 40.375 41.703125 38.8125 
Q 48.828125 37.15625 52.796875 32.3125 
Q 56.78125 27.484375 56.78125 20.515625 
Q 56.78125 9.90625 50.3125 4.234375 
Q 43.84375 -1.421875 31.78125 -1.421875 
Q 19.734375 -1.421875 13.25 4.234375 
Q 6.78125 9.90625 6.78125 20.515625 
Q 6.78125 27.484375 10.78125 32.3125 
Q 14.796875 37.15625 21.921875 38.8125 
z
M 18.3125 54.390625 
Q 18.3125 48.734375 21.84375 45.5625 
Q 25.390625 42.390625 31.78125 42.390625 
Q 38.140625 42.390625 41.71875 45.5625 
Q 45.3125 48.734375 45.3125 54.390625 
Q 45.3125 60.0625 41.71875 63.234375 
Q 38.140625 66.40625 31.78125 66.40625 
Q 25.390625 66.40625 21.84375 63.234375 
Q 18.3125 60.0625 18.3125 54.390625 
z
" id="DejaVuSans-56"/>
      </defs>
      <g transform="translate(165.032147 392.598437)scale(0.1 -0.1)">
       <use xlink:href="#DejaVuSans-8722"/>
       <use x="83.789062" xlink:href="#DejaVuSans-52"/>
       <use x="147.412109" xlink:href="#DejaVuSans-46"/>
       <use x="179.199219" xlink:href="#DejaVuSans-56"/>
      </g>
     </g>
    </g>
    <g id="xtick_3">
     <g id="line2d_3">
      <g>
       <use style="stroke:#000000;stroke-width:0.8;" x="232.512397" xlink:href="#m5b6b15c7a1" y="378"/>
      </g>
     </g>
     <g id="text_3">
      <!-- −4.6 -->
      <defs>
       <path d="M 33.015625 40.375 
Q 26.375 40.375 22.484375 35.828125 
Q 18.609375 31.296875 18.609375 23.390625 
Q 18.609375 15.53125 22.484375 10.953125 
Q 26.375 6.390625 33.015625 6.390625 
Q 39.65625 6.390625 43.53125 10.953125 
Q 47.40625 15.53125 47.40625 23.390625 
Q 47.40625 31.296875 43.53125 35.828125 
Q 39.65625 40.375 33.015625 40.375 
z
M 52.59375 71.296875 
L 52.59375 62.3125 
Q 48.875 64.0625 45.09375 64.984375 
Q 41.3125 65.921875 37.59375 65.921875 
Q 27.828125 65.921875 22.671875 59.328125 
Q 17.53125 52.734375 16.796875 39.40625 
Q 19.671875 43.65625 24.015625 45.921875 
Q 28.375 48.1875 33.59375 48.1875 
Q 44.578125 48.1875 50.953125 41.515625 
Q 57.328125 34.859375 57.328125 23.390625 
Q 57.328125 12.15625 50.6875 5.359375 
Q 44.046875 -1.421875 33.015625 -1.421875 
Q 20.359375 -1.421875 13.671875 8.265625 
Q 6.984375 17.96875 6.984375 36.375 
Q 6.984375 53.65625 15.1875 63.9375 
Q 23.390625 74.21875 37.203125 74.21875 
Q 40.921875 74.21875 44.703125 73.484375 
Q 48.484375 72.75 52.59375 71.296875 
z
" id="DejaVuSans-54"/>
      </defs>
      <g transform="translate(220.37099 392.598437)scale(0.1 -0.1)">
       <use xlink:href="#DejaVuSans-8722"/>
       <use x="83.789062" xlink:href="#DejaVuSans-52"/>
       <use x="147.412109" xlink:href="#DejaVuSans-46"/>
       <use x="179.199219" xlink:href="#DejaVuSans-54"/>
      </g>
     </g>
    </g>
    <g id="xtick_4">
     <g id="line2d_4">
      <g>
       <use style="stroke:#000000;stroke-width:0.8;" x="287.85124" xlink:href="#m5b6b15c7a1" y="378"/>
      </g>
     </g>
     <g id="text_4">
      <!-- −4.4 -->
      <g transform="translate(275.709833 392.598437)scale(0.1 -0.1)">
       <use xlink:href="#DejaVuSans-8722"/>
       <use x="83.789062" xlink:href="#DejaVuSans-52"/>
       <use x="147.412109" xlink:href="#DejaVuSans-46"/>
       <use x="179.199219" xlink:href="#DejaVuSans-52"/>
      </g>
     </g>
    </g>
    <g id="xtick_5">
     <g id="line2d_5">
      <g>
       <use style="stroke:#000000;stroke-width:0.8;" x="343.190083" xlink:href="#m5b6b15c7a1" y="378"/>
      </g>
     </g>
     <g id="text_5">
      <!-- −4.2 -->
      <defs>
       <path d="M 19.1875 8.296875 
L 53.609375 8.296875 
L 53.609375 0 
L 7.328125 0 
L 7.328125 8.296875 
Q 12.9375 14.109375 22.625 23.890625 
Q 32.328125 33.6875 34.8125 36.53125 
Q 39.546875 41.84375 41.421875 45.53125 
Q 43.3125 49.21875 43.3125 52.78125 
Q 43.3125 58.59375 39.234375 62.25 
Q 35.15625 65.921875 28.609375 65.921875 
Q 23.96875 65.921875 18.8125 64.3125 
Q 13.671875 62.703125 7.8125 59.421875 
L 7.8125 69.390625 
Q 13.765625 71.78125 18.9375 73 
Q 24.125 74.21875 28.421875 74.21875 
Q 39.75 74.21875 46.484375 68.546875 
Q 53.21875 62.890625 53.21875 53.421875 
Q 53.21875 48.921875 51.53125 44.890625 
Q 49.859375 40.875 45.40625 35.40625 
Q 44.1875 33.984375 37.640625 27.21875 
Q 31.109375 20.453125 19.1875 8.296875 
z
" id="DejaVuSans-50"/>
      </defs>
      <g transform="translate(331.048676 392.598437)scale(0.1 -0.1)">
       <use xlink:href="#DejaVuSans-8722"/>
       <use x="83.789062" xlink:href="#DejaVuSans-52"/>
       <use x="147.412109" xlink:href="#DejaVuSans-46"/>
       <use x="179.199219" xlink:href="#DejaVuSans-50"/>
      </g>
     </g>
    </g>
    <g id="xtick_6">
     <g id="line2d_6">
      <g>
       <use style="stroke:#000000;stroke-width:0.8;" x="398.528926" xlink:href="#m5b6b15c7a1" y="378"/>
      </g>
     </g>
     <g id="text_6">
      <!-- −4.0 -->
      <g transform="translate(386.387519 392.598437)scale(0.1 -0.1)">
       <use xlink:href="#DejaVuSans-8722"/>
       <use x="83.789062" xlink:href="#DejaVuSans-52"/>
       <use x="147.412109" xlink:href="#DejaVuSans-46"/>
       <use x="179.199219" xlink:href="#DejaVuSans-48"/>
      </g>
     </g>
    </g>
    <g id="text_7">
     <!-- x -->
     <defs>
      <path d="M 54.890625 54.6875 
L 35.109375 28.078125 
L 55.90625 0 
L 45.3125 0 
L 29.390625 21.484375 
L 13.484375 0 
L 2.875 0 
L 24.125 28.609375 
L 4.6875 54.6875 
L 15.28125 54.6875 
L 29.78125 35.203125 
L 44.28125 54.6875 
z
" id="DejaVuSans-120"/>
     </defs>
     <g transform="translate(256.038693 409.315938)scale(0.14 -0.14)">
      <use xlink:href="#DejaVuSans-120"/>
     </g>
    </g>
   </g>
   <g id="matplotlib.axis_2">
    <g id="ytick_1">
     <g id="line2d_7">
      <defs>
       <path d="M 0 0 
L -3.5 0 
" id="maa3057bf6b" style="stroke:#000000;stroke-width:0.8;"/>
      </defs>
      <g>
       <use style="stroke:#000000;stroke-width:0.8;" x="108" xlink:href="#maa3057bf6b" y="364.217773"/>
      </g>
     </g>
     <g id="text_8">
      <!-- 0.00000 -->
      <g transform="translate(59.646875 368.016992)scale(0.1 -0.1)">
       <use xlink:href="#DejaVuSans-48"/>
       <use x="63.623047" xlink:href="#DejaVuSans-46"/>
       <use x="95.410156" xlink:href="#DejaVuSans-48"/>
       <use x="159.033203" xlink:href="#DejaVuSans-48"/>
       <use x="222.65625" xlink:href="#DejaVuSans-48"/>
       <use x="286.279297" xlink:href="#DejaVuSans-48"/>
       <use x="349.902344" xlink:href="#DejaVuSans-48"/>
      </g>
     </g>
    </g>
    <g id="ytick_2">
     <g id="line2d_8">
      <g>
       <use style="stroke:#000000;stroke-width:0.8;" x="108" xlink:href="#maa3057bf6b" y="297.451914"/>
      </g>
     </g>
     <g id="text_9">
      <!-- 0.00001 -->
      <defs>
       <path d="M 12.40625 8.296875 
L 28.515625 8.296875 
L 28.515625 63.921875 
L 10.984375 60.40625 
L 10.984375 69.390625 
L 28.421875 72.90625 
L 38.28125 72.90625 
L 38.28125 8.296875 
L 54.390625 8.296875 
L 54.390625 0 
L 12.40625 0 
z
" id="DejaVuSans-49"/>
      </defs>
      <g transform="translate(59.646875 301.251133)scale(0.1 -0.1)">
       <use xlink:href="#DejaVuSans-48"/>
       <use x="63.623047" xlink:href="#DejaVuSans-46"/>
       <use x="95.410156" xlink:href="#DejaVuSans-48"/>
       <use x="159.033203" xlink:href="#DejaVuSans-48"/>
       <use x="222.65625" xlink:href="#DejaVuSans-48"/>
       <use x="286.279297" xlink:href="#DejaVuSans-48"/>
       <use x="349.902344" xlink:href="#DejaVuSans-49"/>
      </g>
     </g>
    </g>
    <g id="ytick_3">
     <g id="line2d_9">
      <g>
       <use style="stroke:#000000;stroke-width:0.8;" x="108" xlink:href="#maa3057bf6b" y="230.686055"/>
      </g>
     </g>
     <g id="text_10">
      <!-- 0.00002 -->
      <g transform="translate(59.646875 234.485274)scale(0.1 -0.1)">
       <use xlink:href="#DejaVuSans-48"/>
       <use x="63.623047" xlink:href="#DejaVuSans-46"/>
       <use x="95.410156" xlink:href="#DejaVuSans-48"/>
       <use x="159.033203" xlink:href="#DejaVuSans-48"/>
       <use x="222.65625" xlink:href="#DejaVuSans-48"/>
       <use x="286.279297" xlink:href="#DejaVuSans-48"/>
       <use x="349.902344" xlink:href="#DejaVuSans-50"/>
      </g>
     </g>
    </g>
    <g id="ytick_4">
     <g id="line2d_10">
      <g>
       <use style="stroke:#000000;stroke-width:0.8;" x="108" xlink:href="#maa3057bf6b" y="163.920197"/>
      </g>
     </g>
     <g id="text_11">
      <!-- 0.00003 -->
      <defs>
       <path d="M 40.578125 39.3125 
Q 47.65625 37.796875 51.625 33 
Q 55.609375 28.21875 55.609375 21.1875 
Q 55.609375 10.40625 48.1875 4.484375 
Q 40.765625 -1.421875 27.09375 -1.421875 
Q 22.515625 -1.421875 17.65625 -0.515625 
Q 12.796875 0.390625 7.625 2.203125 
L 7.625 11.71875 
Q 11.71875 9.328125 16.59375 8.109375 
Q 21.484375 6.890625 26.8125 6.890625 
Q 36.078125 6.890625 40.9375 10.546875 
Q 45.796875 14.203125 45.796875 21.1875 
Q 45.796875 27.640625 41.28125 31.265625 
Q 36.765625 34.90625 28.71875 34.90625 
L 20.21875 34.90625 
L 20.21875 43.015625 
L 29.109375 43.015625 
Q 36.375 43.015625 40.234375 45.921875 
Q 44.09375 48.828125 44.09375 54.296875 
Q 44.09375 59.90625 40.109375 62.90625 
Q 36.140625 65.921875 28.71875 65.921875 
Q 24.65625 65.921875 20.015625 65.03125 
Q 15.375 64.15625 9.8125 62.3125 
L 9.8125 71.09375 
Q 15.4375 72.65625 20.34375 73.4375 
Q 25.25 74.21875 29.59375 74.21875 
Q 40.828125 74.21875 47.359375 69.109375 
Q 53.90625 64.015625 53.90625 55.328125 
Q 53.90625 49.265625 50.4375 45.09375 
Q 46.96875 40.921875 40.578125 39.3125 
z
" id="DejaVuSans-51"/>
      </defs>
      <g transform="translate(59.646875 167.719415)scale(0.1 -0.1)">
       <use xlink:href="#DejaVuSans-48"/>
       <use x="63.623047" xlink:href="#DejaVuSans-46"/>
       <use x="95.410156" xlink:href="#DejaVuSans-48"/>
       <use x="159.033203" xlink:href="#DejaVuSans-48"/>
       <use x="222.65625" xlink:href="#DejaVuSans-48"/>
       <use x="286.279297" xlink:href="#DejaVuSans-48"/>
       <use x="349.902344" xlink:href="#DejaVuSans-51"/>
      </g>
     </g>
    </g>
    <g id="ytick_5">
     <g id="line2d_11">
      <g>
       <use style="stroke:#000000;stroke-width:0.8;" x="108" xlink:href="#maa3057bf6b" y="97.154338"/>
      </g>
     </g>
     <g id="text_12">
      <!-- 0.00004 -->
      <g transform="translate(59.646875 100.953557)scale(0.1 -0.1)">
       <use xlink:href="#DejaVuSans-48"/>
       <use x="63.623047" xlink:href="#DejaVuSans-46"/>
       <use x="95.410156" xlink:href="#DejaVuSans-48"/>
       <use x="159.033203" xlink:href="#DejaVuSans-48"/>
       <use x="222.65625" xlink:href="#DejaVuSans-48"/>
       <use x="286.279297" xlink:href="#DejaVuSans-48"/>
       <use x="349.902344" xlink:href="#DejaVuSans-52"/>
      </g>
     </g>
    </g>
    <g id="text_13">
     <!-- h(x) -->
     <defs>
      <path d="M 54.890625 33.015625 
L 54.890625 0 
L 45.90625 0 
L 45.90625 32.71875 
Q 45.90625 40.484375 42.875 44.328125 
Q 39.84375 48.1875 33.796875 48.1875 
Q 26.515625 48.1875 22.3125 43.546875 
Q 18.109375 38.921875 18.109375 30.90625 
L 18.109375 0 
L 9.078125 0 
L 9.078125 75.984375 
L 18.109375 75.984375 
L 18.109375 46.1875 
Q 21.34375 51.125 25.703125 53.5625 
Q 30.078125 56 35.796875 56 
Q 45.21875 56 50.046875 50.171875 
Q 54.890625 44.34375 54.890625 33.015625 
z
" id="DejaVuSans-104"/>
      <path d="M 31 75.875 
Q 24.46875 64.65625 21.28125 53.65625 
Q 18.109375 42.671875 18.109375 31.390625 
Q 18.109375 20.125 21.3125 9.0625 
Q 24.515625 -2 31 -13.1875 
L 23.1875 -13.1875 
Q 15.875 -1.703125 12.234375 9.375 
Q 8.59375 20.453125 8.59375 31.390625 
Q 8.59375 42.28125 12.203125 53.3125 
Q 15.828125 64.359375 23.1875 75.875 
z
" id="DejaVuSans-40"/>
      <path d="M 8.015625 75.875 
L 15.828125 75.875 
Q 23.140625 64.359375 26.78125 53.3125 
Q 30.421875 42.28125 30.421875 31.390625 
Q 30.421875 20.453125 26.78125 9.375 
Q 23.140625 -1.703125 15.828125 -13.1875 
L 8.015625 -13.1875 
Q 14.5 -2 17.703125 9.0625 
Q 20.90625 20.125 20.90625 31.390625 
Q 20.90625 42.671875 17.703125 53.65625 
Q 14.5 64.65625 8.015625 75.875 
z
" id="DejaVuSans-41"/>
     </defs>
     <g transform="translate(53.15125 226.955625)rotate(-90)scale(0.12 -0.12)">
      <use xlink:href="#DejaVuSans-104"/>
      <use x="63.378906" xlink:href="#DejaVuSans-40"/>
      <use x="102.392578" xlink:href="#DejaVuSans-120"/>
      <use x="161.572266" xlink:href="#DejaVuSans-41"/>
     </g>
    </g>
   </g>
   <g id="line2d_12">
    <path clip-path="url(#p4793208d1f)" d="M 121.834711 363.174545 
L 141.31788 362.607838 
L 157.424705 361.922556 
L 171.151483 361.121628 
L 183.162414 360.203412 
L 193.900297 359.162988 
L 203.586532 358.003715 
L 212.387168 356.730115 
L 220.523606 355.330289 
L 228.051194 353.811955 
L 235.080633 352.169548 
L 241.667272 350.404963 
L 247.866463 348.517659 
L 253.788903 346.48335 
L 259.434594 344.308509 
L 264.803536 342.002772 
L 269.951078 339.551359 
L 274.93257 336.931659 
L 279.692662 334.178861 
L 284.342055 331.232573 
L 288.825398 328.128788 
L 293.198041 324.831528 
L 297.459985 321.339439 
L 301.611228 317.652363 
L 305.707122 313.716158 
L 309.692315 309.579938 
L 313.622159 305.182834 
L 317.496653 300.515313 
L 321.315797 295.568059 
L 325.134941 290.252237 
L 328.898735 284.627365 
L 332.607179 278.684206 
L 336.315623 272.315626 
L 339.968718 265.597926 
L 343.621812 258.409731 
L 347.219556 250.840077 
L 350.817301 242.751784 
L 354.415045 234.111027 
L 358.012789 224.8819 
L 361.555184 215.182861 
L 365.097578 204.837896 
L 368.639973 193.806111 
L 372.182367 182.044177 
L 375.724761 169.506188 
L 379.267156 156.143523 
L 382.80955 141.904694 
L 386.351945 126.73519 
L 389.894339 110.577313 
L 393.436734 93.370006 
L 396.979128 75.048669 
L 398.528926 66.665455 
L 398.528926 66.665455 
" style="fill:none;stroke:#0000ff;stroke-linecap:square;stroke-width:1.5;"/>
   </g>
   <g id="line2d_13">
    <path clip-path="url(#p4793208d1f)" d="M 108 364.217773 
L 412.363636 364.217773 
" style="fill:none;stroke:#000000;stroke-linecap:square;stroke-width:0.5;"/>
   </g>
   <g id="patch_3">
    <path d="M 108 378 
L 108 51.84 
" style="fill:none;stroke:#000000;stroke-linecap:square;stroke-linejoin:miter;stroke-width:0.8;"/>
   </g>
   <g id="patch_4">
    <path d="M 412.363636 378 
L 412.363636 51.84 
" style="fill:none;stroke:#000000;stroke-linecap:square;stroke-linejoin:miter;stroke-width:0.8;"/>
   </g>
   <g id="patch_5">
    <path d="M 108 378 
L 412.363636 378 
" style="fill:none;stroke:#000000;stroke-linecap:square;stroke-linejoin:miter;stroke-width:0.8;"/>
   </g>
   <g id="patch_6">
    <path d="M 108 51.84 
L 412.363636 51.84 
" style="fill:none;stroke:#000000;stroke-linecap:square;stroke-linejoin:miter;stroke-width:0.8;"/>
   </g>
   <g id="text_14">
    <!-- Поведение h(x) при x стремящемся к $-\infty$ -->
    <defs>
     <path d="M 65.375 72.90625 
L 65.375 0 
L 55.515625 0 
L 55.515625 64.59375 
L 19.671875 64.59375 
L 19.671875 0 
L 9.8125 0 
L 9.8125 72.90625 
z
" id="DejaVuSans-1055"/>
     <path d="M 30.609375 48.390625 
Q 23.390625 48.390625 19.1875 42.75 
Q 14.984375 37.109375 14.984375 27.296875 
Q 14.984375 17.484375 19.15625 11.84375 
Q 23.34375 6.203125 30.609375 6.203125 
Q 37.796875 6.203125 41.984375 11.859375 
Q 46.1875 17.53125 46.1875 27.296875 
Q 46.1875 37.015625 41.984375 42.703125 
Q 37.796875 48.390625 30.609375 48.390625 
z
M 30.609375 56 
Q 42.328125 56 49.015625 48.375 
Q 55.71875 40.765625 55.71875 27.296875 
Q 55.71875 13.875 49.015625 6.21875 
Q 42.328125 -1.421875 30.609375 -1.421875 
Q 18.84375 -1.421875 12.171875 6.21875 
Q 5.515625 13.875 5.515625 27.296875 
Q 5.515625 40.765625 12.171875 48.375 
Q 18.84375 56 30.609375 56 
z
" id="DejaVuSans-1086"/>
     <path d="M 18.0625 25.203125 
L 18.0625 7.171875 
L 30.859375 7.171875 
Q 37.015625 7.171875 40.234375 9.484375 
Q 43.453125 11.8125 43.453125 16.21875 
Q 43.453125 20.609375 40.234375 22.90625 
Q 37.015625 25.203125 30.859375 25.203125 
z
M 18.0625 47.515625 
L 18.0625 32.375 
L 29.890625 32.375 
Q 34.96875 32.375 38.1875 34.390625 
Q 41.40625 36.421875 41.40625 40.046875 
Q 41.40625 43.65625 38.1875 45.578125 
Q 34.96875 47.515625 29.890625 47.515625 
z
M 9.078125 54.6875 
L 30.46875 54.6875 
Q 40.09375 54.6875 45.265625 51.171875 
Q 50.4375 47.65625 50.4375 41.15625 
Q 50.4375 36.140625 47.796875 33.171875 
Q 45.171875 30.21875 39.984375 29.5 
Q 46.1875 28.328125 49.609375 24.609375 
Q 53.03125 20.90625 53.03125 15.328125 
Q 53.03125 8.015625 47.390625 4 
Q 41.75 0 31.296875 0 
L 9.078125 0 
z
" id="DejaVuSans-1074"/>
     <path d="M 56.203125 29.59375 
L 56.203125 25.203125 
L 14.890625 25.203125 
Q 15.484375 15.921875 20.484375 11.0625 
Q 25.484375 6.203125 34.421875 6.203125 
Q 39.59375 6.203125 44.453125 7.46875 
Q 49.3125 8.734375 54.109375 11.28125 
L 54.109375 2.78125 
Q 49.265625 0.734375 44.1875 -0.34375 
Q 39.109375 -1.421875 33.890625 -1.421875 
Q 20.796875 -1.421875 13.15625 6.1875 
Q 5.515625 13.8125 5.515625 26.8125 
Q 5.515625 40.234375 12.765625 48.109375 
Q 20.015625 56 32.328125 56 
Q 43.359375 56 49.78125 48.890625 
Q 56.203125 41.796875 56.203125 29.59375 
z
M 47.21875 32.234375 
Q 47.125 39.59375 43.09375 43.984375 
Q 39.0625 48.390625 32.421875 48.390625 
Q 24.90625 48.390625 20.390625 44.140625 
Q 15.875 39.890625 15.1875 32.171875 
z
" id="DejaVuSans-1077"/>
     <path d="M 21.625 7.171875 
L 47.703125 7.171875 
L 47.703125 47.515625 
L 28.8125 47.515625 
L 28.8125 40.671875 
Q 28.8125 20.5625 23.046875 9.8125 
z
M 8.59375 7.171875 
Q 13.03125 9.125 14.984375 13.28125 
Q 19.78125 23.578125 19.78125 44.34375 
L 19.78125 54.6875 
L 56.734375 54.6875 
L 56.734375 7.171875 
L 63.921875 7.171875 
L 63.921875 -13.8125 
L 56.734375 -13.8125 
L 56.734375 0 
L 12.40625 0 
L 12.40625 -13.8125 
L 5.21875 -13.8125 
L 5.21875 7.171875 
z
" id="DejaVuSans-1076"/>
     <path d="M 9.078125 54.6875 
L 18.109375 54.6875 
L 18.109375 32.375 
L 47.265625 32.375 
L 47.265625 54.6875 
L 56.296875 54.6875 
L 56.296875 0 
L 47.265625 0 
L 47.265625 25.203125 
L 18.109375 25.203125 
L 18.109375 0 
L 9.078125 0 
z
" id="DejaVuSans-1085"/>
     <path d="M 55.90625 54.6875 
L 55.90625 0 
L 46.96875 0 
L 46.96875 43.890625 
L 20.609375 0 
L 9.078125 0 
L 9.078125 54.6875 
L 18.015625 54.6875 
L 18.015625 10.890625 
L 44.34375 54.6875 
z
" id="DejaVuSans-1080"/>
     <path id="DejaVuSans-32"/>
     <path d="M 56.296875 54.6875 
L 56.296875 0 
L 47.265625 0 
L 47.265625 47.515625 
L 18.109375 47.515625 
L 18.109375 0 
L 9.078125 0 
L 9.078125 54.6875 
z
" id="DejaVuSans-1087"/>
     <path d="M 18.109375 8.203125 
L 18.109375 -20.796875 
L 9.078125 -20.796875 
L 9.078125 54.6875 
L 18.109375 54.6875 
L 18.109375 46.390625 
Q 20.953125 51.265625 25.265625 53.625 
Q 29.59375 56 35.59375 56 
Q 45.5625 56 51.78125 48.09375 
Q 58.015625 40.1875 58.015625 27.296875 
Q 58.015625 14.40625 51.78125 6.484375 
Q 45.5625 -1.421875 35.59375 -1.421875 
Q 29.59375 -1.421875 25.265625 0.953125 
Q 20.953125 3.328125 18.109375 8.203125 
z
M 48.6875 27.296875 
Q 48.6875 37.203125 44.609375 42.84375 
Q 40.53125 48.484375 33.40625 48.484375 
Q 26.265625 48.484375 22.1875 42.84375 
Q 18.109375 37.203125 18.109375 27.296875 
Q 18.109375 17.390625 22.1875 11.75 
Q 26.265625 6.109375 33.40625 6.109375 
Q 40.53125 6.109375 44.609375 11.75 
Q 48.6875 17.390625 48.6875 27.296875 
z
" id="DejaVuSans-1088"/>
     <path d="M 48.78125 52.59375 
L 48.78125 44.1875 
Q 44.96875 46.296875 41.140625 47.34375 
Q 37.3125 48.390625 33.40625 48.390625 
Q 24.65625 48.390625 19.8125 42.84375 
Q 14.984375 37.3125 14.984375 27.296875 
Q 14.984375 17.28125 19.8125 11.734375 
Q 24.65625 6.203125 33.40625 6.203125 
Q 37.3125 6.203125 41.140625 7.25 
Q 44.96875 8.296875 48.78125 10.40625 
L 48.78125 2.09375 
Q 45.015625 0.34375 40.984375 -0.53125 
Q 36.96875 -1.421875 32.421875 -1.421875 
Q 20.0625 -1.421875 12.78125 6.34375 
Q 5.515625 14.109375 5.515625 27.296875 
Q 5.515625 40.671875 12.859375 48.328125 
Q 20.21875 56 33.015625 56 
Q 37.15625 56 41.109375 55.140625 
Q 45.0625 54.296875 48.78125 52.59375 
z
" id="DejaVuSans-1089"/>
     <path d="M 2.9375 54.6875 
L 55.328125 54.6875 
L 55.328125 47.515625 
L 33.546875 47.515625 
L 33.546875 0 
L 24.703125 0 
L 24.703125 47.515625 
L 2.9375 47.515625 
z
" id="DejaVuSans-1090"/>
     <path d="M 9.078125 54.6875 
L 22.21875 54.6875 
L 37.75 18.0625 
L 53.328125 54.6875 
L 66.359375 54.6875 
L 66.359375 0 
L 57.328125 0 
L 57.328125 46.09375 
L 42.234375 10.5 
L 33.25 10.5 
L 18.109375 46.09375 
L 18.109375 0 
L 9.078125 0 
z
" id="DejaVuSans-1084"/>
     <path d="M 18.453125 38.921875 
Q 18.453125 34.859375 21.578125 32.5625 
Q 24.703125 30.28125 30.515625 30.28125 
L 42.625 30.28125 
L 42.625 47.515625 
L 30.515625 47.515625 
Q 24.703125 47.515625 21.578125 45.265625 
Q 18.453125 43.015625 18.453125 38.921875 
z
M 5.671875 0 
L 22.359375 23.96875 
Q 16.703125 25.25 12.9375 28.59375 
Q 9.1875 31.9375 9.1875 38.921875 
Q 9.1875 46.828125 14.421875 50.75 
Q 19.671875 54.6875 30.28125 54.6875 
L 51.65625 54.6875 
L 51.65625 0 
L 42.625 0 
L 42.625 23.09375 
L 31.453125 23.09375 
L 15.328125 0 
z
" id="DejaVuSans-1103"/>
     <path d="M 82.421875 0 
L 9.078125 0 
L 9.078125 54.6875 
L 18.109375 54.6875 
L 18.109375 7.171875 
L 41.21875 7.171875 
L 41.21875 54.6875 
L 50.25 54.6875 
L 50.25 7.171875 
L 73.390625 7.171875 
L 73.390625 54.6875 
L 82.421875 54.6875 
L 82.421875 7.171875 
L 89.59375 7.171875 
L 89.59375 -13.8125 
L 82.421875 -13.8125 
z
" id="DejaVuSans-1097"/>
     <path d="M 9.078125 54.6875 
L 18.015625 54.6875 
L 18.015625 29 
L 43.359375 54.6875 
L 54.390625 54.6875 
L 33.5 33.546875 
L 57.078125 0 
L 47.015625 0 
L 27.640625 27.59375 
L 18.015625 17.828125 
L 18.015625 0 
L 9.078125 0 
z
" id="DejaVuSans-1082"/>
     <path d="M 45.5625 17.046875 
Q 44.046875 18.796875 41.65625 22.90625 
Q 38.375 17.046875 35.5 14.453125 
Q 31.890625 11.328125 26.265625 11.328125 
Q 19.671875 11.328125 15.328125 16.265625 
Q 10.75 21.4375 10.75 29.984375 
Q 10.75 38.1875 15.328125 43.75 
Q 19.4375 48.6875 26.375 48.6875 
Q 29.9375 48.6875 32.5625 47.21875 
Q 35.640625 45.609375 37.75 42.828125 
Q 39.703125 40.328125 41.65625 36.96875 
Q 44.921875 42.828125 47.796875 45.40625 
Q 51.421875 48.53125 57.03125 48.53125 
Q 63.625 48.53125 67.96875 43.609375 
Q 72.5625 38.421875 72.5625 29.890625 
Q 72.5625 21.6875 67.96875 16.109375 
Q 63.875 11.1875 56.9375 11.1875 
Q 53.375 11.1875 50.734375 12.640625 
Q 48.09375 13.96875 45.5625 17.046875 
z
M 25.734375 17.71875 
Q 33.796875 17.71875 38.625 29.4375 
Q 32.421875 42.234375 25.734375 42.234375 
Q 20.84375 42.234375 18.359375 38.71875 
Q 15.671875 34.96875 15.671875 29.984375 
Q 15.671875 24.515625 18.359375 21.140625 
Q 21.09375 17.71875 25.734375 17.71875 
z
M 57.5625 42.140625 
Q 50.296875 42.140625 44.671875 30.421875 
Q 50.828125 17.625 57.5625 17.625 
Q 62.453125 17.625 64.9375 21.140625 
Q 67.625 24.90625 67.625 29.890625 
Q 67.625 35.359375 64.9375 38.71875 
Q 62.203125 42.140625 57.5625 42.140625 
z
" id="DejaVuSans-8734"/>
    </defs>
    <g transform="translate(129.861818 45.84)scale(0.12 -0.12)">
     <use transform="translate(0 0.015625)" xlink:href="#DejaVuSans-1055"/>
     <use transform="translate(75.195312 0.015625)" xlink:href="#DejaVuSans-1086"/>
     <use transform="translate(136.376953 0.015625)" xlink:href="#DejaVuSans-1074"/>
     <use transform="translate(195.3125 0.015625)" xlink:href="#DejaVuSans-1077"/>
     <use transform="translate(256.835938 0.015625)" xlink:href="#DejaVuSans-1076"/>
     <use transform="translate(325.976562 0.015625)" xlink:href="#DejaVuSans-1077"/>
     <use transform="translate(387.5 0.015625)" xlink:href="#DejaVuSans-1085"/>
     <use transform="translate(452.880859 0.015625)" xlink:href="#DejaVuSans-1080"/>
     <use transform="translate(517.871094 0.015625)" xlink:href="#DejaVuSans-1077"/>
     <use transform="translate(579.394531 0.015625)" xlink:href="#DejaVuSans-32"/>
     <use transform="translate(611.181641 0.015625)" xlink:href="#DejaVuSans-104"/>
     <use transform="translate(674.560547 0.015625)" xlink:href="#DejaVuSans-40"/>
     <use transform="translate(713.574219 0.015625)" xlink:href="#DejaVuSans-120"/>
     <use transform="translate(772.753906 0.015625)" xlink:href="#DejaVuSans-41"/>
     <use transform="translate(811.767578 0.015625)" xlink:href="#DejaVuSans-32"/>
     <use transform="translate(843.554688 0.015625)" xlink:href="#DejaVuSans-1087"/>
     <use transform="translate(908.935547 0.015625)" xlink:href="#DejaVuSans-1088"/>
     <use transform="translate(972.412109 0.015625)" xlink:href="#DejaVuSans-1080"/>
     <use transform="translate(1037.402344 0.015625)" xlink:href="#DejaVuSans-32"/>
     <use transform="translate(1069.189453 0.015625)" xlink:href="#DejaVuSans-120"/>
     <use transform="translate(1128.369141 0.015625)" xlink:href="#DejaVuSans-32"/>
     <use transform="translate(1160.15625 0.015625)" xlink:href="#DejaVuSans-1089"/>
     <use transform="translate(1215.136719 0.015625)" xlink:href="#DejaVuSans-1090"/>
     <use transform="translate(1273.388672 0.015625)" xlink:href="#DejaVuSans-1088"/>
     <use transform="translate(1336.865234 0.015625)" xlink:href="#DejaVuSans-1077"/>
     <use transform="translate(1398.388672 0.015625)" xlink:href="#DejaVuSans-1084"/>
     <use transform="translate(1473.828125 0.015625)" xlink:href="#DejaVuSans-1103"/>
     <use transform="translate(1533.984375 0.015625)" xlink:href="#DejaVuSans-1097"/>
     <use transform="translate(1628.173828 0.015625)" xlink:href="#DejaVuSans-1077"/>
     <use transform="translate(1689.697266 0.015625)" xlink:href="#DejaVuSans-1084"/>
     <use transform="translate(1765.136719 0.015625)" xlink:href="#DejaVuSans-1089"/>
     <use transform="translate(1820.117188 0.015625)" xlink:href="#DejaVuSans-1103"/>
     <use transform="translate(1880.273438 0.015625)" xlink:href="#DejaVuSans-32"/>
     <use transform="translate(1912.060547 0.015625)" xlink:href="#DejaVuSans-1082"/>
     <use transform="translate(1972.460938 0.015625)" xlink:href="#DejaVuSans-32"/>
     <use transform="translate(2004.248047 0.015625)" xlink:href="#DejaVuSans-8722"/>
     <use transform="translate(2088.037109 0.015625)" xlink:href="#DejaVuSans-8734"/>
    </g>
   </g>
  </g>
  <g id="axes_2">
   <g id="patch_7">
    <path d="M 473.236364 378 
L 777.6 378 
L 777.6 51.84 
L 473.236364 51.84 
z
" style="fill:#ffffff;"/>
   </g>
   <g id="matplotlib.axis_3">
    <g id="xtick_7">
     <g id="line2d_14">
      <g>
       <use style="stroke:#000000;stroke-width:0.8;" x="487.071074" xlink:href="#m5b6b15c7a1" y="378"/>
      </g>
     </g>
     <g id="text_15">
      <!-- 5.0 -->
      <g transform="translate(479.119512 392.598437)scale(0.1 -0.1)">
       <use xlink:href="#DejaVuSans-53"/>
       <use x="63.623047" xlink:href="#DejaVuSans-46"/>
       <use x="95.410156" xlink:href="#DejaVuSans-48"/>
      </g>
     </g>
    </g>
    <g id="xtick_8">
     <g id="line2d_15">
      <g>
       <use style="stroke:#000000;stroke-width:0.8;" x="542.409917" xlink:href="#m5b6b15c7a1" y="378"/>
      </g>
     </g>
     <g id="text_16">
      <!-- 5.2 -->
      <g transform="translate(534.458355 392.598437)scale(0.1 -0.1)">
       <use xlink:href="#DejaVuSans-53"/>
       <use x="63.623047" xlink:href="#DejaVuSans-46"/>
       <use x="95.410156" xlink:href="#DejaVuSans-50"/>
      </g>
     </g>
    </g>
    <g id="xtick_9">
     <g id="line2d_16">
      <g>
       <use style="stroke:#000000;stroke-width:0.8;" x="597.74876" xlink:href="#m5b6b15c7a1" y="378"/>
      </g>
     </g>
     <g id="text_17">
      <!-- 5.4 -->
      <g transform="translate(589.797198 392.598437)scale(0.1 -0.1)">
       <use xlink:href="#DejaVuSans-53"/>
       <use x="63.623047" xlink:href="#DejaVuSans-46"/>
       <use x="95.410156" xlink:href="#DejaVuSans-52"/>
      </g>
     </g>
    </g>
    <g id="xtick_10">
     <g id="line2d_17">
      <g>
       <use style="stroke:#000000;stroke-width:0.8;" x="653.087603" xlink:href="#m5b6b15c7a1" y="378"/>
      </g>
     </g>
     <g id="text_18">
      <!-- 5.6 -->
      <g transform="translate(645.136041 392.598437)scale(0.1 -0.1)">
       <use xlink:href="#DejaVuSans-53"/>
       <use x="63.623047" xlink:href="#DejaVuSans-46"/>
       <use x="95.410156" xlink:href="#DejaVuSans-54"/>
      </g>
     </g>
    </g>
    <g id="xtick_11">
     <g id="line2d_18">
      <g>
       <use style="stroke:#000000;stroke-width:0.8;" x="708.426446" xlink:href="#m5b6b15c7a1" y="378"/>
      </g>
     </g>
     <g id="text_19">
      <!-- 5.8 -->
      <g transform="translate(700.474884 392.598437)scale(0.1 -0.1)">
       <use xlink:href="#DejaVuSans-53"/>
       <use x="63.623047" xlink:href="#DejaVuSans-46"/>
       <use x="95.410156" xlink:href="#DejaVuSans-56"/>
      </g>
     </g>
    </g>
    <g id="xtick_12">
     <g id="line2d_19">
      <g>
       <use style="stroke:#000000;stroke-width:0.8;" x="763.765289" xlink:href="#m5b6b15c7a1" y="378"/>
      </g>
     </g>
     <g id="text_20">
      <!-- 6.0 -->
      <g transform="translate(755.813727 392.598437)scale(0.1 -0.1)">
       <use xlink:href="#DejaVuSans-54"/>
       <use x="63.623047" xlink:href="#DejaVuSans-46"/>
       <use x="95.410156" xlink:href="#DejaVuSans-48"/>
      </g>
     </g>
    </g>
    <g id="text_21">
     <!-- x -->
     <g transform="translate(621.275057 409.315938)scale(0.14 -0.14)">
      <use xlink:href="#DejaVuSans-120"/>
     </g>
    </g>
   </g>
   <g id="matplotlib.axis_4">
    <g id="ytick_6">
     <g id="line2d_20">
      <g>
       <use style="stroke:#000000;stroke-width:0.8;" x="473.236364" xlink:href="#maa3057bf6b" y="363.174546"/>
      </g>
     </g>
     <g id="text_22">
      <!-- 0.0000 -->
      <g transform="translate(431.245739 366.973764)scale(0.1 -0.1)">
       <use xlink:href="#DejaVuSans-48"/>
       <use x="63.623047" xlink:href="#DejaVuSans-46"/>
       <use x="95.410156" xlink:href="#DejaVuSans-48"/>
       <use x="159.033203" xlink:href="#DejaVuSans-48"/>
       <use x="222.65625" xlink:href="#DejaVuSans-48"/>
       <use x="286.279297" xlink:href="#DejaVuSans-48"/>
      </g>
     </g>
    </g>
    <g id="ytick_7">
     <g id="line2d_21">
      <g>
       <use style="stroke:#000000;stroke-width:0.8;" x="473.236364" xlink:href="#maa3057bf6b" y="297.11349"/>
      </g>
     </g>
     <g id="text_23">
      <!-- 0.0001 -->
      <g transform="translate(431.245739 300.912709)scale(0.1 -0.1)">
       <use xlink:href="#DejaVuSans-48"/>
       <use x="63.623047" xlink:href="#DejaVuSans-46"/>
       <use x="95.410156" xlink:href="#DejaVuSans-48"/>
       <use x="159.033203" xlink:href="#DejaVuSans-48"/>
       <use x="222.65625" xlink:href="#DejaVuSans-48"/>
       <use x="286.279297" xlink:href="#DejaVuSans-49"/>
      </g>
     </g>
    </g>
    <g id="ytick_8">
     <g id="line2d_22">
      <g>
       <use style="stroke:#000000;stroke-width:0.8;" x="473.236364" xlink:href="#maa3057bf6b" y="231.052434"/>
      </g>
     </g>
     <g id="text_24">
      <!-- 0.0002 -->
      <g transform="translate(431.245739 234.851653)scale(0.1 -0.1)">
       <use xlink:href="#DejaVuSans-48"/>
       <use x="63.623047" xlink:href="#DejaVuSans-46"/>
       <use x="95.410156" xlink:href="#DejaVuSans-48"/>
       <use x="159.033203" xlink:href="#DejaVuSans-48"/>
       <use x="222.65625" xlink:href="#DejaVuSans-48"/>
       <use x="286.279297" xlink:href="#DejaVuSans-50"/>
      </g>
     </g>
    </g>
    <g id="ytick_9">
     <g id="line2d_23">
      <g>
       <use style="stroke:#000000;stroke-width:0.8;" x="473.236364" xlink:href="#maa3057bf6b" y="164.991378"/>
      </g>
     </g>
     <g id="text_25">
      <!-- 0.0003 -->
      <g transform="translate(431.245739 168.790597)scale(0.1 -0.1)">
       <use xlink:href="#DejaVuSans-48"/>
       <use x="63.623047" xlink:href="#DejaVuSans-46"/>
       <use x="95.410156" xlink:href="#DejaVuSans-48"/>
       <use x="159.033203" xlink:href="#DejaVuSans-48"/>
       <use x="222.65625" xlink:href="#DejaVuSans-48"/>
       <use x="286.279297" xlink:href="#DejaVuSans-51"/>
      </g>
     </g>
    </g>
    <g id="ytick_10">
     <g id="line2d_24">
      <g>
       <use style="stroke:#000000;stroke-width:0.8;" x="473.236364" xlink:href="#maa3057bf6b" y="98.930322"/>
      </g>
     </g>
     <g id="text_26">
      <!-- 0.0004 -->
      <g transform="translate(431.245739 102.729541)scale(0.1 -0.1)">
       <use xlink:href="#DejaVuSans-48"/>
       <use x="63.623047" xlink:href="#DejaVuSans-46"/>
       <use x="95.410156" xlink:href="#DejaVuSans-48"/>
       <use x="159.033203" xlink:href="#DejaVuSans-48"/>
       <use x="222.65625" xlink:href="#DejaVuSans-48"/>
       <use x="286.279297" xlink:href="#DejaVuSans-52"/>
      </g>
     </g>
    </g>
    <g id="text_27">
     <!-- h(x) -->
     <g transform="translate(424.750114 226.955625)rotate(-90)scale(0.12 -0.12)">
      <use xlink:href="#DejaVuSans-104"/>
      <use x="63.378906" xlink:href="#DejaVuSans-40"/>
      <use x="102.392578" xlink:href="#DejaVuSans-120"/>
      <use x="161.572266" xlink:href="#DejaVuSans-41"/>
     </g>
    </g>
   </g>
   <g id="line2d_25">
    <path clip-path="url(#p28d4ab0920)" d="M 487.071074 97.720757 
L 487.790623 80.116469 
L 488.344122 71.375687 
L 488.786922 67.588607 
L 489.063671 66.704554 
L 489.174371 66.672273 
L 489.340421 66.967941 
L 489.56182 68.002036 
L 489.89392 70.909962 
L 490.336719 77.258318 
L 490.890218 88.965905 
L 491.554417 108.032844 
L 492.440016 140.500944 
L 493.768414 198.876564 
L 495.98241 296.432673 
L 496.923359 328.526639 
L 497.642908 346.649821 
L 498.251757 356.955416 
L 498.694556 361.37054 
L 499.026656 362.944313 
L 499.248055 363.165626 
L 499.414105 362.900025 
L 499.635505 361.976789 
L 499.967604 359.395744 
L 500.410403 353.804194 
L 500.963903 343.59766 
L 501.683451 325.655966 
L 502.6244 296.083288 
L 506.277494 174.548915 
L 506.997043 160.070045 
L 507.550542 152.740799 
L 507.993341 149.449949 
L 508.270091 148.589657 
L 508.436141 148.519016 
L 508.602191 148.782447 
L 508.82359 149.651 
L 509.15569 152.049185 
L 509.598489 157.235404 
L 510.151988 166.733603 
L 510.871537 183.543144 
L 511.812485 211.537014 
L 513.528333 271.19029 
L 514.967431 317.963192 
L 515.853029 340.36215 
L 516.572578 353.385392 
L 517.126077 359.792382 
L 517.513527 362.306558 
L 517.790276 363.094017 
L 517.956326 363.1637 
L 518.122376 362.933402 
L 518.343775 362.164802 
L 518.675875 360.043253 
L 519.118674 355.479269 
L 519.672173 347.196681 
L 520.391722 332.742333 
L 521.38802 307.698303 
L 524.321566 230.71098 
L 525.096465 217.104138 
L 525.705314 209.967447 
L 526.148113 206.952826 
L 526.480212 205.945045 
L 526.646262 205.848929 
L 526.812312 206.024906 
L 527.033712 206.68095 
L 527.365811 208.556898 
L 527.80861 212.674345 
L 528.362109 220.259682 
L 529.081658 233.687258 
L 530.022607 255.916145 
L 533.509651 343.121775 
L 534.2292 354.168815 
L 534.782699 359.791414 
L 535.225499 362.359448 
L 535.557598 363.13446 
L 535.723648 363.151966 
L 535.889698 362.924777 
L 536.166447 362.009766 
L 536.498547 360.049279 
L 536.941346 356.043668 
L 537.550195 348.178836 
L 538.325094 334.912167 
L 539.542792 309.481169 
L 541.369339 271.514178 
L 542.199588 258.471127 
L 542.863787 251.214888 
L 543.361936 247.921844 
L 543.694035 246.814338 
L 543.915435 246.569575 
L 544.081485 246.646127 
L 544.302884 247.093857 
L 544.634984 248.49742 
L 545.022433 251.214534 
L 545.520582 256.31998 
L 546.184781 265.641818 
L 547.07038 281.580677 
L 548.952277 321.004586 
L 550.114625 342.611444 
L 550.889524 353.441628 
L 551.498373 359.291341 
L 551.996522 362.138913 
L 552.328622 363.029672 
L 552.550021 363.172666 
L 552.716071 363.044638 
L 552.937471 362.564001 
L 553.26957 361.193816 
L 553.71237 358.210145 
L 554.265869 352.784355 
L 554.985418 343.376022 
L 556.092416 325.496818 
L 558.085013 293.092929 
L 558.859911 283.883352 
L 559.468761 278.923995 
L 559.91156 276.754893 
L 560.243659 275.967551 
L 560.465059 275.849701 
L 560.631109 275.975502 
L 560.852508 276.427298 
L 561.184608 277.704628 
L 561.627407 280.487391 
L 562.180906 285.571796 
L 562.900455 294.458096 
L 563.952103 310.653167 
L 566.22145 346.519847 
L 566.996349 355.319236 
L 567.605198 360.074673 
L 568.103347 362.373297 
L 568.435446 363.074541 
L 568.656846 363.16978 
L 568.878246 362.969424 
L 569.154995 362.31034 
L 569.542445 360.650782 
L 570.040594 357.338557 
L 570.704793 351.131396 
L 571.590391 340.503284 
L 574.302537 306.409973 
L 574.966736 301.107842 
L 575.520235 298.323161 
L 575.907685 297.340767 
L 576.184434 297.14284 
L 576.405834 297.288512 
L 576.682583 297.847762 
L 577.070033 299.318647 
L 577.568182 302.326957 
L 578.177031 307.52769 
L 579.00728 316.741689 
L 582.328275 356.335131 
L 582.937124 360.384634 
L 583.435273 362.394813 
L 583.767372 363.048064 
L 584.044122 363.167617 
L 584.265522 362.987147 
L 584.542271 362.422968 
L 584.92972 361.024363 
L 585.42787 358.258644 
L 586.092069 353.121599 
L 587.033017 343.851695 
L 589.247014 321.360962 
L 589.966563 316.395808 
L 590.520062 313.952705 
L 590.907511 313.038149 
L 591.184261 312.80263 
L 591.40566 312.867244 
L 591.68241 313.262584 
L 592.014509 314.189274 
L 592.457309 316.157457 
L 593.010808 319.687165 
L 593.785707 326.249889 
L 595.114104 339.900434 
L 596.497852 353.353387 
L 597.272751 358.885919 
L 597.8816 361.729504 
L 598.324399 362.859548 
L 598.656499 363.168192 
L 598.877899 363.116778 
L 599.154648 362.767471 
L 599.486748 361.942848 
L 599.929547 360.196637 
L 600.538396 356.732332 
L 601.368645 350.509249 
L 604.02544 329.342613 
L 604.689639 326.199302 
L 605.187789 324.844144 
L 605.519888 324.456698 
L 605.796638 324.456496 
L 606.073387 324.749041 
L 606.405487 325.478892 
L 606.848286 327.064849 
L 607.401785 329.937649 
L 608.176684 335.28995 
L 609.671132 347.699979 
L 610.83348 356.433655 
L 611.553029 360.333562 
L 612.106528 362.252423 
L 612.493977 362.975052 
L 612.826077 363.17451 
L 613.102826 363.045166 
L 613.434926 362.54347 
L 613.822375 361.503086 
L 614.375874 359.248648 
L 615.095423 355.227057 
L 616.368471 346.524862 
L 617.586169 338.730371 
L 618.305718 335.405633 
L 618.859217 333.801863 
L 619.246667 333.237704 
L 619.523416 333.128564 
L 619.800166 333.266017 
L 620.132265 333.752071 
L 620.519715 334.745124 
L 621.073214 336.892212 
L 621.792763 340.738086 
L 622.955111 348.404675 
L 624.338859 357.208646 
L 625.113757 360.771742 
L 625.667256 362.389287 
L 626.110056 363.053605 
L 626.442155 363.171367 
L 626.718905 363.021348 
L 627.051004 362.551734 
L 627.493804 361.462741 
L 628.047303 359.444078 
L 628.822201 355.684825 
L 631.423647 342.284055 
L 632.032496 340.550758 
L 632.475296 339.873453 
L 632.807395 339.709764 
L 633.084145 339.802126 
L 633.416244 340.184184 
L 633.803694 340.989586 
L 634.357193 342.752998 
L 635.076742 345.922478 
L 636.34979 352.805988 
L 637.567488 358.933328 
L 638.287037 361.503414 
L 638.840536 362.711362 
L 639.227985 363.113446 
L 639.560085 363.159145 
L 639.892184 362.931883 
L 640.279633 362.335888 
L 640.777783 361.091274 
L 641.441982 358.741903 
L 642.54898 353.806485 
L 643.877378 348.110263 
L 644.596927 345.962343 
L 645.095076 345.069252 
L 645.482525 344.753619 
L 645.814625 344.756888 
L 646.146724 345.01222 
L 646.534174 345.617855 
L 647.032323 346.844919 
L 647.696522 349.134237 
L 648.80352 353.936382 
L 650.187268 359.74079 
L 650.906817 361.856463 
L 651.460316 362.833219 
L 651.847765 363.140319 
L 652.179865 363.149962 
L 652.511964 362.928874 
L 652.899414 362.392957 
L 653.397563 361.306456 
L 654.117112 359.108517 
L 656.939957 349.663077 
L 657.438106 348.887785 
L 657.825556 348.604819 
L 658.157655 348.594717 
L 658.489755 348.798993 
L 658.877204 349.298931 
L 659.375353 350.321485 
L 660.039552 352.231968 
L 661.201901 356.410741 
L 662.419599 360.542026 
L 663.083798 362.131231 
L 663.637297 362.923472 
L 664.024746 363.156951 
L 664.356846 363.141218 
L 664.744295 362.876189 
L 665.187094 362.268511 
L 665.795943 360.976459 
L 666.681542 358.450205 
L 668.397389 353.441571 
L 669.061588 352.187149 
L 669.559737 351.670837 
L 669.947187 351.548424 
L 670.334636 351.675777 
L 670.722086 352.04643 
L 671.220235 352.852266 
L 671.884434 354.403113 
L 672.991432 357.67316 
L 674.20913 361.087617 
L 674.873329 362.385116 
L 675.371478 362.967087 
L 675.814278 363.170152 
L 676.201727 363.10005 
L 676.644526 362.746763 
L 677.142675 362.03424 
L 677.806874 360.670513 
L 679.356672 356.75349 
L 680.242271 354.922883 
L 680.85112 354.145646 
L 681.293919 353.889559 
L 681.681368 353.893389 
L 682.068818 354.109199 
L 682.566967 354.679797 
L 683.175816 355.760878 
L 684.116765 357.974932 
L 685.666562 361.618964 
L 686.330761 362.642641 
L 686.82891 363.067584 
L 687.27171 363.173433 
L 687.714509 363.021957 
L 688.212658 362.563162 
L 688.821507 361.651466 
L 689.762456 359.758554 
L 691.201553 356.893641 
L 691.865752 356.047049 
L 692.363902 355.727577 
L 692.806701 355.694853 
L 693.2495 355.900099 
L 693.747649 356.39722 
L 694.411848 357.425645 
L 695.518847 359.668003 
L 696.736545 361.98205 
L 697.400744 362.802582 
L 697.898893 363.11883 
L 698.341692 363.164934 
L 698.784491 362.991329 
L 699.282641 362.554157 
L 699.94684 361.647991 
L 701.219888 359.415882 
L 702.216186 357.895375 
L 702.825035 357.320562 
L 703.323184 357.11868 
L 703.765984 357.157549 
L 704.264133 357.442201 
L 704.872982 358.097935 
L 705.703231 359.383545 
L 707.529778 362.339305 
L 708.193977 362.96093 
L 708.692126 363.161594 
L 709.190275 363.119704 
L 709.688424 362.845003 
L 710.297273 362.238496 
L 711.238222 360.924794 
L 712.62197 359.006594 
L 713.286169 358.439913 
L 713.839668 358.247052 
L 714.337817 358.310386 
L 714.891316 358.635202 
L 715.555515 359.324004 
L 716.607163 360.803549 
L 717.824862 362.422457 
L 718.48906 362.972773 
L 719.04256 363.166556 
L 719.540709 363.119753 
L 720.094208 362.834095 
L 720.758407 362.223704 
L 722.031455 360.657844 
L 723.027753 359.60624 
L 723.691952 359.219096 
L 724.245451 359.149905 
L 724.798951 359.319866 
L 725.4078 359.756448 
L 726.238048 360.654498 
L 728.064595 362.706566 
L 728.728794 363.090791 
L 729.282293 363.172375 
L 729.835793 363.031674 
L 730.499992 362.604144 
L 731.44094 361.683225 
L 732.880038 360.292753 
L 733.544237 359.943159 
L 734.153086 359.873952 
L 734.706585 360.028787 
L 735.370784 360.457454 
L 736.367082 361.420256 
L 737.75083 362.728335 
L 738.470379 363.10115 
L 739.079228 363.169114 
L 739.688077 363.004962 
L 740.407626 362.558545 
L 741.846724 361.299442 
L 742.787672 360.655905 
L 743.451871 360.458524 
L 744.06072 360.504992 
L 744.724919 360.792974 
L 745.610518 361.460149 
L 747.437065 362.9068 
L 748.156614 363.154323 
L 748.765463 363.142522 
L 749.429662 362.907778 
L 750.31526 362.33193 
L 752.086458 361.123093 
L 752.806006 360.927689 
L 753.470205 360.98186 
L 754.189754 361.27972 
L 755.241403 362.004915 
L 756.62515 362.924288 
L 757.344699 363.151872 
L 758.008898 363.143235 
L 758.728447 362.907732 
L 759.780096 362.28543 
L 761.163843 361.490855 
L 761.938742 361.306846 
L 762.658291 361.375565 
L 763.43319 361.68549 
L 763.765289 361.873073 
L 763.765289 361.873073 
" style="fill:none;stroke:#0000ff;stroke-linecap:square;stroke-width:1.5;"/>
   </g>
   <g id="line2d_26">
    <path clip-path="url(#p28d4ab0920)" d="M 473.236364 363.174546 
L 777.6 363.174546 
" style="fill:none;stroke:#000000;stroke-linecap:square;stroke-width:0.5;"/>
   </g>
   <g id="patch_8">
    <path d="M 473.236364 378 
L 473.236364 51.84 
" style="fill:none;stroke:#000000;stroke-linecap:square;stroke-linejoin:miter;stroke-width:0.8;"/>
   </g>
   <g id="patch_9">
    <path d="M 777.6 378 
L 777.6 51.84 
" style="fill:none;stroke:#000000;stroke-linecap:square;stroke-linejoin:miter;stroke-width:0.8;"/>
   </g>
   <g id="patch_10">
    <path d="M 473.236364 378 
L 777.6 378 
" style="fill:none;stroke:#000000;stroke-linecap:square;stroke-linejoin:miter;stroke-width:0.8;"/>
   </g>
   <g id="patch_11">
    <path d="M 473.236364 51.84 
L 777.6 51.84 
" style="fill:none;stroke:#000000;stroke-linecap:square;stroke-linejoin:miter;stroke-width:0.8;"/>
   </g>
   <g id="text_28">
    <!-- Поведение h(x) при x стремящемся к  $+\infty$ -->
    <defs>
     <path d="M 46 62.703125 
L 46 35.5 
L 73.1875 35.5 
L 73.1875 27.203125 
L 46 27.203125 
L 46 0 
L 37.796875 0 
L 37.796875 27.203125 
L 10.59375 27.203125 
L 10.59375 35.5 
L 37.796875 35.5 
L 37.796875 62.703125 
z
" id="DejaVuSans-43"/>
    </defs>
    <g transform="translate(493.178182 45.84)scale(0.12 -0.12)">
     <use transform="translate(0 0.015625)" xlink:href="#DejaVuSans-1055"/>
     <use transform="translate(75.195312 0.015625)" xlink:href="#DejaVuSans-1086"/>
     <use transform="translate(136.376953 0.015625)" xlink:href="#DejaVuSans-1074"/>
     <use transform="translate(195.3125 0.015625)" xlink:href="#DejaVuSans-1077"/>
     <use transform="translate(256.835938 0.015625)" xlink:href="#DejaVuSans-1076"/>
     <use transform="translate(325.976562 0.015625)" xlink:href="#DejaVuSans-1077"/>
     <use transform="translate(387.5 0.015625)" xlink:href="#DejaVuSans-1085"/>
     <use transform="translate(452.880859 0.015625)" xlink:href="#DejaVuSans-1080"/>
     <use transform="translate(517.871094 0.015625)" xlink:href="#DejaVuSans-1077"/>
     <use transform="translate(579.394531 0.015625)" xlink:href="#DejaVuSans-32"/>
     <use transform="translate(611.181641 0.015625)" xlink:href="#DejaVuSans-104"/>
     <use transform="translate(674.560547 0.015625)" xlink:href="#DejaVuSans-40"/>
     <use transform="translate(713.574219 0.015625)" xlink:href="#DejaVuSans-120"/>
     <use transform="translate(772.753906 0.015625)" xlink:href="#DejaVuSans-41"/>
     <use transform="translate(811.767578 0.015625)" xlink:href="#DejaVuSans-32"/>
     <use transform="translate(843.554688 0.015625)" xlink:href="#DejaVuSans-1087"/>
     <use transform="translate(908.935547 0.015625)" xlink:href="#DejaVuSans-1088"/>
     <use transform="translate(972.412109 0.015625)" xlink:href="#DejaVuSans-1080"/>
     <use transform="translate(1037.402344 0.015625)" xlink:href="#DejaVuSans-32"/>
     <use transform="translate(1069.189453 0.015625)" xlink:href="#DejaVuSans-120"/>
     <use transform="translate(1128.369141 0.015625)" xlink:href="#DejaVuSans-32"/>
     <use transform="translate(1160.15625 0.015625)" xlink:href="#DejaVuSans-1089"/>
     <use transform="translate(1215.136719 0.015625)" xlink:href="#DejaVuSans-1090"/>
     <use transform="translate(1273.388672 0.015625)" xlink:href="#DejaVuSans-1088"/>
     <use transform="translate(1336.865234 0.015625)" xlink:href="#DejaVuSans-1077"/>
     <use transform="translate(1398.388672 0.015625)" xlink:href="#DejaVuSans-1084"/>
     <use transform="translate(1473.828125 0.015625)" xlink:href="#DejaVuSans-1103"/>
     <use transform="translate(1533.984375 0.015625)" xlink:href="#DejaVuSans-1097"/>
     <use transform="translate(1628.173828 0.015625)" xlink:href="#DejaVuSans-1077"/>
     <use transform="translate(1689.697266 0.015625)" xlink:href="#DejaVuSans-1084"/>
     <use transform="translate(1765.136719 0.015625)" xlink:href="#DejaVuSans-1089"/>
     <use transform="translate(1820.117188 0.015625)" xlink:href="#DejaVuSans-1103"/>
     <use transform="translate(1880.273438 0.015625)" xlink:href="#DejaVuSans-32"/>
     <use transform="translate(1912.060547 0.015625)" xlink:href="#DejaVuSans-1082"/>
     <use transform="translate(1972.460938 0.015625)" xlink:href="#DejaVuSans-32"/>
     <use transform="translate(2004.248047 0.015625)" xlink:href="#DejaVuSans-32"/>
     <use transform="translate(2036.035156 0.015625)" xlink:href="#DejaVuSans-43"/>
     <use transform="translate(2119.824219 0.015625)" xlink:href="#DejaVuSans-8734"/>
    </g>
   </g>
  </g>
  <g id="text_29">
   <!-- График функции $h(x) = \frac{5 \cdot sin^2(e^{0.8 \cdot x}) \cdot x^2}{e^{\frac{x^2}{2}}}$ -->
   <defs>
    <path d="M 9.8125 0 
L 9.8125 72.90625 
L 55.171875 72.90625 
L 55.171875 64.59375 
L 19.671875 64.59375 
L 19.671875 0 
z
" id="DejaVuSans-1043"/>
    <path d="M 34.28125 27.484375 
Q 23.390625 27.484375 19.1875 25 
Q 14.984375 22.515625 14.984375 16.5 
Q 14.984375 11.71875 18.140625 8.90625 
Q 21.296875 6.109375 26.703125 6.109375 
Q 34.1875 6.109375 38.703125 11.40625 
Q 43.21875 16.703125 43.21875 25.484375 
L 43.21875 27.484375 
z
M 52.203125 31.203125 
L 52.203125 0 
L 43.21875 0 
L 43.21875 8.296875 
Q 40.140625 3.328125 35.546875 0.953125 
Q 30.953125 -1.421875 24.3125 -1.421875 
Q 15.921875 -1.421875 10.953125 3.296875 
Q 6 8.015625 6 15.921875 
Q 6 25.140625 12.171875 29.828125 
Q 18.359375 34.515625 30.609375 34.515625 
L 43.21875 34.515625 
L 43.21875 35.40625 
Q 43.21875 41.609375 39.140625 45 
Q 35.0625 48.390625 27.6875 48.390625 
Q 23 48.390625 18.546875 47.265625 
Q 14.109375 46.140625 10.015625 43.890625 
L 10.015625 52.203125 
Q 14.9375 54.109375 19.578125 55.046875 
Q 24.21875 56 28.609375 56 
Q 40.484375 56 46.34375 49.84375 
Q 52.203125 43.703125 52.203125 31.203125 
z
" id="DejaVuSans-1072"/>
    <path d="M 14.796875 27.296875 
Q 14.796875 15.828125 18.328125 10.96875 
Q 21.875 6.109375 27.875 6.109375 
Q 32.671875 6.109375 38.234375 14.3125 
L 38.234375 40.28125 
Q 32.671875 48.484375 27.875 48.484375 
Q 21.875 48.484375 18.328125 43.625 
Q 14.796875 38.765625 14.796875 27.296875 
z
M 38.234375 -20.796875 
L 38.234375 6.984375 
Q 35.453125 2.390625 32.25 0.484375 
Q 29.046875 -1.421875 25 -1.421875 
Q 16.84375 -1.421875 11.15625 6.125 
Q 5.46875 13.671875 5.46875 27.09375 
Q 5.46875 40.53125 11.15625 48.265625 
Q 16.84375 56 25 56 
Q 29.046875 56 32.25 54.140625 
Q 35.453125 52.296875 38.234375 47.703125 
L 38.234375 72.90625 
L 47.265625 72.90625 
L 47.265625 47.703125 
Q 50.046875 52.296875 53.25 54.140625 
Q 56.453125 56 60.5 56 
Q 68.65625 56 74.34375 48.265625 
Q 80.03125 40.53125 80.03125 27.09375 
Q 80.03125 13.671875 74.34375 6.125 
Q 68.65625 -1.421875 60.5 -1.421875 
Q 56.453125 -1.421875 53.25 0.484375 
Q 50.046875 2.390625 47.265625 6.984375 
L 47.265625 -20.796875 
z
M 70.703125 27.296875 
Q 70.703125 38.765625 67.15625 43.625 
Q 63.625 48.484375 57.625 48.484375 
Q 52.828125 48.484375 47.265625 40.28125 
L 47.265625 14.3125 
Q 52.828125 6.109375 57.625 6.109375 
Q 63.625 6.109375 67.15625 10.96875 
Q 70.703125 15.828125 70.703125 27.296875 
z
" id="DejaVuSans-1092"/>
    <path d="M 32.171875 -5.078125 
Q 28.375 -14.84375 24.75 -17.8125 
Q 21.140625 -20.796875 15.09375 -20.796875 
L 7.90625 -20.796875 
L 7.90625 -13.28125 
L 13.1875 -13.28125 
Q 16.890625 -13.28125 18.9375 -11.515625 
Q 21 -9.765625 23.484375 -3.21875 
L 25.09375 0.875 
L 2.984375 54.6875 
L 12.5 54.6875 
L 29.59375 11.921875 
L 46.6875 54.6875 
L 56.203125 54.6875 
z
" id="DejaVuSans-1091"/>
    <path d="M 56.296875 0 
L 9.078125 0 
L 9.078125 54.6875 
L 18.109375 54.6875 
L 18.109375 7.171875 
L 47.265625 7.171875 
L 47.265625 54.6875 
L 56.296875 54.6875 
L 56.296875 7.171875 
L 63.484375 7.171875 
L 63.484375 -13.8125 
L 56.296875 -13.8125 
z
" id="DejaVuSans-1094"/>
    <path d="M 55.71875 33.015625 
L 49.3125 0 
L 40.28125 0 
L 46.6875 32.671875 
Q 47.125 34.96875 47.359375 36.71875 
Q 47.609375 38.484375 47.609375 39.5 
Q 47.609375 43.609375 45.015625 45.890625 
Q 42.4375 48.1875 37.796875 48.1875 
Q 30.5625 48.1875 25.265625 43.296875 
Q 19.96875 38.421875 18.40625 30.328125 
L 12.5 0 
L 3.515625 0 
L 18.3125 75.984375 
L 27.296875 75.984375 
L 21.484375 46.09375 
Q 24.90625 50.6875 30.21875 53.34375 
Q 35.546875 56 41.40625 56 
Q 48.640625 56 52.609375 52.09375 
Q 56.59375 48.1875 56.59375 41.109375 
Q 56.59375 39.359375 56.375 37.359375 
Q 56.15625 35.359375 55.71875 33.015625 
z
" id="DejaVuSans-Oblique-104"/>
    <path d="M 60.015625 54.6875 
L 34.90625 27.875 
L 50.296875 0 
L 39.984375 0 
L 28.421875 21.6875 
L 8.296875 0 
L -2.59375 0 
L 24.3125 28.8125 
L 10.015625 54.6875 
L 20.3125 54.6875 
L 30.8125 34.90625 
L 49.125 54.6875 
z
" id="DejaVuSans-Oblique-120"/>
    <path d="M 10.59375 45.40625 
L 73.1875 45.40625 
L 73.1875 37.203125 
L 10.59375 37.203125 
z
M 10.59375 25.484375 
L 73.1875 25.484375 
L 73.1875 17.1875 
L 10.59375 17.1875 
z
" id="DejaVuSans-61"/>
    <path d="M 10.6875 40.921875 
L 21 40.921875 
L 21 28.515625 
L 10.6875 28.515625 
z
" id="DejaVuSans-8901"/>
    <path d="M 50 53.078125 
L 48.296875 44.578125 
Q 44.734375 46.53125 40.765625 47.5 
Q 36.8125 48.484375 32.625 48.484375 
Q 25.53125 48.484375 21.453125 46.0625 
Q 17.390625 43.65625 17.390625 39.5 
Q 17.390625 34.671875 26.859375 32.078125 
Q 27.59375 31.890625 27.9375 31.78125 
L 30.8125 30.90625 
Q 39.796875 28.421875 42.796875 25.6875 
Q 45.796875 22.953125 45.796875 18.21875 
Q 45.796875 9.515625 38.890625 4.046875 
Q 31.984375 -1.421875 20.796875 -1.421875 
Q 16.453125 -1.421875 11.671875 -0.578125 
Q 6.890625 0.25 1.125 2 
L 2.875 11.28125 
Q 7.8125 8.734375 12.59375 7.421875 
Q 17.390625 6.109375 21.78125 6.109375 
Q 28.375 6.109375 32.5 8.9375 
Q 36.625 11.765625 36.625 16.109375 
Q 36.625 20.796875 25.78125 23.6875 
L 24.859375 23.921875 
L 21.78125 24.703125 
Q 14.9375 26.515625 11.765625 29.46875 
Q 8.59375 32.421875 8.59375 37.015625 
Q 8.59375 45.75 15.15625 50.875 
Q 21.734375 56 33.015625 56 
Q 37.453125 56 41.671875 55.265625 
Q 45.90625 54.546875 50 53.078125 
z
" id="DejaVuSans-Oblique-115"/>
    <path d="M 18.3125 75.984375 
L 27.296875 75.984375 
L 25.09375 64.59375 
L 16.109375 64.59375 
z
M 14.203125 54.6875 
L 23.1875 54.6875 
L 12.5 0 
L 3.515625 0 
z
" id="DejaVuSans-Oblique-105"/>
    <path d="M 55.71875 33.015625 
L 49.3125 0 
L 40.28125 0 
L 46.6875 32.671875 
Q 47.125 34.96875 47.359375 36.71875 
Q 47.609375 38.484375 47.609375 39.5 
Q 47.609375 43.609375 45.015625 45.890625 
Q 42.4375 48.1875 37.796875 48.1875 
Q 30.5625 48.1875 25.34375 43.375 
Q 20.125 38.578125 18.5 30.328125 
L 12.5 0 
L 3.515625 0 
L 14.109375 54.6875 
L 23.09375 54.6875 
L 21.296875 46.09375 
Q 25.046875 50.828125 30.3125 53.40625 
Q 35.59375 56 41.40625 56 
Q 48.640625 56 52.609375 52.09375 
Q 56.59375 48.1875 56.59375 41.109375 
Q 56.59375 39.359375 56.375 37.359375 
Q 56.15625 35.359375 55.71875 33.015625 
z
" id="DejaVuSans-Oblique-110"/>
    <path d="M 48.09375 32.234375 
Q 48.25 33.015625 48.3125 33.84375 
Q 48.390625 34.671875 48.390625 35.5 
Q 48.390625 41.453125 44.890625 44.921875 
Q 41.40625 48.390625 35.40625 48.390625 
Q 28.71875 48.390625 23.578125 44.15625 
Q 18.453125 39.9375 15.828125 32.171875 
z
M 55.90625 25.203125 
L 14.109375 25.203125 
Q 13.8125 23.34375 13.71875 22.265625 
Q 13.625 21.1875 13.625 20.40625 
Q 13.625 13.625 17.796875 9.90625 
Q 21.96875 6.203125 29.59375 6.203125 
Q 35.453125 6.203125 40.671875 7.515625 
Q 45.90625 8.84375 50.390625 11.375 
L 48.6875 2.484375 
Q 43.84375 0.53125 38.6875 -0.4375 
Q 33.546875 -1.421875 28.21875 -1.421875 
Q 16.84375 -1.421875 10.71875 4.015625 
Q 4.59375 9.46875 4.59375 19.484375 
Q 4.59375 28.03125 7.640625 35.375 
Q 10.6875 42.71875 16.609375 48.484375 
Q 20.40625 52.09375 25.65625 54.046875 
Q 30.90625 56 36.8125 56 
Q 46.09375 56 51.578125 50.4375 
Q 57.078125 44.875 57.078125 35.5 
Q 57.078125 33.25 56.78125 30.6875 
Q 56.5 28.125 55.90625 25.203125 
z
" id="DejaVuSans-Oblique-101"/>
   </defs>
   <g transform="translate(319.98 22.68)scale(0.12 -0.12)">
    <use transform="translate(0 0.807813)" xlink:href="#DejaVuSans-1043"/>
    <use transform="translate(60.986328 0.807813)" xlink:href="#DejaVuSans-1088"/>
    <use transform="translate(124.462891 0.807813)" xlink:href="#DejaVuSans-1072"/>
    <use transform="translate(185.742188 0.807813)" xlink:href="#DejaVuSans-1092"/>
    <use transform="translate(271.240234 0.807813)" xlink:href="#DejaVuSans-1080"/>
    <use transform="translate(336.230469 0.807813)" xlink:href="#DejaVuSans-1082"/>
    <use transform="translate(396.630859 0.807813)" xlink:href="#DejaVuSans-32"/>
    <use transform="translate(428.417969 0.807813)" xlink:href="#DejaVuSans-1092"/>
    <use transform="translate(513.916016 0.807813)" xlink:href="#DejaVuSans-1091"/>
    <use transform="translate(573.095703 0.807813)" xlink:href="#DejaVuSans-1085"/>
    <use transform="translate(638.476562 0.807813)" xlink:href="#DejaVuSans-1082"/>
    <use transform="translate(698.876953 0.807813)" xlink:href="#DejaVuSans-1094"/>
    <use transform="translate(766.943359 0.807813)" xlink:href="#DejaVuSans-1080"/>
    <use transform="translate(831.933594 0.807813)" xlink:href="#DejaVuSans-1080"/>
    <use transform="translate(896.923828 0.807813)" xlink:href="#DejaVuSans-32"/>
    <use transform="translate(928.710938 0.807813)" xlink:href="#DejaVuSans-Oblique-104"/>
    <use transform="translate(992.089844 0.807813)" xlink:href="#DejaVuSans-40"/>
    <use transform="translate(1031.103516 0.807813)" xlink:href="#DejaVuSans-Oblique-120"/>
    <use transform="translate(1090.283203 0.807813)" xlink:href="#DejaVuSans-41"/>
    <use transform="translate(1148.779297 0.807813)" xlink:href="#DejaVuSans-61"/>
    <use transform="translate(1252.050781 53.835938)scale(0.7)" xlink:href="#DejaVuSans-53"/>
    <use transform="translate(1310.224609 53.835938)scale(0.7)" xlink:href="#DejaVuSans-8901"/>
    <use transform="translate(1346.113281 53.835938)scale(0.7)" xlink:href="#DejaVuSans-Oblique-115"/>
    <use transform="translate(1382.583008 53.835938)scale(0.7)" xlink:href="#DejaVuSans-Oblique-105"/>
    <use transform="translate(1402.03125 53.835938)scale(0.7)" xlink:href="#DejaVuSans-Oblique-110"/>
    <use transform="translate(1449.651411 80.632813)scale(0.49)" xlink:href="#DejaVuSans-50"/>
    <use transform="translate(1482.740767 53.835938)scale(0.7)" xlink:href="#DejaVuSans-40"/>
    <use transform="translate(1510.050337 53.835938)scale(0.7)" xlink:href="#DejaVuSans-Oblique-101"/>
    <use transform="translate(1556.371671 80.632813)scale(0.49)" xlink:href="#DejaVuSans-48"/>
    <use transform="translate(1587.546964 80.632813)scale(0.49)" xlink:href="#DejaVuSans-46"/>
    <use transform="translate(1603.107335 80.632813)scale(0.49)" xlink:href="#DejaVuSans-56"/>
    <use transform="translate(1643.829014 80.632813)scale(0.49)" xlink:href="#DejaVuSans-8901"/>
    <use transform="translate(1668.951085 80.632813)scale(0.49)" xlink:href="#DejaVuSans-Oblique-120"/>
    <use transform="translate(1699.863194 53.835938)scale(0.7)" xlink:href="#DejaVuSans-41"/>
    <use transform="translate(1740.81046 53.835938)scale(0.7)" xlink:href="#DejaVuSans-8901"/>
    <use transform="translate(1776.699132 53.835938)scale(0.7)" xlink:href="#DejaVuSans-Oblique-120"/>
    <use transform="translate(1821.251215 80.632813)scale(0.49)" xlink:href="#DejaVuSans-50"/>
    <use transform="translate(1507.050781 -65.853047)scale(0.7)" xlink:href="#DejaVuSans-Oblique-101"/>
    <use transform="translate(1553.372115 -17.595703)scale(0.343)" xlink:href="#DejaVuSans-Oblique-120"/>
    <use transform="translate(1575.202635 -4.465234)scale(0.2401)" xlink:href="#DejaVuSans-50"/>
    <use transform="translate(1561.372115 -58.365234)scale(0.343)" xlink:href="#DejaVuSans-50"/>
    <path d="M 1252.050781 19.604688 
L 1252.050781 25.854688 
L 1854.34057 25.854688 
L 1854.34057 19.604688 
L 1252.050781 19.604688 
z
"/>
    <path d="M 1553.372115 -29.845703 
L 1553.372115 -26.783203 
L 1591.41642 -26.783203 
L 1591.41642 -29.845703 
L 1553.372115 -29.845703 
z
"/>
   </g>
  </g>
 </g>
 <defs>
  <clipPath id="p4793208d1f">
   <rect height="326.16" width="304.363636" x="108" y="51.84"/>
  </clipPath>
  <clipPath id="p28d4ab0920">
   <rect height="326.16" width="304.363636" x="473.236364" y="51.84"/>
  </clipPath>
 </defs>
</svg>
