<?xml version="1.0" encoding="utf-8" standalone="no"?>
<!DOCTYPE svg PUBLIC "-//W3C//DTD SVG 1.1//EN"
  "http://www.w3.org/Graphics/SVG/1.1/DTD/svg11.dtd">
<!-- Created with matplotlib (https://matplotlib.org/) -->
<svg height="576pt" version="1.1" viewBox="0 0 864 576" width="864pt" xmlns="http://www.w3.org/2000/svg" xmlns:xlink="http://www.w3.org/1999/xlink">
 <defs>
  <style type="text/css">
*{stroke-linecap:butt;stroke-linejoin:round;}
  </style>
 </defs>
 <g id="figure_1">
  <g id="patch_1">
   <path d="M 0 576 
L 864 576 
L 864 0 
L 0 0 
z
" style="fill:#ffffff;"/>
  </g>
  <g id="axes_1">
   <g id="patch_2">
    <path d="M 108 504 
L 412.363636 504 
L 412.363636 69.12 
L 108 69.12 
z
" style="fill:#ffffff;"/>
   </g>
   <g id="matplotlib.axis_1">
    <g id="xtick_1">
     <g id="line2d_1">
      <defs>
       <path d="M 0 0 
L 0 3.5 
" id="m538eebd90d" style="stroke:#000000;stroke-width:0.8;"/>
      </defs>
      <g>
       <use style="stroke:#000000;stroke-width:0.8;" x="134.411721" xlink:href="#m538eebd90d" y="504"/>
      </g>
     </g>
     <g id="text_1">
      <!-- −10 -->
      <defs>
       <path d="M 10.59375 35.5 
L 73.1875 35.5 
L 73.1875 27.203125 
L 10.59375 27.203125 
z
" id="DejaVuSans-8722"/>
       <path d="M 12.40625 8.296875 
L 28.515625 8.296875 
L 28.515625 63.921875 
L 10.984375 60.40625 
L 10.984375 69.390625 
L 28.421875 72.90625 
L 38.28125 72.90625 
L 38.28125 8.296875 
L 54.390625 8.296875 
L 54.390625 0 
L 12.40625 0 
z
" id="DejaVuSans-49"/>
       <path d="M 31.78125 66.40625 
Q 24.171875 66.40625 20.328125 58.90625 
Q 16.5 51.421875 16.5 36.375 
Q 16.5 21.390625 20.328125 13.890625 
Q 24.171875 6.390625 31.78125 6.390625 
Q 39.453125 6.390625 43.28125 13.890625 
Q 47.125 21.390625 47.125 36.375 
Q 47.125 51.421875 43.28125 58.90625 
Q 39.453125 66.40625 31.78125 66.40625 
z
M 31.78125 74.21875 
Q 44.046875 74.21875 50.515625 64.515625 
Q 56.984375 54.828125 56.984375 36.375 
Q 56.984375 17.96875 50.515625 8.265625 
Q 44.046875 -1.421875 31.78125 -1.421875 
Q 19.53125 -1.421875 13.0625 8.265625 
Q 6.59375 17.96875 6.59375 36.375 
Q 6.59375 54.828125 13.0625 64.515625 
Q 19.53125 74.21875 31.78125 74.21875 
z
" id="DejaVuSans-48"/>
      </defs>
      <g transform="translate(123.859377 518.598438)scale(0.1 -0.1)">
       <use xlink:href="#DejaVuSans-8722"/>
       <use x="83.789062" xlink:href="#DejaVuSans-49"/>
       <use x="147.412109" xlink:href="#DejaVuSans-48"/>
      </g>
     </g>
    </g>
    <g id="xtick_2">
     <g id="line2d_2">
      <g>
       <use style="stroke:#000000;stroke-width:0.8;" x="197.296769" xlink:href="#m538eebd90d" y="504"/>
      </g>
     </g>
     <g id="text_2">
      <!-- −5 -->
      <defs>
       <path d="M 10.796875 72.90625 
L 49.515625 72.90625 
L 49.515625 64.59375 
L 19.828125 64.59375 
L 19.828125 46.734375 
Q 21.96875 47.46875 24.109375 47.828125 
Q 26.265625 48.1875 28.421875 48.1875 
Q 40.625 48.1875 47.75 41.5 
Q 54.890625 34.8125 54.890625 23.390625 
Q 54.890625 11.625 47.5625 5.09375 
Q 40.234375 -1.421875 26.90625 -1.421875 
Q 22.3125 -1.421875 17.546875 -0.640625 
Q 12.796875 0.140625 7.71875 1.703125 
L 7.71875 11.625 
Q 12.109375 9.234375 16.796875 8.0625 
Q 21.484375 6.890625 26.703125 6.890625 
Q 35.15625 6.890625 40.078125 11.328125 
Q 45.015625 15.765625 45.015625 23.390625 
Q 45.015625 31 40.078125 35.4375 
Q 35.15625 39.890625 26.703125 39.890625 
Q 22.75 39.890625 18.8125 39.015625 
Q 14.890625 38.140625 10.796875 36.28125 
z
" id="DejaVuSans-53"/>
      </defs>
      <g transform="translate(189.925676 518.598438)scale(0.1 -0.1)">
       <use xlink:href="#DejaVuSans-8722"/>
       <use x="83.789062" xlink:href="#DejaVuSans-53"/>
      </g>
     </g>
    </g>
    <g id="xtick_3">
     <g id="line2d_3">
      <g>
       <use style="stroke:#000000;stroke-width:0.8;" x="260.181818" xlink:href="#m538eebd90d" y="504"/>
      </g>
     </g>
     <g id="text_3">
      <!-- 0 -->
      <g transform="translate(257.000568 518.598438)scale(0.1 -0.1)">
       <use xlink:href="#DejaVuSans-48"/>
      </g>
     </g>
    </g>
    <g id="xtick_4">
     <g id="line2d_4">
      <g>
       <use style="stroke:#000000;stroke-width:0.8;" x="323.066867" xlink:href="#m538eebd90d" y="504"/>
      </g>
     </g>
     <g id="text_4">
      <!-- 5 -->
      <g transform="translate(319.885617 518.598438)scale(0.1 -0.1)">
       <use xlink:href="#DejaVuSans-53"/>
      </g>
     </g>
    </g>
    <g id="xtick_5">
     <g id="line2d_5">
      <g>
       <use style="stroke:#000000;stroke-width:0.8;" x="385.951916" xlink:href="#m538eebd90d" y="504"/>
      </g>
     </g>
     <g id="text_5">
      <!-- 10 -->
      <g transform="translate(379.589416 518.598438)scale(0.1 -0.1)">
       <use xlink:href="#DejaVuSans-49"/>
       <use x="63.623047" xlink:href="#DejaVuSans-48"/>
      </g>
     </g>
    </g>
    <g id="text_6">
     <!-- x -->
     <defs>
      <path d="M 54.890625 54.6875 
L 35.109375 28.078125 
L 55.90625 0 
L 45.3125 0 
L 29.390625 21.484375 
L 13.484375 0 
L 2.875 0 
L 24.125 28.609375 
L 4.6875 54.6875 
L 15.28125 54.6875 
L 29.78125 35.203125 
L 44.28125 54.6875 
z
" id="DejaVuSans-120"/>
     </defs>
     <g transform="translate(256.038693 535.315938)scale(0.14 -0.14)">
      <use xlink:href="#DejaVuSans-120"/>
     </g>
    </g>
   </g>
   <g id="matplotlib.axis_2">
    <g id="ytick_1">
     <g id="line2d_6">
      <defs>
       <path d="M 0 0 
L -3.5 0 
" id="m216d9fa6cd" style="stroke:#000000;stroke-width:0.8;"/>
      </defs>
      <g>
       <use style="stroke:#000000;stroke-width:0.8;" x="108" xlink:href="#m216d9fa6cd" y="484.232727"/>
      </g>
     </g>
     <g id="text_7">
      <!-- 0.00 -->
      <defs>
       <path d="M 10.6875 12.40625 
L 21 12.40625 
L 21 0 
L 10.6875 0 
z
" id="DejaVuSans-46"/>
      </defs>
      <g transform="translate(78.734375 488.031946)scale(0.1 -0.1)">
       <use xlink:href="#DejaVuSans-48"/>
       <use x="63.623047" xlink:href="#DejaVuSans-46"/>
       <use x="95.410156" xlink:href="#DejaVuSans-48"/>
       <use x="159.033203" xlink:href="#DejaVuSans-48"/>
      </g>
     </g>
    </g>
    <g id="ytick_2">
     <g id="line2d_7">
      <g>
       <use style="stroke:#000000;stroke-width:0.8;" x="108" xlink:href="#m216d9fa6cd" y="402.788974"/>
      </g>
     </g>
     <g id="text_8">
      <!-- 0.60 -->
      <defs>
       <path d="M 33.015625 40.375 
Q 26.375 40.375 22.484375 35.828125 
Q 18.609375 31.296875 18.609375 23.390625 
Q 18.609375 15.53125 22.484375 10.953125 
Q 26.375 6.390625 33.015625 6.390625 
Q 39.65625 6.390625 43.53125 10.953125 
Q 47.40625 15.53125 47.40625 23.390625 
Q 47.40625 31.296875 43.53125 35.828125 
Q 39.65625 40.375 33.015625 40.375 
z
M 52.59375 71.296875 
L 52.59375 62.3125 
Q 48.875 64.0625 45.09375 64.984375 
Q 41.3125 65.921875 37.59375 65.921875 
Q 27.828125 65.921875 22.671875 59.328125 
Q 17.53125 52.734375 16.796875 39.40625 
Q 19.671875 43.65625 24.015625 45.921875 
Q 28.375 48.1875 33.59375 48.1875 
Q 44.578125 48.1875 50.953125 41.515625 
Q 57.328125 34.859375 57.328125 23.390625 
Q 57.328125 12.15625 50.6875 5.359375 
Q 44.046875 -1.421875 33.015625 -1.421875 
Q 20.359375 -1.421875 13.671875 8.265625 
Q 6.984375 17.96875 6.984375 36.375 
Q 6.984375 53.65625 15.1875 63.9375 
Q 23.390625 74.21875 37.203125 74.21875 
Q 40.921875 74.21875 44.703125 73.484375 
Q 48.484375 72.75 52.59375 71.296875 
z
" id="DejaVuSans-54"/>
      </defs>
      <g transform="translate(78.734375 406.588193)scale(0.1 -0.1)">
       <use xlink:href="#DejaVuSans-48"/>
       <use x="63.623047" xlink:href="#DejaVuSans-46"/>
       <use x="95.410156" xlink:href="#DejaVuSans-54"/>
       <use x="159.033203" xlink:href="#DejaVuSans-48"/>
      </g>
     </g>
    </g>
    <g id="ytick_3">
     <g id="line2d_8">
      <g>
       <use style="stroke:#000000;stroke-width:0.8;" x="108" xlink:href="#m216d9fa6cd" y="484.232727"/>
      </g>
     </g>
     <g id="text_9">
      <!-- 0.00 -->
      <g transform="translate(78.734375 488.031946)scale(0.1 -0.1)">
       <use xlink:href="#DejaVuSans-48"/>
       <use x="63.623047" xlink:href="#DejaVuSans-46"/>
       <use x="95.410156" xlink:href="#DejaVuSans-48"/>
       <use x="159.033203" xlink:href="#DejaVuSans-48"/>
      </g>
     </g>
    </g>
    <g id="ytick_4">
     <g id="line2d_9">
      <g>
       <use style="stroke:#000000;stroke-width:0.8;" x="108" xlink:href="#m216d9fa6cd" y="195.107405"/>
      </g>
     </g>
     <g id="text_10">
      <!-- 2.13 -->
      <defs>
       <path d="M 19.1875 8.296875 
L 53.609375 8.296875 
L 53.609375 0 
L 7.328125 0 
L 7.328125 8.296875 
Q 12.9375 14.109375 22.625 23.890625 
Q 32.328125 33.6875 34.8125 36.53125 
Q 39.546875 41.84375 41.421875 45.53125 
Q 43.3125 49.21875 43.3125 52.78125 
Q 43.3125 58.59375 39.234375 62.25 
Q 35.15625 65.921875 28.609375 65.921875 
Q 23.96875 65.921875 18.8125 64.3125 
Q 13.671875 62.703125 7.8125 59.421875 
L 7.8125 69.390625 
Q 13.765625 71.78125 18.9375 73 
Q 24.125 74.21875 28.421875 74.21875 
Q 39.75 74.21875 46.484375 68.546875 
Q 53.21875 62.890625 53.21875 53.421875 
Q 53.21875 48.921875 51.53125 44.890625 
Q 49.859375 40.875 45.40625 35.40625 
Q 44.1875 33.984375 37.640625 27.21875 
Q 31.109375 20.453125 19.1875 8.296875 
z
" id="DejaVuSans-50"/>
       <path d="M 40.578125 39.3125 
Q 47.65625 37.796875 51.625 33 
Q 55.609375 28.21875 55.609375 21.1875 
Q 55.609375 10.40625 48.1875 4.484375 
Q 40.765625 -1.421875 27.09375 -1.421875 
Q 22.515625 -1.421875 17.65625 -0.515625 
Q 12.796875 0.390625 7.625 2.203125 
L 7.625 11.71875 
Q 11.71875 9.328125 16.59375 8.109375 
Q 21.484375 6.890625 26.8125 6.890625 
Q 36.078125 6.890625 40.9375 10.546875 
Q 45.796875 14.203125 45.796875 21.1875 
Q 45.796875 27.640625 41.28125 31.265625 
Q 36.765625 34.90625 28.71875 34.90625 
L 20.21875 34.90625 
L 20.21875 43.015625 
L 29.109375 43.015625 
Q 36.375 43.015625 40.234375 45.921875 
Q 44.09375 48.828125 44.09375 54.296875 
Q 44.09375 59.90625 40.109375 62.90625 
Q 36.140625 65.921875 28.71875 65.921875 
Q 24.65625 65.921875 20.015625 65.03125 
Q 15.375 64.15625 9.8125 62.3125 
L 9.8125 71.09375 
Q 15.4375 72.65625 20.34375 73.4375 
Q 25.25 74.21875 29.59375 74.21875 
Q 40.828125 74.21875 47.359375 69.109375 
Q 53.90625 64.015625 53.90625 55.328125 
Q 53.90625 49.265625 50.4375 45.09375 
Q 46.96875 40.921875 40.578125 39.3125 
z
" id="DejaVuSans-51"/>
      </defs>
      <g transform="translate(78.734375 198.906624)scale(0.1 -0.1)">
       <use xlink:href="#DejaVuSans-50"/>
       <use x="63.623047" xlink:href="#DejaVuSans-46"/>
       <use x="95.410156" xlink:href="#DejaVuSans-49"/>
       <use x="159.033203" xlink:href="#DejaVuSans-51"/>
      </g>
     </g>
    </g>
    <g id="ytick_5">
     <g id="line2d_10">
      <g>
       <use style="stroke:#000000;stroke-width:0.8;" x="108" xlink:href="#m216d9fa6cd" y="89.230526"/>
      </g>
     </g>
     <g id="text_11">
      <!-- 2.91 -->
      <defs>
       <path d="M 10.984375 1.515625 
L 10.984375 10.5 
Q 14.703125 8.734375 18.5 7.8125 
Q 22.3125 6.890625 25.984375 6.890625 
Q 35.75 6.890625 40.890625 13.453125 
Q 46.046875 20.015625 46.78125 33.40625 
Q 43.953125 29.203125 39.59375 26.953125 
Q 35.25 24.703125 29.984375 24.703125 
Q 19.046875 24.703125 12.671875 31.3125 
Q 6.296875 37.9375 6.296875 49.421875 
Q 6.296875 60.640625 12.9375 67.421875 
Q 19.578125 74.21875 30.609375 74.21875 
Q 43.265625 74.21875 49.921875 64.515625 
Q 56.59375 54.828125 56.59375 36.375 
Q 56.59375 19.140625 48.40625 8.859375 
Q 40.234375 -1.421875 26.421875 -1.421875 
Q 22.703125 -1.421875 18.890625 -0.6875 
Q 15.09375 0.046875 10.984375 1.515625 
z
M 30.609375 32.421875 
Q 37.25 32.421875 41.125 36.953125 
Q 45.015625 41.5 45.015625 49.421875 
Q 45.015625 57.28125 41.125 61.84375 
Q 37.25 66.40625 30.609375 66.40625 
Q 23.96875 66.40625 20.09375 61.84375 
Q 16.21875 57.28125 16.21875 49.421875 
Q 16.21875 41.5 20.09375 36.953125 
Q 23.96875 32.421875 30.609375 32.421875 
z
" id="DejaVuSans-57"/>
      </defs>
      <g transform="translate(78.734375 93.029745)scale(0.1 -0.1)">
       <use xlink:href="#DejaVuSans-50"/>
       <use x="63.623047" xlink:href="#DejaVuSans-46"/>
       <use x="95.410156" xlink:href="#DejaVuSans-57"/>
       <use x="159.033203" xlink:href="#DejaVuSans-49"/>
      </g>
     </g>
    </g>
    <g id="ytick_6">
     <g id="line2d_11">
      <g>
       <use style="stroke:#000000;stroke-width:0.8;" x="108" xlink:href="#m216d9fa6cd" y="317.273034"/>
      </g>
     </g>
     <g id="text_12">
      <!-- 1.23 -->
      <g transform="translate(78.734375 321.072253)scale(0.1 -0.1)">
       <use xlink:href="#DejaVuSans-49"/>
       <use x="63.623047" xlink:href="#DejaVuSans-46"/>
       <use x="95.410156" xlink:href="#DejaVuSans-50"/>
       <use x="159.033203" xlink:href="#DejaVuSans-51"/>
      </g>
     </g>
    </g>
    <g id="ytick_7">
     <g id="line2d_12">
      <g>
       <use style="stroke:#000000;stroke-width:0.8;" x="108" xlink:href="#m216d9fa6cd" y="415.005537"/>
      </g>
     </g>
     <g id="text_13">
      <!-- 0.51 -->
      <g transform="translate(78.734375 418.804756)scale(0.1 -0.1)">
       <use xlink:href="#DejaVuSans-48"/>
       <use x="63.623047" xlink:href="#DejaVuSans-46"/>
       <use x="95.410156" xlink:href="#DejaVuSans-53"/>
       <use x="159.033203" xlink:href="#DejaVuSans-49"/>
      </g>
     </g>
    </g>
    <g id="ytick_8">
     <g id="line2d_13">
      <g>
       <use style="stroke:#000000;stroke-width:0.8;" x="108" xlink:href="#m216d9fa6cd" y="453.012622"/>
      </g>
     </g>
     <g id="text_14">
      <!-- 0.23 -->
      <g transform="translate(78.734375 456.811841)scale(0.1 -0.1)">
       <use xlink:href="#DejaVuSans-48"/>
       <use x="63.623047" xlink:href="#DejaVuSans-46"/>
       <use x="95.410156" xlink:href="#DejaVuSans-50"/>
       <use x="159.033203" xlink:href="#DejaVuSans-51"/>
      </g>
     </g>
    </g>
    <g id="ytick_9">
     <g id="line2d_14">
      <g>
       <use style="stroke:#000000;stroke-width:0.8;" x="108" xlink:href="#m216d9fa6cd" y="469.301373"/>
      </g>
     </g>
     <g id="text_15">
      <!-- 0.11 -->
      <g transform="translate(78.734375 473.100591)scale(0.1 -0.1)">
       <use xlink:href="#DejaVuSans-48"/>
       <use x="63.623047" xlink:href="#DejaVuSans-46"/>
       <use x="95.410156" xlink:href="#DejaVuSans-49"/>
       <use x="159.033203" xlink:href="#DejaVuSans-49"/>
      </g>
     </g>
    </g>
    <g id="text_16">
     <!-- h(x) -->
     <defs>
      <path d="M 54.890625 33.015625 
L 54.890625 0 
L 45.90625 0 
L 45.90625 32.71875 
Q 45.90625 40.484375 42.875 44.328125 
Q 39.84375 48.1875 33.796875 48.1875 
Q 26.515625 48.1875 22.3125 43.546875 
Q 18.109375 38.921875 18.109375 30.90625 
L 18.109375 0 
L 9.078125 0 
L 9.078125 75.984375 
L 18.109375 75.984375 
L 18.109375 46.1875 
Q 21.34375 51.125 25.703125 53.5625 
Q 30.078125 56 35.796875 56 
Q 45.21875 56 50.046875 50.171875 
Q 54.890625 44.34375 54.890625 33.015625 
z
" id="DejaVuSans-104"/>
      <path d="M 31 75.875 
Q 24.46875 64.65625 21.28125 53.65625 
Q 18.109375 42.671875 18.109375 31.390625 
Q 18.109375 20.125 21.3125 9.0625 
Q 24.515625 -2 31 -13.1875 
L 23.1875 -13.1875 
Q 15.875 -1.703125 12.234375 9.375 
Q 8.59375 20.453125 8.59375 31.390625 
Q 8.59375 42.28125 12.203125 53.3125 
Q 15.828125 64.359375 23.1875 75.875 
z
" id="DejaVuSans-40"/>
      <path d="M 8.015625 75.875 
L 15.828125 75.875 
Q 23.140625 64.359375 26.78125 53.3125 
Q 30.421875 42.28125 30.421875 31.390625 
Q 30.421875 20.453125 26.78125 9.375 
Q 23.140625 -1.703125 15.828125 -13.1875 
L 8.015625 -13.1875 
Q 14.5 -2 17.703125 9.0625 
Q 20.90625 20.125 20.90625 31.390625 
Q 20.90625 42.671875 17.703125 53.65625 
Q 14.5 64.65625 8.015625 75.875 
z
" id="DejaVuSans-41"/>
     </defs>
     <g transform="translate(71.822812 300.601562)rotate(-90)scale(0.14 -0.14)">
      <use xlink:href="#DejaVuSans-104"/>
      <use x="63.378906" xlink:href="#DejaVuSans-40"/>
      <use x="102.392578" xlink:href="#DejaVuSans-120"/>
      <use x="161.572266" xlink:href="#DejaVuSans-41"/>
     </g>
    </g>
   </g>
   <g id="line2d_15">
    <path clip-path="url(#p68479050ff)" d="M 108 484.232727 
L 412.363636 484.232727 
" style="fill:none;stroke:#000000;stroke-dasharray:1.11,0.48;stroke-dashoffset:0;stroke-width:0.3;"/>
   </g>
   <g id="line2d_16">
    <path clip-path="url(#p68479050ff)" d="M 108 402.788974 
L 412.363636 402.788974 
" style="fill:none;stroke:#000000;stroke-dasharray:1.11,0.48;stroke-dashoffset:0;stroke-width:0.3;"/>
   </g>
   <g id="line2d_17">
    <path clip-path="url(#p68479050ff)" d="M 108 484.232727 
L 412.363636 484.232727 
" style="fill:none;stroke:#000000;stroke-dasharray:1.11,0.48;stroke-dashoffset:0;stroke-width:0.3;"/>
   </g>
   <g id="line2d_18">
    <path clip-path="url(#p68479050ff)" d="M 108 195.107405 
L 412.363636 195.107405 
" style="fill:none;stroke:#000000;stroke-dasharray:1.11,0.48;stroke-dashoffset:0;stroke-width:0.3;"/>
   </g>
   <g id="line2d_19">
    <path clip-path="url(#p68479050ff)" d="M 108 89.230526 
L 412.363636 89.230526 
" style="fill:none;stroke:#000000;stroke-dasharray:1.11,0.48;stroke-dashoffset:0;stroke-width:0.3;"/>
   </g>
   <g id="line2d_20">
    <path clip-path="url(#p68479050ff)" d="M 108 317.273034 
L 412.363636 317.273034 
" style="fill:none;stroke:#000000;stroke-dasharray:1.11,0.48;stroke-dashoffset:0;stroke-width:0.3;"/>
   </g>
   <g id="line2d_21">
    <path clip-path="url(#p68479050ff)" d="M 108 415.005537 
L 412.363636 415.005537 
" style="fill:none;stroke:#000000;stroke-dasharray:1.11,0.48;stroke-dashoffset:0;stroke-width:0.3;"/>
   </g>
   <g id="line2d_22">
    <path clip-path="url(#p68479050ff)" d="M 108 453.012622 
L 412.363636 453.012622 
" style="fill:none;stroke:#000000;stroke-dasharray:1.11,0.48;stroke-dashoffset:0;stroke-width:0.3;"/>
   </g>
   <g id="line2d_23">
    <path clip-path="url(#p68479050ff)" d="M 108 469.301373 
L 412.363636 469.301373 
" style="fill:none;stroke:#000000;stroke-dasharray:1.11,0.48;stroke-dashoffset:0;stroke-width:0.3;"/>
   </g>
   <g id="line2d_24">
    <path clip-path="url(#p68479050ff)" d="M 121.834711 484.232727 
L 217.53471 484.123415 
L 221.021755 483.879151 
L 223.291101 483.510626 
L 225.062298 483.006776 
L 226.556746 482.353609 
L 227.885144 481.527645 
L 229.102842 480.503519 
L 230.26519 479.225336 
L 231.372188 477.674616 
L 232.479187 475.736537 
L 233.586185 473.347637 
L 234.748533 470.286072 
L 235.966231 466.40198 
L 237.239279 461.542511 
L 238.567677 455.575589 
L 240.062125 447.821292 
L 241.999372 436.474891 
L 245.652466 414.800472 
L 246.814814 409.382478 
L 247.645063 406.445812 
L 248.309262 404.809042 
L 248.807411 404.062169 
L 249.19486 403.794403 
L 249.52696 403.797273 
L 249.859059 404.025045 
L 250.246509 404.586706 
L 250.689308 405.633221 
L 251.242807 407.567593 
L 251.907006 410.825428 
L 252.681905 415.910561 
L 253.567504 423.325456 
L 254.674502 434.639952 
L 256.556399 456.714718 
L 257.995497 472.427554 
L 258.825745 479.287314 
L 259.434594 482.642357 
L 259.877394 483.958248 
L 260.154143 484.230406 
L 260.320193 484.173901 
L 260.541593 483.828088 
L 260.818342 482.93946 
L 261.205792 480.792634 
L 261.648591 476.967125 
L 262.20209 469.997481 
L 262.810939 459.384715 
L 263.530488 442.768452 
L 264.360737 418.238535 
L 265.412385 379.873718 
L 266.962183 313.827046 
L 268.67803 242.912221 
L 269.508279 216.629714 
L 270.117128 203.163366 
L 270.559927 197.180984 
L 270.892026 195.053839 
L 271.058076 194.7951 
L 271.168776 194.930023 
L 271.334826 195.602086 
L 271.611575 197.997645 
L 271.943675 203.012763 
L 272.386474 213.354966 
L 272.939973 232.026821 
L 273.659522 265.02192 
L 274.600471 319.576909 
L 276.759117 448.735984 
L 277.367966 471.921916 
L 277.810765 481.604632 
L 278.087515 484.068938 
L 278.198215 484.224904 
L 278.308915 483.890641 
L 278.474964 482.4507 
L 278.751714 477.491338 
L 279.139163 465.078524 
L 279.637313 439.828647 
L 280.246162 395.849243 
L 281.07641 318.002184 
L 282.958307 135.611871 
L 283.511806 103.206291 
L 283.899256 91.265065 
L 284.120656 88.9356 
L 284.176005 88.887273 
L 284.286705 89.442349 
L 284.452755 91.918546 
L 284.729505 100.444735 
L 285.116954 121.42997 
L 285.615103 162.615193 
L 286.334652 243.454595 
L 287.995149 436.960183 
L 288.493299 470.232418 
L 288.825398 481.65168 
L 289.046798 484.198853 
L 289.102148 484.203884 
L 289.212848 483.468472 
L 289.434247 479.106 
L 289.766347 465.918301 
L 290.264496 434.341451 
L 291.814293 326.988792 
L 292.146393 318.681405 
L 292.312443 317.785177 
L 292.423142 318.436075 
L 292.589192 321.27864 
L 292.865942 330.80559 
L 293.253391 352.944129 
L 293.97294 410.011729 
L 294.747839 465.437672 
L 295.135288 480.431293 
L 295.412038 484.178353 
L 295.467388 484.221362 
L 295.578088 483.624831 
L 295.799487 479.8681 
L 296.131587 468.890611 
L 297.515334 415.612855 
L 297.681384 414.667879 
L 297.792084 415.065528 
L 297.958134 417.181253 
L 298.234883 424.425192 
L 298.733033 445.61641 
L 299.507931 477.828351 
L 299.840031 483.712825 
L 299.950731 484.21862 
L 300.006081 484.200478 
L 300.11678 483.643153 
L 300.33818 480.643868 
L 300.725629 471.174279 
L 301.389828 455.045721 
L 301.666578 452.82169 
L 301.721928 452.831083 
L 301.832628 453.310712 
L 302.054027 456.010861 
L 302.441477 464.933261 
L 303.161026 481.99984 
L 303.437775 484.192775 
L 303.493125 484.229485 
L 303.548475 484.13584 
L 303.714525 483.126927 
L 303.991274 479.544535 
L 304.710823 469.437115 
L 304.876873 468.913082 
L 304.987573 469.123947 
L 305.153622 470.24405 
L 305.485722 474.680138 
L 306.094571 483.221355 
L 306.315971 484.217495 
L 306.42667 484.1358 
L 306.59272 483.360013 
L 306.98017 479.705077 
L 307.367619 476.60914 
L 307.533669 476.263951 
L 307.644369 476.440322 
L 307.865768 477.679773 
L 308.751367 484.22851 
L 308.862067 484.139736 
L 309.028116 483.547343 
L 309.803015 479.856826 
L 309.913715 479.994287 
L 310.135115 480.891611 
L 310.799314 484.190597 
L 310.910013 484.219368 
L 311.076063 483.904744 
L 311.795612 481.720459 
L 311.961662 481.96457 
L 312.293761 483.200324 
L 312.625861 484.175052 
L 312.79191 484.202596 
L 313.01331 483.782352 
L 313.456109 482.758595 
L 313.622159 482.774698 
L 313.843559 483.196941 
L 314.341708 484.226542 
L 314.507758 484.158142 
L 315.227307 483.359027 
L 315.504056 483.800548 
L 315.836156 484.226949 
L 316.002205 484.17967 
L 316.666404 483.686724 
L 317.385953 484.182093 
L 317.939452 483.862504 
L 318.326902 484.16897 
L 318.603651 484.212274 
L 319.2125 484.010341 
L 319.765999 484.217621 
L 320.374849 484.099196 
L 320.872998 484.215239 
L 321.426497 484.144214 
L 321.924646 484.210227 
L 322.422795 484.176105 
L 322.920945 484.205924 
L 323.419094 484.208928 
L 323.917243 484.196622 
L 324.913541 484.201557 
L 326.850788 484.231043 
L 329.064785 484.22663 
L 393.713483 484.232727 
L 398.528926 484.232727 
L 398.528926 484.232727 
" style="fill:none;stroke:#0000ff;stroke-linecap:square;stroke-width:1.5;"/>
   </g>
   <g id="line2d_25">
    <path clip-path="url(#p68479050ff)" d="M 260.181818 504 
L 260.181818 69.12 
" style="fill:none;stroke:#000000;stroke-linecap:square;stroke-width:0.5;"/>
   </g>
   <g id="line2d_26">
    <path clip-path="url(#p68479050ff)" d="M 108 484.232727 
L 412.363636 484.232727 
" style="fill:none;stroke:#000000;stroke-linecap:square;stroke-width:0.5;"/>
   </g>
   <g id="patch_3">
    <path d="M 108 504 
L 108 69.12 
" style="fill:none;stroke:#000000;stroke-linecap:square;stroke-linejoin:miter;stroke-width:0.8;"/>
   </g>
   <g id="patch_4">
    <path d="M 412.363636 504 
L 412.363636 69.12 
" style="fill:none;stroke:#000000;stroke-linecap:square;stroke-linejoin:miter;stroke-width:0.8;"/>
   </g>
   <g id="patch_5">
    <path d="M 108 504 
L 412.363636 504 
" style="fill:none;stroke:#000000;stroke-linecap:square;stroke-linejoin:miter;stroke-width:0.8;"/>
   </g>
   <g id="patch_6">
    <path d="M 108 69.12 
L 412.363636 69.12 
" style="fill:none;stroke:#000000;stroke-linecap:square;stroke-linejoin:miter;stroke-width:0.8;"/>
   </g>
   <g id="text_17">
    <!-- Поведение h(x) при от $-\infty$  до  $+\infty$ -->
    <defs>
     <path d="M 65.375 72.90625 
L 65.375 0 
L 55.515625 0 
L 55.515625 64.59375 
L 19.671875 64.59375 
L 19.671875 0 
L 9.8125 0 
L 9.8125 72.90625 
z
" id="DejaVuSans-1055"/>
     <path d="M 30.609375 48.390625 
Q 23.390625 48.390625 19.1875 42.75 
Q 14.984375 37.109375 14.984375 27.296875 
Q 14.984375 17.484375 19.15625 11.84375 
Q 23.34375 6.203125 30.609375 6.203125 
Q 37.796875 6.203125 41.984375 11.859375 
Q 46.1875 17.53125 46.1875 27.296875 
Q 46.1875 37.015625 41.984375 42.703125 
Q 37.796875 48.390625 30.609375 48.390625 
z
M 30.609375 56 
Q 42.328125 56 49.015625 48.375 
Q 55.71875 40.765625 55.71875 27.296875 
Q 55.71875 13.875 49.015625 6.21875 
Q 42.328125 -1.421875 30.609375 -1.421875 
Q 18.84375 -1.421875 12.171875 6.21875 
Q 5.515625 13.875 5.515625 27.296875 
Q 5.515625 40.765625 12.171875 48.375 
Q 18.84375 56 30.609375 56 
z
" id="DejaVuSans-1086"/>
     <path d="M 18.0625 25.203125 
L 18.0625 7.171875 
L 30.859375 7.171875 
Q 37.015625 7.171875 40.234375 9.484375 
Q 43.453125 11.8125 43.453125 16.21875 
Q 43.453125 20.609375 40.234375 22.90625 
Q 37.015625 25.203125 30.859375 25.203125 
z
M 18.0625 47.515625 
L 18.0625 32.375 
L 29.890625 32.375 
Q 34.96875 32.375 38.1875 34.390625 
Q 41.40625 36.421875 41.40625 40.046875 
Q 41.40625 43.65625 38.1875 45.578125 
Q 34.96875 47.515625 29.890625 47.515625 
z
M 9.078125 54.6875 
L 30.46875 54.6875 
Q 40.09375 54.6875 45.265625 51.171875 
Q 50.4375 47.65625 50.4375 41.15625 
Q 50.4375 36.140625 47.796875 33.171875 
Q 45.171875 30.21875 39.984375 29.5 
Q 46.1875 28.328125 49.609375 24.609375 
Q 53.03125 20.90625 53.03125 15.328125 
Q 53.03125 8.015625 47.390625 4 
Q 41.75 0 31.296875 0 
L 9.078125 0 
z
" id="DejaVuSans-1074"/>
     <path d="M 56.203125 29.59375 
L 56.203125 25.203125 
L 14.890625 25.203125 
Q 15.484375 15.921875 20.484375 11.0625 
Q 25.484375 6.203125 34.421875 6.203125 
Q 39.59375 6.203125 44.453125 7.46875 
Q 49.3125 8.734375 54.109375 11.28125 
L 54.109375 2.78125 
Q 49.265625 0.734375 44.1875 -0.34375 
Q 39.109375 -1.421875 33.890625 -1.421875 
Q 20.796875 -1.421875 13.15625 6.1875 
Q 5.515625 13.8125 5.515625 26.8125 
Q 5.515625 40.234375 12.765625 48.109375 
Q 20.015625 56 32.328125 56 
Q 43.359375 56 49.78125 48.890625 
Q 56.203125 41.796875 56.203125 29.59375 
z
M 47.21875 32.234375 
Q 47.125 39.59375 43.09375 43.984375 
Q 39.0625 48.390625 32.421875 48.390625 
Q 24.90625 48.390625 20.390625 44.140625 
Q 15.875 39.890625 15.1875 32.171875 
z
" id="DejaVuSans-1077"/>
     <path d="M 21.625 7.171875 
L 47.703125 7.171875 
L 47.703125 47.515625 
L 28.8125 47.515625 
L 28.8125 40.671875 
Q 28.8125 20.5625 23.046875 9.8125 
z
M 8.59375 7.171875 
Q 13.03125 9.125 14.984375 13.28125 
Q 19.78125 23.578125 19.78125 44.34375 
L 19.78125 54.6875 
L 56.734375 54.6875 
L 56.734375 7.171875 
L 63.921875 7.171875 
L 63.921875 -13.8125 
L 56.734375 -13.8125 
L 56.734375 0 
L 12.40625 0 
L 12.40625 -13.8125 
L 5.21875 -13.8125 
L 5.21875 7.171875 
z
" id="DejaVuSans-1076"/>
     <path d="M 9.078125 54.6875 
L 18.109375 54.6875 
L 18.109375 32.375 
L 47.265625 32.375 
L 47.265625 54.6875 
L 56.296875 54.6875 
L 56.296875 0 
L 47.265625 0 
L 47.265625 25.203125 
L 18.109375 25.203125 
L 18.109375 0 
L 9.078125 0 
z
" id="DejaVuSans-1085"/>
     <path d="M 55.90625 54.6875 
L 55.90625 0 
L 46.96875 0 
L 46.96875 43.890625 
L 20.609375 0 
L 9.078125 0 
L 9.078125 54.6875 
L 18.015625 54.6875 
L 18.015625 10.890625 
L 44.34375 54.6875 
z
" id="DejaVuSans-1080"/>
     <path id="DejaVuSans-32"/>
     <path d="M 56.296875 54.6875 
L 56.296875 0 
L 47.265625 0 
L 47.265625 47.515625 
L 18.109375 47.515625 
L 18.109375 0 
L 9.078125 0 
L 9.078125 54.6875 
z
" id="DejaVuSans-1087"/>
     <path d="M 18.109375 8.203125 
L 18.109375 -20.796875 
L 9.078125 -20.796875 
L 9.078125 54.6875 
L 18.109375 54.6875 
L 18.109375 46.390625 
Q 20.953125 51.265625 25.265625 53.625 
Q 29.59375 56 35.59375 56 
Q 45.5625 56 51.78125 48.09375 
Q 58.015625 40.1875 58.015625 27.296875 
Q 58.015625 14.40625 51.78125 6.484375 
Q 45.5625 -1.421875 35.59375 -1.421875 
Q 29.59375 -1.421875 25.265625 0.953125 
Q 20.953125 3.328125 18.109375 8.203125 
z
M 48.6875 27.296875 
Q 48.6875 37.203125 44.609375 42.84375 
Q 40.53125 48.484375 33.40625 48.484375 
Q 26.265625 48.484375 22.1875 42.84375 
Q 18.109375 37.203125 18.109375 27.296875 
Q 18.109375 17.390625 22.1875 11.75 
Q 26.265625 6.109375 33.40625 6.109375 
Q 40.53125 6.109375 44.609375 11.75 
Q 48.6875 17.390625 48.6875 27.296875 
z
" id="DejaVuSans-1088"/>
     <path d="M 2.9375 54.6875 
L 55.328125 54.6875 
L 55.328125 47.515625 
L 33.546875 47.515625 
L 33.546875 0 
L 24.703125 0 
L 24.703125 47.515625 
L 2.9375 47.515625 
z
" id="DejaVuSans-1090"/>
     <path d="M 45.5625 17.046875 
Q 44.046875 18.796875 41.65625 22.90625 
Q 38.375 17.046875 35.5 14.453125 
Q 31.890625 11.328125 26.265625 11.328125 
Q 19.671875 11.328125 15.328125 16.265625 
Q 10.75 21.4375 10.75 29.984375 
Q 10.75 38.1875 15.328125 43.75 
Q 19.4375 48.6875 26.375 48.6875 
Q 29.9375 48.6875 32.5625 47.21875 
Q 35.640625 45.609375 37.75 42.828125 
Q 39.703125 40.328125 41.65625 36.96875 
Q 44.921875 42.828125 47.796875 45.40625 
Q 51.421875 48.53125 57.03125 48.53125 
Q 63.625 48.53125 67.96875 43.609375 
Q 72.5625 38.421875 72.5625 29.890625 
Q 72.5625 21.6875 67.96875 16.109375 
Q 63.875 11.1875 56.9375 11.1875 
Q 53.375 11.1875 50.734375 12.640625 
Q 48.09375 13.96875 45.5625 17.046875 
z
M 25.734375 17.71875 
Q 33.796875 17.71875 38.625 29.4375 
Q 32.421875 42.234375 25.734375 42.234375 
Q 20.84375 42.234375 18.359375 38.71875 
Q 15.671875 34.96875 15.671875 29.984375 
Q 15.671875 24.515625 18.359375 21.140625 
Q 21.09375 17.71875 25.734375 17.71875 
z
M 57.5625 42.140625 
Q 50.296875 42.140625 44.671875 30.421875 
Q 50.828125 17.625 57.5625 17.625 
Q 62.453125 17.625 64.9375 21.140625 
Q 67.625 24.90625 67.625 29.890625 
Q 67.625 35.359375 64.9375 38.71875 
Q 62.203125 42.140625 57.5625 42.140625 
z
" id="DejaVuSans-8734"/>
     <path d="M 46 62.703125 
L 46 35.5 
L 73.1875 35.5 
L 73.1875 27.203125 
L 46 27.203125 
L 46 0 
L 37.796875 0 
L 37.796875 27.203125 
L 10.59375 27.203125 
L 10.59375 35.5 
L 37.796875 35.5 
L 37.796875 62.703125 
z
" id="DejaVuSans-43"/>
    </defs>
    <g transform="translate(151.401818 63.12)scale(0.12 -0.12)">
     <use transform="translate(0 0.015625)" xlink:href="#DejaVuSans-1055"/>
     <use transform="translate(75.195312 0.015625)" xlink:href="#DejaVuSans-1086"/>
     <use transform="translate(136.376953 0.015625)" xlink:href="#DejaVuSans-1074"/>
     <use transform="translate(195.3125 0.015625)" xlink:href="#DejaVuSans-1077"/>
     <use transform="translate(256.835938 0.015625)" xlink:href="#DejaVuSans-1076"/>
     <use transform="translate(325.976562 0.015625)" xlink:href="#DejaVuSans-1077"/>
     <use transform="translate(387.5 0.015625)" xlink:href="#DejaVuSans-1085"/>
     <use transform="translate(452.880859 0.015625)" xlink:href="#DejaVuSans-1080"/>
     <use transform="translate(517.871094 0.015625)" xlink:href="#DejaVuSans-1077"/>
     <use transform="translate(579.394531 0.015625)" xlink:href="#DejaVuSans-32"/>
     <use transform="translate(611.181641 0.015625)" xlink:href="#DejaVuSans-104"/>
     <use transform="translate(674.560547 0.015625)" xlink:href="#DejaVuSans-40"/>
     <use transform="translate(713.574219 0.015625)" xlink:href="#DejaVuSans-120"/>
     <use transform="translate(772.753906 0.015625)" xlink:href="#DejaVuSans-41"/>
     <use transform="translate(811.767578 0.015625)" xlink:href="#DejaVuSans-32"/>
     <use transform="translate(843.554688 0.015625)" xlink:href="#DejaVuSans-1087"/>
     <use transform="translate(908.935547 0.015625)" xlink:href="#DejaVuSans-1088"/>
     <use transform="translate(972.412109 0.015625)" xlink:href="#DejaVuSans-1080"/>
     <use transform="translate(1037.402344 0.015625)" xlink:href="#DejaVuSans-32"/>
     <use transform="translate(1069.189453 0.015625)" xlink:href="#DejaVuSans-1086"/>
     <use transform="translate(1130.371094 0.015625)" xlink:href="#DejaVuSans-1090"/>
     <use transform="translate(1188.623047 0.015625)" xlink:href="#DejaVuSans-32"/>
     <use transform="translate(1220.410156 0.015625)" xlink:href="#DejaVuSans-8722"/>
     <use transform="translate(1304.199219 0.015625)" xlink:href="#DejaVuSans-8734"/>
     <use transform="translate(1387.5 0.015625)" xlink:href="#DejaVuSans-32"/>
     <use transform="translate(1419.287109 0.015625)" xlink:href="#DejaVuSans-32"/>
     <use transform="translate(1451.074219 0.015625)" xlink:href="#DejaVuSans-1076"/>
     <use transform="translate(1520.214844 0.015625)" xlink:href="#DejaVuSans-1086"/>
     <use transform="translate(1581.396484 0.015625)" xlink:href="#DejaVuSans-32"/>
     <use transform="translate(1613.183594 0.015625)" xlink:href="#DejaVuSans-32"/>
     <use transform="translate(1644.970703 0.015625)" xlink:href="#DejaVuSans-43"/>
     <use transform="translate(1728.759766 0.015625)" xlink:href="#DejaVuSans-8734"/>
    </g>
   </g>
  </g>
  <g id="axes_2">
   <g id="patch_7">
    <path d="M 473.236364 504 
L 777.6 504 
L 777.6 69.12 
L 473.236364 69.12 
z
" style="fill:#ffffff;"/>
   </g>
   <g id="matplotlib.axis_3">
    <g id="xtick_6">
     <g id="line2d_27">
      <g>
       <use style="stroke:#000000;stroke-width:0.8;" x="487.071074" xlink:href="#m538eebd90d" y="504"/>
      </g>
     </g>
     <g id="text_18">
      <!-- −3.00 -->
      <g transform="translate(471.748418 518.598438)scale(0.1 -0.1)">
       <use xlink:href="#DejaVuSans-8722"/>
       <use x="83.789062" xlink:href="#DejaVuSans-51"/>
       <use x="147.412109" xlink:href="#DejaVuSans-46"/>
       <use x="179.199219" xlink:href="#DejaVuSans-48"/>
       <use x="242.822266" xlink:href="#DejaVuSans-48"/>
      </g>
     </g>
    </g>
    <g id="xtick_7">
     <g id="line2d_28">
      <g>
       <use style="stroke:#000000;stroke-width:0.8;" x="575.448033" xlink:href="#m538eebd90d" y="504"/>
      </g>
     </g>
     <g id="text_19">
      <!-- −0.86 -->
      <defs>
       <path d="M 31.78125 34.625 
Q 24.75 34.625 20.71875 30.859375 
Q 16.703125 27.09375 16.703125 20.515625 
Q 16.703125 13.921875 20.71875 10.15625 
Q 24.75 6.390625 31.78125 6.390625 
Q 38.8125 6.390625 42.859375 10.171875 
Q 46.921875 13.96875 46.921875 20.515625 
Q 46.921875 27.09375 42.890625 30.859375 
Q 38.875 34.625 31.78125 34.625 
z
M 21.921875 38.8125 
Q 15.578125 40.375 12.03125 44.71875 
Q 8.5 49.078125 8.5 55.328125 
Q 8.5 64.0625 14.71875 69.140625 
Q 20.953125 74.21875 31.78125 74.21875 
Q 42.671875 74.21875 48.875 69.140625 
Q 55.078125 64.0625 55.078125 55.328125 
Q 55.078125 49.078125 51.53125 44.71875 
Q 48 40.375 41.703125 38.8125 
Q 48.828125 37.15625 52.796875 32.3125 
Q 56.78125 27.484375 56.78125 20.515625 
Q 56.78125 9.90625 50.3125 4.234375 
Q 43.84375 -1.421875 31.78125 -1.421875 
Q 19.734375 -1.421875 13.25 4.234375 
Q 6.78125 9.90625 6.78125 20.515625 
Q 6.78125 27.484375 10.78125 32.3125 
Q 14.796875 37.15625 21.921875 38.8125 
z
M 18.3125 54.390625 
Q 18.3125 48.734375 21.84375 45.5625 
Q 25.390625 42.390625 31.78125 42.390625 
Q 38.140625 42.390625 41.71875 45.5625 
Q 45.3125 48.734375 45.3125 54.390625 
Q 45.3125 60.0625 41.71875 63.234375 
Q 38.140625 66.40625 31.78125 66.40625 
Q 25.390625 66.40625 21.84375 63.234375 
Q 18.3125 60.0625 18.3125 54.390625 
z
" id="DejaVuSans-56"/>
      </defs>
      <g transform="translate(560.125376 518.598438)scale(0.1 -0.1)">
       <use xlink:href="#DejaVuSans-8722"/>
       <use x="83.789062" xlink:href="#DejaVuSans-48"/>
       <use x="147.412109" xlink:href="#DejaVuSans-46"/>
       <use x="179.199219" xlink:href="#DejaVuSans-56"/>
       <use x="242.822266" xlink:href="#DejaVuSans-54"/>
      </g>
     </g>
    </g>
    <g id="xtick_8">
     <g id="line2d_29">
      <g>
       <use style="stroke:#000000;stroke-width:0.8;" x="610.964006" xlink:href="#m538eebd90d" y="504"/>
      </g>
     </g>
     <g id="text_20">
      <!-- 0.00 -->
      <g transform="translate(599.831194 518.598438)scale(0.1 -0.1)">
       <use xlink:href="#DejaVuSans-48"/>
       <use x="63.623047" xlink:href="#DejaVuSans-46"/>
       <use x="95.410156" xlink:href="#DejaVuSans-48"/>
       <use x="159.033203" xlink:href="#DejaVuSans-48"/>
      </g>
     </g>
    </g>
    <g id="xtick_9">
     <g id="line2d_30">
      <g>
       <use style="stroke:#000000;stroke-width:0.8;" x="646.47998" xlink:href="#m538eebd90d" y="504"/>
      </g>
     </g>
     <g id="text_21">
      <!-- 0.86 -->
      <g transform="translate(635.347168 518.598438)scale(0.1 -0.1)">
       <use xlink:href="#DejaVuSans-48"/>
       <use x="63.623047" xlink:href="#DejaVuSans-46"/>
       <use x="95.410156" xlink:href="#DejaVuSans-56"/>
       <use x="159.033203" xlink:href="#DejaVuSans-54"/>
      </g>
     </g>
    </g>
    <g id="xtick_10">
     <g id="line2d_31">
      <g>
       <use style="stroke:#000000;stroke-width:0.8;" x="689.842506" xlink:href="#m538eebd90d" y="504"/>
      </g>
     </g>
     <g id="text_22">
      <!-- 1.91 -->
      <g transform="translate(678.709694 518.598438)scale(0.1 -0.1)">
       <use xlink:href="#DejaVuSans-49"/>
       <use x="63.623047" xlink:href="#DejaVuSans-46"/>
       <use x="95.410156" xlink:href="#DejaVuSans-57"/>
       <use x="159.033203" xlink:href="#DejaVuSans-49"/>
      </g>
     </g>
    </g>
    <g id="xtick_11">
     <g id="line2d_32">
      <g>
       <use style="stroke:#000000;stroke-width:0.8;" x="716.272999" xlink:href="#m538eebd90d" y="504"/>
      </g>
     </g>
     <g id="text_23">
      <!-- 2.55 -->
      <g transform="translate(705.140186 518.598438)scale(0.1 -0.1)">
       <use xlink:href="#DejaVuSans-50"/>
       <use x="63.623047" xlink:href="#DejaVuSans-46"/>
       <use x="95.410156" xlink:href="#DejaVuSans-53"/>
       <use x="159.033203" xlink:href="#DejaVuSans-53"/>
      </g>
     </g>
    </g>
    <g id="xtick_12">
     <g id="line2d_33">
      <g>
       <use style="stroke:#000000;stroke-width:0.8;" x="757.570643" xlink:href="#m538eebd90d" y="504"/>
      </g>
     </g>
     <g id="text_24">
      <!-- 3.55 -->
      <g transform="translate(746.43783 518.598438)scale(0.1 -0.1)">
       <use xlink:href="#DejaVuSans-51"/>
       <use x="63.623047" xlink:href="#DejaVuSans-46"/>
       <use x="95.410156" xlink:href="#DejaVuSans-53"/>
       <use x="159.033203" xlink:href="#DejaVuSans-53"/>
      </g>
     </g>
    </g>
    <g id="text_25">
     <!-- x -->
     <g transform="translate(621.275057 535.315938)scale(0.14 -0.14)">
      <use xlink:href="#DejaVuSans-120"/>
     </g>
    </g>
   </g>
   <g id="matplotlib.axis_4">
    <g id="ytick_10">
     <g id="line2d_34">
      <g>
       <use style="stroke:#000000;stroke-width:0.8;" x="473.236364" xlink:href="#m216d9fa6cd" y="484.232727"/>
      </g>
     </g>
     <g id="text_26">
      <!-- 0.00 -->
      <g transform="translate(443.970739 488.031946)scale(0.1 -0.1)">
       <use xlink:href="#DejaVuSans-48"/>
       <use x="63.623047" xlink:href="#DejaVuSans-46"/>
       <use x="95.410156" xlink:href="#DejaVuSans-48"/>
       <use x="159.033203" xlink:href="#DejaVuSans-48"/>
      </g>
     </g>
    </g>
    <g id="ytick_11">
     <g id="line2d_35">
      <g>
       <use style="stroke:#000000;stroke-width:0.8;" x="473.236364" xlink:href="#m216d9fa6cd" y="402.79065"/>
      </g>
     </g>
     <g id="text_27">
      <!-- 0.60 -->
      <g transform="translate(443.970739 406.589869)scale(0.1 -0.1)">
       <use xlink:href="#DejaVuSans-48"/>
       <use x="63.623047" xlink:href="#DejaVuSans-46"/>
       <use x="95.410156" xlink:href="#DejaVuSans-54"/>
       <use x="159.033203" xlink:href="#DejaVuSans-48"/>
      </g>
     </g>
    </g>
    <g id="ytick_12">
     <g id="line2d_36">
      <g>
       <use style="stroke:#000000;stroke-width:0.8;" x="473.236364" xlink:href="#m216d9fa6cd" y="484.232727"/>
      </g>
     </g>
     <g id="text_28">
      <!-- 0.00 -->
      <g transform="translate(443.970739 488.031946)scale(0.1 -0.1)">
       <use xlink:href="#DejaVuSans-48"/>
       <use x="63.623047" xlink:href="#DejaVuSans-46"/>
       <use x="95.410156" xlink:href="#DejaVuSans-48"/>
       <use x="159.033203" xlink:href="#DejaVuSans-48"/>
      </g>
     </g>
    </g>
    <g id="ytick_13">
     <g id="line2d_37">
      <g>
       <use style="stroke:#000000;stroke-width:0.8;" x="473.236364" xlink:href="#m216d9fa6cd" y="195.113354"/>
      </g>
     </g>
     <g id="text_29">
      <!-- 2.13 -->
      <g transform="translate(443.970739 198.912572)scale(0.1 -0.1)">
       <use xlink:href="#DejaVuSans-50"/>
       <use x="63.623047" xlink:href="#DejaVuSans-46"/>
       <use x="95.410156" xlink:href="#DejaVuSans-49"/>
       <use x="159.033203" xlink:href="#DejaVuSans-51"/>
      </g>
     </g>
    </g>
    <g id="ytick_14">
     <g id="line2d_38">
      <g>
       <use style="stroke:#000000;stroke-width:0.8;" x="473.236364" xlink:href="#m216d9fa6cd" y="89.238653"/>
      </g>
     </g>
     <g id="text_30">
      <!-- 2.91 -->
      <g transform="translate(443.970739 93.037872)scale(0.1 -0.1)">
       <use xlink:href="#DejaVuSans-50"/>
       <use x="63.623047" xlink:href="#DejaVuSans-46"/>
       <use x="95.410156" xlink:href="#DejaVuSans-57"/>
       <use x="159.033203" xlink:href="#DejaVuSans-49"/>
      </g>
     </g>
    </g>
    <g id="ytick_15">
     <g id="line2d_39">
      <g>
       <use style="stroke:#000000;stroke-width:0.8;" x="473.236364" xlink:href="#m216d9fa6cd" y="317.276469"/>
      </g>
     </g>
     <g id="text_31">
      <!-- 1.23 -->
      <g transform="translate(443.970739 321.075688)scale(0.1 -0.1)">
       <use xlink:href="#DejaVuSans-49"/>
       <use x="63.623047" xlink:href="#DejaVuSans-46"/>
       <use x="95.410156" xlink:href="#DejaVuSans-50"/>
       <use x="159.033203" xlink:href="#DejaVuSans-51"/>
      </g>
     </g>
    </g>
    <g id="ytick_16">
     <g id="line2d_40">
      <g>
       <use style="stroke:#000000;stroke-width:0.8;" x="473.236364" xlink:href="#m216d9fa6cd" y="415.006962"/>
      </g>
     </g>
     <g id="text_32">
      <!-- 0.51 -->
      <g transform="translate(443.970739 418.80618)scale(0.1 -0.1)">
       <use xlink:href="#DejaVuSans-48"/>
       <use x="63.623047" xlink:href="#DejaVuSans-46"/>
       <use x="95.410156" xlink:href="#DejaVuSans-53"/>
       <use x="159.033203" xlink:href="#DejaVuSans-49"/>
      </g>
     </g>
    </g>
    <g id="ytick_17">
     <g id="line2d_41">
      <g>
       <use style="stroke:#000000;stroke-width:0.8;" x="473.236364" xlink:href="#m216d9fa6cd" y="453.013264"/>
      </g>
     </g>
     <g id="text_33">
      <!-- 0.23 -->
      <g transform="translate(443.970739 456.812483)scale(0.1 -0.1)">
       <use xlink:href="#DejaVuSans-48"/>
       <use x="63.623047" xlink:href="#DejaVuSans-46"/>
       <use x="95.410156" xlink:href="#DejaVuSans-50"/>
       <use x="159.033203" xlink:href="#DejaVuSans-51"/>
      </g>
     </g>
    </g>
    <g id="ytick_18">
     <g id="line2d_42">
      <g>
       <use style="stroke:#000000;stroke-width:0.8;" x="473.236364" xlink:href="#m216d9fa6cd" y="469.30168"/>
      </g>
     </g>
     <g id="text_34">
      <!-- 0.11 -->
      <g transform="translate(443.970739 473.100899)scale(0.1 -0.1)">
       <use xlink:href="#DejaVuSans-48"/>
       <use x="63.623047" xlink:href="#DejaVuSans-46"/>
       <use x="95.410156" xlink:href="#DejaVuSans-49"/>
       <use x="159.033203" xlink:href="#DejaVuSans-49"/>
      </g>
     </g>
    </g>
    <g id="text_35">
     <!-- h(x) -->
     <g transform="translate(437.059176 300.601562)rotate(-90)scale(0.14 -0.14)">
      <use xlink:href="#DejaVuSans-104"/>
      <use x="63.378906" xlink:href="#DejaVuSans-40"/>
      <use x="102.392578" xlink:href="#DejaVuSans-120"/>
      <use x="161.572266" xlink:href="#DejaVuSans-41"/>
     </g>
    </g>
   </g>
   <g id="line2d_43">
    <path clip-path="url(#p89288d6f8f)" d="M 487.071074 484.232727 
L 487.071074 484.232727 
" style="fill:none;stroke:#000000;stroke-dasharray:1.85,0.8;stroke-dashoffset:0;stroke-width:0.5;"/>
   </g>
   <g id="line2d_44">
    <path clip-path="url(#p89288d6f8f)" d="M 575.448033 484.232727 
L 575.448033 402.79065 
" style="fill:none;stroke:#000000;stroke-dasharray:1.85,0.8;stroke-dashoffset:0;stroke-width:0.5;"/>
   </g>
   <g id="line2d_45">
    <path clip-path="url(#p89288d6f8f)" d="M 610.964006 484.232727 
L 610.964006 484.232727 
" style="fill:none;stroke:#000000;stroke-dasharray:1.85,0.8;stroke-dashoffset:0;stroke-width:0.5;"/>
   </g>
   <g id="line2d_46">
    <path clip-path="url(#p89288d6f8f)" d="M 646.47998 484.232727 
L 646.47998 195.113354 
" style="fill:none;stroke:#000000;stroke-dasharray:1.85,0.8;stroke-dashoffset:0;stroke-width:0.5;"/>
   </g>
   <g id="line2d_47">
    <path clip-path="url(#p89288d6f8f)" d="M 689.842506 484.232727 
L 689.842506 89.238653 
" style="fill:none;stroke:#000000;stroke-dasharray:1.85,0.8;stroke-dashoffset:0;stroke-width:0.5;"/>
   </g>
   <g id="line2d_48">
    <path clip-path="url(#p89288d6f8f)" d="M 716.272999 484.232727 
L 716.272999 317.276469 
" style="fill:none;stroke:#000000;stroke-dasharray:1.85,0.8;stroke-dashoffset:0;stroke-width:0.5;"/>
   </g>
   <g id="line2d_49">
    <path clip-path="url(#p89288d6f8f)" d="M 473.236364 484.232727 
L 777.6 484.232727 
" style="fill:none;stroke:#000000;stroke-dasharray:1.11,0.48;stroke-dashoffset:0;stroke-width:0.3;"/>
   </g>
   <g id="line2d_50">
    <path clip-path="url(#p89288d6f8f)" d="M 473.236364 402.79065 
L 777.6 402.79065 
" style="fill:none;stroke:#000000;stroke-dasharray:1.11,0.48;stroke-dashoffset:0;stroke-width:0.3;"/>
   </g>
   <g id="line2d_51">
    <path clip-path="url(#p89288d6f8f)" d="M 473.236364 484.232727 
L 777.6 484.232727 
" style="fill:none;stroke:#000000;stroke-dasharray:1.11,0.48;stroke-dashoffset:0;stroke-width:0.3;"/>
   </g>
   <g id="line2d_52">
    <path clip-path="url(#p89288d6f8f)" d="M 473.236364 195.113354 
L 777.6 195.113354 
" style="fill:none;stroke:#000000;stroke-dasharray:1.11,0.48;stroke-dashoffset:0;stroke-width:0.3;"/>
   </g>
   <g id="line2d_53">
    <path clip-path="url(#p89288d6f8f)" d="M 473.236364 89.238653 
L 777.6 89.238653 
" style="fill:none;stroke:#000000;stroke-dasharray:1.11,0.48;stroke-dashoffset:0;stroke-width:0.3;"/>
   </g>
   <g id="line2d_54">
    <path clip-path="url(#p89288d6f8f)" d="M 473.236364 317.276469 
L 777.6 317.276469 
" style="fill:none;stroke:#000000;stroke-dasharray:1.11,0.48;stroke-dashoffset:0;stroke-width:0.3;"/>
   </g>
   <g id="line2d_55">
    <path clip-path="url(#p89288d6f8f)" d="M 473.236364 415.006962 
L 777.6 415.006962 
" style="fill:none;stroke:#000000;stroke-dasharray:1.11,0.48;stroke-dashoffset:0;stroke-width:0.3;"/>
   </g>
   <g id="line2d_56">
    <path clip-path="url(#p89288d6f8f)" d="M 473.236364 453.013264 
L 777.6 453.013264 
" style="fill:none;stroke:#000000;stroke-dasharray:1.11,0.48;stroke-dashoffset:0;stroke-width:0.3;"/>
   </g>
   <g id="line2d_57">
    <path clip-path="url(#p89288d6f8f)" d="M 473.236364 469.30168 
L 777.6 469.30168 
" style="fill:none;stroke:#000000;stroke-dasharray:1.11,0.48;stroke-dashoffset:0;stroke-width:0.3;"/>
   </g>
   <g id="line2d_58">
    <path clip-path="url(#p89288d6f8f)" d="M 487.071074 483.675824 
L 493.436314 483.227208 
L 498.583856 482.646208 
L 502.956499 481.931808 
L 506.775643 481.086984 
L 510.262688 480.088686 
L 513.472983 478.937061 
L 516.461878 477.628509 
L 519.284724 476.151776 
L 521.996869 474.484334 
L 524.653665 472.588987 
L 527.255111 470.458964 
L 529.856557 468.037301 
L 532.458003 465.307074 
L 535.114799 462.187645 
L 537.826945 458.651929 
L 540.64979 454.598585 
L 543.638685 449.911595 
L 546.95968 444.278629 
L 551.000224 436.959576 
L 561.572057 417.553945 
L 564.173503 413.384115 
L 566.33215 410.328494 
L 568.158697 408.106314 
L 569.819194 406.428743 
L 571.258292 405.274711 
L 572.58669 404.48267 
L 573.804388 404.006124 
L 574.966736 403.78889 
L 576.073734 403.809795 
L 577.125383 404.044957 
L 578.232381 404.52788 
L 579.339379 405.259964 
L 580.501727 406.303832 
L 581.719426 407.705589 
L 582.992474 409.512072 
L 584.376221 411.871573 
L 585.870669 414.877606 
L 587.475816 418.619842 
L 589.247014 423.331373 
L 591.239611 429.289935 
L 593.564307 436.969922 
L 596.829952 448.612412 
L 601.590044 465.5419 
L 603.637991 471.998235 
L 605.243139 476.379213 
L 606.571536 479.41181 
L 607.733885 481.535869 
L 608.730183 482.9065 
L 609.560432 483.697289 
L 610.279981 484.103149 
L 610.94418 484.232617 
L 611.553029 484.133545 
L 612.161878 483.816538 
L 612.826077 483.211516 
L 613.545625 482.238143 
L 614.320524 480.80494 
L 615.206123 478.658429 
L 616.147071 475.760576 
L 617.19872 471.742647 
L 618.305718 466.598271 
L 619.523416 459.831344 
L 620.851814 451.10975 
L 622.290912 440.088758 
L 623.840709 426.434359 
L 625.556557 409.27345 
L 627.493804 387.578701 
L 629.8185 358.909423 
L 633.360894 312.04809 
L 637.069338 263.844212 
L 639.061935 240.736645 
L 640.611733 225.124585 
L 641.940131 213.864758 
L 643.047129 206.24425 
L 643.988078 201.178674 
L 644.762976 198.062195 
L 645.427175 196.194272 
L 645.980674 195.228024 
L 646.423474 194.853165 
L 646.755573 194.809192 
L 647.087673 194.971675 
L 647.475122 195.425574 
L 647.917921 196.297224 
L 648.471421 197.922558 
L 649.13562 200.667055 
L 649.855168 204.624499 
L 650.685417 210.462902 
L 651.626366 218.710626 
L 652.678014 229.926124 
L 653.895712 245.414091 
L 655.27946 265.983072 
L 656.939957 294.178098 
L 659.153954 335.892271 
L 663.581947 420.129978 
L 665.131744 444.942472 
L 666.349442 461.056702 
L 667.345741 471.469369 
L 668.17599 477.952345 
L 668.840189 481.561951 
L 669.393688 483.42907 
L 669.781137 484.092444 
L 670.057887 484.232727 
L 670.279286 484.141262 
L 670.556036 483.768796 
L 670.943485 482.758797 
L 671.386285 480.8964 
L 671.939784 477.491477 
L 672.603983 471.810111 
L 673.378881 462.976591 
L 674.26448 450.00526 
L 675.260778 431.8649 
L 676.423127 406.269995 
L 677.751525 371.89116 
L 679.467372 321.288488 
L 684.947013 154.754479 
L 686.164711 126.865054 
L 687.10566 109.895468 
L 687.880559 99.415254 
L 688.544758 93.190263 
L 689.042907 90.292273 
L 689.430356 89.125771 
L 689.707106 88.887273 
L 689.873155 88.984822 
L 690.094555 89.397676 
L 690.426655 90.626419 
L 690.814104 92.988409 
L 691.312253 97.495167 
L 691.921102 105.231527 
L 692.640651 117.462823 
L 693.4709 135.539342 
L 694.467198 162.353726 
L 695.684896 201.532316 
L 697.345394 262.802212 
L 700.887788 395.424486 
L 702.105486 432.07527 
L 703.101785 455.729619 
L 703.876683 469.488263 
L 704.540882 477.774227 
L 705.094382 482.113096 
L 705.481831 483.74682 
L 705.75858 484.208182 
L 705.92463 484.204965 
L 706.14603 483.877197 
L 706.422779 482.954497 
L 706.810229 480.726995 
L 707.308378 476.322025 
L 707.917227 468.741849 
L 708.692126 456.000708 
L 709.688424 435.563119 
L 711.348922 395.904972 
L 713.120119 355.006915 
L 714.116417 336.749718 
L 714.891316 326.326139 
L 715.500165 320.897563 
L 715.942964 318.610232 
L 716.275064 317.849252 
L 716.496464 317.803723 
L 716.717863 318.129524 
L 716.994613 319.058421 
L 717.382062 321.323992 
L 717.880211 325.851112 
L 718.48906 333.719542 
L 719.263959 347.058662 
L 720.260258 368.560472 
L 722.031455 412.837366 
L 723.581252 449.156428 
L 724.522201 466.350275 
L 725.24175 475.906997 
L 725.850599 481.227122 
L 726.293398 483.43071 
L 726.625498 484.159634 
L 726.846897 484.212118 
L 727.068297 483.925394 
L 727.345047 483.103819 
L 727.732496 481.130157 
L 728.230645 477.298506 
L 728.894844 470.269729 
L 729.835793 457.683403 
L 732.105139 426.398058 
L 732.824688 419.645866 
L 733.378187 416.29679 
L 733.765636 415.024261 
L 734.042386 414.680728 
L 734.208436 414.703775 
L 734.429835 415.001891 
L 734.706585 415.80027 
L 735.094034 417.69165 
L 735.592184 421.370195 
L 736.256383 428.178655 
L 737.197331 440.523065 
L 739.577377 472.911935 
L 740.296926 479.401405 
L 740.850425 482.597853 
L 741.237875 483.831907 
L 741.514624 484.202235 
L 741.736024 484.196994 
L 741.957424 483.931589 
L 742.289523 483.069113 
L 742.732322 481.12853 
L 743.341171 477.243332 
L 744.33747 469.058887 
L 745.665868 458.431182 
L 746.330067 454.804169 
L 746.772866 453.366018 
L 747.104965 452.865473 
L 747.326365 452.816981 
L 747.547765 452.997527 
L 747.824514 453.540406 
L 748.211964 454.866963 
L 748.710113 457.447996 
L 749.429662 462.527243 
L 751.865058 480.957304 
L 752.418557 483.177836 
L 752.806006 484.008304 
L 753.082756 484.22624 
L 753.304156 484.179522 
L 753.580905 483.856716 
L 753.968355 482.951696 
L 754.466504 481.138522 
L 755.296753 477.1107 
L 756.514451 471.335684 
L 757.06795 469.663456 
L 757.455399 469.046502 
L 757.732149 468.913203 
L 758.008898 469.041017 
L 758.340998 469.53086 
L 758.783797 470.709221 
L 759.392646 473.117178 
L 761.717342 483.209336 
L 762.160142 484.007614 
L 762.492241 484.22761 
L 762.768991 484.165348 
L 763.10109 483.815016 
L 763.54389 482.945176 
L 763.765289 482.373293 
L 763.765289 482.373293 
" style="fill:none;stroke:#0000ff;stroke-linecap:square;stroke-width:1.5;"/>
   </g>
   <g id="line2d_59">
    <path clip-path="url(#p89288d6f8f)" d="M 610.964006 504 
L 610.964006 69.12 
" style="fill:none;stroke:#000000;stroke-linecap:square;stroke-width:0.5;"/>
   </g>
   <g id="line2d_60">
    <path clip-path="url(#p89288d6f8f)" d="M 473.236364 484.232727 
L 777.6 484.232727 
" style="fill:none;stroke:#000000;stroke-linecap:square;stroke-width:0.5;"/>
   </g>
   <g id="patch_8">
    <path d="M 473.236364 504 
L 473.236364 69.12 
" style="fill:none;stroke:#000000;stroke-linecap:square;stroke-linejoin:miter;stroke-width:0.8;"/>
   </g>
   <g id="patch_9">
    <path d="M 777.6 504 
L 777.6 69.12 
" style="fill:none;stroke:#000000;stroke-linecap:square;stroke-linejoin:miter;stroke-width:0.8;"/>
   </g>
   <g id="patch_10">
    <path d="M 473.236364 504 
L 777.6 504 
" style="fill:none;stroke:#000000;stroke-linecap:square;stroke-linejoin:miter;stroke-width:0.8;"/>
   </g>
   <g id="patch_11">
    <path d="M 473.236364 69.12 
L 777.6 69.12 
" style="fill:none;stroke:#000000;stroke-linecap:square;stroke-linejoin:miter;stroke-width:0.8;"/>
   </g>
   <g id="text_36">
    <!-- Поведение h(x) при малых x -->
    <defs>
     <path d="M 9.078125 54.6875 
L 22.21875 54.6875 
L 37.75 18.0625 
L 53.328125 54.6875 
L 66.359375 54.6875 
L 66.359375 0 
L 57.328125 0 
L 57.328125 46.09375 
L 42.234375 10.5 
L 33.25 10.5 
L 18.109375 46.09375 
L 18.109375 0 
L 9.078125 0 
z
" id="DejaVuSans-1084"/>
     <path d="M 34.28125 27.484375 
Q 23.390625 27.484375 19.1875 25 
Q 14.984375 22.515625 14.984375 16.5 
Q 14.984375 11.71875 18.140625 8.90625 
Q 21.296875 6.109375 26.703125 6.109375 
Q 34.1875 6.109375 38.703125 11.40625 
Q 43.21875 16.703125 43.21875 25.484375 
L 43.21875 27.484375 
z
M 52.203125 31.203125 
L 52.203125 0 
L 43.21875 0 
L 43.21875 8.296875 
Q 40.140625 3.328125 35.546875 0.953125 
Q 30.953125 -1.421875 24.3125 -1.421875 
Q 15.921875 -1.421875 10.953125 3.296875 
Q 6 8.015625 6 15.921875 
Q 6 25.140625 12.171875 29.828125 
Q 18.359375 34.515625 30.609375 34.515625 
L 43.21875 34.515625 
L 43.21875 35.40625 
Q 43.21875 41.609375 39.140625 45 
Q 35.0625 48.390625 27.6875 48.390625 
Q 23 48.390625 18.546875 47.265625 
Q 14.109375 46.140625 10.015625 43.890625 
L 10.015625 52.203125 
Q 14.9375 54.109375 19.578125 55.046875 
Q 24.21875 56 28.609375 56 
Q 40.484375 56 46.34375 49.84375 
Q 52.203125 43.703125 52.203125 31.203125 
z
" id="DejaVuSans-1072"/>
     <path d="M 3.71875 0 
L 3.71875 7.46875 
Q 12.59375 8.84375 15.328125 14.984375 
Q 18.65625 23.640625 18.65625 45.75 
L 18.65625 54.6875 
L 55.609375 54.6875 
L 55.609375 0 
L 46.625 0 
L 46.625 47.515625 
L 27.640625 47.515625 
L 27.640625 42.09375 
Q 27.640625 21 23.34375 11.53125 
Q 18.75 1.421875 3.71875 0 
z
" id="DejaVuSans-1083"/>
     <path d="M 61.046875 54.6875 
L 70.03125 54.6875 
L 70.03125 0 
L 61.046875 0 
z
M 65.546875 56 
z
M 43.453125 16.21875 
Q 43.453125 20.609375 40.25 22.90625 
Q 37.0625 25.203125 30.90625 25.203125 
L 18.109375 25.203125 
L 18.109375 7.171875 
L 30.90625 7.171875 
Q 37.0625 7.171875 40.25 9.484375 
Q 43.453125 11.8125 43.453125 16.21875 
z
M 9.078125 54.6875 
L 18.109375 54.6875 
L 18.109375 32.375 
L 31.296875 32.375 
Q 41.75 32.375 47.390625 28.390625 
Q 53.03125 24.421875 53.03125 16.21875 
Q 53.03125 8.015625 47.390625 4 
Q 41.75 0 31.296875 0 
L 9.078125 0 
z
" id="DejaVuSans-1099"/>
     <path d="M 54.890625 54.6875 
L 35.109375 28.078125 
L 55.90625 0 
L 45.3125 0 
L 29.390625 21.484375 
L 13.484375 0 
L 2.875 0 
L 24.125 28.609375 
L 4.6875 54.6875 
L 15.28125 54.6875 
L 29.78125 35.203125 
L 44.28125 54.6875 
z
" id="DejaVuSans-1093"/>
    </defs>
    <g transform="translate(535.480994 63.12)scale(0.12 -0.12)">
     <use xlink:href="#DejaVuSans-1055"/>
     <use x="75.195312" xlink:href="#DejaVuSans-1086"/>
     <use x="136.376953" xlink:href="#DejaVuSans-1074"/>
     <use x="195.3125" xlink:href="#DejaVuSans-1077"/>
     <use x="256.835938" xlink:href="#DejaVuSans-1076"/>
     <use x="325.976562" xlink:href="#DejaVuSans-1077"/>
     <use x="387.5" xlink:href="#DejaVuSans-1085"/>
     <use x="452.880859" xlink:href="#DejaVuSans-1080"/>
     <use x="517.871094" xlink:href="#DejaVuSans-1077"/>
     <use x="579.394531" xlink:href="#DejaVuSans-32"/>
     <use x="611.181641" xlink:href="#DejaVuSans-104"/>
     <use x="674.560547" xlink:href="#DejaVuSans-40"/>
     <use x="713.574219" xlink:href="#DejaVuSans-120"/>
     <use x="772.753906" xlink:href="#DejaVuSans-41"/>
     <use x="811.767578" xlink:href="#DejaVuSans-32"/>
     <use x="843.554688" xlink:href="#DejaVuSans-1087"/>
     <use x="908.935547" xlink:href="#DejaVuSans-1088"/>
     <use x="972.412109" xlink:href="#DejaVuSans-1080"/>
     <use x="1037.402344" xlink:href="#DejaVuSans-32"/>
     <use x="1069.189453" xlink:href="#DejaVuSans-1084"/>
     <use x="1144.628906" xlink:href="#DejaVuSans-1072"/>
     <use x="1205.908203" xlink:href="#DejaVuSans-1083"/>
     <use x="1269.824219" xlink:href="#DejaVuSans-1099"/>
     <use x="1348.779297" xlink:href="#DejaVuSans-1093"/>
     <use x="1407.958984" xlink:href="#DejaVuSans-32"/>
     <use x="1439.746094" xlink:href="#DejaVuSans-120"/>
    </g>
   </g>
  </g>
  <g id="text_37">
   <!-- График функции $h(x) = \frac{5 \cdot sin^2(e^{0.8 \cdot x}) \cdot x^2}{e^{\frac{x^2}{2}}}$ -->
   <defs>
    <path d="M 9.8125 0 
L 9.8125 72.90625 
L 55.171875 72.90625 
L 55.171875 64.59375 
L 19.671875 64.59375 
L 19.671875 0 
z
" id="DejaVuSans-1043"/>
    <path d="M 14.796875 27.296875 
Q 14.796875 15.828125 18.328125 10.96875 
Q 21.875 6.109375 27.875 6.109375 
Q 32.671875 6.109375 38.234375 14.3125 
L 38.234375 40.28125 
Q 32.671875 48.484375 27.875 48.484375 
Q 21.875 48.484375 18.328125 43.625 
Q 14.796875 38.765625 14.796875 27.296875 
z
M 38.234375 -20.796875 
L 38.234375 6.984375 
Q 35.453125 2.390625 32.25 0.484375 
Q 29.046875 -1.421875 25 -1.421875 
Q 16.84375 -1.421875 11.15625 6.125 
Q 5.46875 13.671875 5.46875 27.09375 
Q 5.46875 40.53125 11.15625 48.265625 
Q 16.84375 56 25 56 
Q 29.046875 56 32.25 54.140625 
Q 35.453125 52.296875 38.234375 47.703125 
L 38.234375 72.90625 
L 47.265625 72.90625 
L 47.265625 47.703125 
Q 50.046875 52.296875 53.25 54.140625 
Q 56.453125 56 60.5 56 
Q 68.65625 56 74.34375 48.265625 
Q 80.03125 40.53125 80.03125 27.09375 
Q 80.03125 13.671875 74.34375 6.125 
Q 68.65625 -1.421875 60.5 -1.421875 
Q 56.453125 -1.421875 53.25 0.484375 
Q 50.046875 2.390625 47.265625 6.984375 
L 47.265625 -20.796875 
z
M 70.703125 27.296875 
Q 70.703125 38.765625 67.15625 43.625 
Q 63.625 48.484375 57.625 48.484375 
Q 52.828125 48.484375 47.265625 40.28125 
L 47.265625 14.3125 
Q 52.828125 6.109375 57.625 6.109375 
Q 63.625 6.109375 67.15625 10.96875 
Q 70.703125 15.828125 70.703125 27.296875 
z
" id="DejaVuSans-1092"/>
    <path d="M 9.078125 54.6875 
L 18.015625 54.6875 
L 18.015625 29 
L 43.359375 54.6875 
L 54.390625 54.6875 
L 33.5 33.546875 
L 57.078125 0 
L 47.015625 0 
L 27.640625 27.59375 
L 18.015625 17.828125 
L 18.015625 0 
L 9.078125 0 
z
" id="DejaVuSans-1082"/>
    <path d="M 32.171875 -5.078125 
Q 28.375 -14.84375 24.75 -17.8125 
Q 21.140625 -20.796875 15.09375 -20.796875 
L 7.90625 -20.796875 
L 7.90625 -13.28125 
L 13.1875 -13.28125 
Q 16.890625 -13.28125 18.9375 -11.515625 
Q 21 -9.765625 23.484375 -3.21875 
L 25.09375 0.875 
L 2.984375 54.6875 
L 12.5 54.6875 
L 29.59375 11.921875 
L 46.6875 54.6875 
L 56.203125 54.6875 
z
" id="DejaVuSans-1091"/>
    <path d="M 56.296875 0 
L 9.078125 0 
L 9.078125 54.6875 
L 18.109375 54.6875 
L 18.109375 7.171875 
L 47.265625 7.171875 
L 47.265625 54.6875 
L 56.296875 54.6875 
L 56.296875 7.171875 
L 63.484375 7.171875 
L 63.484375 -13.8125 
L 56.296875 -13.8125 
z
" id="DejaVuSans-1094"/>
    <path d="M 55.71875 33.015625 
L 49.3125 0 
L 40.28125 0 
L 46.6875 32.671875 
Q 47.125 34.96875 47.359375 36.71875 
Q 47.609375 38.484375 47.609375 39.5 
Q 47.609375 43.609375 45.015625 45.890625 
Q 42.4375 48.1875 37.796875 48.1875 
Q 30.5625 48.1875 25.265625 43.296875 
Q 19.96875 38.421875 18.40625 30.328125 
L 12.5 0 
L 3.515625 0 
L 18.3125 75.984375 
L 27.296875 75.984375 
L 21.484375 46.09375 
Q 24.90625 50.6875 30.21875 53.34375 
Q 35.546875 56 41.40625 56 
Q 48.640625 56 52.609375 52.09375 
Q 56.59375 48.1875 56.59375 41.109375 
Q 56.59375 39.359375 56.375 37.359375 
Q 56.15625 35.359375 55.71875 33.015625 
z
" id="DejaVuSans-Oblique-104"/>
    <path d="M 60.015625 54.6875 
L 34.90625 27.875 
L 50.296875 0 
L 39.984375 0 
L 28.421875 21.6875 
L 8.296875 0 
L -2.59375 0 
L 24.3125 28.8125 
L 10.015625 54.6875 
L 20.3125 54.6875 
L 30.8125 34.90625 
L 49.125 54.6875 
z
" id="DejaVuSans-Oblique-120"/>
    <path d="M 10.59375 45.40625 
L 73.1875 45.40625 
L 73.1875 37.203125 
L 10.59375 37.203125 
z
M 10.59375 25.484375 
L 73.1875 25.484375 
L 73.1875 17.1875 
L 10.59375 17.1875 
z
" id="DejaVuSans-61"/>
    <path d="M 10.6875 40.921875 
L 21 40.921875 
L 21 28.515625 
L 10.6875 28.515625 
z
" id="DejaVuSans-8901"/>
    <path d="M 50 53.078125 
L 48.296875 44.578125 
Q 44.734375 46.53125 40.765625 47.5 
Q 36.8125 48.484375 32.625 48.484375 
Q 25.53125 48.484375 21.453125 46.0625 
Q 17.390625 43.65625 17.390625 39.5 
Q 17.390625 34.671875 26.859375 32.078125 
Q 27.59375 31.890625 27.9375 31.78125 
L 30.8125 30.90625 
Q 39.796875 28.421875 42.796875 25.6875 
Q 45.796875 22.953125 45.796875 18.21875 
Q 45.796875 9.515625 38.890625 4.046875 
Q 31.984375 -1.421875 20.796875 -1.421875 
Q 16.453125 -1.421875 11.671875 -0.578125 
Q 6.890625 0.25 1.125 2 
L 2.875 11.28125 
Q 7.8125 8.734375 12.59375 7.421875 
Q 17.390625 6.109375 21.78125 6.109375 
Q 28.375 6.109375 32.5 8.9375 
Q 36.625 11.765625 36.625 16.109375 
Q 36.625 20.796875 25.78125 23.6875 
L 24.859375 23.921875 
L 21.78125 24.703125 
Q 14.9375 26.515625 11.765625 29.46875 
Q 8.59375 32.421875 8.59375 37.015625 
Q 8.59375 45.75 15.15625 50.875 
Q 21.734375 56 33.015625 56 
Q 37.453125 56 41.671875 55.265625 
Q 45.90625 54.546875 50 53.078125 
z
" id="DejaVuSans-Oblique-115"/>
    <path d="M 18.3125 75.984375 
L 27.296875 75.984375 
L 25.09375 64.59375 
L 16.109375 64.59375 
z
M 14.203125 54.6875 
L 23.1875 54.6875 
L 12.5 0 
L 3.515625 0 
z
" id="DejaVuSans-Oblique-105"/>
    <path d="M 55.71875 33.015625 
L 49.3125 0 
L 40.28125 0 
L 46.6875 32.671875 
Q 47.125 34.96875 47.359375 36.71875 
Q 47.609375 38.484375 47.609375 39.5 
Q 47.609375 43.609375 45.015625 45.890625 
Q 42.4375 48.1875 37.796875 48.1875 
Q 30.5625 48.1875 25.34375 43.375 
Q 20.125 38.578125 18.5 30.328125 
L 12.5 0 
L 3.515625 0 
L 14.109375 54.6875 
L 23.09375 54.6875 
L 21.296875 46.09375 
Q 25.046875 50.828125 30.3125 53.40625 
Q 35.59375 56 41.40625 56 
Q 48.640625 56 52.609375 52.09375 
Q 56.59375 48.1875 56.59375 41.109375 
Q 56.59375 39.359375 56.375 37.359375 
Q 56.15625 35.359375 55.71875 33.015625 
z
" id="DejaVuSans-Oblique-110"/>
    <path d="M 48.09375 32.234375 
Q 48.25 33.015625 48.3125 33.84375 
Q 48.390625 34.671875 48.390625 35.5 
Q 48.390625 41.453125 44.890625 44.921875 
Q 41.40625 48.390625 35.40625 48.390625 
Q 28.71875 48.390625 23.578125 44.15625 
Q 18.453125 39.9375 15.828125 32.171875 
z
M 55.90625 25.203125 
L 14.109375 25.203125 
Q 13.8125 23.34375 13.71875 22.265625 
Q 13.625 21.1875 13.625 20.40625 
Q 13.625 13.625 17.796875 9.90625 
Q 21.96875 6.203125 29.59375 6.203125 
Q 35.453125 6.203125 40.671875 7.515625 
Q 45.90625 8.84375 50.390625 11.375 
L 48.6875 2.484375 
Q 43.84375 0.53125 38.6875 -0.4375 
Q 33.546875 -1.421875 28.21875 -1.421875 
Q 16.84375 -1.421875 10.71875 4.015625 
Q 4.59375 9.46875 4.59375 19.484375 
Q 4.59375 28.03125 7.640625 35.375 
Q 10.6875 42.71875 16.609375 48.484375 
Q 20.40625 52.09375 25.65625 54.046875 
Q 30.90625 56 36.8125 56 
Q 46.09375 56 51.578125 50.4375 
Q 57.078125 44.875 57.078125 35.5 
Q 57.078125 33.25 56.78125 30.6875 
Q 56.5 28.125 55.90625 25.203125 
z
" id="DejaVuSans-Oblique-101"/>
   </defs>
   <g transform="translate(319.98 25.56)scale(0.12 -0.12)">
    <use transform="translate(0 0.807813)" xlink:href="#DejaVuSans-1043"/>
    <use transform="translate(60.986328 0.807813)" xlink:href="#DejaVuSans-1088"/>
    <use transform="translate(124.462891 0.807813)" xlink:href="#DejaVuSans-1072"/>
    <use transform="translate(185.742188 0.807813)" xlink:href="#DejaVuSans-1092"/>
    <use transform="translate(271.240234 0.807813)" xlink:href="#DejaVuSans-1080"/>
    <use transform="translate(336.230469 0.807813)" xlink:href="#DejaVuSans-1082"/>
    <use transform="translate(396.630859 0.807813)" xlink:href="#DejaVuSans-32"/>
    <use transform="translate(428.417969 0.807813)" xlink:href="#DejaVuSans-1092"/>
    <use transform="translate(513.916016 0.807813)" xlink:href="#DejaVuSans-1091"/>
    <use transform="translate(573.095703 0.807813)" xlink:href="#DejaVuSans-1085"/>
    <use transform="translate(638.476562 0.807813)" xlink:href="#DejaVuSans-1082"/>
    <use transform="translate(698.876953 0.807813)" xlink:href="#DejaVuSans-1094"/>
    <use transform="translate(766.943359 0.807813)" xlink:href="#DejaVuSans-1080"/>
    <use transform="translate(831.933594 0.807813)" xlink:href="#DejaVuSans-1080"/>
    <use transform="translate(896.923828 0.807813)" xlink:href="#DejaVuSans-32"/>
    <use transform="translate(928.710938 0.807813)" xlink:href="#DejaVuSans-Oblique-104"/>
    <use transform="translate(992.089844 0.807813)" xlink:href="#DejaVuSans-40"/>
    <use transform="translate(1031.103516 0.807813)" xlink:href="#DejaVuSans-Oblique-120"/>
    <use transform="translate(1090.283203 0.807813)" xlink:href="#DejaVuSans-41"/>
    <use transform="translate(1148.779297 0.807813)" xlink:href="#DejaVuSans-61"/>
    <use transform="translate(1252.050781 53.835938)scale(0.7)" xlink:href="#DejaVuSans-53"/>
    <use transform="translate(1310.224609 53.835938)scale(0.7)" xlink:href="#DejaVuSans-8901"/>
    <use transform="translate(1346.113281 53.835938)scale(0.7)" xlink:href="#DejaVuSans-Oblique-115"/>
    <use transform="translate(1382.583008 53.835938)scale(0.7)" xlink:href="#DejaVuSans-Oblique-105"/>
    <use transform="translate(1402.03125 53.835938)scale(0.7)" xlink:href="#DejaVuSans-Oblique-110"/>
    <use transform="translate(1449.651411 80.632813)scale(0.49)" xlink:href="#DejaVuSans-50"/>
    <use transform="translate(1482.740767 53.835938)scale(0.7)" xlink:href="#DejaVuSans-40"/>
    <use transform="translate(1510.050337 53.835938)scale(0.7)" xlink:href="#DejaVuSans-Oblique-101"/>
    <use transform="translate(1556.371671 80.632813)scale(0.49)" xlink:href="#DejaVuSans-48"/>
    <use transform="translate(1587.546964 80.632813)scale(0.49)" xlink:href="#DejaVuSans-46"/>
    <use transform="translate(1603.107335 80.632813)scale(0.49)" xlink:href="#DejaVuSans-56"/>
    <use transform="translate(1643.829014 80.632813)scale(0.49)" xlink:href="#DejaVuSans-8901"/>
    <use transform="translate(1668.951085 80.632813)scale(0.49)" xlink:href="#DejaVuSans-Oblique-120"/>
    <use transform="translate(1699.863194 53.835938)scale(0.7)" xlink:href="#DejaVuSans-41"/>
    <use transform="translate(1740.81046 53.835938)scale(0.7)" xlink:href="#DejaVuSans-8901"/>
    <use transform="translate(1776.699132 53.835938)scale(0.7)" xlink:href="#DejaVuSans-Oblique-120"/>
    <use transform="translate(1821.251215 80.632813)scale(0.49)" xlink:href="#DejaVuSans-50"/>
    <use transform="translate(1507.050781 -65.853047)scale(0.7)" xlink:href="#DejaVuSans-Oblique-101"/>
    <use transform="translate(1553.372115 -17.595703)scale(0.343)" xlink:href="#DejaVuSans-Oblique-120"/>
    <use transform="translate(1575.202635 -4.465234)scale(0.2401)" xlink:href="#DejaVuSans-50"/>
    <use transform="translate(1561.372115 -58.365234)scale(0.343)" xlink:href="#DejaVuSans-50"/>
    <path d="M 1252.050781 19.604688 
L 1252.050781 25.854688 
L 1854.34057 25.854688 
L 1854.34057 19.604688 
L 1252.050781 19.604688 
z
"/>
    <path d="M 1553.372115 -29.845703 
L 1553.372115 -26.783203 
L 1591.41642 -26.783203 
L 1591.41642 -29.845703 
L 1553.372115 -29.845703 
z
"/>
   </g>
  </g>
 </g>
 <defs>
  <clipPath id="p68479050ff">
   <rect height="434.88" width="304.363636" x="108" y="69.12"/>
  </clipPath>
  <clipPath id="p89288d6f8f">
   <rect height="434.88" width="304.363636" x="473.236364" y="69.12"/>
  </clipPath>
 </defs>
</svg>
