<?xml version="1.0" encoding="utf-8" standalone="no"?>
<!DOCTYPE svg PUBLIC "-//W3C//DTD SVG 1.1//EN"
  "http://www.w3.org/Graphics/SVG/1.1/DTD/svg11.dtd">
<!-- Created with matplotlib (https://matplotlib.org/) -->
<svg height="576pt" version="1.1" viewBox="0 0 936 576" width="936pt" xmlns="http://www.w3.org/2000/svg" xmlns:xlink="http://www.w3.org/1999/xlink">
 <defs>
  <style type="text/css">
*{stroke-linecap:butt;stroke-linejoin:round;}
  </style>
 </defs>
 <g id="figure_1">
  <g id="patch_1">
   <path d="M 0 576 
L 936 576 
L 936 0 
L 0 0 
z
" style="fill:#ffffff;"/>
  </g>
  <g id="axes_1">
   <g id="patch_2">
    <path d="M 0 576 
L 936 576 
L 936 0 
L 0 0 
z
" style="fill:#ffffff;"/>
   </g>
   <g id="matplotlib.axis_1">
    <g id="xtick_1">
     <g id="line2d_1">
      <path clip-path="url(#pa45d727558)" d="M 0 576 
L 0 0 
" style="fill:none;stroke:#b0b0b0;stroke-linecap:square;stroke-width:0.8;"/>
     </g>
     <g id="line2d_2">
      <defs>
       <path d="M 0 0 
L 0 3.5 
" id="m16ed003bc9" style="stroke:#000000;stroke-width:0.8;"/>
      </defs>
      <g>
       <use style="stroke:#000000;stroke-width:0.8;" x="0" xlink:href="#m16ed003bc9" y="576"/>
      </g>
     </g>
     <g id="text_1">
      <!-- −2 -->
      <defs>
       <path d="M 10.59375 35.5 
L 73.1875 35.5 
L 73.1875 27.203125 
L 10.59375 27.203125 
z
" id="DejaVuSans-8722"/>
       <path d="M 19.1875 8.296875 
L 53.609375 8.296875 
L 53.609375 0 
L 7.328125 0 
L 7.328125 8.296875 
Q 12.9375 14.109375 22.625 23.890625 
Q 32.328125 33.6875 34.8125 36.53125 
Q 39.546875 41.84375 41.421875 45.53125 
Q 43.3125 49.21875 43.3125 52.78125 
Q 43.3125 58.59375 39.234375 62.25 
Q 35.15625 65.921875 28.609375 65.921875 
Q 23.96875 65.921875 18.8125 64.3125 
Q 13.671875 62.703125 7.8125 59.421875 
L 7.8125 69.390625 
Q 13.765625 71.78125 18.9375 73 
Q 24.125 74.21875 28.421875 74.21875 
Q 39.75 74.21875 46.484375 68.546875 
Q 53.21875 62.890625 53.21875 53.421875 
Q 53.21875 48.921875 51.53125 44.890625 
Q 49.859375 40.875 45.40625 35.40625 
Q 44.1875 33.984375 37.640625 27.21875 
Q 31.109375 20.453125 19.1875 8.296875 
z
" id="DejaVuSans-50"/>
      </defs>
      <g transform="translate(-7.371094 590.598438)scale(0.1 -0.1)">
       <use xlink:href="#DejaVuSans-8722"/>
       <use x="83.789062" xlink:href="#DejaVuSans-50"/>
      </g>
     </g>
    </g>
    <g id="xtick_2">
     <g id="line2d_3">
      <path clip-path="url(#pa45d727558)" d="M 133.714286 576 
L 133.714286 0 
" style="fill:none;stroke:#b0b0b0;stroke-linecap:square;stroke-width:0.8;"/>
     </g>
     <g id="line2d_4">
      <g>
       <use style="stroke:#000000;stroke-width:0.8;" x="133.714286" xlink:href="#m16ed003bc9" y="576"/>
      </g>
     </g>
     <g id="text_2">
      <!-- −1 -->
      <defs>
       <path d="M 12.40625 8.296875 
L 28.515625 8.296875 
L 28.515625 63.921875 
L 10.984375 60.40625 
L 10.984375 69.390625 
L 28.421875 72.90625 
L 38.28125 72.90625 
L 38.28125 8.296875 
L 54.390625 8.296875 
L 54.390625 0 
L 12.40625 0 
z
" id="DejaVuSans-49"/>
      </defs>
      <g transform="translate(126.343192 590.598438)scale(0.1 -0.1)">
       <use xlink:href="#DejaVuSans-8722"/>
       <use x="83.789062" xlink:href="#DejaVuSans-49"/>
      </g>
     </g>
    </g>
    <g id="xtick_3">
     <g id="line2d_5">
      <path clip-path="url(#pa45d727558)" d="M 267.428571 576 
L 267.428571 0 
" style="fill:none;stroke:#b0b0b0;stroke-linecap:square;stroke-width:0.8;"/>
     </g>
     <g id="line2d_6">
      <g>
       <use style="stroke:#000000;stroke-width:0.8;" x="267.428571" xlink:href="#m16ed003bc9" y="576"/>
      </g>
     </g>
     <g id="text_3">
      <!-- 0 -->
      <defs>
       <path d="M 31.78125 66.40625 
Q 24.171875 66.40625 20.328125 58.90625 
Q 16.5 51.421875 16.5 36.375 
Q 16.5 21.390625 20.328125 13.890625 
Q 24.171875 6.390625 31.78125 6.390625 
Q 39.453125 6.390625 43.28125 13.890625 
Q 47.125 21.390625 47.125 36.375 
Q 47.125 51.421875 43.28125 58.90625 
Q 39.453125 66.40625 31.78125 66.40625 
z
M 31.78125 74.21875 
Q 44.046875 74.21875 50.515625 64.515625 
Q 56.984375 54.828125 56.984375 36.375 
Q 56.984375 17.96875 50.515625 8.265625 
Q 44.046875 -1.421875 31.78125 -1.421875 
Q 19.53125 -1.421875 13.0625 8.265625 
Q 6.59375 17.96875 6.59375 36.375 
Q 6.59375 54.828125 13.0625 64.515625 
Q 19.53125 74.21875 31.78125 74.21875 
z
" id="DejaVuSans-48"/>
      </defs>
      <g transform="translate(264.247321 590.598438)scale(0.1 -0.1)">
       <use xlink:href="#DejaVuSans-48"/>
      </g>
     </g>
    </g>
    <g id="xtick_4">
     <g id="line2d_7">
      <path clip-path="url(#pa45d727558)" d="M 401.142857 576 
L 401.142857 0 
" style="fill:none;stroke:#b0b0b0;stroke-linecap:square;stroke-width:0.8;"/>
     </g>
     <g id="line2d_8">
      <g>
       <use style="stroke:#000000;stroke-width:0.8;" x="401.142857" xlink:href="#m16ed003bc9" y="576"/>
      </g>
     </g>
     <g id="text_4">
      <!-- 1 -->
      <g transform="translate(397.961607 590.598438)scale(0.1 -0.1)">
       <use xlink:href="#DejaVuSans-49"/>
      </g>
     </g>
    </g>
    <g id="xtick_5">
     <g id="line2d_9">
      <path clip-path="url(#pa45d727558)" d="M 534.857143 576 
L 534.857143 0 
" style="fill:none;stroke:#b0b0b0;stroke-linecap:square;stroke-width:0.8;"/>
     </g>
     <g id="line2d_10">
      <g>
       <use style="stroke:#000000;stroke-width:0.8;" x="534.857143" xlink:href="#m16ed003bc9" y="576"/>
      </g>
     </g>
     <g id="text_5">
      <!-- 2 -->
      <g transform="translate(531.675893 590.598438)scale(0.1 -0.1)">
       <use xlink:href="#DejaVuSans-50"/>
      </g>
     </g>
    </g>
    <g id="xtick_6">
     <g id="line2d_11">
      <path clip-path="url(#pa45d727558)" d="M 668.571429 576 
L 668.571429 0 
" style="fill:none;stroke:#b0b0b0;stroke-linecap:square;stroke-width:0.8;"/>
     </g>
     <g id="line2d_12">
      <g>
       <use style="stroke:#000000;stroke-width:0.8;" x="668.571429" xlink:href="#m16ed003bc9" y="576"/>
      </g>
     </g>
     <g id="text_6">
      <!-- 3 -->
      <defs>
       <path d="M 40.578125 39.3125 
Q 47.65625 37.796875 51.625 33 
Q 55.609375 28.21875 55.609375 21.1875 
Q 55.609375 10.40625 48.1875 4.484375 
Q 40.765625 -1.421875 27.09375 -1.421875 
Q 22.515625 -1.421875 17.65625 -0.515625 
Q 12.796875 0.390625 7.625 2.203125 
L 7.625 11.71875 
Q 11.71875 9.328125 16.59375 8.109375 
Q 21.484375 6.890625 26.8125 6.890625 
Q 36.078125 6.890625 40.9375 10.546875 
Q 45.796875 14.203125 45.796875 21.1875 
Q 45.796875 27.640625 41.28125 31.265625 
Q 36.765625 34.90625 28.71875 34.90625 
L 20.21875 34.90625 
L 20.21875 43.015625 
L 29.109375 43.015625 
Q 36.375 43.015625 40.234375 45.921875 
Q 44.09375 48.828125 44.09375 54.296875 
Q 44.09375 59.90625 40.109375 62.90625 
Q 36.140625 65.921875 28.71875 65.921875 
Q 24.65625 65.921875 20.015625 65.03125 
Q 15.375 64.15625 9.8125 62.3125 
L 9.8125 71.09375 
Q 15.4375 72.65625 20.34375 73.4375 
Q 25.25 74.21875 29.59375 74.21875 
Q 40.828125 74.21875 47.359375 69.109375 
Q 53.90625 64.015625 53.90625 55.328125 
Q 53.90625 49.265625 50.4375 45.09375 
Q 46.96875 40.921875 40.578125 39.3125 
z
" id="DejaVuSans-51"/>
      </defs>
      <g transform="translate(665.390179 590.598438)scale(0.1 -0.1)">
       <use xlink:href="#DejaVuSans-51"/>
      </g>
     </g>
    </g>
    <g id="xtick_7">
     <g id="line2d_13">
      <path clip-path="url(#pa45d727558)" d="M 802.285714 576 
L 802.285714 0 
" style="fill:none;stroke:#b0b0b0;stroke-linecap:square;stroke-width:0.8;"/>
     </g>
     <g id="line2d_14">
      <g>
       <use style="stroke:#000000;stroke-width:0.8;" x="802.285714" xlink:href="#m16ed003bc9" y="576"/>
      </g>
     </g>
     <g id="text_7">
      <!-- 4 -->
      <defs>
       <path d="M 37.796875 64.3125 
L 12.890625 25.390625 
L 37.796875 25.390625 
z
M 35.203125 72.90625 
L 47.609375 72.90625 
L 47.609375 25.390625 
L 58.015625 25.390625 
L 58.015625 17.1875 
L 47.609375 17.1875 
L 47.609375 0 
L 37.796875 0 
L 37.796875 17.1875 
L 4.890625 17.1875 
L 4.890625 26.703125 
z
" id="DejaVuSans-52"/>
      </defs>
      <g transform="translate(799.104464 590.598438)scale(0.1 -0.1)">
       <use xlink:href="#DejaVuSans-52"/>
      </g>
     </g>
    </g>
    <g id="xtick_8">
     <g id="line2d_15">
      <path clip-path="url(#pa45d727558)" d="M 936 576 
L 936 0 
" style="fill:none;stroke:#b0b0b0;stroke-linecap:square;stroke-width:0.8;"/>
     </g>
     <g id="line2d_16">
      <g>
       <use style="stroke:#000000;stroke-width:0.8;" x="936" xlink:href="#m16ed003bc9" y="576"/>
      </g>
     </g>
     <g id="text_8">
      <!-- 5 -->
      <defs>
       <path d="M 10.796875 72.90625 
L 49.515625 72.90625 
L 49.515625 64.59375 
L 19.828125 64.59375 
L 19.828125 46.734375 
Q 21.96875 47.46875 24.109375 47.828125 
Q 26.265625 48.1875 28.421875 48.1875 
Q 40.625 48.1875 47.75 41.5 
Q 54.890625 34.8125 54.890625 23.390625 
Q 54.890625 11.625 47.5625 5.09375 
Q 40.234375 -1.421875 26.90625 -1.421875 
Q 22.3125 -1.421875 17.546875 -0.640625 
Q 12.796875 0.140625 7.71875 1.703125 
L 7.71875 11.625 
Q 12.109375 9.234375 16.796875 8.0625 
Q 21.484375 6.890625 26.703125 6.890625 
Q 35.15625 6.890625 40.078125 11.328125 
Q 45.015625 15.765625 45.015625 23.390625 
Q 45.015625 31 40.078125 35.4375 
Q 35.15625 39.890625 26.703125 39.890625 
Q 22.75 39.890625 18.8125 39.015625 
Q 14.890625 38.140625 10.796875 36.28125 
z
" id="DejaVuSans-53"/>
      </defs>
      <g transform="translate(932.81875 590.598438)scale(0.1 -0.1)">
       <use xlink:href="#DejaVuSans-53"/>
      </g>
     </g>
    </g>
    <g id="text_9">
     <!-- x -->
     <defs>
      <path d="M 54.890625 54.6875 
L 35.109375 28.078125 
L 55.90625 0 
L 45.3125 0 
L 29.390625 21.484375 
L 13.484375 0 
L 2.875 0 
L 24.125 28.609375 
L 4.6875 54.6875 
L 15.28125 54.6875 
L 29.78125 35.203125 
L 44.28125 54.6875 
z
" id="DejaVuSans-120"/>
     </defs>
     <g transform="translate(464.44875 605.79625)scale(0.12 -0.12)">
      <use xlink:href="#DejaVuSans-120"/>
     </g>
    </g>
   </g>
   <g id="matplotlib.axis_2">
    <g id="ytick_1">
     <g id="line2d_17">
      <path clip-path="url(#pa45d727558)" d="M 0 518.4 
L 936 518.4 
" style="fill:none;stroke:#b0b0b0;stroke-linecap:square;stroke-width:0.8;"/>
     </g>
     <g id="line2d_18">
      <defs>
       <path d="M 0 0 
L -3.5 0 
" id="mb11deeb2ce" style="stroke:#000000;stroke-width:0.8;"/>
      </defs>
      <g>
       <use style="stroke:#000000;stroke-width:0.8;" x="0" xlink:href="#mb11deeb2ce" y="518.4"/>
      </g>
     </g>
     <g id="text_10">
      <!-- −4 -->
      <g transform="translate(-21.742188 522.199219)scale(0.1 -0.1)">
       <use xlink:href="#DejaVuSans-8722"/>
       <use x="83.789062" xlink:href="#DejaVuSans-52"/>
      </g>
     </g>
    </g>
    <g id="ytick_2">
     <g id="line2d_19">
      <path clip-path="url(#pa45d727558)" d="M 0 403.2 
L 936 403.2 
" style="fill:none;stroke:#b0b0b0;stroke-linecap:square;stroke-width:0.8;"/>
     </g>
     <g id="line2d_20">
      <g>
       <use style="stroke:#000000;stroke-width:0.8;" x="0" xlink:href="#mb11deeb2ce" y="403.2"/>
      </g>
     </g>
     <g id="text_11">
      <!-- −2 -->
      <g transform="translate(-21.742188 406.999219)scale(0.1 -0.1)">
       <use xlink:href="#DejaVuSans-8722"/>
       <use x="83.789062" xlink:href="#DejaVuSans-50"/>
      </g>
     </g>
    </g>
    <g id="ytick_3">
     <g id="line2d_21">
      <path clip-path="url(#pa45d727558)" d="M 0 288 
L 936 288 
" style="fill:none;stroke:#b0b0b0;stroke-linecap:square;stroke-width:0.8;"/>
     </g>
     <g id="line2d_22">
      <g>
       <use style="stroke:#000000;stroke-width:0.8;" x="0" xlink:href="#mb11deeb2ce" y="288"/>
      </g>
     </g>
     <g id="text_12">
      <!-- 0 -->
      <g transform="translate(-13.3625 291.799219)scale(0.1 -0.1)">
       <use xlink:href="#DejaVuSans-48"/>
      </g>
     </g>
    </g>
    <g id="ytick_4">
     <g id="line2d_23">
      <path clip-path="url(#pa45d727558)" d="M 0 172.8 
L 936 172.8 
" style="fill:none;stroke:#b0b0b0;stroke-linecap:square;stroke-width:0.8;"/>
     </g>
     <g id="line2d_24">
      <g>
       <use style="stroke:#000000;stroke-width:0.8;" x="0" xlink:href="#mb11deeb2ce" y="172.8"/>
      </g>
     </g>
     <g id="text_13">
      <!-- 2 -->
      <g transform="translate(-13.3625 176.599219)scale(0.1 -0.1)">
       <use xlink:href="#DejaVuSans-50"/>
      </g>
     </g>
    </g>
    <g id="ytick_5">
     <g id="line2d_25">
      <path clip-path="url(#pa45d727558)" d="M 0 57.6 
L 936 57.6 
" style="fill:none;stroke:#b0b0b0;stroke-linecap:square;stroke-width:0.8;"/>
     </g>
     <g id="line2d_26">
      <g>
       <use style="stroke:#000000;stroke-width:0.8;" x="0" xlink:href="#mb11deeb2ce" y="57.6"/>
      </g>
     </g>
     <g id="text_14">
      <!-- 4 -->
      <g transform="translate(-13.3625 61.399219)scale(0.1 -0.1)">
       <use xlink:href="#DejaVuSans-52"/>
      </g>
     </g>
    </g>
    <g id="text_15">
     <!-- f(x), g(x), h(x) -->
     <defs>
      <path d="M 37.109375 75.984375 
L 37.109375 68.5 
L 28.515625 68.5 
Q 23.6875 68.5 21.796875 66.546875 
Q 19.921875 64.59375 19.921875 59.515625 
L 19.921875 54.6875 
L 34.71875 54.6875 
L 34.71875 47.703125 
L 19.921875 47.703125 
L 19.921875 0 
L 10.890625 0 
L 10.890625 47.703125 
L 2.296875 47.703125 
L 2.296875 54.6875 
L 10.890625 54.6875 
L 10.890625 58.5 
Q 10.890625 67.625 15.140625 71.796875 
Q 19.390625 75.984375 28.609375 75.984375 
z
" id="DejaVuSans-102"/>
      <path d="M 31 75.875 
Q 24.46875 64.65625 21.28125 53.65625 
Q 18.109375 42.671875 18.109375 31.390625 
Q 18.109375 20.125 21.3125 9.0625 
Q 24.515625 -2 31 -13.1875 
L 23.1875 -13.1875 
Q 15.875 -1.703125 12.234375 9.375 
Q 8.59375 20.453125 8.59375 31.390625 
Q 8.59375 42.28125 12.203125 53.3125 
Q 15.828125 64.359375 23.1875 75.875 
z
" id="DejaVuSans-40"/>
      <path d="M 8.015625 75.875 
L 15.828125 75.875 
Q 23.140625 64.359375 26.78125 53.3125 
Q 30.421875 42.28125 30.421875 31.390625 
Q 30.421875 20.453125 26.78125 9.375 
Q 23.140625 -1.703125 15.828125 -13.1875 
L 8.015625 -13.1875 
Q 14.5 -2 17.703125 9.0625 
Q 20.90625 20.125 20.90625 31.390625 
Q 20.90625 42.671875 17.703125 53.65625 
Q 14.5 64.65625 8.015625 75.875 
z
" id="DejaVuSans-41"/>
      <path d="M 11.71875 12.40625 
L 22.015625 12.40625 
L 22.015625 4 
L 14.015625 -11.625 
L 7.71875 -11.625 
L 11.71875 4 
z
" id="DejaVuSans-44"/>
      <path id="DejaVuSans-32"/>
      <path d="M 45.40625 27.984375 
Q 45.40625 37.75 41.375 43.109375 
Q 37.359375 48.484375 30.078125 48.484375 
Q 22.859375 48.484375 18.828125 43.109375 
Q 14.796875 37.75 14.796875 27.984375 
Q 14.796875 18.265625 18.828125 12.890625 
Q 22.859375 7.515625 30.078125 7.515625 
Q 37.359375 7.515625 41.375 12.890625 
Q 45.40625 18.265625 45.40625 27.984375 
z
M 54.390625 6.78125 
Q 54.390625 -7.171875 48.1875 -13.984375 
Q 42 -20.796875 29.203125 -20.796875 
Q 24.46875 -20.796875 20.265625 -20.09375 
Q 16.0625 -19.390625 12.109375 -17.921875 
L 12.109375 -9.1875 
Q 16.0625 -11.328125 19.921875 -12.34375 
Q 23.78125 -13.375 27.78125 -13.375 
Q 36.625 -13.375 41.015625 -8.765625 
Q 45.40625 -4.15625 45.40625 5.171875 
L 45.40625 9.625 
Q 42.625 4.78125 38.28125 2.390625 
Q 33.9375 0 27.875 0 
Q 17.828125 0 11.671875 7.65625 
Q 5.515625 15.328125 5.515625 27.984375 
Q 5.515625 40.671875 11.671875 48.328125 
Q 17.828125 56 27.875 56 
Q 33.9375 56 38.28125 53.609375 
Q 42.625 51.21875 45.40625 46.390625 
L 45.40625 54.6875 
L 54.390625 54.6875 
z
" id="DejaVuSans-103"/>
      <path d="M 54.890625 33.015625 
L 54.890625 0 
L 45.90625 0 
L 45.90625 32.71875 
Q 45.90625 40.484375 42.875 44.328125 
Q 39.84375 48.1875 33.796875 48.1875 
Q 26.515625 48.1875 22.3125 43.546875 
Q 18.109375 38.921875 18.109375 30.90625 
L 18.109375 0 
L 9.078125 0 
L 9.078125 75.984375 
L 18.109375 75.984375 
L 18.109375 46.1875 
Q 21.34375 51.125 25.703125 53.5625 
Q 30.078125 56 35.796875 56 
Q 45.21875 56 50.046875 50.171875 
Q 54.890625 44.34375 54.890625 33.015625 
z
" id="DejaVuSans-104"/>
     </defs>
     <g transform="translate(-28.237813 330.050625)rotate(-90)scale(0.12 -0.12)">
      <use xlink:href="#DejaVuSans-102"/>
      <use x="35.205078" xlink:href="#DejaVuSans-40"/>
      <use x="74.21875" xlink:href="#DejaVuSans-120"/>
      <use x="133.398438" xlink:href="#DejaVuSans-41"/>
      <use x="172.412109" xlink:href="#DejaVuSans-44"/>
      <use x="204.199219" xlink:href="#DejaVuSans-32"/>
      <use x="235.986328" xlink:href="#DejaVuSans-103"/>
      <use x="299.462891" xlink:href="#DejaVuSans-40"/>
      <use x="338.476562" xlink:href="#DejaVuSans-120"/>
      <use x="397.65625" xlink:href="#DejaVuSans-41"/>
      <use x="436.669922" xlink:href="#DejaVuSans-44"/>
      <use x="468.457031" xlink:href="#DejaVuSans-32"/>
      <use x="500.244141" xlink:href="#DejaVuSans-104"/>
      <use x="563.623047" xlink:href="#DejaVuSans-40"/>
      <use x="602.636719" xlink:href="#DejaVuSans-120"/>
      <use x="661.816406" xlink:href="#DejaVuSans-41"/>
     </g>
    </g>
   </g>
   <g id="line2d_27">
    <path clip-path="url(#pa45d727558)" d="M 266.422082 -1 
L 275.451429 7.816343 
L 284.811429 16.607546 
L 294.171429 25.056906 
L 303.531429 33.175845 
L 312.891429 40.975394 
L 322.251429 48.46621 
L 331.611429 55.658589 
L 340.971429 62.562479 
L 350.331429 69.187491 
L 359.691429 75.542912 
L 369.051429 81.637714 
L 378.411429 87.480569 
L 387.771429 93.079854 
L 397.131429 98.443667 
L 406.491429 103.579832 
L 417.188571 109.180673 
L 427.885714 114.504933 
L 438.582857 119.563082 
L 449.28 124.365192 
L 459.977143 128.920955 
L 470.674286 133.239692 
L 481.371429 137.330375 
L 492.068571 141.201637 
L 504.102857 145.304863 
L 516.137143 149.152252 
L 528.171429 152.754686 
L 540.205714 156.122595 
L 552.24 159.265974 
L 564.274286 162.194403 
L 577.645714 165.207269 
L 591.017143 167.978148 
L 604.388571 170.518547 
L 617.76 172.839453 
L 631.131429 174.951362 
L 645.84 177.045024 
L 660.548571 178.910651 
L 675.257143 180.560356 
L 691.302857 182.127315 
L 707.348571 183.465262 
L 723.394286 184.587705 
L 740.777143 185.575353 
L 758.16 186.340587 
L 776.88 186.932721 
L 795.6 187.301161 
L 815.657143 187.466224 
L 835.714286 187.41219 
L 857.108571 187.133185 
L 879.84 186.608734 
L 903.908571 185.822486 
L 929.314286 184.762708 
L 934.662857 184.512148 
L 934.662857 184.512148 
" style="fill:none;stroke:#ff0000;stroke-linecap:square;stroke-width:1.5;"/>
   </g>
   <g id="line2d_28">
    <path clip-path="url(#pa45d727558)" d="M 55.519312 577 
L 57.497143 556.93476 
L 60.171429 531.229518 
L 62.845714 507.026108 
L 65.52 484.261723 
L 68.194286 462.875246 
L 70.868571 442.807232 
L 73.542857 423.999882 
L 76.217143 406.397024 
L 78.891429 389.94409 
L 81.565714 374.588091 
L 84.24 360.2776 
L 86.914286 346.962726 
L 89.588571 334.595093 
L 92.262857 323.127819 
L 94.937143 312.515491 
L 97.611429 302.714147 
L 100.285714 293.68125 
L 102.96 285.375668 
L 105.634286 277.757652 
L 108.308571 270.788812 
L 110.982857 264.432098 
L 113.657143 258.651774 
L 116.331429 253.413399 
L 119.005714 248.683804 
L 121.68 244.431069 
L 124.354286 240.624503 
L 127.028571 237.234618 
L 129.702857 234.233111 
L 132.377143 231.592841 
L 135.051429 229.287804 
L 137.725714 227.293115 
L 140.4 225.584982 
L 143.074286 224.140687 
L 145.748571 222.938562 
L 148.422857 221.957968 
L 151.097143 221.179272 
L 153.771429 220.583826 
L 156.445714 220.153943 
L 160.457143 219.783168 
L 164.468571 219.694776 
L 168.48 219.840576 
L 172.491429 220.176687 
L 177.84 220.852772 
L 184.525714 221.949232 
L 196.56 224.233491 
L 208.594286 226.443319 
L 216.617143 227.695767 
L 224.64 228.705837 
L 232.662857 229.456059 
L 240.685714 229.957632 
L 248.708571 230.245043 
L 259.405714 230.387603 
L 287.485714 230.590026 
L 295.508571 230.909909 
L 303.531429 231.451091 
L 311.554286 232.244551 
L 319.577143 233.297083 
L 327.6 234.585918 
L 338.297143 236.566509 
L 353.005714 239.314741 
L 359.691429 240.313298 
L 365.04 240.866487 
L 369.051429 241.080391 
L 373.062857 241.075202 
L 377.074286 240.804182 
L 379.748571 240.450743 
L 382.422857 239.940229 
L 385.097143 239.255429 
L 387.771429 238.378176 
L 390.445714 237.289333 
L 393.12 235.968767 
L 395.794286 234.395326 
L 398.468571 232.546821 
L 401.142857 230.4 
L 403.817143 227.930527 
L 406.491429 225.112959 
L 409.165714 221.920728 
L 411.84 218.326114 
L 414.514286 214.300224 
L 417.188571 209.812972 
L 419.862857 204.833054 
L 422.537143 199.32793 
L 425.211429 193.263796 
L 427.885714 186.605568 
L 430.56 179.316855 
L 433.234286 171.359939 
L 435.908571 162.695754 
L 438.582857 153.283862 
L 441.257143 143.082432 
L 443.931429 132.048216 
L 446.605714 120.136531 
L 449.28 107.30123 
L 451.954286 93.494689 
L 454.628571 78.667776 
L 457.302857 62.769835 
L 459.977143 45.74866 
L 462.651429 27.550478 
L 465.325714 8.119918 
L 466.521834 -1 
L 466.521834 -1 
" style="fill:none;stroke:#008000;stroke-linecap:square;stroke-width:1.5;"/>
   </g>
   <g id="line2d_29">
    <path clip-path="url(#pa45d727558)" d="M 0 281.730799 
L 10.697143 280.332856 
L 21.394286 278.717702 
L 32.091429 276.879393 
L 42.788571 274.821006 
L 54.822857 272.261251 
L 68.194286 269.166434 
L 90.925714 263.601342 
L 105.634286 260.122373 
L 114.994286 258.121724 
L 123.017143 256.621755 
L 129.702857 255.570557 
L 136.388571 254.739234 
L 143.074286 254.164194 
L 148.422857 253.912214 
L 153.771429 253.863236 
L 159.12 254.032176 
L 164.468571 254.431727 
L 169.817143 255.071785 
L 175.165714 255.95884 
L 180.514286 257.095361 
L 185.862857 258.479167 
L 191.211429 260.102817 
L 196.56 261.953019 
L 201.908571 264.0101 
L 208.594286 266.831273 
L 216.617143 270.491251 
L 238.011429 280.474302 
L 243.36 282.673566 
L 248.708571 284.602588 
L 252.72 285.82166 
L 256.731429 286.805291 
L 260.742857 287.516896 
L 264.754286 287.92012 
L 267.428571 288 
L 270.102857 287.91677 
L 272.777143 287.660579 
L 275.451429 287.222032 
L 278.125714 286.592287 
L 280.8 285.763152 
L 283.474286 284.72719 
L 286.148571 283.477818 
L 288.822857 282.009422 
L 291.497143 280.317457 
L 294.171429 278.398558 
L 296.845714 276.250647 
L 299.52 273.873042 
L 302.194286 271.266553 
L 304.868571 268.433592 
L 308.88 263.768967 
L 312.891429 258.625857 
L 316.902857 253.035299 
L 320.914286 247.038416 
L 324.925714 240.686766 
L 330.274286 231.775029 
L 338.297143 217.829561 
L 347.657143 201.576604 
L 353.005714 192.798043 
L 357.017143 186.673254 
L 359.691429 182.877726 
L 362.365714 179.355634 
L 365.04 176.143839 
L 367.714286 173.278551 
L 370.388571 170.79492 
L 373.062857 168.726596 
L 375.737143 167.105272 
L 378.411429 165.960208 
L 379.748571 165.57463 
L 381.085714 165.317737 
L 382.422857 165.192279 
L 383.76 165.200763 
L 385.097143 165.345432 
L 386.434286 165.628252 
L 387.771429 166.050897 
L 389.108571 166.614729 
L 390.445714 167.320789 
L 391.782857 168.169776 
L 393.12 169.162038 
L 395.794286 171.575918 
L 398.468571 174.557601 
L 401.142857 178.095755 
L 403.817143 182.172178 
L 406.491429 186.761507 
L 409.165714 191.830973 
L 411.84 197.340257 
L 414.514286 203.24142 
L 418.525714 212.704443 
L 423.874286 226.113637 
L 433.234286 249.967267 
L 437.245714 259.54438 
L 439.92 265.46812 
L 442.594286 270.905376 
L 445.268571 275.756194 
L 447.942857 279.923226 
L 449.28 281.721047 
L 450.617143 283.313497 
L 451.954286 284.689941 
L 453.291429 285.840252 
L 454.628571 286.754874 
L 455.965714 287.424882 
L 457.302857 287.842045 
L 458.64 287.998887 
L 459.977143 287.888748 
L 461.314286 287.505846 
L 462.651429 286.845331 
L 463.988571 285.903349 
L 465.325714 284.677093 
L 466.662857 283.164858 
L 468 281.366091 
L 469.337143 279.281436 
L 470.674286 276.912782 
L 472.011429 274.2633 
L 473.348571 271.337477 
L 476.022857 264.681517 
L 478.697143 257.008144 
L 481.371429 248.402993 
L 484.045714 238.974156 
L 486.72 228.851759 
L 490.731429 212.703922 
L 501.428571 168.438806 
L 504.102857 158.240559 
L 506.777143 148.834548 
L 509.451429 140.440235 
L 512.125714 133.266649 
L 513.462857 130.19865 
L 514.8 127.506491 
L 516.137143 125.210721 
L 517.474286 123.330119 
L 518.811429 121.881507 
L 520.148571 120.879576 
L 521.485714 120.336717 
L 522.822857 120.262854 
L 524.16 120.665297 
L 525.497143 121.548599 
L 526.834286 122.91443 
L 528.171429 124.761472 
L 529.508571 127.085319 
L 530.845714 129.878411 
L 532.182857 133.129975 
L 533.52 136.826001 
L 534.857143 140.949234 
L 537.531429 150.392219 
L 540.205714 161.257432 
L 542.88 173.295623 
L 546.891429 192.902812 
L 554.914286 233.401013 
L 557.588571 245.91422 
L 560.262857 257.320257 
L 562.937143 267.285424 
L 564.274286 271.634809 
L 565.611429 275.519141 
L 566.948571 278.91109 
L 568.285714 281.787673 
L 569.622857 284.130603 
L 570.96 285.926603 
L 572.297143 287.167674 
L 573.634286 287.851319 
L 574.971429 287.980713 
L 576.308571 287.564811 
L 577.645714 286.6184 
L 578.982857 285.162082 
L 580.32 283.222181 
L 581.657143 280.830593 
L 582.994286 278.024541 
L 584.331429 274.846277 
L 587.005714 267.564855 
L 589.68 259.408398 
L 596.365714 238.335475 
L 599.04 230.932864 
L 600.377143 227.686321 
L 601.714286 224.811746 
L 603.051429 222.354684 
L 604.388571 220.354906 
L 605.725714 218.845697 
L 607.062857 217.853222 
L 608.4 217.395981 
L 609.737143 217.484365 
L 611.074286 218.120328 
L 612.411429 219.297195 
L 613.748571 220.999593 
L 615.085714 223.203541 
L 616.422857 225.87668 
L 617.76 228.978663 
L 619.097143 232.461698 
L 621.771429 240.346845 
L 625.782857 253.498223 
L 629.794286 266.528278 
L 632.468571 274.200863 
L 633.805714 277.541289 
L 635.142857 280.479779 
L 636.48 282.972714 
L 637.817143 284.985682 
L 639.154286 286.494351 
L 640.491429 287.485148 
L 641.828571 287.955713 
L 643.165714 287.915113 
L 644.502857 287.383795 
L 645.84 286.393267 
L 647.177143 284.985502 
L 648.514286 283.212082 
L 649.851429 281.133063 
L 652.525714 276.332404 
L 656.537143 268.65948 
L 659.211429 264.125287 
L 660.548571 262.244194 
L 661.885714 260.698857 
L 663.222857 259.536101 
L 664.56 258.791367 
L 665.897143 258.487571 
L 667.234286 258.634303 
L 668.571429 259.227413 
L 669.908571 260.249012 
L 671.245714 261.667906 
L 672.582857 263.44046 
L 673.92 265.5119 
L 676.594286 270.287105 
L 680.605714 277.895932 
L 683.28 282.364331 
L 684.617143 284.209965 
L 685.954286 285.724819 
L 687.291429 286.870414 
L 688.628571 287.622467 
L 689.965714 287.97191 
L 691.302857 287.925329 
L 692.64 287.504789 
L 693.977143 286.747014 
L 695.314286 285.701955 
L 696.651429 284.43076 
L 699.325714 281.49487 
L 702 278.546163 
L 703.337143 277.25501 
L 704.674286 276.174594 
L 706.011429 275.35854 
L 707.348571 274.847043 
L 708.685714 274.664909 
L 710.022857 274.820314 
L 711.36 275.304375 
L 712.697143 276.091572 
L 714.034286 277.141038 
L 716.708571 279.799985 
L 720.72 284.140869 
L 722.057143 285.393118 
L 723.394286 286.442726 
L 724.731429 287.243235 
L 726.068571 287.763469 
L 727.405714 287.989382 
L 728.742857 287.924898 
L 730.08 287.591642 
L 731.417143 287.027556 
L 734.091429 285.424587 
L 738.102857 282.834883 
L 739.44 282.188125 
L 740.777143 281.738514 
L 742.114286 281.518706 
L 743.451429 281.543869 
L 744.788571 281.81064 
L 746.125714 282.297471 
L 747.462857 282.966342 
L 750.137143 284.634987 
L 752.811429 286.322443 
L 754.148571 287.018003 
L 755.485714 287.548049 
L 756.822857 287.880181 
L 758.16 287.999608 
L 759.497143 287.910321 
L 760.834286 287.634617 
L 763.508571 286.690288 
L 766.182857 285.594662 
L 767.52 285.137354 
L 768.857143 284.806998 
L 770.194286 284.637285 
L 771.531429 284.644696 
L 772.868571 284.826972 
L 774.205714 285.163535 
L 776.88 286.141459 
L 779.554286 287.176682 
L 780.891429 287.58372 
L 782.228571 287.862736 
L 783.565714 287.99162 
L 784.902857 287.966446 
L 787.577143 287.528473 
L 792.925714 286.28205 
L 794.262857 286.157267 
L 795.6 286.161285 
L 798.274286 286.530538 
L 803.622857 287.770261 
L 806.297143 287.999974 
L 808.971429 287.802581 
L 814.32 287.001559 
L 816.994286 286.962925 
L 819.668571 287.266502 
L 823.68 287.873079 
L 826.354286 287.997293 
L 829.028571 287.818001 
L 833.04 287.410847 
L 835.714286 287.386539 
L 839.725714 287.756386 
L 842.4 287.973501 
L 845.074286 287.965119 
L 851.76 287.607797 
L 855.771429 287.82999 
L 859.782857 287.999301 
L 869.142857 287.814249 
L 874.491429 287.998425 
L 883.851429 287.912342 
L 887.862857 287.998824 
L 897.222857 287.960671 
L 901.234286 287.989232 
L 907.92 287.953217 
L 913.268571 287.985158 
L 919.954286 287.982393 
L 930.651429 287.991809 
L 934.662857 287.986778 
L 934.662857 287.986778 
" style="fill:none;stroke:#0000ff;stroke-linecap:square;stroke-width:1.5;"/>
   </g>
   <g id="patch_3">
    <path d="M 0 576 
L 0 0 
" style="fill:none;stroke:#000000;stroke-linecap:square;stroke-linejoin:miter;stroke-width:0.8;"/>
   </g>
   <g id="patch_4">
    <path d="M 936 576 
L 936 0 
" style="fill:none;stroke:#000000;stroke-linecap:square;stroke-linejoin:miter;stroke-width:0.8;"/>
   </g>
   <g id="patch_5">
    <path d="M 0 576 
L 936 576 
" style="fill:none;stroke:#000000;stroke-linecap:square;stroke-linejoin:miter;stroke-width:0.8;"/>
   </g>
   <g id="patch_6">
    <path d="M 0 0 
L 936 0 
" style="fill:none;stroke:#000000;stroke-linecap:square;stroke-linejoin:miter;stroke-width:0.8;"/>
   </g>
   <g id="text_16">
    <!-- Графики функции $f(x), g(x), h(x)$ -->
    <defs>
     <path d="M 9.8125 0 
L 9.8125 72.90625 
L 55.171875 72.90625 
L 55.171875 64.59375 
L 19.671875 64.59375 
L 19.671875 0 
z
" id="DejaVuSans-1043"/>
     <path d="M 18.109375 8.203125 
L 18.109375 -20.796875 
L 9.078125 -20.796875 
L 9.078125 54.6875 
L 18.109375 54.6875 
L 18.109375 46.390625 
Q 20.953125 51.265625 25.265625 53.625 
Q 29.59375 56 35.59375 56 
Q 45.5625 56 51.78125 48.09375 
Q 58.015625 40.1875 58.015625 27.296875 
Q 58.015625 14.40625 51.78125 6.484375 
Q 45.5625 -1.421875 35.59375 -1.421875 
Q 29.59375 -1.421875 25.265625 0.953125 
Q 20.953125 3.328125 18.109375 8.203125 
z
M 48.6875 27.296875 
Q 48.6875 37.203125 44.609375 42.84375 
Q 40.53125 48.484375 33.40625 48.484375 
Q 26.265625 48.484375 22.1875 42.84375 
Q 18.109375 37.203125 18.109375 27.296875 
Q 18.109375 17.390625 22.1875 11.75 
Q 26.265625 6.109375 33.40625 6.109375 
Q 40.53125 6.109375 44.609375 11.75 
Q 48.6875 17.390625 48.6875 27.296875 
z
" id="DejaVuSans-1088"/>
     <path d="M 34.28125 27.484375 
Q 23.390625 27.484375 19.1875 25 
Q 14.984375 22.515625 14.984375 16.5 
Q 14.984375 11.71875 18.140625 8.90625 
Q 21.296875 6.109375 26.703125 6.109375 
Q 34.1875 6.109375 38.703125 11.40625 
Q 43.21875 16.703125 43.21875 25.484375 
L 43.21875 27.484375 
z
M 52.203125 31.203125 
L 52.203125 0 
L 43.21875 0 
L 43.21875 8.296875 
Q 40.140625 3.328125 35.546875 0.953125 
Q 30.953125 -1.421875 24.3125 -1.421875 
Q 15.921875 -1.421875 10.953125 3.296875 
Q 6 8.015625 6 15.921875 
Q 6 25.140625 12.171875 29.828125 
Q 18.359375 34.515625 30.609375 34.515625 
L 43.21875 34.515625 
L 43.21875 35.40625 
Q 43.21875 41.609375 39.140625 45 
Q 35.0625 48.390625 27.6875 48.390625 
Q 23 48.390625 18.546875 47.265625 
Q 14.109375 46.140625 10.015625 43.890625 
L 10.015625 52.203125 
Q 14.9375 54.109375 19.578125 55.046875 
Q 24.21875 56 28.609375 56 
Q 40.484375 56 46.34375 49.84375 
Q 52.203125 43.703125 52.203125 31.203125 
z
" id="DejaVuSans-1072"/>
     <path d="M 14.796875 27.296875 
Q 14.796875 15.828125 18.328125 10.96875 
Q 21.875 6.109375 27.875 6.109375 
Q 32.671875 6.109375 38.234375 14.3125 
L 38.234375 40.28125 
Q 32.671875 48.484375 27.875 48.484375 
Q 21.875 48.484375 18.328125 43.625 
Q 14.796875 38.765625 14.796875 27.296875 
z
M 38.234375 -20.796875 
L 38.234375 6.984375 
Q 35.453125 2.390625 32.25 0.484375 
Q 29.046875 -1.421875 25 -1.421875 
Q 16.84375 -1.421875 11.15625 6.125 
Q 5.46875 13.671875 5.46875 27.09375 
Q 5.46875 40.53125 11.15625 48.265625 
Q 16.84375 56 25 56 
Q 29.046875 56 32.25 54.140625 
Q 35.453125 52.296875 38.234375 47.703125 
L 38.234375 72.90625 
L 47.265625 72.90625 
L 47.265625 47.703125 
Q 50.046875 52.296875 53.25 54.140625 
Q 56.453125 56 60.5 56 
Q 68.65625 56 74.34375 48.265625 
Q 80.03125 40.53125 80.03125 27.09375 
Q 80.03125 13.671875 74.34375 6.125 
Q 68.65625 -1.421875 60.5 -1.421875 
Q 56.453125 -1.421875 53.25 0.484375 
Q 50.046875 2.390625 47.265625 6.984375 
L 47.265625 -20.796875 
z
M 70.703125 27.296875 
Q 70.703125 38.765625 67.15625 43.625 
Q 63.625 48.484375 57.625 48.484375 
Q 52.828125 48.484375 47.265625 40.28125 
L 47.265625 14.3125 
Q 52.828125 6.109375 57.625 6.109375 
Q 63.625 6.109375 67.15625 10.96875 
Q 70.703125 15.828125 70.703125 27.296875 
z
" id="DejaVuSans-1092"/>
     <path d="M 55.90625 54.6875 
L 55.90625 0 
L 46.96875 0 
L 46.96875 43.890625 
L 20.609375 0 
L 9.078125 0 
L 9.078125 54.6875 
L 18.015625 54.6875 
L 18.015625 10.890625 
L 44.34375 54.6875 
z
" id="DejaVuSans-1080"/>
     <path d="M 9.078125 54.6875 
L 18.015625 54.6875 
L 18.015625 29 
L 43.359375 54.6875 
L 54.390625 54.6875 
L 33.5 33.546875 
L 57.078125 0 
L 47.015625 0 
L 27.640625 27.59375 
L 18.015625 17.828125 
L 18.015625 0 
L 9.078125 0 
z
" id="DejaVuSans-1082"/>
     <path d="M 32.171875 -5.078125 
Q 28.375 -14.84375 24.75 -17.8125 
Q 21.140625 -20.796875 15.09375 -20.796875 
L 7.90625 -20.796875 
L 7.90625 -13.28125 
L 13.1875 -13.28125 
Q 16.890625 -13.28125 18.9375 -11.515625 
Q 21 -9.765625 23.484375 -3.21875 
L 25.09375 0.875 
L 2.984375 54.6875 
L 12.5 54.6875 
L 29.59375 11.921875 
L 46.6875 54.6875 
L 56.203125 54.6875 
z
" id="DejaVuSans-1091"/>
     <path d="M 9.078125 54.6875 
L 18.109375 54.6875 
L 18.109375 32.375 
L 47.265625 32.375 
L 47.265625 54.6875 
L 56.296875 54.6875 
L 56.296875 0 
L 47.265625 0 
L 47.265625 25.203125 
L 18.109375 25.203125 
L 18.109375 0 
L 9.078125 0 
z
" id="DejaVuSans-1085"/>
     <path d="M 56.296875 0 
L 9.078125 0 
L 9.078125 54.6875 
L 18.109375 54.6875 
L 18.109375 7.171875 
L 47.265625 7.171875 
L 47.265625 54.6875 
L 56.296875 54.6875 
L 56.296875 7.171875 
L 63.484375 7.171875 
L 63.484375 -13.8125 
L 56.296875 -13.8125 
z
" id="DejaVuSans-1094"/>
     <path d="M 47.796875 75.984375 
L 46.390625 68.5 
L 37.796875 68.5 
Q 32.90625 68.5 30.6875 66.578125 
Q 28.46875 64.65625 27.390625 59.515625 
L 26.421875 54.6875 
L 41.21875 54.6875 
L 39.890625 47.703125 
L 25.09375 47.703125 
L 15.828125 0 
L 6.78125 0 
L 16.109375 47.703125 
L 7.515625 47.703125 
L 8.796875 54.6875 
L 17.390625 54.6875 
L 18.109375 58.5 
Q 19.96875 68.171875 24.625 72.078125 
Q 29.296875 75.984375 39.3125 75.984375 
z
" id="DejaVuSans-Oblique-102"/>
     <path d="M 60.015625 54.6875 
L 34.90625 27.875 
L 50.296875 0 
L 39.984375 0 
L 28.421875 21.6875 
L 8.296875 0 
L -2.59375 0 
L 24.3125 28.8125 
L 10.015625 54.6875 
L 20.3125 54.6875 
L 30.8125 34.90625 
L 49.125 54.6875 
z
" id="DejaVuSans-Oblique-120"/>
     <path d="M 59.625 54.6875 
L 50.296875 6.78125 
Q 47.609375 -7.125 40.015625 -13.953125 
Q 32.421875 -20.796875 19.578125 -20.796875 
Q 14.84375 -20.796875 10.78125 -20.09375 
Q 6.734375 -19.390625 3.21875 -17.921875 
L 4.890625 -9.1875 
Q 8.203125 -11.328125 11.90625 -12.34375 
Q 15.625 -13.375 19.828125 -13.375 
Q 28.375 -13.375 33.859375 -8.703125 
Q 39.359375 -4.046875 41.109375 4.6875 
L 41.890625 8.796875 
Q 38.140625 4.5 33.15625 2.25 
Q 28.171875 0 22.40625 0 
Q 14.109375 0 9.34375 5.484375 
Q 4.59375 10.984375 4.59375 20.609375 
Q 4.59375 28.171875 7.46875 35.421875 
Q 10.359375 42.671875 15.578125 48.296875 
Q 19.046875 52 23.65625 54 
Q 28.265625 56 33.296875 56 
Q 38.8125 56 42.90625 53.4375 
Q 47.015625 50.875 49.03125 46.1875 
L 50.59375 54.6875 
z
M 46.09375 34.625 
Q 46.09375 41.265625 42.96875 44.875 
Q 39.84375 48.484375 34.078125 48.484375 
Q 30.515625 48.484375 27.296875 47.0625 
Q 24.078125 45.65625 21.78125 43.109375 
Q 18.0625 38.921875 15.984375 33.234375 
Q 13.921875 27.546875 13.921875 21.484375 
Q 13.921875 14.75 17.0625 11.125 
Q 20.21875 7.515625 26.125 7.515625 
Q 34.671875 7.515625 40.375 15.25 
Q 46.09375 23 46.09375 34.625 
z
" id="DejaVuSans-Oblique-103"/>
     <path d="M 55.71875 33.015625 
L 49.3125 0 
L 40.28125 0 
L 46.6875 32.671875 
Q 47.125 34.96875 47.359375 36.71875 
Q 47.609375 38.484375 47.609375 39.5 
Q 47.609375 43.609375 45.015625 45.890625 
Q 42.4375 48.1875 37.796875 48.1875 
Q 30.5625 48.1875 25.265625 43.296875 
Q 19.96875 38.421875 18.40625 30.328125 
L 12.5 0 
L 3.515625 0 
L 18.3125 75.984375 
L 27.296875 75.984375 
L 21.484375 46.09375 
Q 24.90625 50.6875 30.21875 53.34375 
Q 35.546875 56 41.40625 56 
Q 48.640625 56 52.609375 52.09375 
Q 56.59375 48.1875 56.59375 41.109375 
Q 56.59375 39.359375 56.375 37.359375 
Q 56.15625 35.359375 55.71875 33.015625 
z
" id="DejaVuSans-Oblique-104"/>
    </defs>
    <g transform="translate(367.8 -6)scale(0.12 -0.12)">
     <use transform="translate(0 0.015625)" xlink:href="#DejaVuSans-1043"/>
     <use transform="translate(60.986328 0.015625)" xlink:href="#DejaVuSans-1088"/>
     <use transform="translate(124.462891 0.015625)" xlink:href="#DejaVuSans-1072"/>
     <use transform="translate(185.742188 0.015625)" xlink:href="#DejaVuSans-1092"/>
     <use transform="translate(271.240234 0.015625)" xlink:href="#DejaVuSans-1080"/>
     <use transform="translate(336.230469 0.015625)" xlink:href="#DejaVuSans-1082"/>
     <use transform="translate(396.630859 0.015625)" xlink:href="#DejaVuSans-1080"/>
     <use transform="translate(461.621094 0.015625)" xlink:href="#DejaVuSans-32"/>
     <use transform="translate(493.408203 0.015625)" xlink:href="#DejaVuSans-1092"/>
     <use transform="translate(578.90625 0.015625)" xlink:href="#DejaVuSans-1091"/>
     <use transform="translate(638.085938 0.015625)" xlink:href="#DejaVuSans-1085"/>
     <use transform="translate(703.466797 0.015625)" xlink:href="#DejaVuSans-1082"/>
     <use transform="translate(763.867188 0.015625)" xlink:href="#DejaVuSans-1094"/>
     <use transform="translate(831.933594 0.015625)" xlink:href="#DejaVuSans-1080"/>
     <use transform="translate(896.923828 0.015625)" xlink:href="#DejaVuSans-1080"/>
     <use transform="translate(961.914062 0.015625)" xlink:href="#DejaVuSans-32"/>
     <use transform="translate(993.701172 0.015625)" xlink:href="#DejaVuSans-Oblique-102"/>
     <use transform="translate(1028.90625 0.015625)" xlink:href="#DejaVuSans-40"/>
     <use transform="translate(1067.919922 0.015625)" xlink:href="#DejaVuSans-Oblique-120"/>
     <use transform="translate(1127.099609 0.015625)" xlink:href="#DejaVuSans-41"/>
     <use transform="translate(1166.113281 0.015625)" xlink:href="#DejaVuSans-44"/>
     <use transform="translate(1217.382812 0.015625)" xlink:href="#DejaVuSans-Oblique-103"/>
     <use transform="translate(1280.859375 0.015625)" xlink:href="#DejaVuSans-40"/>
     <use transform="translate(1319.873047 0.015625)" xlink:href="#DejaVuSans-Oblique-120"/>
     <use transform="translate(1379.052734 0.015625)" xlink:href="#DejaVuSans-41"/>
     <use transform="translate(1418.066406 0.015625)" xlink:href="#DejaVuSans-44"/>
     <use transform="translate(1469.335938 0.015625)" xlink:href="#DejaVuSans-Oblique-104"/>
     <use transform="translate(1532.714844 0.015625)" xlink:href="#DejaVuSans-40"/>
     <use transform="translate(1571.728516 0.015625)" xlink:href="#DejaVuSans-Oblique-120"/>
     <use transform="translate(1630.908203 0.015625)" xlink:href="#DejaVuSans-41"/>
    </g>
   </g>
   <g id="legend_1">
    <g id="patch_7">
     <path d="M 810.24 570 
L 927.6 570 
Q 930 570 930 567.6 
L 930 515.88 
Q 930 513.48 927.6 513.48 
L 810.24 513.48 
Q 807.84 513.48 807.84 515.88 
L 807.84 567.6 
Q 807.84 570 810.24 570 
z
" style="fill:#ffffff;opacity:0.8;stroke:#cccccc;stroke-linejoin:miter;"/>
    </g>
    <g id="line2d_30">
     <path d="M 812.64 523.2 
L 836.64 523.2 
" style="fill:none;stroke:#ff0000;stroke-linecap:square;stroke-width:1.5;"/>
    </g>
    <g id="line2d_31"/>
    <g id="text_17">
     <!-- Функция $f(x$ -->
     <defs>
      <path d="M 38.140625 57.90625 
Q 27.546875 56.9375 21.921875 51.953125 
Q 16.3125 46.96875 16.3125 37.359375 
Q 16.3125 27.734375 21.921875 22.78125 
Q 27.546875 17.828125 38.140625 16.84375 
z
M 48.046875 16.84375 
Q 58.640625 17.828125 64.203125 22.78125 
Q 69.78125 27.734375 69.78125 37.359375 
Q 69.78125 46.96875 64.203125 51.953125 
Q 58.640625 56.9375 48.046875 57.90625 
z
M 38.140625 8.6875 
Q 22.65625 9.8125 14.28125 17.109375 
Q 5.90625 24.421875 5.90625 37.359375 
Q 5.90625 50.296875 14.28125 57.640625 
Q 22.65625 64.984375 38.140625 66.109375 
L 38.140625 72.90625 
L 48.046875 72.90625 
L 48.046875 66.109375 
Q 63.53125 64.984375 71.84375 57.6875 
Q 80.171875 50.390625 80.171875 37.359375 
Q 80.171875 24.421875 71.84375 17.109375 
Q 63.53125 9.8125 48.046875 8.6875 
L 48.046875 0 
L 38.140625 0 
z
" id="DejaVuSans-1060"/>
      <path d="M 18.453125 38.921875 
Q 18.453125 34.859375 21.578125 32.5625 
Q 24.703125 30.28125 30.515625 30.28125 
L 42.625 30.28125 
L 42.625 47.515625 
L 30.515625 47.515625 
Q 24.703125 47.515625 21.578125 45.265625 
Q 18.453125 43.015625 18.453125 38.921875 
z
M 5.671875 0 
L 22.359375 23.96875 
Q 16.703125 25.25 12.9375 28.59375 
Q 9.1875 31.9375 9.1875 38.921875 
Q 9.1875 46.828125 14.421875 50.75 
Q 19.671875 54.6875 30.28125 54.6875 
L 51.65625 54.6875 
L 51.65625 0 
L 42.625 0 
L 42.625 23.09375 
L 31.453125 23.09375 
L 15.328125 0 
z
" id="DejaVuSans-1103"/>
     </defs>
     <g transform="translate(846.24 527.4)scale(0.12 -0.12)">
      <use transform="translate(0 0.015625)" xlink:href="#DejaVuSans-1060"/>
      <use transform="translate(86.083984 0.015625)" xlink:href="#DejaVuSans-1091"/>
      <use transform="translate(145.263672 0.015625)" xlink:href="#DejaVuSans-1085"/>
      <use transform="translate(210.644531 0.015625)" xlink:href="#DejaVuSans-1082"/>
      <use transform="translate(271.044922 0.015625)" xlink:href="#DejaVuSans-1094"/>
      <use transform="translate(339.111328 0.015625)" xlink:href="#DejaVuSans-1080"/>
      <use transform="translate(404.101562 0.015625)" xlink:href="#DejaVuSans-1103"/>
      <use transform="translate(464.257812 0.015625)" xlink:href="#DejaVuSans-32"/>
      <use transform="translate(496.044922 0.015625)" xlink:href="#DejaVuSans-Oblique-102"/>
      <use transform="translate(531.25 0.015625)" xlink:href="#DejaVuSans-40"/>
      <use transform="translate(570.263672 0.015625)" xlink:href="#DejaVuSans-Oblique-120"/>
     </g>
    </g>
    <g id="line2d_32">
     <path d="M 812.64 540.84 
L 836.64 540.84 
" style="fill:none;stroke:#008000;stroke-linecap:square;stroke-width:1.5;"/>
    </g>
    <g id="line2d_33"/>
    <g id="text_18">
     <!-- Функция $g(x$ -->
     <g transform="translate(846.24 545.04)scale(0.12 -0.12)">
      <use transform="translate(0 0.125)" xlink:href="#DejaVuSans-1060"/>
      <use transform="translate(86.083984 0.125)" xlink:href="#DejaVuSans-1091"/>
      <use transform="translate(145.263672 0.125)" xlink:href="#DejaVuSans-1085"/>
      <use transform="translate(210.644531 0.125)" xlink:href="#DejaVuSans-1082"/>
      <use transform="translate(271.044922 0.125)" xlink:href="#DejaVuSans-1094"/>
      <use transform="translate(339.111328 0.125)" xlink:href="#DejaVuSans-1080"/>
      <use transform="translate(404.101562 0.125)" xlink:href="#DejaVuSans-1103"/>
      <use transform="translate(464.257812 0.125)" xlink:href="#DejaVuSans-32"/>
      <use transform="translate(496.044922 0.125)" xlink:href="#DejaVuSans-Oblique-103"/>
      <use transform="translate(559.521484 0.125)" xlink:href="#DejaVuSans-40"/>
      <use transform="translate(598.535156 0.125)" xlink:href="#DejaVuSans-Oblique-120"/>
     </g>
    </g>
    <g id="line2d_34">
     <path d="M 812.64 558.48 
L 836.64 558.48 
" style="fill:none;stroke:#0000ff;stroke-linecap:square;stroke-width:1.5;"/>
    </g>
    <g id="line2d_35"/>
    <g id="text_19">
     <!-- Функция $h(x$ -->
     <g transform="translate(846.24 562.68)scale(0.12 -0.12)">
      <use transform="translate(0 0.015625)" xlink:href="#DejaVuSans-1060"/>
      <use transform="translate(86.083984 0.015625)" xlink:href="#DejaVuSans-1091"/>
      <use transform="translate(145.263672 0.015625)" xlink:href="#DejaVuSans-1085"/>
      <use transform="translate(210.644531 0.015625)" xlink:href="#DejaVuSans-1082"/>
      <use transform="translate(271.044922 0.015625)" xlink:href="#DejaVuSans-1094"/>
      <use transform="translate(339.111328 0.015625)" xlink:href="#DejaVuSans-1080"/>
      <use transform="translate(404.101562 0.015625)" xlink:href="#DejaVuSans-1103"/>
      <use transform="translate(464.257812 0.015625)" xlink:href="#DejaVuSans-32"/>
      <use transform="translate(496.044922 0.015625)" xlink:href="#DejaVuSans-Oblique-104"/>
      <use transform="translate(559.423828 0.015625)" xlink:href="#DejaVuSans-40"/>
      <use transform="translate(598.4375 0.015625)" xlink:href="#DejaVuSans-Oblique-120"/>
     </g>
    </g>
   </g>
  </g>
 </g>
 <defs>
  <clipPath id="pa45d727558">
   <rect height="576" width="936" x="0" y="0"/>
  </clipPath>
 </defs>
</svg>
